<svg width="25" height="25" viewBox="0 0 25 25" fill="none" xmlns="http://www.w3.org/2000/svg">
<path d="M5.06859 18.6625C6.09567 17.8771 7.24359 17.2578 8.51234 16.8047C9.78109 16.3516 11.1103 16.125 12.4998 16.125C13.8894 16.125 15.2186 16.3516 16.4873 16.8047C17.7561 17.2578 18.904 17.8771 19.9311 18.6625C20.6359 17.8368 21.1847 16.9004 21.5774 15.8531C21.9701 14.8059 22.1665 13.6882 22.1665 12.5C22.1665 9.82155 21.225 7.54082 19.342 5.65783C17.459 3.77485 15.1783 2.83335 12.4998 2.83335C9.82136 2.83335 7.54064 3.77485 5.65765 5.65783C3.77466 7.54082 2.83317 9.82155 2.83317 12.5C2.83317 13.6882 3.02952 14.8059 3.42223 15.8531C3.81494 16.9004 4.36373 17.8368 5.06859 18.6625ZM12.4998 13.7084C11.3116 13.7084 10.3097 13.3005 9.49411 12.4849C8.67848 11.6693 8.27067 10.6674 8.27067 9.47919C8.27067 8.29099 8.67848 7.28908 9.49411 6.47346C10.3097 5.65783 11.3116 5.25002 12.4998 5.25002C13.688 5.25002 14.6899 5.65783 15.5056 6.47346C16.3212 7.28908 16.729 8.29099 16.729 9.47919C16.729 10.6674 16.3212 11.6693 15.5056 12.4849C14.6899 13.3005 13.688 13.7084 12.4998 13.7084ZM12.4998 24.5834C10.8283 24.5834 9.25748 24.2662 7.78734 23.6318C6.3172 22.9974 5.03838 22.1365 3.95088 21.049C2.86338 19.9615 2.00244 18.6827 1.36807 17.2125C0.733691 15.7424 0.416504 14.1715 0.416504 12.5C0.416504 10.8285 0.733691 9.25766 1.36807 7.78752C2.00244 6.31738 2.86338 5.03856 3.95088 3.95106C5.03838 2.86356 6.3172 2.00262 7.78734 1.36825C9.25748 0.733874 10.8283 0.416687 12.4998 0.416687C14.1714 0.416687 15.7422 0.733874 17.2123 1.36825C18.6825 2.00262 19.9613 2.86356 21.0488 3.95106C22.1363 5.03856 22.9972 6.31738 23.6316 7.78752C24.266 9.25766 24.5832 10.8285 24.5832 12.5C24.5832 14.1715 24.266 15.7424 23.6316 17.2125C22.9972 18.6827 22.1363 19.9615 21.0488 21.049C19.9613 22.1365 18.6825 22.9974 17.2123 23.6318C15.7422 24.2662 14.1714 24.5834 12.4998 24.5834ZM12.4998 22.1667C13.5672 22.1667 14.5741 22.0106 15.5207 21.6985C16.4672 21.3863 17.3332 20.9382 18.1186 20.3542C17.3332 19.7702 16.4672 19.3221 15.5207 19.0099C14.5741 18.6978 13.5672 18.5417 12.4998 18.5417C11.4325 18.5417 10.4255 18.6978 9.479 19.0099C8.53248 19.3221 7.6665 19.7702 6.88109 20.3542C7.6665 20.9382 8.53248 21.3863 9.479 21.6985C10.4255 22.0106 11.4325 22.1667 12.4998 22.1667ZM12.4998 11.2917C13.0234 11.2917 13.4564 11.1205 13.7988 10.7781C14.1412 10.4358 14.3123 10.0028 14.3123 9.47919C14.3123 8.95557 14.1412 8.52259 13.7988 8.18023C13.4564 7.83787 13.0234 7.66669 12.4998 7.66669C11.9762 7.66669 11.5432 7.83787 11.2009 8.18023C10.8585 8.52259 10.6873 8.95557 10.6873 9.47919C10.6873 10.0028 10.8585 10.4358 11.2009 10.7781C11.5432 11.1205 11.9762 11.2917 12.4998 11.2917Z" fill="#D0D3D6"/>
</svg>
