<svg width="37" height="16" viewBox="0 0 37 16" fill="none" xmlns="http://www.w3.org/2000/svg">
<path d="M6.9929 2.02421C7.42854 1.47929 7.72413 0.747697 7.64611 0C7.00841 0.031709 6.23026 0.420765 5.77972 0.966082C5.37519 1.43307 5.01718 2.19538 5.11051 2.91166C5.82643 2.97369 6.54156 2.55382 6.9929 2.02421ZM7.63796 3.05152C6.59841 2.9896 5.71452 3.64157 5.21815 3.64157C4.72149 3.64157 3.96123 3.08274 3.13896 3.09774C2.0688 3.11345 1.07577 3.71861 0.532688 4.68111C-0.584285 6.60651 0.23789 9.46252 1.32415 11.0307C1.85163 11.8065 2.48734 12.6607 3.32502 12.63C4.11648 12.599 4.42669 12.1175 5.38871 12.1175C6.35003 12.1175 6.62943 12.63 7.4673 12.6145C8.33609 12.599 8.87927 11.8383 9.40675 11.0618C10.0119 10.1774 10.2596 9.32345 10.2752 9.27664C10.2596 9.26113 8.59988 8.62436 8.58458 6.71496C8.56887 5.11619 9.88761 4.35577 9.94973 4.30855C9.20498 3.20689 8.0414 3.08264 7.63796 3.05152ZM16.6895 0.887854C18.949 0.887854 20.5223 2.44547 20.5223 4.71322C20.5223 6.98901 18.9166 8.55468 16.6329 8.55468H14.1313V12.5333H12.3238V0.887854H16.6895ZM14.1313 7.03742H16.2052C17.7789 7.03742 18.6744 6.19012 18.6744 4.72127C18.6744 3.25251 17.7788 2.41317 16.2132 2.41317H14.1313V7.03742ZM20.9946 10.1204C20.9946 8.63529 22.1325 7.72339 24.15 7.61037L26.4739 7.4732V6.81953C26.4739 5.87522 25.8364 5.31032 24.7714 5.31032C23.7625 5.31032 23.1331 5.7944 22.9799 6.55314H21.3338C21.4306 5.01967 22.7378 3.88987 24.8359 3.88987C26.8937 3.88987 28.2089 4.97941 28.2089 6.68216V12.5331H26.5384V11.1369H26.4983C26.0061 12.0812 24.9328 12.6783 23.8193 12.6783C22.1567 12.6785 20.9946 11.6456 20.9946 10.1204ZM26.4738 9.35367V8.6838L24.3837 8.81283C23.3427 8.88549 22.7537 9.34552 22.7537 10.0718C22.7537 10.8142 23.3669 11.2985 24.303 11.2985C25.5216 11.2986 26.4738 10.4592 26.4738 9.35367ZM29.7858 15.6566V14.2442C29.9147 14.2764 30.2051 14.2764 30.3505 14.2764C31.1574 14.2764 31.5932 13.9376 31.8594 13.066C31.8594 13.0498 32.0129 12.5495 32.0129 12.5415L28.9465 4.04335H30.8346L32.9814 10.9516H33.0135L35.1602 4.04335H37L33.8203 12.9771C33.0944 15.0352 32.2551 15.697 30.496 15.697C30.3505 15.6969 29.9147 15.6808 29.7858 15.6566Z" fill="black"/>
</svg>
