<svg width="23" height="13" viewBox="0 0 23 13" fill="none" xmlns="http://www.w3.org/2000/svg">
<g clip-path="url(#clip0_1779_1376)">
<path d="M21.0811 9.3501L21.0811 10.7555L5.62159 10.7555L5.62159 9.3501L21.0811 9.3501Z" fill="#A2A8AE"/>
<path d="M18.288 7.23567C18.5615 6.95942 19.0063 6.9574 19.2824 7.23071L22.0981 10.0183L19.2824 12.8053C19.0063 13.0786 18.5615 13.0758 18.288 12.8003C18.0147 12.5243 18.0175 12.0794 18.293 11.8068L20.0997 10.019L18.293 8.2307C18.0168 7.95586 18.0147 7.51118 18.288 7.23567ZM4.21646 9.35015L4.21646 10.7556L2.81106 10.7556L2.81106 9.35015L4.21646 9.35015ZM1.40565 9.35015L1.40565 10.7556L0.000247792 10.7556L0.000247854 9.35015L1.40565 9.35015Z" fill="#A2A8AE"/>
<path d="M16.8647 2.32306L16.8647 3.72846L1.40528 3.72846L1.40528 2.32306L16.8647 2.32306Z" fill="#A2A8AE"/>
<path d="M0.406792 2.99026L3.22239 0.202553C3.49789 -0.0700513 3.94275 -0.0679871 4.21606 0.208219C4.48936 0.484425 4.4866 0.92928 4.21109 1.20188L2.40458 2.99022L4.21109 4.77785C4.4866 5.05199 4.48936 5.49685 4.21606 5.77218C3.94275 6.04843 3.49789 6.05045 3.22173 5.77718L0.406792 2.99026ZM19.6755 2.32274L19.6755 3.72815L18.2701 3.72815L18.2701 2.32274L19.6755 2.32274ZM22.4863 2.32274L22.4863 3.72815L21.0809 3.72815L21.0809 2.32274L22.4863 2.32274Z" fill="#A2A8AE"/>
</g>
<defs>
<clipPath id="clip0_1779_1376">
<rect width="13" height="22.4865" fill="white" transform="translate(22.4863) rotate(90)"/>
</clipPath>
</defs>
</svg>
