<svg width="18" height="17" viewBox="0 0 18 17" fill="none" xmlns="http://www.w3.org/2000/svg">
<g id="Group">
<path id="Vector" d="M16.5186 7.30135C17.1797 7.30135 17.7173 6.76375 17.7173 6.10269V5.26183C17.7173 4.82012 17.4757 4.41557 17.0862 4.20641L9.61074 0.181307C9.5235 0.134409 9.426 0.109863 9.32695 0.109863C9.22791 0.109863 9.13041 0.134409 9.04317 0.181307L1.56713 4.20641C1.37634 4.30883 1.21689 4.46107 1.10576 4.64692C0.994624 4.83277 0.935969 5.04528 0.936035 5.26183V6.10269C0.936035 6.76375 1.47363 7.30135 2.1347 7.30135H2.73403V13.2946H2.1347C1.47363 13.2946 0.936035 13.8322 0.936035 14.4933V15.692C0.936035 16.353 1.47363 16.8906 2.1347 16.8906H16.5186C17.1797 16.8906 17.7173 16.353 17.7173 15.692V14.4933C17.7173 13.8322 17.1797 13.2946 16.5186 13.2946H15.9193V7.30135H16.5186ZM2.1347 5.26183L9.32665 1.38956L16.5186 5.26183V6.10269H2.1347V5.26183ZM9.92598 13.2946V7.30135H11.724V13.2946H9.92598ZM6.92933 13.2946V7.30135H8.72732V13.2946H6.92933ZM3.93268 7.30135H5.73067V13.2946H3.93268V7.30135ZM16.5192 15.692H2.1347V14.4933H16.5186L16.5192 15.692ZM14.7212 13.2946H12.9232V7.30135H14.7212V13.2946Z" fill="#E0AD25"/>
</g>
</svg>
