<svg width="33" height="33" viewBox="0 0 33 33" fill="none" xmlns="http://www.w3.org/2000/svg">
<path d="M1.08101 8.10968C1.08101 4.32386 4.15003 1.25484 7.93585 1.25484H24.7171C28.5029 1.25484 31.5719 4.32386 31.5719 8.10968V24.8904C31.5719 28.6763 28.5029 31.7453 24.7171 31.7453H7.93585C4.15003 31.7453 1.08101 28.6763 1.08101 24.8904V8.10968Z" fill="white"/>
<path d="M1.08101 8.10968C1.08101 4.32386 4.15003 1.25484 7.93585 1.25484H24.7171C28.5029 1.25484 31.5719 4.32386 31.5719 8.10968V24.8904C31.5719 28.6763 28.5029 31.7453 24.7171 31.7453H7.93585C4.15003 31.7453 1.08101 28.6763 1.08101 24.8904V8.10968Z" stroke="#EDEDED" stroke-width="0.913978"/>
<path d="M23.5186 15.3013C24.1797 15.3013 24.7173 14.7637 24.7173 14.1027V13.2618C24.7173 12.8201 24.4757 12.4156 24.0862 12.2064L16.6107 8.18131C16.5235 8.13441 16.426 8.10986 16.327 8.10986C16.2279 8.10986 16.1304 8.13441 16.0432 8.18131L8.56713 12.2064C8.37634 12.3088 8.21689 12.4611 8.10576 12.6469C7.99462 12.8328 7.93597 13.0453 7.93604 13.2618V14.1027C7.93604 14.7637 8.47363 15.3013 9.1347 15.3013H9.73403V21.2946H9.1347C8.47363 21.2946 7.93604 21.8322 7.93604 22.4933V23.692C7.93604 24.353 8.47363 24.8906 9.1347 24.8906H23.5186C24.1797 24.8906 24.7173 24.353 24.7173 23.692V22.4933C24.7173 21.8322 24.1797 21.2946 23.5186 21.2946H22.9193V15.3013H23.5186ZM9.1347 13.2618L16.3267 9.38956L23.5186 13.2618V14.1027H9.1347V13.2618ZM16.926 21.2946V15.3013H18.724V21.2946H16.926ZM13.9293 21.2946V15.3013H15.7273V21.2946H13.9293ZM10.9327 15.3013H12.7307V21.2946H10.9327V15.3013ZM23.5192 23.692H9.1347V22.4933H23.5186L23.5192 23.692ZM21.7212 21.2946H19.9232V15.3013H21.7212V21.2946Z" fill="#E0AD25"/>
</svg>
