<svg width="36" height="24" viewBox="0 0 36 24" fill="none" xmlns="http://www.w3.org/2000/svg">
<mask id="mask0_5354_5724" style="mask-type:alpha" maskUnits="userSpaceOnUse" x="0" y="0" width="36" height="24">
<rect width="36" height="24" fill="#8B9299"/>
</mask>
<g mask="url(#mask0_5354_5724)">
<path d="M32.1761 19.5088L23.1615 4.11784L5.05609 4.11039L4.45302 3H1.26709V4.03107L1.8567 4.37372L1.26709 4.67451V19.5073H3.31573C3.32021 19.1526 3.39653 18.8384 3.48183 18.5047C3.87838 16.9708 5.45863 16.489 6.23378 16.489C7.15858 16.489 8.12828 16.7029 8.86004 17.7923C9.16681 18.2488 9.34488 18.9745 9.35985 19.5073H25.3927C25.4391 18.8833 25.6232 18.1994 26.0018 17.701C26.756 16.7104 27.579 16.3842 28.7672 16.4845C29.2071 16.5219 30.0242 16.661 30.7425 17.3913C31.57 18.2338 31.6119 19.4145 31.585 19.5073H32.1761V19.5088Z" fill="#8B9299"/>
<path d="M3.60253 14.4853H1.26807V14.0933H23.2553V14.4853H9.36082" fill="white"/>
<path d="M32.1753 19.509C33.1075 19.509 34.6758 19.509 34.6758 19.509C35.1068 18.3747 35.0005 15.9818 35.0005 15.9818C34.9631 15.7783 34.7731 15.5135 34.7731 15.5135L34.6878 15.4581L34.6444 15.4297C34.8509 14.252 34.0683 13.9407 33.8169 13.7028C33.8034 13.6893 33.7839 13.6848 33.769 13.6743C33.5325 13.5097 33.6268 13.5756 33.6223 13.5726C33.112 13.2104 32.2426 12.7555 31.7548 12.5415C31.5198 12.4383 31.3507 12.2901 31.1846 12.0941L30.3212 11.1887C29.4323 10.1921 28.1738 8.95005 28.1738 8.95005C28.7724 8.79742 28.6646 8.67473 28.6646 8.67473C28.1888 6.2056 27.8206 6.12928 27.8206 6.12928C26.7163 5.11769 25.1061 4.42781 25.1061 4.42781C24.8532 4.32755 23.6919 4.17491 23.2939 4.12702C23.2071 4.11655 23.1577 4.11953 23.1577 4.11953" fill="#8B9299"/>
<path d="M6.35751 20.9499C7.15174 20.9499 7.79559 20.3061 7.79559 19.5118C7.79559 18.7176 7.15174 18.0737 6.35751 18.0737C5.56328 18.0737 4.91943 18.7176 4.91943 19.5118C4.91943 20.3061 5.56328 20.9499 6.35751 20.9499Z" fill="white" stroke="white" stroke-width="1.06879" stroke-miterlimit="10"/>
<path fill-rule="evenodd" clip-rule="evenodd" d="M3.7124 19.5089C3.7124 20.9725 4.89907 22.1576 6.3566 22.1576C7.82012 22.1576 9.00531 20.9156 9.00531 19.4521C9.00531 17.9945 7.81862 16.8647 6.3566 16.8647C4.89757 16.8647 3.7124 18.0514 3.7124 19.5089Z" fill="#8B9299"/>
<path d="M6.35751 20.9499C7.15174 20.9499 7.79559 20.3061 7.79559 19.5118C7.79559 18.7176 7.15174 18.0737 6.35751 18.0737C5.56328 18.0737 4.91943 18.7176 4.91943 19.5118C4.91943 20.3061 5.56328 20.9499 6.35751 20.9499Z" stroke="white" stroke-width="0.356263" stroke-miterlimit="10"/>
<path d="M6.35811 19.8686C6.5548 19.8686 6.71426 19.7091 6.71426 19.5124C6.71426 19.3157 6.5548 19.1562 6.35811 19.1562C6.16141 19.1562 6.00195 19.3157 6.00195 19.5124C6.00195 19.7091 6.16141 19.8686 6.35811 19.8686Z" fill="white"/>
<path d="M7.43052 6.61572H3.83008V11.4043H7.43052V6.61572Z" fill="white"/>
<path d="M23.6577 19.5086H23.2642V4.11768L23.541 4.15359L23.6577 4.17156V19.5086Z" fill="white"/>
<path d="M33.943 15.2917C33.7784 15.576 33.1155 15.3022 32.478 14.934C31.8405 14.5659 31.5262 14.2158 31.5607 13.8701C31.5786 13.692 31.848 13.5229 32.1458 13.5693C32.3942 13.6082 32.7234 13.8551 33.0122 14.0227C33.4102 14.2532 33.8338 14.521 33.9624 14.7769C34.0388 14.931 34.0043 15.184 33.943 15.2917Z" fill="white"/>
<path d="M28.1772 9.20152H23.3452V8.71222H28.1772L28.6681 8.6748C28.6681 8.6748 28.674 8.68227 28.6755 8.69574C28.677 8.70921 28.671 8.72718 28.6531 8.74963C28.6441 8.7601 28.6277 8.77357 28.6082 8.78704C28.5902 8.79901 28.5693 8.81098 28.5528 8.81996C28.5199 8.83642 28.5049 8.84239 28.493 8.84838C28.4556 8.86634 28.3807 8.89326 28.3119 8.91421C28.2416 8.93516 28.1772 8.95013 28.1772 8.95013L28.4286 9.20002H28.1772V9.20152Z" fill="white"/>
<path d="M32.765 13.0475H23.6592V12.6479H31.9884L32.1694 12.7363L32.346 12.8246L32.5854 12.9502L32.765 13.0475Z" fill="white"/>
<path d="M31.4092 12.51H23.8447V9.44678H28.4373L31.4092 12.51Z" fill="white"/>
<path d="M28.3985 20.9094C29.1928 20.9094 29.8366 20.2655 29.8366 19.4713C29.8366 18.6771 29.1928 18.0332 28.3985 18.0332C27.6043 18.0332 26.9604 18.6771 26.9604 19.4713C26.9604 20.2655 27.6043 20.9094 28.3985 20.9094Z" fill="white" stroke="white" stroke-width="1.06879" stroke-miterlimit="10"/>
<path fill-rule="evenodd" clip-rule="evenodd" d="M25.7515 19.4684C25.7515 20.9319 26.9381 22.1171 28.3957 22.1171C29.8592 22.1171 31.0444 20.8751 31.0444 19.4116C31.0444 17.954 29.8577 16.8242 28.3957 16.8242C26.9381 16.8242 25.7515 18.0109 25.7515 19.4684Z" fill="#8B9299"/>
<path d="M28.3985 20.9094C29.1928 20.9094 29.8366 20.2655 29.8366 19.4713C29.8366 18.6771 29.1928 18.0332 28.3985 18.0332C27.6043 18.0332 26.9604 18.6771 26.9604 19.4713C26.9604 20.2655 27.6043 20.9094 28.3985 20.9094Z" stroke="white" stroke-width="0.356263" stroke-miterlimit="10"/>
<path d="M28.3991 19.8275C28.5958 19.8275 28.7553 19.6681 28.7553 19.4714C28.7553 19.2747 28.5958 19.1152 28.3991 19.1152C28.2024 19.1152 28.043 19.2747 28.043 19.4714C28.043 19.6681 28.2024 19.8275 28.3991 19.8275Z" fill="white"/>
</g>
</svg>
