<svg width="32" height="19" viewBox="0 0 32 19" fill="none" xmlns="http://www.w3.org/2000/svg">
<g id="Group 564">
<path id="Vector" d="M28.9803 16.4403L20.5282 2.00976L3.55257 2.00277L2.98713 0.96167H0V1.9284L0.552816 2.24968L0 2.53169V16.4389H1.9208C1.92501 16.1064 1.99657 15.8117 2.07654 15.4989C2.44835 14.0607 3.92999 13.6089 4.65678 13.6089C5.52387 13.6089 6.43306 13.8096 7.11916 14.831C7.40679 15.2589 7.57375 15.9394 7.58778 16.4389H22.6202C22.6637 15.8538 22.8363 15.2126 23.1912 14.7454C23.8984 13.8166 24.6701 13.5107 25.7841 13.6047C26.1966 13.6398 26.9627 13.7703 27.6362 14.455C28.4121 15.2449 28.4513 16.3519 28.4261 16.4389H28.9803V16.4403Z" fill="#8B9299"/>
<path id="Vector_2" d="M2.18977 11.7301H0.000976562V11.3625H20.6162V11.7301H7.58876" fill="white"/>
<path id="Vector_3" d="M28.9803 16.4403C29.8544 16.4403 31.3248 16.4403 31.3248 16.4403C31.7289 15.3767 31.6292 13.1332 31.6292 13.1332C31.5942 12.9424 31.416 12.6941 31.416 12.6941L31.336 12.6421L31.2953 12.6155C31.4889 11.5113 30.7551 11.2194 30.5194 10.9964C30.5068 10.9837 30.4886 10.9795 30.4745 10.9697C30.2528 10.8154 30.3412 10.8771 30.337 10.8743C29.8586 10.5348 29.0434 10.1082 28.586 9.90757C28.3657 9.81076 28.2072 9.67186 28.0514 9.48806L27.2419 8.63919C26.4084 7.70475 25.2285 6.54021 25.2285 6.54021C25.7897 6.3971 25.6887 6.28207 25.6887 6.28207C25.2425 3.96701 24.8973 3.89545 24.8973 3.89545C23.8619 2.94698 22.3522 2.30015 22.3522 2.30015C22.1151 2.20615 21.0263 2.06303 20.6531 2.01813C20.5717 2.00831 20.5254 2.01111 20.5254 2.01111" fill="#8B9299"/>
<path id="Vector_4" d="M4.77315 17.7914C5.51782 17.7914 6.12149 17.1878 6.12149 16.4431C6.12149 15.6984 5.51782 15.0947 4.77315 15.0947C4.02848 15.0947 3.4248 15.6984 3.4248 16.4431C3.4248 17.1878 4.02848 17.7914 4.77315 17.7914Z" fill="white" stroke="white" stroke-width="1.26276" stroke-miterlimit="10"/>
<path id="Vector_5" fill-rule="evenodd" clip-rule="evenodd" d="M2.29297 16.4404C2.29297 17.8126 3.40559 18.9238 4.77217 18.9238C6.14437 18.9238 7.2556 17.7593 7.2556 16.3871C7.2556 15.0205 6.14297 13.9612 4.77217 13.9612C3.40418 13.9612 2.29297 15.0738 2.29297 16.4404Z" fill="#8B9299"/>
<path id="Vector_6" d="M4.77315 17.7914C5.51782 17.7914 6.12149 17.1878 6.12149 16.4431C6.12149 15.6984 5.51782 15.0947 4.77315 15.0947C4.02848 15.0947 3.4248 15.6984 3.4248 16.4431C3.4248 17.1878 4.02848 17.7914 4.77315 17.7914Z" stroke="white" stroke-width="0.42092" stroke-miterlimit="10"/>
<path id="Vector_7" d="M4.77338 16.777C4.95781 16.777 5.10731 16.6275 5.10731 16.4431C5.10731 16.2587 4.95781 16.1091 4.77338 16.1091C4.58896 16.1091 4.43945 16.2587 4.43945 16.4431C4.43945 16.6275 4.58896 16.777 4.77338 16.777Z" fill="white"/>
<path id="Vector_8" d="M5.7791 4.35132H2.40332V8.84113H5.7791V4.35132Z" fill="white"/>
<path id="Vector_9" d="M20.994 16.4403H20.625V2.00977L20.8846 2.04344L20.994 2.06029V16.4403Z" fill="white"/>
<path id="Vector_10" d="M30.6374 12.4865C30.4831 12.7531 29.8615 12.4963 29.2638 12.1511C28.6661 11.806 28.3715 11.4777 28.4038 11.1536C28.4206 10.9866 28.6732 10.828 28.9524 10.8715C29.1853 10.908 29.4939 11.1395 29.7647 11.2967C30.1379 11.5127 30.535 11.7639 30.6557 12.0038C30.7272 12.1483 30.695 12.3855 30.6374 12.4865Z" fill="white"/>
<path id="Vector_11" d="M25.2317 6.77583H20.7012V6.31706H25.2317L25.6919 6.28198C25.6919 6.28198 25.6975 6.28898 25.6989 6.30161C25.7003 6.31424 25.6947 6.33109 25.6778 6.35214C25.6694 6.36196 25.654 6.37458 25.6358 6.38721C25.6189 6.39844 25.5993 6.40966 25.5838 6.41808C25.553 6.43351 25.5389 6.43911 25.5277 6.44473C25.4926 6.46156 25.4225 6.48681 25.3579 6.50645C25.292 6.5261 25.2317 6.54012 25.2317 6.54012L25.4674 6.77443H25.2317V6.77583Z" fill="white"/>
<path id="Vector_12" d="M29.5318 10.3817H20.9941V10.0071H28.8036L28.9734 10.0899L29.1389 10.1727L29.3634 10.2905L29.5318 10.3817Z" fill="white"/>
<path id="Vector_13" d="M28.2614 9.87818H21.1689V7.0061H25.475L28.2614 9.87818Z" fill="white"/>
<path id="Vector_14" d="M25.4392 17.7536C26.1838 17.7536 26.7875 17.1499 26.7875 16.4052C26.7875 15.6606 26.1838 15.0569 25.4392 15.0569C24.6945 15.0569 24.0908 15.6606 24.0908 16.4052C24.0908 17.1499 24.6945 17.7536 25.4392 17.7536Z" fill="white" stroke="white" stroke-width="1.26276" stroke-miterlimit="10"/>
<path id="Vector_15" fill-rule="evenodd" clip-rule="evenodd" d="M22.957 16.4023C22.957 17.7745 24.0697 18.8857 25.4363 18.8857C26.8084 18.8857 27.9197 17.7212 27.9197 16.349C27.9197 14.9824 26.807 13.9231 25.4363 13.9231C24.0697 13.9231 22.957 15.0357 22.957 16.4023Z" fill="#8B9299"/>
<path id="Vector_16" d="M25.4392 17.7536C26.1838 17.7536 26.7875 17.1499 26.7875 16.4052C26.7875 15.6606 26.1838 15.0569 25.4392 15.0569C24.6945 15.0569 24.0908 15.6606 24.0908 16.4052C24.0908 17.1499 24.6945 17.7536 25.4392 17.7536Z" fill="#8B9299" stroke="white" stroke-width="0.42092" stroke-miterlimit="10"/>
<path id="Vector_17" d="M25.4384 16.7391C25.6228 16.7391 25.7724 16.5897 25.7724 16.4052C25.7724 16.2208 25.6228 16.0713 25.4384 16.0713C25.254 16.0713 25.1045 16.2208 25.1045 16.4052C25.1045 16.5897 25.254 16.7391 25.4384 16.7391Z" fill="white"/>
</g>
</svg>
