<svg width="35" height="19" viewBox="0 0 35 19" fill="none" xmlns="http://www.w3.org/2000/svg">
<path d="M30.1165 18.9462C29.5234 18.9467 28.9435 18.7712 28.4501 18.442C27.9568 18.1128 27.5721 17.6446 27.3448 17.0968C27.1176 16.549 27.0579 15.946 27.1733 15.3642C27.2888 14.7825 27.5742 14.248 27.9934 13.8284C28.4126 13.4089 28.9469 13.1231 29.5286 13.0072C30.1103 12.8914 30.7133 12.9506 31.2613 13.1775C31.8093 13.4044 32.2777 13.7887 32.6073 14.2818C32.9368 14.7749 33.1127 15.3547 33.1127 15.9479C33.1124 16.7426 32.7966 17.5047 32.2349 18.0668C31.6731 18.629 30.9113 18.9453 30.1165 18.9462ZM30.1165 14.0432C29.7398 14.0428 29.3713 14.1541 29.0578 14.3632C28.7443 14.5722 28.4998 14.8695 28.3553 15.2175C28.2109 15.5655 28.1728 15.9485 28.2461 16.3181C28.3193 16.6877 28.5005 17.0273 28.7668 17.2938C29.0331 17.5604 29.3725 17.742 29.742 17.8157C30.1115 17.8894 30.4946 17.8518 30.8427 17.7077C31.1909 17.5636 31.4885 17.3195 31.6978 17.0062C31.9072 16.693 32.019 16.3246 32.019 15.9479C32.0188 15.4432 31.8184 14.9592 31.4617 14.6021C31.105 14.245 30.6212 14.044 30.1165 14.0432Z" fill="white"/>
<path d="M14.3158 18.9462C13.7226 18.9468 13.1426 18.7715 12.6492 18.4423C12.1557 18.1132 11.7709 17.6451 11.5435 17.0973C11.3161 16.5495 11.2563 15.9465 11.3717 15.3647C11.4871 14.7829 11.7724 14.2483 12.1916 13.8287C12.6108 13.4091 13.1451 13.1232 13.7268 13.0073C14.3085 12.8914 14.9115 12.9506 15.4596 13.1774C16.0077 13.4043 16.4761 13.7886 16.8057 14.2817C17.1353 14.7749 17.3112 15.3547 17.3112 15.9479C17.3107 16.7424 16.995 17.5043 16.4334 18.0664C15.8719 18.6285 15.1103 18.9449 14.3158 18.9462ZM14.3158 14.0432C13.9389 14.0427 13.5704 14.1539 13.2568 14.3628C12.9432 14.5717 12.6986 14.869 12.554 15.217C12.4094 15.5649 12.3713 15.948 12.4445 16.3176C12.5176 16.6873 12.6988 17.0269 12.965 17.2936C13.2313 17.5602 13.5707 17.7419 13.9402 17.8157C14.3097 17.8894 14.6928 17.8518 15.041 17.7078C15.3892 17.5637 15.6869 17.3196 15.8963 17.0063C16.1057 16.693 16.2175 16.3247 16.2175 15.9479C16.2171 15.4433 16.0167 14.9596 15.6602 14.6025C15.3037 14.2455 14.8203 14.0444 14.3158 14.0432Z" fill="white"/>
<path d="M34.0615 16.495H32.566C32.4209 16.495 32.2818 16.4374 32.1793 16.3348C32.0767 16.2323 32.0191 16.0932 32.0191 15.9481C32.0191 15.8031 32.0767 15.664 32.1793 15.5614C32.2818 15.4589 32.4209 15.4012 32.566 15.4012H33.9069V12.5013C33.9066 12.1092 33.8062 11.7237 33.6153 11.3813L30.6548 6.07357C30.6295 6.02828 30.5926 5.99054 30.5478 5.96427C30.5031 5.93799 30.4522 5.92413 30.4003 5.92409H26.3657V15.4034H27.6681C27.8131 15.4034 27.9522 15.4611 28.0548 15.5636C28.1573 15.6662 28.2149 15.8053 28.2149 15.9503C28.2149 16.0954 28.1573 16.2345 28.0548 16.337C27.9522 16.4396 27.8131 16.4972 27.6681 16.4972H25.8189C25.6738 16.4972 25.5347 16.4396 25.4322 16.337C25.3296 16.2345 25.272 16.0954 25.272 15.9503V5.37721C25.272 5.23216 25.3296 5.09306 25.4322 4.9905C25.5347 4.88794 25.6738 4.83032 25.8189 4.83032H30.4003C30.647 4.8302 30.8893 4.89597 31.1021 5.02083C31.3149 5.14569 31.4905 5.32511 31.6107 5.54054L34.5705 10.849C34.8519 11.3542 34.9997 11.923 35 12.5013V15.5566C34.9996 15.8053 34.9006 16.0438 34.7247 16.2197C34.5488 16.3956 34.3103 16.4946 34.0615 16.495Z" fill="white"/>
<path d="M11.8666 16.495H6.62306C6.47801 16.495 6.33891 16.4374 6.23635 16.3348C6.13379 16.2323 6.07617 16.0932 6.07617 15.9481V11.7422C6.07617 11.5972 6.13379 11.4581 6.23635 11.3555C6.33891 11.2529 6.47801 11.1953 6.62306 11.1953C6.7681 11.1953 6.9072 11.2529 7.00976 11.3555C7.11232 11.4581 7.16994 11.5972 7.16994 11.7422V15.4012H11.8666C12.0116 15.4012 12.1507 15.4588 12.2533 15.5614C12.3559 15.664 12.4135 15.8031 12.4135 15.9481C12.4135 16.0932 12.3559 16.2323 12.2533 16.3348C12.1507 16.4374 12.0116 16.495 11.8666 16.495Z" fill="white"/>
<path d="M6.62306 9.80157C6.47801 9.80157 6.33891 9.74395 6.23635 9.64139C6.13379 9.53883 6.07617 9.39972 6.07617 9.25468V5.58253C6.07617 5.43749 6.13379 5.29838 6.23635 5.19582C6.33891 5.09326 6.47801 5.03564 6.62306 5.03564C6.7681 5.03564 6.9072 5.09326 7.00976 5.19582C7.11232 5.29838 7.16994 5.43749 7.16994 5.58253V9.25687C7.16936 9.40153 7.11149 9.54007 7.00899 9.64216C6.90649 9.74425 6.76772 9.80157 6.62306 9.80157Z" fill="white"/>
<path d="M25.8187 16.4948H16.7645C16.6195 16.4948 16.4804 16.4372 16.3778 16.3346C16.2752 16.232 16.2176 16.0929 16.2176 15.9479C16.2176 15.8029 16.2752 15.6638 16.3778 15.5612C16.4804 15.4586 16.6195 15.401 16.7645 15.401H25.2718V1.09377H7.16994V3.34621C7.16994 3.49125 7.11232 3.63035 7.00976 3.73291C6.9072 3.83548 6.7681 3.89309 6.62306 3.89309C6.47801 3.89309 6.33891 3.83548 6.23635 3.73291C6.13379 3.63035 6.07617 3.49125 6.07617 3.34621V0.993143C6.07656 0.729737 6.18142 0.477242 6.36774 0.291054C6.55407 0.104866 6.80664 0.00019283 7.07004 0H25.3725C25.6357 0.000385758 25.8881 0.105144 26.0743 0.291311C26.2605 0.477478 26.3652 0.729864 26.3656 0.993143V15.9479C26.3656 16.0929 26.308 16.232 26.2054 16.3346C26.1029 16.4372 25.9638 16.4948 25.8187 16.4948Z" fill="white"/>
<path d="M8.78507 12.2891H1.844C1.69896 12.2891 1.55986 12.2315 1.4573 12.1289C1.35474 12.0263 1.29712 11.8872 1.29712 11.7422C1.29712 11.5972 1.35474 11.4581 1.4573 11.3555C1.55986 11.2529 1.69896 11.1953 1.844 11.1953H8.78507C8.93011 11.1953 9.06922 11.2529 9.17178 11.3555C9.27434 11.4581 9.33196 11.5972 9.33196 11.7422C9.33196 11.8872 9.27434 12.0263 9.17178 12.1289C9.06922 12.2315 8.93011 12.2891 8.78507 12.2891Z" fill="white"/>
<path d="M14.3161 9.80178H4.63038C4.48534 9.80178 4.34624 9.74416 4.24368 9.6416C4.14111 9.53904 4.0835 9.39994 4.0835 9.25489C4.0835 9.10985 4.14111 8.97075 4.24368 8.86819C4.34624 8.76563 4.48534 8.70801 4.63038 8.70801H14.3161C14.4611 8.70801 14.6002 8.76563 14.7028 8.86819C14.8054 8.97075 14.863 9.10985 14.863 9.25489C14.863 9.39994 14.8054 9.53904 14.7028 9.6416C14.6002 9.74416 14.4611 9.80178 14.3161 9.80178Z" fill="white"/>
<path d="M4.32914 6.91384H0.546885C0.401842 6.91384 0.26274 6.85622 0.160179 6.75366C0.0576181 6.6511 0 6.512 0 6.36695C0 6.22191 0.0576181 6.08281 0.160179 5.98025C0.26274 5.87769 0.401842 5.82007 0.546885 5.82007H4.32914C4.47419 5.82007 4.61329 5.87769 4.71585 5.98025C4.81841 6.08281 4.87603 6.22191 4.87603 6.36695C4.87603 6.512 4.81841 6.6511 4.71585 6.75366C4.61329 6.85622 4.47419 6.91384 4.32914 6.91384Z" fill="white"/>
<path d="M10.3937 3.89309H3.7173C3.57225 3.89309 3.43315 3.83547 3.33059 3.73291C3.22803 3.63035 3.17041 3.49124 3.17041 3.3462C3.17041 3.20116 3.22803 3.06206 3.33059 2.9595C3.43315 2.85693 3.57225 2.79932 3.7173 2.79932H10.3937C10.5387 2.79932 10.6778 2.85693 10.7804 2.9595C10.8829 3.06206 10.9406 3.20116 10.9406 3.3462C10.9406 3.49124 10.8829 3.63035 10.7804 3.73291C10.6778 3.83547 10.5387 3.89309 10.3937 3.89309Z" fill="white"/>
</svg>
