<svg width="18" height="18" viewBox="0 0 18 18" fill="none" xmlns="http://www.w3.org/2000/svg">
<g id="x-circle">
<path id="Vector" fill-rule="evenodd" clip-rule="evenodd" d="M8.9998 16.2C10.9094 16.2 12.7407 15.4415 14.091 14.0912C15.4412 12.741 16.1998 10.9096 16.1998 9.00005C16.1998 7.09049 15.4412 5.25914 14.091 3.90888C12.7407 2.55862 10.9094 1.80005 8.9998 1.80005C7.09025 1.80005 5.2589 2.55862 3.90864 3.90888C2.55837 5.25914 1.7998 7.09049 1.7998 9.00005C1.7998 10.9096 2.55837 12.741 3.90864 14.0912C5.2589 15.4415 7.09025 16.2 8.9998 16.2ZM7.8361 6.56375C7.66636 6.39981 7.43902 6.30909 7.20304 6.31114C6.96707 6.31319 6.74134 6.40785 6.57447 6.57471C6.4076 6.74158 6.31295 6.96731 6.3109 7.20329C6.30885 7.43927 6.39956 7.66661 6.56351 7.83635L7.72721 9.00005L6.56351 10.1637C6.47755 10.2468 6.40898 10.3461 6.36181 10.4559C6.31465 10.5657 6.28982 10.6838 6.28878 10.8033C6.28774 10.9228 6.31051 11.0413 6.35577 11.1519C6.40102 11.2625 6.46785 11.363 6.55235 11.4475C6.63685 11.532 6.73734 11.5988 6.84795 11.6441C6.95855 11.6893 7.07706 11.7121 7.19657 11.7111C7.31607 11.71 7.43417 11.6852 7.54397 11.638C7.65377 11.5909 7.75308 11.5223 7.8361 11.4363L8.9998 10.2726L10.1635 11.4363C10.3332 11.6003 10.5606 11.691 10.7966 11.689C11.0325 11.6869 11.2583 11.5923 11.4251 11.4254C11.592 11.2585 11.6867 11.0328 11.6887 10.7968C11.6908 10.5608 11.6 10.3335 11.4361 10.1637L10.2724 9.00005L11.4361 7.83635C11.6 7.66661 11.6908 7.43927 11.6887 7.20329C11.6867 6.96731 11.592 6.74158 11.4251 6.57471C11.2583 6.40785 11.0325 6.31319 10.7966 6.31114C10.5606 6.30909 10.3332 6.39981 10.1635 6.56375L8.9998 7.72745L7.8361 6.56375Z" fill="#FF3B30"/>
</g>
</svg>
