<svg width="18" height="13" viewBox="0 0 18 13" fill="none" xmlns="http://www.w3.org/2000/svg">
<g id="Group">
<path id="Vector" d="M16.7347 1.40089C16.5221 1.14967 16.2245 0.996217 15.8966 0.968827L4.34604 0.00437228C4.01807 -0.0230179 3.69919 0.0789504 3.44793 0.29144C3.19771 0.503098 3.04448 0.7992 3.01623 1.12554L2.78384 3.30574H1.85594C1.17666 3.30574 0.624023 3.85838 0.624023 4.53765V11.7681C0.624023 12.4474 1.17666 13 1.85594 13H13.4467C14.126 13 14.6787 12.4474 14.6787 11.7681V10.5952L15.09 10.6295C15.1247 10.6324 15.1592 10.6338 15.1934 10.6338C15.8267 10.6338 16.3665 10.1466 16.4201 9.50437L17.0218 2.29903C17.0492 1.97108 16.9472 1.65214 16.7347 1.40089ZM1.85594 3.94644H13.4467C13.7727 3.94644 14.038 4.21166 14.038 4.53765V5.19649H1.26473V4.53765C1.26473 4.21166 1.52995 3.94644 1.85594 3.94644ZM1.26473 5.8372H14.038V7.16631H1.26473V5.8372ZM13.4467 12.3593H1.85594C1.52995 12.3593 1.26473 12.0941 1.26473 11.7681V7.80701H14.038V11.7681C14.038 12.0941 13.7727 12.3593 13.4467 12.3593ZM16.3833 2.24569L15.7816 9.45103C15.7545 9.7759 15.4681 10.0183 15.1433 9.99102L14.6787 9.95223V4.53765C14.6787 3.85838 14.126 3.30574 13.4467 3.30574H3.4282L3.6537 1.19013C3.65395 1.18769 3.65418 1.18529 3.65437 1.18282C3.6815 0.857953 3.96777 0.615638 4.29274 0.642868L15.8433 1.60732C16.0007 1.62046 16.1436 1.69411 16.2455 1.81469C16.3475 1.93527 16.3964 2.0883 16.3833 2.24569Z" fill="#E0AD25"/>
<path id="Vector_2" d="M12.6975 8.75977H9.6143C9.43737 8.75977 9.29395 8.90319 9.29395 9.08012V11.0916C9.29395 11.2685 9.43737 11.4119 9.6143 11.4119H12.6975C12.8744 11.4119 13.0178 11.2685 13.0178 11.0916V9.08012C13.0178 8.90319 12.8744 8.75977 12.6975 8.75977ZM12.3771 10.7712H9.93465V9.40047H12.3771V10.7712Z" fill="#E0AD25"/>
</g>
</svg>
