<svg width="275" height="279" viewBox="0 0 275 279" fill="none" xmlns="http://www.w3.org/2000/svg">
<path d="M271.144 119.334C268.261 114.982 263.892 111.983 258.812 110.846C262.089 104.579 261.956 96.7589 257.781 90.4577C254.812 85.9717 250.333 83.0744 245.456 81.9776C246.337 80.2972 246.975 78.5006 247.352 76.6413C248.417 71.3919 247.378 66.0426 244.419 61.5783C241.537 57.2237 237.167 54.2248 232.088 53.09C235.365 46.8226 235.232 39.0027 231.057 32.6988C224.955 23.4836 212.488 20.949 203.27 27.0531L183.312 40.2711C172.682 34.8788 161.334 31.0383 149.614 28.8666C145.902 23.2306 141.586 17.992 136.755 13.3089L128.498 5.30662C122.451 -0.555813 112.968 -1.43597 105.948 3.2151C97.6418 8.71538 95.3597 19.9478 100.859 28.2536C101.076 28.5821 101.288 28.9133 101.497 29.2439C74.432 34.7203 49.765 49.0835 31.5076 70.1295C11.6958 92.9711 0.783203 122.223 0.783203 152.498C0.783203 158.301 1.17957 164.115 1.9647 169.773C8.01175 213.765 37.3147 251.675 78.4364 268.713C93.6862 275.032 109.867 278.24 126.523 278.24C152.901 278.24 178.152 270.161 199.546 254.879C220.475 239.926 236.135 219.292 244.833 195.206C245.033 194.67 245.125 194.1 245.103 193.529C245.081 192.958 244.947 192.397 244.707 191.878C244.467 191.359 244.126 190.893 243.705 190.507C243.283 190.121 242.79 189.822 242.252 189.628C241.714 189.434 241.144 189.348 240.573 189.376C240.002 189.404 239.442 189.545 238.926 189.791C238.41 190.037 237.948 190.382 237.566 190.808C237.185 191.234 236.891 191.731 236.703 192.27C228.603 214.7 214.017 233.916 194.519 247.844C174.601 262.074 151.088 269.594 126.523 269.594C113.822 269.594 101.421 267.59 89.5526 263.637L124.722 240.346C124.725 240.344 124.727 240.344 124.728 240.342C124.73 240.342 124.73 240.34 124.733 240.338L153.962 220.982H153.964C155.257 220.13 156.369 219.03 157.235 217.747C158.1 216.463 158.703 215.02 159.008 213.501C159.636 210.415 159.024 207.268 157.285 204.644L156.9 204.059L162.577 200.298C166.615 197.619 171.514 196.56 176.298 197.333C183.223 198.453 190.316 196.919 196.161 193.038L243.255 161.852C242.935 165.923 242.404 169.976 241.662 173.992C241.558 174.55 241.565 175.123 241.683 175.679C241.801 176.234 242.027 176.761 242.348 177.229C242.67 177.697 243.08 178.097 243.557 178.406C244.033 178.715 244.565 178.928 245.123 179.031C245.388 179.082 245.656 179.105 245.916 179.105C246.925 179.104 247.902 178.75 248.677 178.104C249.452 177.458 249.977 176.562 250.161 175.57C251.359 169.125 252.049 162.522 252.227 155.91L265.497 147.121C269.962 144.164 273.01 139.645 274.075 134.397C275.142 129.148 274.1 123.799 271.144 119.334ZM174.919 45.8273L161.712 54.5745L159.111 47.5691C158.025 44.6463 156.781 41.7811 155.402 38.9772C162.099 40.675 168.63 42.9675 174.919 45.8273ZM38.0385 75.7954C55.5856 55.5676 79.4865 41.97 105.634 37.2554C109.829 47.4193 110.835 58.7749 108.327 69.5979L97.7884 115.129C96.1257 113.348 93.9478 112.131 91.5594 111.649C90.0426 111.335 88.4785 111.325 86.958 111.621C85.4374 111.916 83.9908 112.511 82.702 113.37L52.8496 133.138C52.8474 133.138 52.8474 133.138 52.8452 133.14C52.8452 133.14 52.843 133.14 52.843 133.143L9.78671 161.653C9.54936 158.607 9.42982 155.553 9.42835 152.497C9.42835 124.305 19.59 97.0635 38.0379 75.7943L38.0385 75.7954ZM150.537 211.778C150.456 212.183 150.294 212.569 150.063 212.912C149.831 213.255 149.534 213.548 149.188 213.776H149.19L123.518 230.775L75.8703 159.716C75.2319 158.764 74.2414 158.105 73.1167 157.883C71.9921 157.661 70.8253 157.895 69.8733 158.533C68.9212 159.172 68.2617 160.162 68.0399 161.287C67.8182 162.412 68.0522 163.578 68.6907 164.531L116.309 235.549L79.6608 259.82C43.2439 243.891 17.183 210.252 10.9177 171.11L54.024 142.657L58.9851 150.059C59.3809 150.649 59.916 151.133 60.5432 151.467C61.1703 151.801 61.8701 151.975 62.5807 151.974C63.3636 151.974 64.1317 151.76 64.8028 151.357C65.4739 150.953 66.0229 150.375 66.3911 149.684C66.7593 148.993 66.933 148.215 66.8935 147.433C66.854 146.651 66.6029 145.895 66.167 145.244L61.2401 137.895L87.4763 120.578C87.8194 120.349 88.2046 120.19 88.6096 120.111C89.0145 120.033 89.4311 120.036 89.835 120.12C90.2404 120.201 90.6256 120.362 90.9685 120.593C91.3115 120.824 91.6053 121.121 91.8331 121.466L150.078 209.418C150.307 209.762 150.465 210.147 150.543 210.552C150.622 210.957 150.62 211.373 150.536 211.777L150.537 211.778ZM265.604 132.675C265.309 134.145 264.727 135.541 263.889 136.784C263.051 138.026 261.975 139.09 260.723 139.914L245.552 149.961C245.548 149.963 245.543 149.968 245.537 149.97L191.387 185.831C187.35 188.512 182.45 189.57 177.666 188.796C170.74 187.678 163.648 189.212 157.803 193.091L152.125 196.851L104.42 124.817L116.752 71.5488C119.927 57.8264 118.253 43.3714 112.204 30.7795C112.15 30.6485 112.089 30.5204 112.022 30.3956C110.855 28.0066 109.534 25.6962 108.066 23.4792C105.199 19.148 106.388 13.2921 110.721 10.4225C114.383 7.99812 119.328 8.45638 122.48 11.5128L130.737 19.5172C139.669 28.1776 146.679 38.9175 151.005 50.5788L155.502 62.6919L155.527 62.7554L155.561 62.8401C155.593 62.9145 155.623 62.9824 155.654 63.0394C155.741 63.2218 155.837 63.4021 155.951 63.5742C156.264 64.0477 156.668 64.4548 157.138 64.7723C157.609 65.0898 158.138 65.3114 158.694 65.4244C159.25 65.5375 159.823 65.5398 160.381 65.4312C160.938 65.3226 161.468 65.1052 161.941 64.7916L208.045 34.2621C213.288 30.7903 220.378 32.2303 223.851 37.4732C227.323 42.7161 225.882 49.8067 220.639 53.279L216.637 55.9298C216.637 55.9298 216.634 55.9298 216.632 55.9319L207.705 61.8449C207.692 61.8541 207.684 61.8622 207.671 61.8688C207.62 61.9046 207.572 61.9388 207.531 61.9725C205.686 63.3277 205.209 65.9046 206.488 67.8349C206.801 68.3084 207.205 68.7156 207.676 69.0331C208.146 69.3506 208.675 69.5722 209.232 69.6852C209.788 69.7983 210.361 69.8006 210.919 69.6919C211.476 69.5833 212.006 69.366 212.48 69.0522L221.413 63.135C222.66 62.3059 224.058 61.7321 225.528 61.4466C226.998 61.1611 228.509 61.1697 229.976 61.4719C231.445 61.7662 232.841 62.3492 234.083 63.187C235.325 64.0248 236.389 65.1008 237.212 66.3526C238.043 67.5991 238.618 68.9981 238.905 70.4686C239.191 71.939 239.183 73.4517 238.882 74.919C238.587 76.3885 238.004 77.785 237.167 79.0276C236.329 80.2701 235.253 81.3341 234.001 82.1579L221.067 90.7243C220.594 91.0374 220.186 91.4408 219.869 91.9114C219.551 92.382 219.33 92.9106 219.217 93.4669C219.104 94.0233 219.101 94.5964 219.21 95.1537C219.319 95.7109 219.536 96.2412 219.85 96.7143C220.163 97.1879 220.566 97.5951 221.037 97.9127C221.507 98.2302 222.036 98.4518 222.592 98.5649C223.149 98.678 223.722 98.6802 224.279 98.5716C224.836 98.4629 225.366 98.2455 225.839 97.9317L227.842 96.6057L234.769 92.0182C240.014 88.5464 247.102 89.9864 250.574 95.2293C254.046 100.474 252.606 107.563 247.363 111.037L240.902 115.315C240.869 115.337 240.835 115.36 240.801 115.383L234.429 119.602C233.956 119.915 233.548 120.318 233.231 120.789C232.914 121.26 232.692 121.789 232.579 122.345C232.466 122.902 232.464 123.475 232.572 124.032C232.681 124.589 232.898 125.12 233.212 125.593C233.525 126.067 233.928 126.474 234.399 126.792C234.869 127.109 235.398 127.331 235.954 127.444C236.511 127.557 237.084 127.559 237.641 127.451C238.198 127.342 238.729 127.124 239.202 126.811L241.204 125.485C241.204 125.485 241.204 125.483 241.206 125.483L248.133 120.898C249.38 120.067 250.779 119.491 252.249 119.205C253.72 118.919 255.232 118.928 256.7 119.231C259.686 119.835 262.257 121.57 263.938 124.109C264.768 125.356 265.343 126.755 265.629 128.225C265.914 129.696 265.906 131.208 265.604 132.675Z" fill="black"/>
</svg>
