<svg width="39" height="39" viewBox="0 0 39 39" fill="none" xmlns="http://www.w3.org/2000/svg">
    <circle cx="19.5" cy="19.5" r="19.5" fill="#E0AD25" />
    <mask id="mask0_737_6404" style="mask-type:alpha" maskUnits="userSpaceOnUse" x="8" y="9"
        width="22" height="22">
        <rect x="8" y="9" width="22" height="22" fill="#FFFFFF" />
    </mask>
    <g mask="url(#mask0_737_6404)">
        <path
            d="M11.7125 28.25C11.4375 28.25 11.2083 28.1583 11.025 27.975C10.8417 27.7917 10.75 27.5625 10.75 27.2875V23.575C10.75 23.3611 10.8188 23.174 10.9563 23.0135C11.0938 22.8531 11.2694 22.75 11.4833 22.7042L14.6458 22.0625C14.8597 22.0319 15.0774 22.051 15.299 22.1198C15.5205 22.1885 15.7 22.2917 15.8375 22.4292L17.9917 24.5833C19.1528 23.8806 20.2184 23.0479 21.1885 22.0854C22.1587 21.1229 22.9646 20.0917 23.6063 18.9917L21.3833 16.7458C21.2458 16.6083 21.158 16.4517 21.1198 16.276C21.0816 16.1003 21.0778 15.9056 21.1083 15.6917L21.7042 12.4833C21.7347 12.2694 21.834 12.0938 22.0021 11.9563C22.1701 11.8188 22.3611 11.75 22.575 11.75H26.2875C26.5625 11.75 26.7917 11.8417 26.975 12.025C27.1583 12.2083 27.25 12.4375 27.25 12.7125C27.25 14.6833 26.8108 16.6045 25.9323 18.476C25.0538 20.3476 23.8927 22.0052 22.449 23.449C21.0052 24.8927 19.3476 26.0538 17.476 26.9323C15.6045 27.8108 13.6833 28.25 11.7125 28.25ZM24.4771 17.25C24.7368 16.6542 24.9354 16.0507 25.0729 15.4396C25.2104 14.8285 25.3174 14.2097 25.3938 13.5833H23.3542L22.9646 15.7375L24.4771 17.25ZM16.2729 25.4542L14.7375 23.9188L12.5833 24.3542V26.3708C13.2097 26.325 13.8323 26.2257 14.451 26.0729C15.0698 25.9201 15.6771 25.7139 16.2729 25.4542Z"
            fill="#FFFFFF" />
    </g>
</svg>
