<svg width="24" height="24" viewBox="0 0 24 24" fill="none" xmlns="http://www.w3.org/2000/svg">
<rect width="24" height="24" rx="4" fill="#E0AD25"/>
<path d="M17.3592 18.9998H9.92179C9.01706 18.9998 8.28119 18.2639 8.28119 17.3592V9.92179C8.28119 9.01706 9.01706 8.28119 9.92179 8.28119H17.3592C18.2639 8.28119 18.9998 9.01706 18.9998 9.92179V17.3592C18.9998 18.2639 18.2639 18.9998 17.3592 18.9998ZM9.92179 9.37492C9.62025 9.37492 9.37492 9.62025 9.37492 9.92179V17.3592C9.37492 17.6607 9.62025 17.906 9.92179 17.906H17.3592C17.6607 17.906 17.906 17.6607 17.906 17.3592V9.92179C17.906 9.62025 17.6607 9.37492 17.3592 9.37492H9.92179ZM7.18746 14.6248H6.6406C6.33905 14.6248 6.09373 14.3795 6.09373 14.078V6.6406C6.09373 6.33905 6.33905 6.09373 6.6406 6.09373H14.078C14.3795 6.09373 14.6248 6.33905 14.6248 6.6406V7.16012H15.7186V6.6406C15.7186 5.73586 14.9827 5 14.078 5H6.6406C5.73586 5 5 5.73586 5 6.6406V14.078C5 14.9827 5.73586 15.7186 6.6406 15.7186H7.18746V14.6248Z" fill="white"/>
</svg>
