<svg width="39" height="39" viewBox="0 0 39 39" fill="none" xmlns="http://www.w3.org/2000/svg">
<circle cx="19.5" cy="19.5" r="19.5" fill="#303030"/>
<mask id="mask0_737_6390" style="mask-type:alpha" maskUnits="userSpaceOnUse" x="9" y="9" width="20" height="20">
<rect x="9" y="9" width="20" height="20" fill="#D0D3D6"/>
</mask>
<g mask="url(#mask0_737_6390)">
<path d="M13.1667 27.3334C12.7083 27.3334 12.316 27.1702 11.9896 26.8438C11.6632 26.5174 11.5 26.1251 11.5 25.6667V14.0001C11.5 13.5417 11.6632 13.1494 11.9896 12.823C12.316 12.4966 12.7083 12.3334 13.1667 12.3334H14V10.6667H15.6667V12.3334H22.3333V10.6667H24V12.3334H24.8333C25.2917 12.3334 25.684 12.4966 26.0104 12.823C26.3368 13.1494 26.5 13.5417 26.5 14.0001V25.6667C26.5 26.1251 26.3368 26.5174 26.0104 26.8438C25.684 27.1702 25.2917 27.3334 24.8333 27.3334H13.1667ZM13.1667 25.6667H24.8333V17.3334H13.1667V25.6667ZM13.1667 15.6667H24.8333V14.0001H13.1667V15.6667ZM19 20.6667C18.7639 20.6667 18.566 20.5869 18.4062 20.4272C18.2465 20.2674 18.1667 20.0695 18.1667 19.8334C18.1667 19.5973 18.2465 19.3994 18.4062 19.2397C18.566 19.0799 18.7639 19.0001 19 19.0001C19.2361 19.0001 19.434 19.0799 19.5938 19.2397C19.7535 19.3994 19.8333 19.5973 19.8333 19.8334C19.8333 20.0695 19.7535 20.2674 19.5938 20.4272C19.434 20.5869 19.2361 20.6667 19 20.6667ZM15.6667 20.6667C15.4306 20.6667 15.2326 20.5869 15.0729 20.4272C14.9132 20.2674 14.8333 20.0695 14.8333 19.8334C14.8333 19.5973 14.9132 19.3994 15.0729 19.2397C15.2326 19.0799 15.4306 19.0001 15.6667 19.0001C15.9028 19.0001 16.1007 19.0799 16.2604 19.2397C16.4201 19.3994 16.5 19.5973 16.5 19.8334C16.5 20.0695 16.4201 20.2674 16.2604 20.4272C16.1007 20.5869 15.9028 20.6667 15.6667 20.6667ZM22.3333 20.6667C22.0972 20.6667 21.8993 20.5869 21.7396 20.4272C21.5799 20.2674 21.5 20.0695 21.5 19.8334C21.5 19.5973 21.5799 19.3994 21.7396 19.2397C21.8993 19.0799 22.0972 19.0001 22.3333 19.0001C22.5694 19.0001 22.7674 19.0799 22.9271 19.2397C23.0868 19.3994 23.1667 19.5973 23.1667 19.8334C23.1667 20.0695 23.0868 20.2674 22.9271 20.4272C22.7674 20.5869 22.5694 20.6667 22.3333 20.6667ZM19 24.0001C18.7639 24.0001 18.566 23.9202 18.4062 23.7605C18.2465 23.6008 18.1667 23.4029 18.1667 23.1667C18.1667 22.9306 18.2465 22.7327 18.4062 22.573C18.566 22.4133 18.7639 22.3334 19 22.3334C19.2361 22.3334 19.434 22.4133 19.5938 22.573C19.7535 22.7327 19.8333 22.9306 19.8333 23.1667C19.8333 23.4029 19.7535 23.6008 19.5938 23.7605C19.434 23.9202 19.2361 24.0001 19 24.0001ZM15.6667 24.0001C15.4306 24.0001 15.2326 23.9202 15.0729 23.7605C14.9132 23.6008 14.8333 23.4029 14.8333 23.1667C14.8333 22.9306 14.9132 22.7327 15.0729 22.573C15.2326 22.4133 15.4306 22.3334 15.6667 22.3334C15.9028 22.3334 16.1007 22.4133 16.2604 22.573C16.4201 22.7327 16.5 22.9306 16.5 23.1667C16.5 23.4029 16.4201 23.6008 16.2604 23.7605C16.1007 23.9202 15.9028 24.0001 15.6667 24.0001ZM22.3333 24.0001C22.0972 24.0001 21.8993 23.9202 21.7396 23.7605C21.5799 23.6008 21.5 23.4029 21.5 23.1667C21.5 22.9306 21.5799 22.7327 21.7396 22.573C21.8993 22.4133 22.0972 22.3334 22.3333 22.3334C22.5694 22.3334 22.7674 22.4133 22.9271 22.573C23.0868 22.7327 23.1667 22.9306 23.1667 23.1667C23.1667 23.4029 23.0868 23.6008 22.9271 23.7605C22.7674 23.9202 22.5694 24.0001 22.3333 24.0001Z" fill="#D0D3D6"/>
</g>
</svg>
