<svg width="11" height="11" viewBox="0 0 11 11" fill="none" xmlns="http://www.w3.org/2000/svg">
<path id="Subtract" fill-rule="evenodd" clip-rule="evenodd" d="M2.4375 0C2.70674 0 2.925 0.218261 2.925 0.4875V1.3H7.475V0.4875C7.475 0.218261 7.69326 0 7.9625 0C8.23174 0 8.45 0.218261 8.45 0.4875V1.3H8.6125C9.59971 1.3 10.4 2.10029 10.4 3.0875V8.6125C10.4 9.59971 9.59971 10.4 8.6125 10.4H1.7875C0.800291 10.4 0 9.59971 0 8.6125V3.0875C0 2.10029 0.800291 1.3 1.7875 1.3H1.95V0.4875C1.95 0.218261 2.16826 0 2.4375 0ZM1.7875 3.575C1.33877 3.575 0.975 3.93877 0.975 4.3875V8.6125C0.975 9.06123 1.33877 9.425 1.7875 9.425H8.6125C9.06123 9.425 9.425 9.06123 9.425 8.6125V4.3875C9.425 3.93877 9.06123 3.575 8.6125 3.575H1.7875Z" fill="#6B7280"/>
</svg>
