<svg width="21" height="21" viewBox="0 0 21 21" fill="none" xmlns="http://www.w3.org/2000/svg">
<path d="M12.8159 5.90455V4.94102C12.8159 4.68778 12.6059 4.47778 12.3527 4.47778C12.0994 4.47778 11.8894 4.68778 11.8894 4.94102V5.86749H7.87471V4.94102C7.87471 4.68778 7.66471 4.47778 7.41148 4.47778C7.15824 4.47778 6.94824 4.68778 6.94824 4.94102V5.90455C5.2806 6.05896 4.47148 7.05337 4.34795 8.52955C4.3356 8.70867 4.48383 8.8569 4.65677 8.8569H15.1074C15.2865 8.8569 15.4347 8.70249 15.4162 8.52955C15.2927 7.05337 14.4835 6.05896 12.8159 5.90455ZM14.8232 9.78337H4.94089C4.60118 9.78337 4.32324 10.0613 4.32324 10.401V14.2057C4.32324 16.0587 5.24971 17.294 7.41148 17.294H12.3527C14.5144 17.294 15.4409 16.0587 15.4409 14.2057V10.401C15.4409 10.0613 15.1629 9.78337 14.8232 9.78337ZM8.15883 14.9531C8.12795 14.9778 8.09707 15.0087 8.06618 15.0272C8.02912 15.0519 7.99207 15.0704 7.95501 15.0828C7.91795 15.1013 7.88089 15.1137 7.84383 15.1198C7.8006 15.126 7.76354 15.1322 7.7203 15.1322C7.64001 15.1322 7.55971 15.1137 7.48559 15.0828C7.4053 15.0519 7.34354 15.0087 7.28177 14.9531C7.1706 14.8357 7.10265 14.6751 7.10265 14.5145C7.10265 14.354 7.1706 14.1934 7.28177 14.076C7.34354 14.0204 7.4053 13.9772 7.48559 13.9463C7.59677 13.8969 7.7203 13.8845 7.84383 13.9093C7.88089 13.9154 7.91795 13.9278 7.95501 13.9463C7.99207 13.9587 8.02912 13.9772 8.06618 14.0019L8.15883 14.076C8.27001 14.1934 8.33795 14.354 8.33795 14.5145C8.33795 14.6751 8.27001 14.8357 8.15883 14.9531ZM8.15883 12.7913C8.04148 12.9025 7.88089 12.9704 7.7203 12.9704C7.55971 12.9704 7.39912 12.9025 7.28177 12.7913C7.1706 12.674 7.10265 12.5134 7.10265 12.3528C7.10265 12.1922 7.1706 12.0316 7.28177 11.9143C7.45471 11.7413 7.72648 11.6857 7.95501 11.7845C8.0353 11.8154 8.10324 11.8587 8.15883 11.9143C8.27001 12.0316 8.33795 12.1922 8.33795 12.3528C8.33795 12.5134 8.27001 12.674 8.15883 12.7913ZM10.3206 14.9531C10.2032 15.0643 10.0427 15.1322 9.88207 15.1322C9.72148 15.1322 9.56089 15.0643 9.44354 14.9531C9.33236 14.8357 9.26442 14.6751 9.26442 14.5145C9.26442 14.354 9.33236 14.1934 9.44354 14.076C9.67207 13.8475 10.0921 13.8475 10.3206 14.076C10.4318 14.1934 10.4997 14.354 10.4997 14.5145C10.4997 14.6751 10.4318 14.8357 10.3206 14.9531ZM10.3206 12.7913L10.2279 12.8654C10.1909 12.8901 10.1538 12.9087 10.1168 12.921C10.0797 12.9395 10.0427 12.9519 10.0056 12.9581C9.96236 12.9643 9.9253 12.9704 9.88207 12.9704C9.72148 12.9704 9.56089 12.9025 9.44354 12.7913C9.33236 12.674 9.26442 12.5134 9.26442 12.3528C9.26442 12.1922 9.33236 12.0316 9.44354 11.9143C9.49912 11.8587 9.56707 11.8154 9.64736 11.7845C9.87589 11.6857 10.1477 11.7413 10.3206 11.9143C10.4318 12.0316 10.4997 12.1922 10.4997 12.3528C10.4997 12.5134 10.4318 12.674 10.3206 12.7913ZM12.4824 14.9531C12.365 15.0643 12.2044 15.1322 12.0438 15.1322C11.8832 15.1322 11.7227 15.0643 11.6053 14.9531C11.4941 14.8357 11.4262 14.6751 11.4262 14.5145C11.4262 14.354 11.4941 14.1934 11.6053 14.076C11.8338 13.8475 12.2538 13.8475 12.4824 14.076C12.5935 14.1934 12.6615 14.354 12.6615 14.5145C12.6615 14.6751 12.5935 14.8357 12.4824 14.9531ZM12.4824 12.7913L12.3897 12.8654C12.3527 12.8901 12.3156 12.9087 12.2785 12.921C12.2415 12.9395 12.2044 12.9519 12.1674 12.9581C12.1241 12.9643 12.0809 12.9704 12.0438 12.9704C11.8832 12.9704 11.7227 12.9025 11.6053 12.7913C11.4941 12.674 11.4262 12.5134 11.4262 12.3528C11.4262 12.1922 11.4941 12.0316 11.6053 11.9143C11.6671 11.8587 11.7288 11.8154 11.8091 11.7845C11.9203 11.7351 12.0438 11.7228 12.1674 11.7475C12.2044 11.7537 12.2415 11.766 12.2785 11.7845C12.3156 11.7969 12.3527 11.8154 12.3897 11.8401L12.4824 11.9143C12.5935 12.0316 12.6615 12.1922 12.6615 12.3528C12.6615 12.5134 12.5935 12.674 12.4824 12.7913Z" fill="white"/>
</svg>
