<svg width="23" height="13" viewBox="0 0 23 13" fill="none" xmlns="http://www.w3.org/2000/svg">
<g id="svgexport-7 (12) 1" clip-path="url(#clip0_2473_11417)">
<g id="Group">
<path id="Vector" d="M21.0811 5.323L21.0811 6.7284L5.62159 6.7284L5.62159 5.323L21.0811 5.323Z" fill="#8B9299"/>
<g id="Group_2">
<path id="Vector_2" d="M18.288 3.20857C18.5615 2.93232 19.0063 2.9303 19.2824 3.20361L22.0981 5.99123L19.2824 8.7782C19.0063 9.0515 18.5615 9.04874 18.288 8.77323C18.0147 8.4972 18.0175 8.05235 18.293 7.77974L20.0997 5.99194L18.293 4.2036C18.0168 3.92876 18.0147 3.48408 18.288 3.20857ZM4.21646 5.32305L4.21646 6.72846L2.81106 6.72846L2.81106 5.32305L4.21646 5.32305ZM1.40565 5.32305L1.40565 6.72846L0.000247792 6.72846L0.000247854 5.32305L1.40565 5.32305Z" fill="#8B9299"/>
</g>
</g>
</g>
<defs>
<clipPath id="clip0_2473_11417">
<rect width="13" height="22.4865" fill="white" transform="translate(22.4863) rotate(90)"/>
</clipPath>
</defs>
</svg>
