<svg width="33" height="33" viewBox="0 0 33 33" fill="none" xmlns="http://www.w3.org/2000/svg">
<path d="M8 11.6251C8 11.1941 8.17121 10.7807 8.47597 10.476C8.78073 10.1712 9.19407 10 9.62507 10H22.6256C23.0566 10 23.4699 10.1712 23.7747 10.476C24.0795 10.7807 24.2507 11.1941 24.2507 11.6251V21.3755C24.2507 21.8065 24.0795 22.2198 23.7747 22.5246C23.4699 22.8293 23.0566 23.0005 22.6256 23.0005H9.62507C9.19407 23.0005 8.78073 22.8293 8.47597 22.5246C8.17121 22.2198 8 21.8065 8 21.3755V11.6251ZM10.8593 11.6251L16.1253 16.2329L21.3914 11.6251H10.8593ZM22.6256 12.7049L16.6608 17.9246C16.5126 18.0545 16.3223 18.126 16.1253 18.126C15.9283 18.126 15.7381 18.0545 15.5899 17.9246L9.62507 12.7049V21.3755H22.6256V12.7049Z" fill="#E0AD25"/>
<circle cx="16.5" cy="16.5" r="16" stroke="#E0AD25"/>
</svg>
