<svg width="209" height="136" viewBox="0 0 209 136" fill="none" xmlns="http://www.w3.org/2000/svg">
<path id="Vector" d="M118.22 0H22.8665C10.2899 0 0 11.3967 0 25.3259V110.674C0 124.603 10.2899 136 22.8665 136H118.22C130.797 136 141.086 124.603 141.086 110.674V25.3259C141.086 11.1434 130.797 0 118.22 0ZM192.079 13.9292C190.707 14.1825 189.335 14.9423 188.191 15.702L152.52 38.4953V97.2514L188.42 120.045C195.051 124.35 203.283 121.818 207.171 114.473C208.314 112.194 209 109.661 209 106.875V28.6182C209 19.2477 200.997 11.6499 192.079 13.9292Z" fill="#DFD9C9"/>
</svg>
