<svg width="221" height="125" viewBox="0 0 221 125" fill="none" xmlns="http://www.w3.org/2000/svg">
<g id="Group 564">
<path id="Vector" d="M201.616 107.685L142.815 7.29154L24.7152 7.24292L20.7815 0H0V6.72555L3.84594 8.96065L0 10.9227V107.675H13.363C13.3923 105.362 13.8901 103.312 14.4465 101.135C17.0332 91.1301 27.341 87.987 32.3972 87.987C38.4296 87.987 44.7548 89.3828 49.528 96.4889C51.529 99.4661 52.6906 104.2 52.7882 107.675H157.369C157.671 103.605 158.872 99.1438 161.342 95.8934C166.261 89.4315 171.63 87.3037 179.38 87.9577C182.25 88.2017 187.579 89.1096 192.265 93.873C197.663 99.3685 197.936 107.07 197.76 107.675H201.616V107.685Z" fill="#DFD9C9"/>
<path id="Vector_2" d="M15.236 74.9167H0.00854492V72.3594H143.429V74.9167H52.7967" fill="#F8F7F3"/>
<path id="Vector_3" d="M201.616 107.685C207.697 107.685 217.926 107.685 217.926 107.685C220.738 100.286 220.045 84.6777 220.045 84.6777C219.801 83.3502 218.561 81.6226 218.561 81.6226L218.005 81.2613L217.722 81.0759C219.069 73.3939 213.963 71.3635 212.324 69.8115C212.236 69.7236 212.109 69.6944 212.011 69.6261C210.469 68.5524 211.084 68.9819 211.055 68.9624C207.726 66.6002 202.055 63.6327 198.873 62.2368C197.34 61.5633 196.237 60.597 195.154 59.3183L189.522 53.4127C183.724 46.9118 175.514 38.8101 175.514 38.8101C179.419 37.8145 178.716 37.0142 178.716 37.0142C175.612 20.9084 173.211 20.4105 173.211 20.4105C166.007 13.812 155.504 9.312 155.504 9.312C153.855 8.65801 146.28 7.66236 143.683 7.35C143.117 7.28168 142.795 7.30115 142.795 7.30115" fill="#DFD9C9"/>
<path id="Vector_4" d="M33.2068 117.084C38.3875 117.084 42.5873 112.885 42.5873 107.704C42.5873 102.523 38.3875 98.3235 33.2068 98.3235C28.0262 98.3235 23.8264 102.523 23.8264 107.704C23.8264 112.885 28.0262 117.084 33.2068 117.084Z" fill="#F8F7F3" stroke="#F8F7F3" stroke-width="8.78501" stroke-miterlimit="10"/>
<path id="Vector_5" fill-rule="evenodd" clip-rule="evenodd" d="M15.9487 107.685C15.9487 117.231 23.6892 124.962 33.1965 124.962C42.7429 124.962 50.4738 116.86 50.4738 107.314C50.4738 97.8062 42.7332 90.4368 33.1965 90.4368C23.6795 90.4368 15.9487 98.1773 15.9487 107.685Z" fill="#DFD9C9"/>
<path id="Vector_6" d="M33.2068 117.084C38.3875 117.084 42.5873 112.885 42.5873 107.704C42.5873 102.523 38.3875 98.3235 33.2068 98.3235C28.0262 98.3235 23.8264 102.523 23.8264 107.704C23.8264 112.885 28.0262 117.084 33.2068 117.084Z" stroke="#F8F7F3" stroke-width="2.92834" stroke-miterlimit="10"/>
<path id="Vector_7" d="M33.2067 110.027C34.4897 110.027 35.5298 108.987 35.5298 107.704C35.5298 106.421 34.4897 105.381 33.2067 105.381C31.9237 105.381 30.8835 106.421 30.8835 107.704C30.8835 108.987 31.9237 110.027 33.2067 110.027Z" fill="#F8F7F3"/>
<path id="Vector_8" d="M40.2053 23.5824H16.72V54.818H40.2053V23.5824Z" fill="#F8F7F3"/>
<path id="Vector_9" d="M146.055 107.685H143.488V7.29138L145.294 7.52564L146.055 7.64289V107.685Z" fill="#F8F7F3"/>
<path id="Vector_10" d="M213.143 80.1778C212.069 82.0325 207.745 80.246 203.587 77.8448C199.429 75.4436 197.379 73.1596 197.603 70.9048C197.72 69.7432 199.477 68.6402 201.42 68.9428C203.04 69.1966 205.188 70.8072 207.072 71.9004C209.668 73.4036 212.43 75.1507 213.27 76.8198C213.768 77.8252 213.543 79.475 213.143 80.1778Z" fill="#F8F7F3"/>
<path id="Vector_11" d="M175.533 40.4497H144.015V37.2581H175.533L178.735 37.014C178.735 37.014 178.774 37.0627 178.784 37.1506C178.794 37.2384 178.754 37.3557 178.637 37.5021C178.579 37.5704 178.471 37.6583 178.345 37.7461C178.227 37.8242 178.091 37.9023 177.983 37.9608C177.769 38.0682 177.671 38.1072 177.593 38.1462C177.349 38.2634 176.861 38.439 176.412 38.5757C175.953 38.7123 175.533 38.8099 175.533 38.8099L177.173 40.44H175.533V40.4497Z" fill="#F8F7F3"/>
<path id="Vector_12" d="M205.453 65.5357H146.056V62.9293H200.387L201.568 63.5053L202.719 64.0813L204.281 64.9011L205.453 65.5357Z" fill="#F8F7F3"/>
<path id="Vector_13" d="M196.617 62.0315H147.274V42.0505H177.231L196.617 62.0315Z" fill="#F8F7F3"/>
<path id="Vector_14" d="M176.979 116.821C182.159 116.821 186.359 112.621 186.359 107.44C186.359 102.26 182.159 98.0598 176.979 98.0598C171.798 98.0598 167.598 102.26 167.598 107.44C167.598 112.621 171.798 116.821 176.979 116.821Z" fill="#F8F7F3" stroke="#F8F7F3" stroke-width="8.78501" stroke-miterlimit="10"/>
<path id="Vector_15" fill-rule="evenodd" clip-rule="evenodd" d="M159.71 107.421C159.71 116.968 167.451 124.698 176.958 124.698C186.505 124.698 194.236 116.597 194.236 107.05C194.236 97.543 186.495 90.1733 176.958 90.1733C167.451 90.1733 159.71 97.9138 159.71 107.421Z" fill="#DFD9C9"/>
<path id="Vector_16" d="M176.979 116.821C182.159 116.821 186.359 112.621 186.359 107.44C186.359 102.26 182.159 98.0598 176.979 98.0598C171.798 98.0598 167.598 102.26 167.598 107.44C167.598 112.621 171.798 116.821 176.979 116.821Z" fill="#DFD9C9" stroke="#F8F7F3" stroke-width="2.92834" stroke-miterlimit="10"/>
<path id="Vector_17" d="M176.978 109.763C178.261 109.763 179.302 108.723 179.302 107.44C179.302 106.157 178.261 105.117 176.978 105.117C175.695 105.117 174.655 106.157 174.655 107.44C174.655 108.723 175.695 109.763 176.978 109.763Z" fill="#F8F7F3"/>
</g>
</svg>
