<svg width="217" height="127" viewBox="0 0 217 127" fill="none" xmlns="http://www.w3.org/2000/svg">
<g id="svgexport-6 (53) 1" clip-path="url(#clip0_2700_11804)">
<g id="Group">
<path id="Vector" d="M132.694 20.0194L90.5744 17.9433C90.0832 17.9193 89.5943 18.0209 89.1611 18.2371L65.9593 29.8403C65.6112 30.0146 65.309 30.2583 65.0746 30.5538C64.8401 30.8493 64.6793 31.1894 64.6035 31.5494C64.5277 31.9095 64.539 32.2806 64.6364 32.6362C64.7339 32.9917 64.9151 33.3229 65.167 33.6057L77.1029 46.9929C77.2185 46.9088 77.3413 46.8337 77.4702 46.7684L132.694 20.0194Z" fill="#DFD9C9"/>
<path id="Vector_2" d="M215.809 6.15928C215.788 6.1177 215.766 6.07681 215.742 6.03669C214.078 3.14583 210.316 -0.299805 201.853 -0.299805C192.952 -0.299805 183.267 3.44753 182.859 3.60726C159.382 12.2792 48.8821 66.19 48.8821 66.19L22.4213 52.9714C22.0363 52.779 21.6065 52.677 21.1692 52.6743C20.7319 52.6716 20.3006 52.7683 19.913 52.956L1.28389 61.9769C0.896854 62.1642 0.565129 62.4365 0.317668 62.7699C0.0702066 63.1034 -0.0854711 63.488 -0.135779 63.89C-0.185989 64.2921 -0.129499 64.6994 0.0287776 65.0766C0.187054 65.4538 0.442325 65.7894 0.772386 66.0542L46.298 102.544C46.704 102.87 47.206 103.074 47.739 103.132C48.2719 103.189 48.8113 103.097 49.2869 102.867L93.7438 81.3607L100.471 125.306C100.531 125.701 100.694 126.077 100.945 126.402C101.197 126.727 101.528 126.991 101.913 127.171C102.298 127.351 102.724 127.443 103.154 127.438C103.585 127.433 104.009 127.332 104.388 127.143C107.904 125.39 111.413 123.627 114.915 121.852C117.821 120.382 120.826 118.861 125.687 116.44C126.207 116.181 126.62 115.77 126.862 115.271L158.502 50.0155L191.025 34.2722C206.232 27.1131 220.728 15.9674 215.809 6.15928Z" fill="#DFD9C9"/>
</g>
</g>
<defs>
<clipPath id="clip0_2700_11804">
<rect width="217" height="127" fill="white"/>
</clipPath>
</defs>
</svg>
