<svg width="216" height="216" viewBox="0 0 216 216" fill="none" xmlns="http://www.w3.org/2000/svg">
<path d="M200.577 92.5679C209.086 92.5679 216.006 85.648 216.006 77.1389V66.3155C216.006 60.6299 212.897 55.4226 207.883 52.7302L111.66 0.919615C110.537 0.315955 109.282 0 108.007 0C106.732 0 105.477 0.315955 104.354 0.919615L8.12337 52.7302C5.66751 54.0486 3.6151 56.0082 2.18463 58.4004C0.754151 60.7927 -0.000847809 63.5281 7.14436e-07 66.3155V77.1389C7.14436e-07 85.648 6.91991 92.5679 15.429 92.5679H23.1435V169.713H15.429C6.91991 169.713 7.14436e-07 176.633 7.14436e-07 185.142V200.571C7.14436e-07 209.08 6.91991 216 15.429 216H200.577C209.086 216 216.006 209.08 216.006 200.571V185.142C216.006 176.633 209.086 169.713 200.577 169.713H192.863V92.5679H200.577ZM15.429 66.3155L108.003 16.4721L200.577 66.3155V77.1389H15.429V66.3155ZM115.718 169.713V92.5679H138.861V169.713H115.718ZM77.1451 169.713V92.5679H100.289V169.713H77.1451ZM38.5725 92.5679H61.716V169.713H38.5725V92.5679ZM200.585 200.571H15.429V185.142H200.577L200.585 200.571ZM177.441 169.713H154.298V92.5679H177.441V169.713Z" fill="#DFD9C9"/>
</svg>
