<svg width="51" height="51" viewBox="0 0 51 51" fill="none" xmlns="http://www.w3.org/2000/svg">
<rect x="3.5" y="3.61279" width="44" height="44" rx="22" fill="#FF0000"/>
<rect x="3.5" y="3.61279" width="44" height="44" rx="22" stroke="#FFEDED" stroke-width="5.40323"/>
<path d="M19.9205 18.9203C19.4812 18.5103 18.7688 18.5103 18.3295 18.9203C17.8902 19.3304 17.8902 19.9952 18.3295 20.4053L23.909 25.6128L18.3295 30.8203C17.8902 31.2304 17.8902 31.8952 18.3295 32.3053C18.7688 32.7153 19.4812 32.7153 19.9205 32.3053L25.5 27.0977L31.0795 32.3053C31.5188 32.7153 32.2312 32.7153 32.6705 32.3053C33.1098 31.8952 33.1098 31.2304 32.6705 30.8203L27.091 25.6128L32.6705 20.4053C33.1098 19.9952 33.1098 19.3304 32.6705 18.9203C32.2312 18.5103 31.5188 18.5103 31.0795 18.9203L25.5 24.1279L19.9205 18.9203Z" fill="white"/>
</svg>
