<svg width="22" height="13" viewBox="0 0 22 13" fill="none" xmlns="http://www.w3.org/2000/svg">
<g id="Group 564">
<path id="Vector" d="M19.361 11.2767L13.7144 1.63599L2.37338 1.63132L1.99563 0.935791H0V1.58164L0.369323 1.79628L0 1.98468V11.2757H1.28324C1.28605 11.0536 1.33386 10.8567 1.38729 10.6477C1.63568 9.68693 2.62553 9.38511 3.11108 9.38511C3.69036 9.38511 4.29777 9.51915 4.75613 10.2015C4.94829 10.4874 5.05983 10.942 5.06921 11.2757H15.112C15.1411 10.8849 15.2563 10.4565 15.4935 10.1444C15.9659 9.52382 16.4815 9.31949 17.2257 9.38229C17.5013 9.40573 18.0131 9.49291 18.463 9.95033C18.9814 10.4781 19.0076 11.2176 18.9908 11.2757H19.361V11.2767Z" fill="#8E8E93"/>
<path id="Vector_2" d="M1.46325 8.12985H0.000976562V7.88428H13.7735V8.12985H5.07018" fill="white"/>
<path id="Vector_3" d="M19.3614 11.2767C19.9453 11.2767 20.9277 11.2767 20.9277 11.2767C21.1976 10.5662 21.1311 9.06737 21.1311 9.06737C21.1077 8.93989 20.9886 8.77399 20.9886 8.77399L20.9352 8.73929L20.908 8.72149C21.0374 7.98379 20.5471 7.78882 20.3896 7.63978C20.3812 7.63134 20.369 7.62854 20.3597 7.62198C20.2116 7.51887 20.2706 7.56012 20.2678 7.55824C19.9482 7.3314 19.4036 7.04643 19.098 6.91239C18.9508 6.84772 18.8449 6.75492 18.7408 6.63213L18.2 6.06502C17.6432 5.44074 16.8549 4.66274 16.8549 4.66274C17.2298 4.56713 17.1623 4.49029 17.1623 4.49029C16.8643 2.94365 16.6337 2.89585 16.6337 2.89585C15.9419 2.2622 14.9333 1.83007 14.9333 1.83007C14.7749 1.76726 14.0475 1.67165 13.7982 1.64166C13.7438 1.6351 13.7129 1.63697 13.7129 1.63697" fill="#8E8E93"/>
<path id="Vector_4" d="M3.18888 12.1793C3.68637 12.1793 4.08967 11.776 4.08967 11.2785C4.08967 10.781 3.68637 10.3777 3.18888 10.3777C2.69138 10.3777 2.28809 10.781 2.28809 11.2785C2.28809 11.776 2.69138 12.1793 3.18888 12.1793Z" fill="white" stroke="white" stroke-width="0.843617" stroke-miterlimit="10"/>
<path id="Vector_5" fill-rule="evenodd" clip-rule="evenodd" d="M1.53125 11.2767C1.53125 12.1934 2.27456 12.9358 3.18754 12.9358C4.10427 12.9358 4.84666 12.1578 4.84666 11.241C4.84666 10.328 4.10334 9.62036 3.18754 9.62036C2.27363 9.62036 1.53125 10.3637 1.53125 11.2767Z" fill="#8E8E93"/>
<path id="Vector_6" d="M3.18888 12.1793C3.68637 12.1793 4.08967 11.776 4.08967 11.2785C4.08967 10.781 3.68637 10.3777 3.18888 10.3777C2.69138 10.3777 2.28809 10.781 2.28809 11.2785C2.28809 11.776 2.69138 12.1793 3.18888 12.1793Z" stroke="white" stroke-width="0.281206" stroke-miterlimit="10"/>
<path id="Vector_7" d="M3.18891 11.5016C3.31212 11.5016 3.412 11.4017 3.412 11.2785C3.412 11.1553 3.31212 11.0554 3.18891 11.0554C3.0657 11.0554 2.96582 11.1553 2.96582 11.2785C2.96582 11.4017 3.0657 11.5016 3.18891 11.5016Z" fill="white"/>
<path id="Vector_8" d="M3.86074 3.20044H1.60547V6.19997H3.86074V3.20044Z" fill="white"/>
<path id="Vector_9" d="M14.0258 11.2767H13.7793V1.63599L13.9527 1.65848L14.0258 1.66974V11.2767Z" fill="white"/>
<path id="Vector_10" d="M20.4675 8.63528C20.3644 8.81337 19.9491 8.64182 19.5498 8.41124C19.1505 8.18065 18.9537 7.96132 18.9752 7.74479C18.9865 7.63324 19.1552 7.52732 19.3417 7.55638C19.4973 7.58075 19.7035 7.73542 19.8845 7.8404C20.1338 7.98475 20.3991 8.15252 20.4797 8.31281C20.5275 8.40936 20.5059 8.56779 20.4675 8.63528Z" fill="white"/>
<path id="Vector_11" d="M16.8568 4.82016H13.8301V4.51367H16.8568L17.1642 4.49023C17.1642 4.49023 17.168 4.49491 17.1689 4.50335C17.1699 4.51178 17.1661 4.52304 17.1549 4.5371C17.1492 4.54366 17.1389 4.5521 17.1267 4.56054C17.1155 4.56803 17.1024 4.57553 17.0921 4.58115C17.0714 4.59147 17.0621 4.59521 17.0546 4.59896C17.0311 4.61021 16.9843 4.62707 16.9412 4.6402C16.8971 4.65332 16.8568 4.66269 16.8568 4.66269L17.0143 4.81922H16.8568V4.82016Z" fill="white"/>
<path id="Vector_12" d="M19.7292 7.22929H14.0254V6.979H19.2427L19.3561 7.03432L19.4667 7.08963L19.6167 7.16835L19.7292 7.22929Z" fill="white"/>
<path id="Vector_13" d="M18.8809 6.89264H14.1426V4.97388H17.0193L18.8809 6.89264Z" fill="white"/>
<path id="Vector_14" d="M16.9955 12.1539C17.493 12.1539 17.8963 11.7506 17.8963 11.2531C17.8963 10.7556 17.493 10.3523 16.9955 10.3523C16.498 10.3523 16.0947 10.7556 16.0947 11.2531C16.0947 11.7506 16.498 12.1539 16.9955 12.1539Z" fill="white" stroke="white" stroke-width="0.843617" stroke-miterlimit="10"/>
<path id="Vector_15" fill-rule="evenodd" clip-rule="evenodd" d="M15.3369 11.2513C15.3369 12.168 16.0802 12.9104 16.9932 12.9104C17.9099 12.9104 18.6523 12.1324 18.6523 11.2157C18.6523 10.3027 17.909 9.59497 16.9932 9.59497C16.0802 9.59497 15.3369 10.3383 15.3369 11.2513Z" fill="#8E8E93"/>
<path id="Vector_16" d="M16.9955 12.1539C17.493 12.1539 17.8963 11.7506 17.8963 11.2531C17.8963 10.7556 17.493 10.3523 16.9955 10.3523C16.498 10.3523 16.0947 10.7556 16.0947 11.2531C16.0947 11.7506 16.498 12.1539 16.9955 12.1539Z" stroke="white" stroke-width="0.281206" stroke-miterlimit="10"/>
<path id="Vector_17" d="M16.9956 11.4762C17.1188 11.4762 17.2186 11.3763 17.2186 11.2531C17.2186 11.1299 17.1188 11.03 16.9956 11.03C16.8723 11.03 16.7725 11.1299 16.7725 11.2531C16.7725 11.3763 16.8723 11.4762 16.9956 11.4762Z" fill="white"/>
</g>
</svg>
