<svg width="134" height="24" viewBox="0 0 134 24" fill="none" xmlns="http://www.w3.org/2000/svg">
<path d="M5.10924 12.8775L3.92335 18.4909H0L2.70873 5.74131H6.63209L5.78055 9.70645H11.1745C11.501 9.70645 11.7283 9.63854 11.8589 9.5001C11.9895 9.36427 12.0966 9.09522 12.1828 8.7008L12.9298 5.27635C12.9638 5.10396 12.9821 4.9838 12.9821 4.91589C12.9821 4.72782 12.9246 4.60244 12.8149 4.54236C12.7026 4.48228 12.5276 4.45094 12.2846 4.45094H2.96733L3.69088 1.05261H14.6329C15.5106 1.05261 16.1375 1.20673 16.5162 1.51495C16.895 1.82318 17.083 2.3038 17.083 2.95682C17.083 3.12922 17.07 3.30423 17.0439 3.48446C17.0177 3.6647 16.9864 3.86844 16.9524 4.09047L15.7378 9.83183C15.5158 10.861 15.1344 11.6263 14.6016 12.1226C14.0687 12.6215 13.2433 12.8697 12.1227 12.8697H5.10924V12.8775Z" fill="#E0AD25"/>
<path d="M16.2578 18.491L19.0188 5.45929H22.5294L22.2212 6.87504C22.5477 6.37613 22.9134 6.01828 23.3183 5.79364C23.7232 5.57161 24.209 5.45929 24.7758 5.45929H28.5686L27.8973 8.57551H22.6835C22.4249 8.57551 22.2317 8.62253 22.1037 8.71917C21.9731 8.81321 21.8738 9.0065 21.8085 9.29906L19.8729 18.4936H16.2578V18.491Z" fill="#E0AD25"/>
<path d="M30.2974 18.491C29.5738 18.491 29.054 18.3656 28.7353 18.1175C28.4167 17.8693 28.2573 17.4775 28.2573 16.9472C28.2573 16.7069 28.2991 16.3726 28.3879 15.9416L30.0649 8.00869C30.253 7.13364 30.569 6.48845 31.0052 6.07835C31.4441 5.66564 32.1284 5.45929 33.0557 5.45929H41.9342C42.6917 5.45929 43.2246 5.58467 43.5354 5.83282C43.8436 6.08097 44.0004 6.47278 44.0004 7.00564C44.0004 7.24596 43.956 7.5803 43.8698 8.0113L42.1928 15.9442C42.0047 16.8193 41.6887 17.4644 41.2524 17.8745C40.8136 18.2872 40.1214 18.4936 39.1758 18.4936H30.3L30.2974 18.491ZM39.9751 9.29644C40.0091 9.12405 40.0274 9.02217 40.0274 8.98822C40.0274 8.71395 39.7949 8.57551 39.33 8.57551H34.2207C33.9464 8.57551 33.7532 8.62253 33.6408 8.71917C33.5285 8.81321 33.4475 9.0065 33.3953 9.29906L32.2852 14.6042C32.2669 14.6747 32.2538 14.7322 32.246 14.7844C32.2381 14.8367 32.2329 14.8863 32.2329 14.9385C32.2329 15.1789 32.421 15.299 32.7997 15.299H37.909C38.2172 15.299 38.4418 15.2468 38.5803 15.1449C38.7161 15.043 38.8128 14.8602 38.865 14.6042L39.9751 9.29906V9.29644Z" fill="#E0AD25"/>
<path d="M46.6203 18.491L49.329 5.74139H53.3804L52.7613 8.57289H59.187L58.5941 11.3548H52.1684L51.3926 15.0117H60.2946L59.571 18.4884H46.6177L46.6203 18.491ZM49.5876 4.45625L50.3112 1.05792H63.2645L62.5409 4.45625H49.5876Z" fill="#EAEAE9"/>
<path d="M71.007 23.9502L74.2826 8.65387H68.6823C68.3897 8.65387 68.1912 8.70611 68.0893 8.80798C67.9875 8.90986 67.8987 9.10837 67.8307 9.40093L66.6945 14.68C66.6605 14.8524 66.6423 14.9621 66.6423 15.0143C66.6423 15.1684 66.6893 15.2729 66.7859 15.3225C66.8799 15.3748 67.0315 15.4009 67.2378 15.4009H71.5477L70.9026 18.491H64.7354C63.3928 18.491 62.7241 17.932 62.7241 16.8166C62.7241 16.5241 62.7581 16.2341 62.826 15.9416L64.503 8.00869C64.691 7.13364 65.0045 6.48845 65.4433 6.07835C65.8821 5.66564 66.5665 5.45929 67.4938 5.45929H78.5899L74.6405 23.9502H71.0044H71.007Z" fill="#EAEAE9"/>
<path d="M88.866 18.491L89.1507 17.1014C88.8242 17.6003 88.4585 17.9555 88.0536 18.1697C87.6487 18.3839 87.1707 18.491 86.6222 18.491H80.9461C80.2565 18.491 79.7472 18.3708 79.4102 18.1305C79.0759 17.8902 78.9087 17.4853 78.9087 16.9211C78.9087 16.6625 78.9531 16.3386 79.0393 15.9416L81.2596 5.45929H84.8721L82.9104 14.6538C82.8765 14.8262 82.8582 14.9359 82.8582 14.9882C82.8582 15.2624 83.0645 15.4009 83.4772 15.4009H88.6648C88.9391 15.4009 89.1376 15.3486 89.2578 15.2468C89.3779 15.1449 89.472 14.9464 89.5425 14.6538L91.5042 5.45929H95.1167L92.3557 18.491H88.8712H88.866Z" fill="#EAEAE9"/>
<path d="M95.1348 18.491L97.8957 5.45926H101.508L98.7473 18.491H95.1348ZM98.2301 3.9129L99.0555 0H102.694L101.869 3.9129H98.2301Z" fill="#EAEAE9"/>
<path d="M111.988 18.4908L113.923 9.29627C113.957 9.12388 113.976 9.022 113.976 8.98805C113.976 8.71378 113.759 8.57534 113.33 8.57534H107.936C107.678 8.57534 107.49 8.62236 107.367 8.719C107.247 8.81304 107.153 9.00633 107.082 9.29888L105.147 18.4934H101.534L104.295 5.46173H107.78L107.471 6.87748C108.091 5.93191 108.942 5.46173 110.026 5.46173H115.885C116.59 5.46173 117.102 5.58189 117.421 5.8222C117.74 6.06251 117.899 6.46738 117.899 7.03159C117.899 7.35811 117.865 7.68462 117.797 8.01113L115.577 18.4934H111.988V18.4908Z" fill="#EAEAE9"/>
<path d="M120.579 18.491C119.84 18.491 119.31 18.3656 118.994 18.1175C118.675 17.8693 118.516 17.4775 118.516 16.9472C118.516 16.7069 118.557 16.3726 118.646 15.9416L120.323 8.00869C120.511 7.13364 120.825 6.48845 121.266 6.07835C121.705 5.66564 122.397 5.45929 123.343 5.45929H132.169C132.822 5.45929 133.292 5.58467 133.577 5.83282C133.862 6.08097 134.003 6.45449 134.003 6.9534C134.003 7.26163 133.966 7.5803 133.901 7.90681L132.817 13.0317H124.121L124.56 10.8689H129.826L130.213 9.11882C130.228 9.03262 130.239 8.9203 130.239 8.78447C130.239 8.64865 130.199 8.552 130.124 8.49976C130.045 8.44752 129.904 8.42401 129.698 8.42401H124.51C124.218 8.42401 124.019 8.47102 123.917 8.56506C123.816 8.65909 123.729 8.85239 123.659 9.14494L122.447 14.7583C122.429 14.8445 122.415 14.9177 122.408 14.9777C122.4 15.0378 122.395 15.0927 122.395 15.1449C122.395 15.299 122.439 15.4035 122.525 15.4531C122.611 15.5054 122.765 15.5315 122.99 15.5315H131.79L131.171 18.4936H120.592L120.579 18.491Z" fill="#EAEAE9"/>
</svg>
