<svg width="39" height="39" viewBox="0 0 39 39" fill="none" xmlns="http://www.w3.org/2000/svg">
<circle cx="19.5" cy="19.5" r="19.5" fill="#303030"/>
<path d="M29.1607 14.1003L27.9503 14.0044C27.8868 14.0028 27.8234 14.0028 27.7634 14.0028H27.7568C27.4149 13.993 27.0799 14.0093 26.7564 14.0489C26.7313 14.0522 26.7133 14.0538 26.6981 14.0554C26.6849 14.0571 26.6745 14.0587 26.6697 14.0587H26.6663C25.2475 14.2506 23.9999 14.889 22.9127 15.9263C22.451 16.3664 22.0457 16.8628 21.5988 17.3209C21.4688 17.4548 21.3037 17.6054 21.1302 17.6434C20.1447 17.8618 19.2994 18.3284 18.6275 19.0628C17.8288 19.9364 16.8449 20.4557 15.7178 20.7733C15.3343 20.8805 14.954 20.9982 14.5755 21.1174L13.6036 21.4301C13.3719 21.5044 13.1399 21.5791 12.9081 21.6518C12.8546 21.6685 12.7982 21.693 12.7447 21.688C12.2929 21.6452 11.8394 21.6285 11.4292 21.3835C11.2342 21.2692 11.0025 21.1819 10.7807 21.1553C9.80667 21.0362 8.91662 21.6187 8.51137 22.6311C8.37472 22.9735 8.2863 23.3341 8.16939 23.6831C7.84924 24.6408 7.33735 25.4547 6.41027 25.9496C6.27694 26.019 6.13663 26.0803 6 26.1464C6.78225 26.0389 7.47561 25.7459 7.87106 25.0446C8.16281 24.5285 8.35781 23.9562 8.58996 23.4067C8.73312 23.0674 8.82155 22.7004 9.00352 22.3845C9.41861 21.6518 10.2758 21.2777 10.9609 21.5178C11.3963 21.6718 11.8131 21.8783 12.2498 22.0669C11.793 22.429 11.4024 22.8924 11.2041 23.4679C11.0074 24.0387 10.7889 25.2315 10.8223 25.2381C10.8823 25.038 10.9458 24.8359 11.0041 24.6327C11.4379 23.172 12.3399 22.171 13.734 21.655C13.8525 21.6105 13.9743 21.5689 14.0989 21.5325C14.3039 21.4712 14.5108 21.4149 14.7158 21.359C14.9392 21.2995 15.1643 21.243 15.3894 21.1904C16.7268 20.8679 17.9406 20.3401 18.8678 19.2746C19.053 19.0611 19.2845 18.8795 19.5163 18.7121C19.9998 18.3582 20.5252 18.0687 21.1321 18.0108C21.4573 17.9777 21.6474 17.8107 21.8343 17.5821C22.4947 16.7681 23.1966 15.9957 24.067 15.3887C25.0356 14.7123 26.0763 14.2408 27.2552 14.1465C27.2634 14.1465 27.2721 14.1448 27.2786 14.1448C27.3671 14.1367 27.4588 14.1334 27.5507 14.1318H27.5675C27.721 14.1269 27.8744 14.1252 28.0226 14.1252H28.0909C28.0909 14.1252 28.0926 14.1236 28.0943 14.1252C28.2543 14.1252 28.4061 14.1318 28.5526 14.1383C28.7946 14.1514 29.018 14.1714 29.2146 14.193C29.4031 14.2146 29.5699 14.2375 29.708 14.2608C29.9764 14.3053 30.1484 14.3469 30.1933 14.3567C29.8665 14.2359 29.513 14.1534 29.1612 14.1003H29.1607Z" fill="#D0D3D6"/>
<path d="M10.6696 19.6939C10.6248 19.7421 10.5782 19.787 10.5343 19.834C10.4923 19.883 10.4478 19.9295 10.4083 19.9793C10.3293 20.0798 10.2537 20.1806 10.1887 20.2887C10.0549 20.5018 9.94876 20.7289 9.84952 20.964C9.74918 21.1978 9.65202 21.4404 9.52563 21.6775C9.46395 21.7968 9.39119 21.9123 9.31219 22.0246C9.2702 22.0792 9.2307 22.1356 9.1833 22.1869L9.11497 22.2654L9.04138 22.3393C8.94256 22.4372 8.8328 22.5234 8.71915 22.6026C8.66233 22.6425 8.60148 22.6753 8.543 22.7115C8.4834 22.7462 8.42159 22.7753 8.36033 22.8063C8.11262 22.9222 7.85338 23.0023 7.59291 23.0598C7.07031 23.1688 6.54155 23.1974 6.01855 23.1598C6.53209 23.0561 7.03946 22.9541 7.52255 22.8013C7.76245 22.7221 7.99699 22.6328 8.21385 22.5176C8.43115 22.4033 8.63031 22.2642 8.80064 22.0963C8.97305 21.9298 9.11622 21.7347 9.24179 21.5204C9.36888 21.3073 9.48086 21.0766 9.60712 20.8472C9.73269 20.6177 9.87585 20.3895 10.0537 20.1891C10.2301 19.9888 10.4384 19.8169 10.6696 19.6935V19.6939Z" fill="#D0D3D6"/>
<path d="M8.9754 20.9066C8.92884 21.236 8.82226 21.5619 8.65109 21.8586C8.48035 22.1553 8.23346 22.411 7.94993 22.6065C7.6656 22.8028 7.34546 22.938 7.01832 23.0286C6.68954 23.116 6.35295 23.1559 6.01758 23.1609C6.3406 23.0678 6.66032 22.9848 6.96647 22.8694C7.2718 22.7531 7.56437 22.613 7.82732 22.4318C8.08985 22.2509 8.32401 22.03 8.51001 21.7679C8.69849 21.5075 8.84249 21.2128 8.9754 20.9066Z" fill="#D0D3D6"/>
<path d="M10.4758 19.2474C10.3359 19.3202 10.2075 19.3899 10.0915 19.4732C9.97511 19.5553 9.87088 19.6492 9.77387 19.7525C9.6763 19.8556 9.58496 19.9676 9.49197 20.0827C9.39856 20.1977 9.30556 20.317 9.19482 20.4288C9.22656 20.2754 9.28047 20.1312 9.34963 19.9928C9.41948 19.8549 9.50721 19.7226 9.61753 19.6066C9.72688 19.4908 9.86063 19.3919 10.0092 19.3279C10.1578 19.2641 10.3187 19.2335 10.4758 19.2479V19.2474Z" fill="#D0D3D6"/>
<path d="M32.3369 19.2539C32.2882 18.844 32.2167 18.4317 32.0997 18.0382C31.8731 17.2789 31.6097 16.5298 31.3645 15.777C31.3513 15.737 31.3411 15.6991 31.3353 15.6627C31.3135 15.5288 31.3468 15.4125 31.4826 15.2892C31.506 15.2676 31.5275 15.2459 31.5497 15.2247C31.7948 14.9867 32.0048 14.7099 32.2335 14.4519C32.2167 14.4254 32.2019 14.3976 32.185 14.3711C31.8483 14.4454 31.4916 14.4683 31.1777 14.5875C31.1476 14.5993 31.1175 14.6107 31.0876 14.6242C30.8925 14.712 30.7024 14.7565 30.514 14.7695C30.2419 14.7912 29.9721 14.7512 29.6868 14.6969C29.6218 14.6854 29.5552 14.6724 29.4885 14.6622C29.3153 14.6324 29.1399 14.6058 28.9667 14.5862C28.7314 14.5581 28.4965 14.5417 28.2593 14.5352C27.7113 14.5185 27.164 14.5617 26.6171 14.6903C26.5887 14.6973 26.5603 14.7038 26.5323 14.7103C25.1448 15.0594 24.1127 15.933 23.1907 16.9617C22.9104 17.2744 22.6438 17.6018 22.3401 17.9578C23.9926 17.7345 25.4234 18.2591 25.8217 18.682C25.1168 18.464 24.4086 18.355 23.6947 18.3329C23.5 18.3264 23.3046 18.3268 23.1088 18.3334C22.4018 18.3546 21.6965 18.4289 21.043 18.7301C20.8595 18.8147 20.6929 18.9339 20.5193 19.0347C20.5233 19.0375 20.527 19.0408 20.5312 19.0428L20.5316 19.0433C20.6286 19.1118 20.699 19.1192 20.7661 19.1323C21.5981 19.2915 22.3182 19.6536 22.854 20.3137C22.9145 20.388 22.9688 20.4647 23.0166 20.5432C23.0269 20.5598 23.0363 20.5762 23.0458 20.5929C23.2864 21.0125 23.3593 21.4861 23.2408 21.9808C23.1848 22.214 23.0079 22.352 23.0043 22.3581C23.0026 22.3552 23.0009 22.3516 22.9984 22.3487C22.928 22.2267 22.8413 22.1103 22.7939 21.9779C22.742 21.8322 22.7437 21.6686 22.6989 21.5196C22.5487 21.0301 22.3021 20.9423 21.9055 21.2698C21.5422 21.571 21.2052 21.9033 20.8698 22.2373C20.4286 22.6781 19.9657 23.0929 19.4412 23.4182C19.2123 23.5598 18.9716 23.6847 18.7156 23.7872C18.3938 23.9163 18.0433 24.0106 17.6985 24.0436C17.2166 24.0902 16.9783 23.782 17.0647 23.3092C17.0862 23.1938 17.115 23.0774 17.1495 22.9076C17.1228 22.9211 17.0964 22.9357 17.0705 22.95C16.6705 23.1737 16.3817 23.4704 16.1328 23.7926C16.0793 23.8583 16.0306 23.9248 15.9821 23.9925C15.9196 24.0804 15.857 24.1681 15.7949 24.2567C15.6948 24.398 15.5961 24.5396 15.4973 24.6809C15.132 25.2022 14.7732 25.7268 14.4016 26.2424C14.2065 26.5122 13.9682 26.7489 13.7515 27C14.2551 26.6326 14.732 26.2326 15.174 25.8007C15.3822 25.5969 15.5842 25.3851 15.7826 25.172C15.9788 24.9609 16.173 24.747 16.3694 24.5364C16.394 24.5094 16.4191 24.4824 16.4442 24.4556C16.4557 24.4641 16.4672 24.4751 16.4764 24.4793L16.4776 24.4824L16.4389 24.5629C16.3734 24.6984 16.308 24.8351 16.2417 24.974C16.2394 24.9793 16.2373 24.9846 16.2344 24.9899C16.1525 25.161 16.0693 25.3356 15.9817 25.5166L17.0676 25.3977C17.8145 25.2818 18.5482 25.1695 19.2836 25.0733C21.4463 24.794 23.384 23.9881 25.1098 22.67C25.1547 22.6353 25.1884 22.5871 25.26 22.5091C24.8427 22.5206 24.5815 22.3638 24.4795 22.0029C24.3506 21.5518 24.2231 21.0996 23.9955 20.6924C23.9856 20.6741 23.9754 20.6558 23.9646 20.6382C23.8684 20.4746 23.7552 20.3186 23.6174 20.1732C23.8659 20.279 24.0461 20.4521 24.1897 20.6582C24.2021 20.6762 24.2145 20.6941 24.2268 20.7121C24.256 20.7562 24.2835 20.8019 24.3098 20.8481C24.4749 21.1374 24.618 21.4388 24.7884 21.7249C25.0184 22.1184 25.3419 22.267 25.7756 22.1348C26.1373 22.0241 26.4895 21.8686 26.824 21.6951C26.9603 21.6245 27.0953 21.5518 27.2303 21.4783L29.0428 20.897L28.4503 22.0299C28.4198 22.3086 28.2672 22.2238 28.2672 22.2238C27.9862 21.9392 27.5598 22.1527 27.5598 22.1527L27.2014 23.3002L27.7672 23.1464C27.9866 23.0867 28.1857 22.9668 28.3322 22.7945C28.5462 22.543 28.798 22.5324 28.798 22.5324C29.537 22.6536 29.4819 22.3446 29.5247 22.0355C29.5675 21.7266 29.9951 20.6905 29.9951 20.6905C29.9951 20.6905 30.2271 20.4663 29.7753 20.0724C29.3309 19.685 27.7257 20.11 27.6869 20.1251C27.6052 20.1394 27.5232 20.1524 27.4409 20.1634C27.1895 20.1973 26.9356 20.2169 26.6775 20.2239C26.606 20.2255 26.5331 20.2251 26.4604 20.2259C26.1028 20.2279 25.7419 20.2508 25.5102 20.6369C25.5818 20.2239 25.7674 20.0063 26.1089 19.9356C26.1735 19.9222 26.2443 19.914 26.3208 19.9107C26.5603 19.903 26.801 19.9103 27.0562 19.9107H27.0829C27.0829 19.567 27.0278 19.2511 26.9385 18.9461C26.8854 18.764 26.8196 18.586 26.7463 18.4089C26.6245 18.1125 26.511 17.8067 26.4426 17.494C26.3994 17.2887 26.4426 17.0638 26.4472 16.849C26.4788 16.849 26.5072 16.8474 26.539 16.8458C26.5191 17.5851 26.8274 18.1905 27.2746 18.7579C27.3294 18.5958 27.3594 18.4603 27.4179 18.3362C27.6063 17.9476 27.8681 17.6418 28.2401 17.4798C28.3565 17.4283 28.4836 17.3899 28.6219 17.3687C28.7067 17.3556 28.8787 17.4214 28.8869 17.4712C28.9754 17.979 29.3404 18.1529 29.7823 18.2554C30.0477 18.3182 30.5196 18.8028 30.6703 19.1539C30.7016 19.227 30.7192 19.2943 30.718 19.3502C30.711 19.6017 30.8498 19.683 31.018 19.7899C31.0929 19.8381 31.1662 19.8744 31.2398 19.9009C31.297 19.921 31.3518 19.934 31.4065 19.9405C31.6751 19.9773 31.9233 19.8646 32.1521 19.6515C32.2006 19.6033 32.2508 19.5372 32.2855 19.4678C32.3039 19.4331 32.3171 19.3984 32.3269 19.3637C32.3373 19.3241 32.3417 19.2878 32.3373 19.2543L32.3369 19.2539Z" fill="#D0D3D6"/>
</svg>
