<svg width="27" height="13" viewBox="0 0 27 13" fill="none" xmlns="http://www.w3.org/2000/svg">
<path d="M23.5172 0.100348L22.3103 0.00441084C22.247 0.00277195 22.1838 0.00277169 22.124 0.00277169H22.1174C21.7764 -0.00702038 21.4424 0.00931378 21.1199 0.048909C21.0949 0.052173 21.0769 0.0538116 21.0617 0.0554367C21.0486 0.0570756 21.0382 0.0587012 21.0334 0.0587012H21.0301C19.6154 0.250576 18.3714 0.889043 17.2873 1.92634C16.827 2.36642 16.4229 2.86283 15.9773 3.32085C15.8476 3.45476 15.6831 3.60538 15.51 3.64335C14.5274 3.86176 13.6845 4.32836 13.0146 5.06276C12.2182 5.93636 11.2372 6.45568 10.1134 6.77326C9.73104 6.88055 9.35184 6.99816 8.97444 7.11743L8.00531 7.43006C7.77426 7.50443 7.54293 7.57908 7.31187 7.65179C7.25853 7.66846 7.20228 7.69297 7.14894 7.68802C6.69844 7.64518 6.24628 7.62852 5.83723 7.38351C5.6428 7.2692 5.41174 7.18189 5.19064 7.1553C4.21943 7.03618 3.33197 7.61874 2.9279 8.63114C2.79165 8.97352 2.70348 9.33407 2.58692 9.68306C2.2677 10.6408 1.75729 11.4547 0.832901 11.9496C0.699962 12.019 0.560057 12.0803 0.423828 12.1464C1.2038 12.0389 1.89515 11.7459 2.28945 11.0446C2.58035 10.5285 2.77479 9.95617 3.00626 9.40665C3.14901 9.06744 3.23717 8.70041 3.41862 8.38448C3.8325 7.65179 4.68721 7.27774 5.37029 7.51779C5.80448 7.67176 6.22002 7.87835 6.65546 8.06689C6.19999 8.42896 5.81056 8.8924 5.61281 9.46794C5.41672 10.0387 5.19879 11.2315 5.2321 11.2381C5.29193 11.038 5.35523 10.8359 5.4134 10.6327C5.84594 9.17198 6.74529 8.17101 8.13535 7.65496C8.2535 7.61048 8.37497 7.56889 8.49921 7.53253C8.70359 7.47124 8.90991 7.41491 9.11429 7.359C9.33706 7.2995 9.56148 7.24303 9.7859 7.19042C11.1194 6.86788 12.3297 6.3401 13.2542 5.27464C13.4388 5.06112 13.6698 4.87947 13.9008 4.71209C14.383 4.35816 14.9068 4.06872 15.512 4.01076C15.8362 3.97769 16.0258 3.81073 16.2121 3.58212C16.8705 2.76811 17.5705 1.99574 18.4383 1.38871C19.4041 0.712276 20.4418 0.24077 21.6173 0.146471C21.6254 0.146471 21.6341 0.144846 21.6406 0.144846C21.7288 0.136679 21.8203 0.133416 21.9119 0.131777H21.9286C22.0817 0.126874 22.2347 0.125248 22.3824 0.125248H22.4505C22.4505 0.125248 22.4522 0.12361 22.4539 0.125248C22.6135 0.125248 22.7648 0.131776 22.9109 0.138305C23.1521 0.151374 23.3749 0.171372 23.571 0.193008C23.7589 0.214644 23.9252 0.237506 24.063 0.260781C24.3305 0.305279 24.502 0.346913 24.5468 0.356705C24.2209 0.235881 23.8685 0.153412 23.5177 0.100348H23.5172Z" fill="white"/>
<path d="M5.07989 8.69402C5.03525 8.74222 4.98882 8.78712 4.94501 8.83408C4.90314 8.88311 4.85878 8.92966 4.8194 8.97938C4.74063 9.07991 4.66518 9.18073 4.60037 9.28884C4.46701 9.5019 4.36116 9.729 4.26221 9.96409C4.16216 10.1979 4.06529 10.4405 3.93926 10.6776C3.87777 10.7969 3.80522 10.9124 3.72645 11.0247C3.68458 11.0794 3.64519 11.1357 3.59793 11.1871L3.5298 11.2656L3.45642 11.3394C3.35789 11.4373 3.24845 11.5235 3.13513 11.6027C3.07847 11.6427 3.0178 11.6754 2.95949 11.7117C2.90007 11.7464 2.83843 11.7754 2.77735 11.8064C2.53036 11.9224 2.27188 12.0024 2.01216 12.06C1.49109 12.1689 0.96386 12.1975 0.442383 12.1599C0.954421 12.0562 1.46032 11.9542 1.942 11.8014C2.18121 11.7223 2.41507 11.6329 2.6313 11.5177C2.84797 11.4034 3.04655 11.2643 3.21638 11.0964C3.38829 10.9299 3.53105 10.7348 3.65625 10.5205C3.78297 10.3074 3.89463 10.0767 4.02052 9.8473C4.14572 9.61786 4.28847 9.38965 4.46577 9.18927C4.64169 8.98888 4.84939 8.817 5.07989 8.6936V8.69402Z" fill="white"/>
<path d="M3.39063 9.90674C3.3442 10.2362 3.23793 10.562 3.06727 10.8587C2.89702 11.1555 2.65084 11.4111 2.36815 11.6066C2.08463 11.8029 1.76543 11.9381 1.43924 12.0288C1.11141 12.1161 0.7758 12.156 0.441406 12.161C0.763488 12.0679 1.08228 11.985 1.38754 11.8696C1.69198 11.7532 1.9837 11.6131 2.24589 11.4319C2.50765 11.251 2.74114 11.0301 2.92659 10.7681C3.11453 10.5076 3.25811 10.2129 3.39063 9.90674Z" fill="white"/>
<path d="M4.88667 8.24745C4.7471 8.32017 4.61913 8.38985 4.50347 8.47317C4.38739 8.55526 4.28347 8.64918 4.18674 8.75248C4.08945 8.85563 3.99838 8.9676 3.90566 9.08273C3.81251 9.19773 3.71979 9.317 3.60938 9.42883C3.64102 9.27541 3.69478 9.13121 3.76373 8.9928C3.83338 8.85494 3.92086 8.72259 4.03086 8.60663C4.13989 8.4908 4.27324 8.39192 4.42138 8.32788C4.56952 8.26411 4.72996 8.23354 4.88667 8.24786V8.24745Z" fill="white"/>
<path d="M26.6837 5.25391C26.6352 4.84404 26.5639 4.43173 26.4473 4.0382C26.2213 3.2789 25.9586 2.5298 25.7142 1.77703C25.7011 1.73703 25.6908 1.69905 25.685 1.66272C25.6633 1.52883 25.6965 1.41248 25.8319 1.28919C25.8553 1.26756 25.8767 1.24592 25.8988 1.2247C26.1433 0.986699 26.3526 0.709919 26.5806 0.451923C26.5639 0.425384 26.5491 0.397633 26.5323 0.371094C26.1966 0.445395 25.8409 0.468257 25.5279 0.587456C25.4979 0.5993 25.4679 0.610731 25.4381 0.6242C25.2435 0.711971 25.0541 0.756469 24.8661 0.769525C24.5948 0.791161 24.3258 0.751153 24.0414 0.696863C23.9766 0.685432 23.9101 0.672362 23.8436 0.662156C23.6709 0.632367 23.4961 0.605828 23.3233 0.58623C23.0887 0.558066 22.8545 0.541732 22.618 0.535204C22.0716 0.518471 21.5259 0.561743 20.9806 0.690334C20.9523 0.697276 20.9239 0.703804 20.896 0.710332C19.5126 1.05936 18.4835 1.93298 17.5641 2.96171C17.2847 3.27441 17.0188 3.60181 16.716 3.95779C18.3637 3.73448 19.7904 4.25905 20.1875 4.68199C19.4847 4.46398 18.7785 4.35499 18.0667 4.33294C17.8726 4.32641 17.6777 4.32683 17.4824 4.33335C16.7775 4.35458 16.0743 4.42888 15.4227 4.73015C15.2397 4.81465 15.0736 4.93385 14.9005 5.03469C14.9045 5.03754 14.9082 5.04081 14.9124 5.04285L14.9128 5.04326C15.0095 5.11184 15.0797 5.11918 15.1466 5.13226C15.9762 5.29146 16.6942 5.65356 17.2284 6.31367C17.2887 6.38797 17.3429 6.46465 17.3905 6.54315C17.4008 6.55982 17.4102 6.57621 17.4197 6.59287C17.6596 7.01251 17.7323 7.48614 17.6141 7.98084C17.5583 8.214 17.3818 8.352 17.3782 8.35806C17.3766 8.35517 17.3749 8.35159 17.3724 8.34869C17.3022 8.22667 17.2157 8.1103 17.1685 7.97794C17.1168 7.83223 17.1184 7.66862 17.0738 7.5196C16.924 7.03014 16.6782 6.94227 16.2827 7.26978C15.9205 7.57098 15.5844 7.9033 15.25 8.23728C14.8101 8.67813 14.3485 9.09295 13.8255 9.41825C13.5973 9.55982 13.3573 9.68474 13.1021 9.78721C12.7812 9.91625 12.4317 10.0106 12.0879 10.0436C11.6074 10.0902 11.3698 9.78197 11.4559 9.30917C11.4774 9.19376 11.5061 9.07738 11.5405 8.90757C11.5138 8.92107 11.4876 8.93567 11.4617 8.94999C11.0629 9.17365 10.7749 9.47044 10.5267 9.79258C10.4734 9.85827 10.4249 9.92479 10.3765 9.99255C10.3142 10.0804 10.2517 10.1681 10.1898 10.2567C10.0901 10.398 9.99166 10.5396 9.89313 10.6809C9.52886 11.2022 9.17109 11.7268 8.8006 12.2424C8.60602 12.5122 8.36847 12.7489 8.15234 13C8.65453 12.6326 9.13004 12.2326 9.57074 11.8007C9.7783 11.5969 9.97978 11.3851 10.1775 11.172C10.3732 10.9609 10.5668 10.747 10.7626 10.5364C10.7872 10.5094 10.8122 10.4824 10.8373 10.4556C10.8487 10.4641 10.8602 10.4751 10.8693 10.4793L10.8706 10.4824L10.832 10.5629C10.7666 10.6984 10.7014 10.8351 10.6354 10.974C10.633 10.9793 10.6309 10.9846 10.628 10.9899C10.5464 11.161 10.4634 11.3356 10.3761 11.5166L11.4588 11.3977C12.2035 11.2818 12.9351 11.1695 13.6684 11.0733C15.8248 10.794 17.7569 9.98814 19.4776 8.67C19.5224 8.63529 19.556 8.58709 19.6274 8.50914C19.2113 8.52057 18.9509 8.36384 18.8491 8.00287C18.7206 7.55183 18.5935 7.09955 18.3666 6.69244C18.3568 6.67413 18.3465 6.65581 18.3358 6.63818C18.2399 6.47457 18.127 6.31857 17.9896 6.17323C18.2374 6.27896 18.417 6.45212 18.5602 6.65815C18.5726 6.67619 18.5849 6.6941 18.5972 6.71214C18.6264 6.75621 18.6537 6.80193 18.68 6.84807C18.8446 7.13743 18.9873 7.43876 19.1572 7.72495C19.3866 8.11842 19.7091 8.26702 20.1415 8.13481C20.5022 8.02408 20.8533 7.86859 21.1869 7.69506C21.3228 7.62455 21.4574 7.55183 21.592 7.47829L23.3992 6.89696L22.8084 8.02987C22.778 8.30862 22.6259 8.22378 22.6259 8.22378C22.3456 7.93924 21.9206 8.15272 21.9206 8.15272L21.5632 9.30022L22.1273 9.14638C22.3461 9.08675 22.5446 8.96679 22.6907 8.7945C22.9041 8.54302 23.1552 8.53242 23.1552 8.53242C23.892 8.65361 23.837 8.34456 23.8797 8.03551C23.9224 7.7266 24.3487 6.69052 24.3487 6.69052C24.3487 6.69052 24.5801 6.4663 24.1296 6.0724C23.6865 5.68499 22.086 6.10996 22.0473 6.12507C21.9658 6.13935 21.8841 6.15242 21.802 6.16344C21.5513 6.19732 21.2982 6.21692 21.0409 6.22386C20.9695 6.22548 20.8969 6.22508 20.8243 6.2259C20.4678 6.22793 20.1079 6.2508 19.8769 6.63694C19.9483 6.22386 20.1334 6.00627 20.4739 5.93565C20.5383 5.92218 20.6089 5.91401 20.6851 5.91074C20.9239 5.90299 21.164 5.91033 21.4184 5.91074H21.4451C21.4451 5.56702 21.3901 5.25105 21.3011 4.9461C21.2481 4.76403 21.1825 4.58605 21.1094 4.40887C20.9879 4.1125 20.8747 3.80675 20.8066 3.49403C20.7635 3.2887 20.8066 3.06376 20.8112 2.84904C20.8427 2.84904 20.871 2.8474 20.9027 2.84577C20.8829 3.58507 21.1902 4.19047 21.6362 4.75791C21.6908 4.59584 21.7207 4.46031 21.7791 4.33621C21.9669 3.94758 22.2279 3.64181 22.5988 3.47975C22.7149 3.42831 22.8416 3.38994 22.9795 3.36871C23.0641 3.35565 23.2356 3.42137 23.2438 3.47117C23.3321 3.97901 23.6959 4.15291 24.1366 4.25538C24.4012 4.31825 24.8718 4.80281 25.022 5.15389C25.0532 5.22697 25.0708 5.29433 25.0695 5.35024C25.0626 5.60171 25.2009 5.68295 25.3687 5.78991C25.4433 5.83808 25.5164 5.87441 25.5898 5.90094C25.6469 5.92095 25.7015 5.93401 25.7561 5.94055C26.0239 5.97728 26.2714 5.86461 26.4995 5.65152C26.5479 5.60335 26.5979 5.53721 26.6325 5.46782C26.6508 5.43312 26.664 5.39842 26.6738 5.36372C26.6841 5.32412 26.6886 5.28779 26.6841 5.25432L26.6837 5.25391Z" fill="white"/>
</svg>
