<svg width="238" height="119" viewBox="0 0 238 119" fill="none" xmlns="http://www.w3.org/2000/svg">
<g id="Group 664">
<path id="Vector" d="M208.947 0.918612L198.024 0.0424476C197.453 0.0247471 196.883 0.0247568 196.339 0.0247568H196.278C193.189 -0.0637455 190.171 0.0866912 187.249 0.449551C187.021 0.476102 186.863 0.493808 186.723 0.511509C186.6 0.529209 186.512 0.538059 186.468 0.538059H186.442C173.64 2.29041 162.383 8.14042 152.582 17.6367C148.415 21.6636 144.765 26.2126 140.729 30.3987C139.553 31.6201 138.07 33.0007 136.499 33.3547C127.611 35.3549 119.986 39.6207 113.923 46.3469C106.72 54.3475 97.8405 59.1001 87.6712 62.0029C84.2142 62.9853 80.7835 64.065 77.3704 65.1536L68.605 68.0122C66.5168 68.6937 64.4198 69.3752 62.3315 70.0389C61.8489 70.1894 61.34 70.4195 60.8574 70.3753C56.7862 69.9858 52.6887 69.8265 48.986 67.5874C47.2224 66.5431 45.1342 65.7377 43.1337 65.4988C34.342 64.4102 26.3136 69.738 22.6636 79.0042C21.4352 82.1372 20.6368 85.4384 19.5751 88.6333C16.6884 97.4039 12.0732 104.847 3.70269 109.378C2.50063 110.015 1.23715 110.573 0 111.175C7.05441 110.192 13.3104 107.511 16.8814 101.086C19.5137 96.3596 21.2773 91.1202 23.3655 86.0933C24.6553 82.9868 25.4538 79.6326 27.0946 76.7386C30.8411 70.0301 38.5711 66.6051 44.7569 68.8088C48.6877 70.216 52.4431 72.1099 56.3827 73.8357C52.2588 77.1545 48.7404 81.3938 46.9505 86.6597C45.1781 91.8813 43.2039 102.803 43.5022 102.864C44.0462 101.032 44.6165 99.1828 45.143 97.3242C49.0562 83.9515 57.1899 74.7915 69.772 70.0655C70.8424 69.6584 71.9392 69.2778 73.0623 68.9415C74.9136 68.384 76.7825 67.8618 78.6251 67.3573C80.6431 66.8086 82.67 66.2953 84.7056 65.8174C96.77 62.8614 107.72 58.0292 116.082 48.2762C117.749 46.3203 119.846 44.6565 121.934 43.1254C126.295 39.8862 131.033 37.24 136.508 36.709C139.439 36.4081 141.158 34.877 142.843 32.7883C148.801 25.3364 155.136 18.2651 162.988 12.7071C171.728 6.51197 181.116 2.2019 191.75 1.33457C191.82 1.33457 191.899 1.31688 191.961 1.31688C192.759 1.24608 193.584 1.21067 194.417 1.19297H194.567C195.953 1.14872 197.339 1.13104 198.673 1.13104H199.287C199.287 1.13104 199.305 1.11334 199.313 1.13104C200.761 1.13104 202.13 1.19297 203.446 1.25493C205.631 1.37883 207.64 1.55584 209.421 1.7594C211.123 1.9541 212.624 2.16652 213.87 2.37892C216.291 2.78603 217.844 3.16658 218.248 3.25509C215.3 2.14881 212.115 1.39654 208.939 0.90978L208.947 0.918612Z" fill="#DFD9C9"/>
<path id="Vector_2" d="M42.1162 79.5871C41.7126 80.0296 41.2914 80.4367 40.8965 80.8704C40.5193 81.3217 40.1156 81.7465 39.7647 82.1979C39.054 83.1183 38.3696 84.0388 37.7817 85.03C36.5709 86.9859 35.6145 89.0569 34.7195 91.2075C33.8158 93.3492 32.9384 95.5706 31.7978 97.7389C31.245 98.8275 30.5869 99.8895 29.8674 100.916C29.4902 101.421 29.1304 101.934 28.7092 102.403L28.0951 103.12L27.4282 103.792C26.5333 104.686 25.5418 105.474 24.524 106.2C24.0151 106.563 23.4623 106.864 22.9359 107.2C22.4006 107.518 21.8391 107.784 21.2863 108.067C19.0489 109.129 16.715 109.864 14.3635 110.386C9.65183 111.386 4.87869 111.643 0.158203 111.297C4.79095 110.35 9.37105 109.412 13.723 108.014C15.8902 107.288 18.0048 106.474 19.9615 105.421C21.9181 104.377 23.7168 103.102 25.2523 101.562C26.8053 100.04 28.1038 98.2522 29.2357 96.2875C30.3851 94.3404 31.3941 92.2252 32.5348 90.1277C33.6666 88.0302 34.9564 85.9416 36.5621 84.1007C38.159 82.2687 40.0367 80.6934 42.1162 79.5605V79.5871Z" fill="#DFD9C9"/>
<path id="Vector_3" d="M26.8345 90.6777C26.4134 93.6957 25.457 96.6782 23.9127 99.3952C22.3685 102.112 20.1486 104.449 17.5866 106.245C15.0245 108.042 12.1291 109.281 9.18095 110.113C6.21529 110.909 3.17942 111.281 0.152344 111.325C3.06536 110.476 5.95206 109.715 8.71592 108.653C11.471 107.591 14.112 106.307 16.481 104.643C18.8501 102.988 20.9646 100.971 22.6405 98.5721C24.3427 96.1826 25.6412 93.4921 26.8433 90.6866L26.8345 90.6777Z" fill="#DFD9C9"/>
<path id="Vector_4" d="M40.3749 75.499C39.1114 76.1628 37.9532 76.8 36.9091 77.5611C35.8562 78.3134 34.9174 79.1719 34.0399 80.1188C33.1625 81.0658 32.3378 82.0924 31.4954 83.1456C30.6531 84.1988 29.8108 85.2874 28.8193 86.314C29.1089 84.9068 29.5915 83.5881 30.2144 82.3225C30.8462 81.057 31.6358 79.8533 32.6273 78.7913C33.6188 77.7293 34.8208 76.8265 36.1633 76.2424C37.5057 75.6583 38.9535 75.3751 40.3749 75.5078V75.499Z" fill="#DFD9C9"/>
<path id="Vector_5" d="M237.586 48.1009C237.147 44.3484 236.498 40.5782 235.445 36.9762C233.401 30.0288 231.023 23.1698 228.812 16.2755C228.689 15.9126 228.601 15.5586 228.548 15.2312C228.355 14.0098 228.654 12.9389 229.873 11.8149C230.084 11.6202 230.277 11.4167 230.479 11.222C232.69 9.04484 234.585 6.51368 236.647 4.15067C236.498 3.91171 236.357 3.65503 236.208 3.40723C233.172 4.08869 229.952 4.29227 227.118 5.3897C226.846 5.4959 226.574 5.60211 226.302 5.72601C224.539 6.53138 222.828 6.93849 221.126 7.05355C218.669 7.24825 216.238 6.88539 213.668 6.38978C213.08 6.28358 212.483 6.16851 211.878 6.07116C210.316 5.7968 208.736 5.55783 207.175 5.37198C205.051 5.11532 202.928 4.96487 200.796 4.90292C195.856 4.75246 190.916 5.14188 185.976 6.31896C185.722 6.38091 185.467 6.44286 185.213 6.50481C172.692 9.69974 163.383 17.7004 155.065 27.117C152.538 29.9756 150.134 32.9759 147.388 36.2328C162.295 34.1884 175.202 38.994 178.799 42.8616C172.438 40.8703 166.05 39.8702 159.61 39.6666C157.855 39.6047 156.092 39.6135 154.328 39.6666C147.949 39.8613 141.588 40.5428 135.692 43.2952C134.033 44.0652 132.533 45.1626 130.962 46.0831C130.998 46.1096 131.033 46.1362 131.068 46.1539C131.945 46.7822 132.577 46.853 133.182 46.9681C140.684 48.4284 147.186 51.7384 152.02 57.7831C152.564 58.4645 153.056 59.1637 153.486 59.8806C153.582 60.0311 153.661 60.1815 153.749 60.3408C155.916 64.1818 156.574 68.5184 155.504 73.0497C155.004 75.1826 153.407 76.4482 153.372 76.5013C153.354 76.4748 153.345 76.4394 153.319 76.4128C152.687 75.2977 151.898 74.2268 151.476 73.0232C151.011 71.6868 151.02 70.1911 150.617 68.8282C149.265 64.35 147.037 63.5446 143.457 66.5448C140.175 69.3061 137.139 72.3417 134.112 75.4039C130.129 79.4396 125.952 83.2364 121.223 86.2101C119.161 87.511 116.985 88.6527 114.678 89.5908C111.773 90.7679 108.615 91.6352 105.5 91.9361C101.148 92.3609 98.9982 89.5377 99.7791 85.21C99.9721 84.1479 100.235 83.0859 100.542 81.5371C100.297 81.661 100.06 81.7938 99.8318 81.9265C96.2256 83.9709 93.6197 86.688 91.3735 89.6351C90.8909 90.2369 90.4522 90.8475 90.0135 91.4671C89.452 92.2724 88.8816 93.0778 88.3289 93.8832C87.4251 95.1753 86.5389 96.4763 85.644 97.7685C82.3449 102.539 79.1072 107.344 75.7555 112.062C74.0007 114.531 71.8423 116.699 69.8856 119C74.4306 115.637 78.73 111.973 82.7222 108.026C84.5999 106.158 86.4249 104.22 88.2148 102.273C89.9872 100.344 91.7332 98.3791 93.5056 96.4586C93.725 96.2108 93.9531 95.963 94.1812 95.7152C94.2865 95.7949 94.3918 95.8922 94.4708 95.9276V95.9541L94.1286 96.6887C93.5407 97.9277 92.9441 99.1845 92.3474 100.45C92.3211 100.503 92.3035 100.547 92.2772 100.601C91.5402 102.167 90.7856 103.769 89.996 105.424L99.7967 104.335C106.535 103.273 113.151 102.247 119.784 101.362C139.298 98.8039 156.776 91.4317 172.35 79.36C172.754 79.0413 173.061 78.5988 173.701 77.8908C169.937 77.997 167.577 76.5633 166.656 73.2533C165.497 69.1202 164.339 64.9872 162.286 61.2612C162.198 61.0931 162.102 60.9249 162.005 60.7656C161.137 59.2699 160.119 57.8362 158.873 56.5086C161.119 57.4733 162.742 59.0575 164.041 60.9515C164.155 61.1196 164.26 61.2789 164.374 61.4471C164.638 61.8542 164.883 62.2702 165.12 62.695C166.612 65.3412 167.902 68.1025 169.437 70.7221C171.508 74.3242 174.43 75.6871 178.343 74.4746C181.607 73.4657 184.783 72.0408 187.801 70.4478C189.03 69.8017 190.249 69.1379 191.469 68.4653L207.824 63.1463L202.481 73.5188C202.209 76.0677 200.831 75.2977 200.831 75.2977C198.295 72.6957 194.452 74.6516 194.452 74.6516L191.214 85.1569L196.321 83.7497C198.304 83.201 200.094 82.1035 201.419 80.5282C203.349 78.2271 205.622 78.1298 205.622 78.1298C212.29 79.2361 211.79 76.4128 212.176 73.5807C212.562 70.7487 216.423 61.2701 216.423 61.2701C216.423 61.2701 218.52 59.2168 214.44 55.6148C210.43 52.0658 195.953 55.9599 195.602 56.0927C194.865 56.2254 194.128 56.3405 193.382 56.4467C191.118 56.7565 188.819 56.9335 186.494 56.9954C185.845 57.0131 185.187 57.0043 184.537 57.0131C181.308 57.0308 178.053 57.2432 175.965 60.7745C176.614 56.9954 178.281 55.0041 181.37 54.358C181.949 54.2341 182.59 54.1634 183.283 54.1279C185.441 54.0571 187.617 54.1279 189.916 54.1279H190.162C190.162 50.9773 189.661 48.0921 188.854 45.2954C188.372 43.6316 187.784 42.0031 187.117 40.3747C186.02 37.6577 184.994 34.861 184.379 32.0024C183.993 30.1261 184.379 28.064 184.423 26.0992C184.713 26.0992 184.967 26.0815 185.248 26.0727C185.073 32.8431 187.854 38.3834 191.881 43.5785C192.373 42.0916 192.645 40.8526 193.171 39.7197C194.873 36.1619 197.234 33.3653 200.585 31.8784C201.638 31.4094 202.779 31.0554 204.033 30.8607C204.797 30.7368 206.35 31.3386 206.42 31.7988C207.219 36.4452 210.509 38.0382 214.501 38.9763C216.896 39.5516 221.152 43.9856 222.512 47.1982C222.793 47.8708 222.951 48.4815 222.942 48.9948C222.88 51.2959 224.126 52.0393 225.644 53.0217C226.32 53.4642 226.978 53.7916 227.645 54.0394C228.162 54.2253 228.654 54.3404 229.145 54.4023C231.567 54.7386 233.804 53.7031 235.875 51.7561C236.314 51.3136 236.77 50.7117 237.077 50.0745C237.244 49.7559 237.366 49.4373 237.454 49.1187C237.542 48.7559 237.586 48.4195 237.542 48.1186L237.586 48.1009Z" fill="#DFD9C9"/>
</g>
</svg>
