<svg width="20" height="15" viewBox="0 0 20 15" fill="none" xmlns="http://www.w3.org/2000/svg">
<path d="M19.9295 6.03543L17.2553 0.93315C17.1994 0.826515 17.1132 0.736802 17.0066 0.674088C16.9 0.611374 16.7771 0.578142 16.6517 0.578125H3.34832C3.22292 0.578142 3.1 0.611374 2.99338 0.674088C2.88675 0.736802 2.80065 0.826515 2.74473 0.93315L0.070547 6.03543C0.0240938 6.1241 -5.5825e-05 6.2218 9.68999e-08 6.32084V13.3871C9.68999e-08 13.7409 0.301797 14.0276 0.674141 14.0276H19.3258C19.6982 14.0276 20 13.7409 20 13.3871V6.32084C20 6.2218 19.9759 6.12409 19.9295 6.03543ZM3.76562 1.85903H16.2342L18.2483 5.70174H13.8877C13.569 5.70174 13.2933 5.91631 13.2274 6.2124C13.2034 6.32065 12.6074 8.86131 9.88766 8.86131C7.16789 8.86131 6.57191 6.32065 6.54832 6.21497C6.51745 6.07013 6.4348 5.9399 6.31439 5.84636C6.19397 5.75282 6.0432 5.70172 5.88766 5.70174H1.75168L3.76562 1.85903ZM18.6517 12.7467H1.34832V6.98265H5.37598C5.84969 8.29405 7.19801 10.1422 9.88766 10.1422C12.5775 10.1422 13.9259 8.29409 14.3993 6.98265H18.6517V12.7467Z" fill="white"/>
</svg>
