<svg width="19" height="20" viewBox="0 0 19 20" fill="none" xmlns="http://www.w3.org/2000/svg">
<path fill-rule="evenodd" clip-rule="evenodd" d="M9.49992 5.5437C8.07894 5.5437 6.927 6.69564 6.927 8.11662C6.927 9.5376 8.07894 10.6895 9.49992 10.6895C10.9209 10.6895 12.0728 9.5376 12.0728 8.11662C12.0728 6.69564 10.9209 5.5437 9.49992 5.5437ZM8.1145 8.11662C8.1145 7.35147 8.73477 6.7312 9.49992 6.7312C10.2651 6.7312 10.8853 7.35147 10.8853 8.11662C10.8853 8.88176 10.2651 9.50203 9.49992 9.50203C8.73477 9.50203 8.1145 8.88176 8.1145 8.11662Z" fill="#FEAA3E"/>
<path fill-rule="evenodd" clip-rule="evenodd" d="M9.49992 1.9812C6.11142 1.9812 3.3645 4.72812 3.3645 8.11662C3.3645 9.23809 3.75453 10.3743 4.29703 11.4205C4.84221 12.4719 5.56221 13.4722 6.27075 14.3326C6.98074 15.1947 7.68908 15.9282 8.21928 16.4458C8.48474 16.7049 8.70647 16.9108 8.86262 17.0527C8.94073 17.1236 9.00249 17.1785 9.0452 17.2162C9.06655 17.235 9.08315 17.2495 9.09465 17.2595C9.10039 17.2644 9.10487 17.2683 9.10803 17.271L9.11177 17.2743L9.1129 17.2752L9.11327 17.2755C9.1134 17.2757 9.11351 17.2758 9.49992 16.825L9.11351 17.2758L9.49992 17.607L9.88633 17.2758L9.49992 16.825C9.88633 17.2758 9.88644 17.2757 9.88657 17.2755L9.88694 17.2752L9.88807 17.2743L9.89181 17.271C9.89497 17.2683 9.89944 17.2644 9.90519 17.2595C9.91669 17.2495 9.93329 17.235 9.95464 17.2162C9.99735 17.1785 10.0591 17.1236 10.1372 17.0527C10.2934 16.9108 10.5151 16.7049 10.7806 16.4458C11.3108 15.9282 12.0191 15.1947 12.7291 14.3326C13.4376 13.4722 14.1576 12.4719 14.7028 11.4205C15.2453 10.3743 15.6353 9.23809 15.6353 8.11662C15.6353 4.72812 12.8884 1.9812 9.49992 1.9812ZM9.95105 15.596C9.77873 15.7643 9.62612 15.9086 9.49992 16.0257C9.37372 15.9086 9.22111 15.7643 9.04879 15.596C8.53993 15.0993 7.86285 14.3979 7.18742 13.5777C6.51054 12.7558 5.84513 11.8264 5.35124 10.8739C4.85468 9.91625 4.552 8.97431 4.552 8.11662C4.552 5.38396 6.76726 3.1687 9.49992 3.1687C12.2326 3.1687 14.4478 5.38396 14.4478 8.11662C14.4478 8.97431 14.1452 9.91625 13.6486 10.8739C13.1547 11.8264 12.4893 12.7558 11.8124 13.5777C11.137 14.3979 10.4599 15.0993 9.95105 15.596Z" fill="#FEAA3E"/>
</svg>
