<svg width="190" height="160" viewBox="0 0 190 160" fill="none" xmlns="http://www.w3.org/2000/svg">
<g clip-path="url(#clip0_31_12454)">
<path d="M144.385 32.7029C143.829 33.38 143.251 34.0799 142.6 34.7305L142.537 34.7949C142.463 34.8667 142.392 34.9386 142.314 35.0143C142.285 35.0445 142.259 35.0672 142.24 35.0861C142.248 35.1164 142.263 35.1694 142.288 35.2488C142.322 35.3547 142.355 35.4606 142.392 35.5666L153.107 54.4851L124.051 105.778H65.9441L50.0144 77.6557C48.8996 77.8638 47.7552 77.9848 46.5996 78.0151L64.1329 108.971H125.859L156.722 54.4813L144.381 32.6953L144.385 32.7029Z" fill="#E0AD25"/>
<path d="M7.24444 143.963L5.56296 152.093H0L3.84074 133.628H9.4037L8.1963 139.371H15.8444C16.3074 139.371 16.6296 139.272 16.8148 139.072C17 138.875 17.1519 138.486 17.2741 137.914L18.3333 132.955C18.3815 132.705 18.4074 132.531 18.4074 132.433C18.4074 132.16 18.3259 131.979 18.1704 131.892C18.0111 131.805 17.763 131.76 17.4185 131.76H4.20741L5.23333 126.838H20.7481C21.9926 126.838 22.8815 127.061 23.4185 127.507C23.9556 127.954 24.2222 128.65 24.2222 129.596C24.2222 129.845 24.2037 130.099 24.1667 130.36C24.1296 130.621 24.0852 130.916 24.037 131.237L22.3148 139.552C22 141.043 21.4593 142.151 20.7037 142.87C19.9481 143.593 18.7778 143.952 17.1889 143.952H7.24444V143.963Z" fill="#E0AD25"/>
<path d="M23.0527 152.094L26.9675 133.221H31.9453L31.5083 135.271C31.9713 134.549 32.4898 134.03 33.0638 133.705C33.6379 133.383 34.3268 133.221 35.1305 133.221H40.5083L39.5564 137.734H32.1638C31.7972 137.734 31.5231 137.802 31.3416 137.942C31.1564 138.078 31.0157 138.358 30.9231 138.782L28.1787 152.098H23.0527V152.094Z" fill="#E0AD25"/>
<path d="M42.959 152.094C41.9331 152.094 41.196 151.912 40.7442 151.553C40.2923 151.194 40.0664 150.626 40.0664 149.858C40.0664 149.51 40.1257 149.026 40.2516 148.402L42.6294 136.913C42.896 135.646 43.3442 134.711 43.9627 134.117C44.5849 133.52 45.5553 133.221 46.8701 133.221H59.459C60.5331 133.221 61.2886 133.402 61.7294 133.762C62.1664 134.121 62.3886 134.688 62.3886 135.46C62.3886 135.808 62.3257 136.292 62.2034 136.917L59.8257 148.405C59.559 149.673 59.1108 150.607 58.4923 151.201C57.8701 151.799 56.8886 152.098 55.5479 152.098H42.9627L42.959 152.094ZM56.6812 138.778C56.7294 138.528 56.7553 138.381 56.7553 138.331C56.7553 137.934 56.4257 137.734 55.7664 137.734H48.522C48.1331 137.734 47.859 137.802 47.6997 137.942C47.5405 138.078 47.4257 138.358 47.3516 138.782L45.7775 146.465C45.7516 146.567 45.7331 146.65 45.722 146.726C45.7108 146.801 45.7034 146.873 45.7034 146.949C45.7034 147.297 45.9701 147.471 46.5071 147.471H53.7516C54.1886 147.471 54.5071 147.395 54.7034 147.248C54.896 147.1 55.0331 146.836 55.1071 146.465L56.6812 138.782V138.778Z" fill="#E0AD25"/>
<path d="M66.1053 152.093L69.946 133.629H75.6905L74.8127 137.729H83.9238L83.083 141.758H73.9719L72.8719 147.054H85.4942L84.4682 152.089H66.1016L66.1053 152.093ZM70.3127 131.767L71.3386 126.846H89.7053L88.6793 131.767H70.3127Z" fill="#EAEAE9"/>
<path d="M100.682 160L105.326 137.847H97.3856C96.9708 137.847 96.6894 137.923 96.5449 138.07C96.4005 138.218 96.2745 138.505 96.1782 138.929L94.5671 146.575C94.519 146.824 94.4931 146.983 94.4931 147.059C94.4931 147.282 94.5597 147.433 94.6968 147.505C94.8301 147.581 95.0449 147.619 95.3375 147.619H101.449L100.534 152.094H91.7894C89.8856 152.094 88.9375 151.284 88.9375 149.669C88.9375 149.245 88.9856 148.825 89.0819 148.402L91.4597 136.913C91.7264 135.646 92.1708 134.711 92.7931 134.117C93.4153 133.52 94.3857 133.221 95.7005 133.221H111.434L105.834 160H100.678H100.682Z" fill="#EAEAE9"/>
<path d="M126.003 152.094L126.407 150.081C125.944 150.804 125.426 151.318 124.851 151.629C124.277 151.939 123.6 152.094 122.822 152.094H114.774C113.796 152.094 113.074 151.92 112.596 151.572C112.122 151.224 111.885 150.637 111.885 149.82C111.885 149.446 111.948 148.977 112.07 148.402L115.218 133.221H120.34L117.559 146.537C117.511 146.786 117.485 146.945 117.485 147.021C117.485 147.418 117.777 147.619 118.363 147.619H125.718C126.107 147.619 126.388 147.543 126.559 147.395C126.729 147.248 126.863 146.96 126.963 146.537L129.744 133.221H134.866L130.951 152.094H126.011H126.003Z" fill="#EAEAE9"/>
<path d="M134.893 152.094L138.807 133.221H143.93L140.015 152.094H134.893ZM139.281 130.981L140.452 125.314H145.611L144.441 130.981H139.281Z" fill="#EAEAE9"/>
<path d="M158.789 152.094L161.533 138.778C161.582 138.528 161.608 138.381 161.608 138.332C161.608 137.934 161.3 137.734 160.693 137.734H153.045C152.678 137.734 152.411 137.802 152.237 137.942C152.067 138.078 151.933 138.358 151.833 138.782L149.089 152.098H143.967L147.882 133.225H152.822L152.385 135.275C153.263 133.906 154.471 133.225 156.008 133.225H164.315C165.315 133.225 166.041 133.399 166.493 133.747C166.945 134.095 167.17 134.681 167.17 135.498C167.17 135.971 167.122 136.444 167.026 136.917L163.878 152.098H158.789V152.094Z" fill="#EAEAE9"/>
<path d="M170.971 152.094C169.923 152.094 169.171 151.912 168.723 151.553C168.271 151.194 168.045 150.626 168.045 149.858C168.045 149.51 168.104 149.026 168.23 148.402L170.608 136.913C170.875 135.646 171.319 134.711 171.945 134.117C172.567 133.52 173.549 133.221 174.889 133.221H187.404C188.33 133.221 188.997 133.402 189.4 133.762C189.804 134.121 190.004 134.662 190.004 135.385C190.004 135.831 189.952 136.292 189.86 136.765L188.323 144.187H175.993L176.615 141.055H184.082L184.63 138.521C184.652 138.396 184.667 138.233 184.667 138.036C184.667 137.84 184.612 137.7 184.504 137.624C184.393 137.548 184.193 137.514 183.9 137.514H176.545C176.13 137.514 175.849 137.582 175.704 137.719C175.56 137.855 175.438 138.135 175.338 138.558L173.619 146.688C173.593 146.813 173.575 146.919 173.563 147.006C173.552 147.093 173.545 147.172 173.545 147.248C173.545 147.471 173.608 147.622 173.73 147.694C173.852 147.77 174.071 147.808 174.389 147.808H186.867L185.989 152.098H170.989L170.971 152.094Z" fill="#EAEAE9"/>
<path d="M132.415 29.1895L127.804 28.815C127.563 28.8075 127.322 28.8075 127.093 28.8075H127.067C125.763 28.7696 124.489 28.8339 123.256 28.989C123.159 29.0004 123.093 29.008 123.033 29.0155C122.982 29.0231 122.944 29.0269 122.926 29.0269H122.915C117.511 29.7759 112.759 32.2764 108.622 36.3355C106.863 38.0568 105.322 40.0012 103.619 41.7906C103.122 42.3126 102.496 42.9027 101.833 43.0541C98.0815 43.909 94.863 45.7324 92.3037 48.6074C89.263 52.0272 85.5149 54.0587 81.2223 55.2995C79.763 55.7194 78.3148 56.1809 76.8741 56.6462L73.1741 57.8681C72.2926 58.1594 71.4074 58.4507 70.526 58.7344C70.3223 58.7987 70.1074 58.8971 69.9037 58.8781C68.1852 58.7117 66.4556 58.6436 64.8926 57.6865C64.1482 57.2401 63.2667 56.8959 62.4223 56.7937C58.7111 56.3284 55.3223 58.6058 53.7815 62.5665C53.263 63.9057 52.926 65.3167 52.4778 66.6824C51.2593 70.4313 49.3111 73.6128 45.7778 75.5496C45.2704 75.822 44.7371 76.0603 44.2148 76.3176C47.1926 75.8977 49.8334 74.7514 51.3408 72.005C52.4519 69.9849 53.1963 67.7454 54.0778 65.5967C54.6223 64.2689 54.9593 62.8351 55.6519 61.5981C57.2334 58.7306 60.4963 57.2666 63.1074 58.2086C64.7667 58.8101 66.3519 59.6196 68.0148 60.3573C66.2741 61.7759 64.7889 63.5879 64.0334 65.8388C63.2852 68.0707 62.4519 72.7389 62.5778 72.7654C62.8074 71.9823 63.0482 71.1917 63.2704 70.3972C64.9223 64.6812 68.3556 60.7658 73.6667 58.7457C74.1185 58.5717 74.5815 58.4091 75.0556 58.2653C75.8371 58.027 76.626 57.8038 77.4037 57.5882C78.2556 57.3536 79.1111 57.1342 79.9704 56.9299C85.063 55.6664 89.6852 53.6009 93.2148 49.4321C93.9185 48.5961 94.8037 47.8849 95.6852 47.2304C97.526 45.8459 99.526 44.7148 101.837 44.4878C103.074 44.3592 103.8 43.7047 104.511 42.8119C107.026 39.6267 109.7 36.6041 113.015 34.2284C116.704 31.5804 120.667 29.7381 125.156 29.3673C125.185 29.3673 125.219 29.3598 125.244 29.3598C125.582 29.3295 125.93 29.3144 126.282 29.3068H126.344C126.93 29.2879 127.515 29.2803 128.078 29.2803H128.337C128.337 29.2803 128.344 29.2728 128.348 29.2803C128.959 29.2803 129.537 29.3068 130.093 29.3333C131.015 29.3862 131.863 29.4619 132.615 29.5489C133.333 29.6321 133.967 29.7229 134.493 29.8137C135.515 29.9877 136.17 30.1504 136.341 30.1882C135.096 29.7154 133.752 29.3938 132.411 29.1858L132.415 29.1895Z" fill="#EAEAE9"/>
<path d="M61.9963 62.8151C61.8259 63.0042 61.6481 63.1782 61.4815 63.3636C61.3222 63.5565 61.1518 63.7381 61.0037 63.931C60.7037 64.3245 60.4148 64.7179 60.1666 65.1416C59.6555 65.9776 59.2518 66.8628 58.874 67.7821C58.4926 68.6975 58.1222 69.6471 57.6407 70.5739C57.4074 71.0392 57.1296 71.4931 56.8259 71.932C56.6666 72.1476 56.5148 72.367 56.337 72.5675L56.0777 72.8739L55.7963 73.1614C55.4185 73.5435 55 73.8802 54.5703 74.1904C54.3555 74.3455 54.1222 74.4741 53.9 74.6179C53.674 74.7541 53.437 74.8675 53.2037 74.9886C52.2592 75.4426 51.274 75.7565 50.2814 75.9797C48.2926 76.4072 46.2777 76.5169 44.2852 76.3694C46.2407 75.9646 48.174 75.5636 50.0111 74.9659C50.9259 74.6557 51.8185 74.3077 52.6444 73.8575C53.4703 73.4111 54.2296 72.8664 54.8777 72.2081C55.5333 71.5575 56.0815 70.7933 56.5592 69.9535C57.0444 69.1212 57.4703 68.2171 57.9518 67.3206C58.4296 66.424 58.974 65.5312 59.6518 64.7444C60.3259 63.9613 61.1185 63.2879 61.9963 62.8037V62.8151Z" fill="#EAEAE9"/>
<path d="M55.5442 67.5596C55.3664 68.8496 54.9627 70.1244 54.3109 71.2858C53.659 72.4471 52.722 73.4458 51.6405 74.2138C50.559 74.9817 49.3368 75.5113 48.0924 75.8669C46.8405 76.2074 45.559 76.3663 44.2812 76.3852C45.5109 76.022 46.7294 75.6967 47.8961 75.2427C49.059 74.7888 50.1738 74.2403 51.1738 73.5291C52.1738 72.8217 53.0664 71.9591 53.7738 70.934C54.4924 69.9126 55.0405 68.7626 55.5479 67.5634L55.5442 67.5596Z" fill="#EAEAE9"/>
<path d="M61.2586 61.0676C60.7253 61.3513 60.2364 61.6237 59.7957 61.949C59.3512 62.2706 58.9549 62.6375 58.5846 63.0423C58.2142 63.4471 57.866 63.8859 57.5105 64.3361C57.1549 64.7863 56.7994 65.2516 56.3809 65.6904C56.5031 65.0889 56.7068 64.5252 56.9698 63.9843C57.2364 63.4433 57.5698 62.9288 57.9883 62.4749C58.4068 62.0209 58.9142 61.6351 59.4809 61.3854C60.0475 61.1357 60.6586 61.0147 61.2586 61.0714V61.0676Z" fill="#EAEAE9"/>
<path d="M144.504 49.3568C144.319 47.7529 144.044 46.1413 143.6 44.6017C142.737 41.6321 141.733 38.7003 140.8 35.7533C140.748 35.5982 140.711 35.4469 140.689 35.307C140.607 34.7849 140.733 34.3272 141.248 33.8467C141.337 33.7635 141.419 33.6765 141.504 33.5933C142.437 32.6627 143.237 31.5807 144.107 30.5707C144.044 30.4686 143.985 30.3589 143.922 30.2529C142.641 30.5442 141.282 30.6312 140.085 31.1003C139.97 31.1457 139.856 31.1911 139.741 31.2441C138.996 31.5883 138.274 31.7623 137.556 31.8115C136.519 31.8947 135.493 31.7396 134.407 31.5278C134.159 31.4824 133.907 31.4332 133.652 31.3916C132.993 31.2743 132.326 31.1722 131.667 31.0927C130.77 30.983 129.874 30.9187 128.974 30.8922C126.889 30.8279 124.804 30.9944 122.719 31.4975C122.611 31.524 122.504 31.5505 122.396 31.577C117.111 32.9426 113.182 36.3624 109.67 40.3875C108.604 41.6094 107.589 42.8918 106.43 44.2839C112.722 43.41 118.17 45.4642 119.689 47.1173C117.004 46.2662 114.307 45.8387 111.589 45.7517C110.848 45.7252 110.104 45.729 109.359 45.7517C106.667 45.8349 103.982 46.1262 101.493 47.3027C100.793 47.6318 100.159 48.1009 99.4963 48.4943C99.5111 48.5057 99.526 48.517 99.5408 48.5246C99.9111 48.7932 100.178 48.8234 100.433 48.8726C103.6 49.4968 106.344 50.9116 108.385 53.4954C108.615 53.7867 108.822 54.0855 109.004 54.392C109.044 54.4563 109.078 54.5206 109.115 54.5887C110.03 56.2305 110.307 58.0841 109.856 60.021C109.644 60.9327 108.97 61.4736 108.956 61.4963C108.948 61.485 108.944 61.4699 108.933 61.4585C108.667 60.9819 108.333 60.5241 108.156 60.0096C107.959 59.4384 107.963 58.7991 107.793 58.2165C107.222 56.3023 106.282 55.9581 104.77 57.2405C103.385 58.4208 102.104 59.7184 100.826 61.0273C99.1445 62.7523 97.3815 64.3752 95.3852 65.6462C94.5148 66.2023 93.5963 66.6903 92.6223 67.0913C91.3963 67.5945 90.063 67.9652 88.7482 68.0938C86.9111 68.2754 86.0037 67.0686 86.3334 65.2188C86.4148 64.7648 86.526 64.3109 86.6556 63.6488C86.5519 63.7018 86.4519 63.7585 86.3556 63.8153C84.8334 64.6892 83.7334 65.8505 82.7852 67.1102C82.5815 67.3675 82.3963 67.6285 82.2111 67.8933C81.9741 68.2376 81.7334 68.5818 81.5 68.9261C81.1185 69.4784 80.7445 70.0345 80.3667 70.5868C78.9741 72.6258 77.6074 74.6799 76.1926 76.6962C75.4519 77.7517 74.5408 78.6785 73.7148 79.6621C75.6334 78.2246 77.4482 76.6584 79.1334 74.9712C79.926 74.173 80.6963 73.3445 81.4519 72.5123C82.2 71.6876 82.9371 70.8478 83.6852 70.0269C83.7778 69.921 83.8741 69.8151 83.9704 69.7091C84.0148 69.7432 84.0593 69.7848 84.0926 69.7999V69.8113L83.9482 70.1253C83.7 70.6549 83.4482 71.192 83.1963 71.733C83.1852 71.7557 83.1778 71.7746 83.1667 71.7973C82.8556 72.4669 82.5371 73.1516 82.2037 73.859L86.3408 73.3937C89.1852 72.9398 91.9778 72.5009 94.7778 72.1227C103.015 71.0294 110.393 67.8782 116.967 62.7182C117.137 62.582 117.267 62.3929 117.537 62.0903C115.948 62.1357 114.952 61.5228 114.563 60.108C114.074 58.3414 113.585 56.5747 112.719 54.9821C112.682 54.9102 112.641 54.8383 112.6 54.7702C112.233 54.1309 111.804 53.5181 111.278 52.9506C112.226 53.363 112.911 54.0401 113.459 54.8497C113.507 54.9216 113.552 54.9897 113.6 55.0615C113.711 55.2356 113.815 55.4134 113.915 55.5949C114.544 56.726 115.089 57.9063 115.737 59.0261C116.611 60.5657 117.844 61.1483 119.496 60.63C120.874 60.1988 122.215 59.5897 123.489 58.9088C124.007 58.6326 124.522 58.3489 125.037 58.0614L131.941 55.7879L129.685 60.2215C129.57 61.311 128.989 60.9819 128.989 60.9819C127.919 59.8697 126.296 60.7057 126.296 60.7057L124.93 65.1961L127.085 64.5946C127.922 64.36 128.678 63.8909 129.237 63.2176C130.052 62.234 131.011 62.1924 131.011 62.1924C133.826 62.6653 133.615 61.4585 133.778 60.248C133.941 59.0374 135.57 54.9859 135.57 54.9859C135.57 54.9859 136.456 54.1082 134.733 52.5686C133.041 51.0516 126.93 52.7161 126.782 52.7728C126.47 52.8296 126.159 52.8788 125.844 52.9242C124.889 53.0566 123.919 53.1322 122.937 53.1587C122.663 53.1663 122.385 53.1625 122.111 53.1663C120.748 53.1738 119.374 53.2646 118.493 54.774C118.767 53.1587 119.47 52.3075 120.774 52.0314C121.019 51.9784 121.289 51.9482 121.582 51.933C122.493 51.9028 123.411 51.933 124.382 51.933H124.485C124.485 50.5863 124.274 49.3531 123.933 48.1576C123.73 47.4465 123.482 46.7504 123.2 46.0543C122.737 44.893 122.304 43.6975 122.044 42.4756C121.882 41.6737 122.044 40.7922 122.063 39.9524C122.185 39.9524 122.293 39.9449 122.411 39.9411C122.337 42.835 123.511 45.2032 125.211 47.4238C125.419 46.7882 125.533 46.2586 125.756 45.7744C126.474 44.2536 127.47 43.0582 128.885 42.4227C129.33 42.2222 129.811 42.0709 130.341 41.9876C130.663 41.9347 131.319 42.1919 131.348 42.3886C131.685 44.3747 133.074 45.0556 134.759 45.4566C135.77 45.7025 137.567 47.5978 138.141 48.971C138.259 49.2585 138.326 49.5195 138.322 49.7389C138.296 50.7225 138.822 51.0403 139.463 51.4602C139.748 51.6493 140.026 51.7893 140.307 51.8952C140.526 51.9746 140.733 52.0238 140.941 52.0503C141.963 52.1941 142.907 51.7515 143.782 50.9192C143.967 50.7301 144.159 50.4728 144.289 50.2004C144.359 50.0643 144.411 49.9281 144.448 49.7919C144.485 49.6368 144.504 49.493 144.485 49.3644L144.504 49.3568Z" fill="#E0AD25"/>
<path d="M36.89 54.4897L65.9456 3.19281H124.053L139.112 29.7794C139.231 29.7264 139.334 29.6848 139.442 29.6394L139.531 29.6054C140.438 29.2498 141.364 29.0909 142.257 28.9396L125.864 0H64.1382L33.2715 54.4897L44.5456 74.3918C44.7196 74.3085 44.8863 74.2253 45.0456 74.1383C45.8159 73.7146 46.5196 73.2153 47.1604 72.6251L36.89 54.4897Z" fill="#EAEAE9"/>
</g>
<defs>
<clipPath id="clip0_31_12454">
<rect width="190" height="160" fill="white"/>
</clipPath>
</defs>
</svg>
