<svg width="126" height="109" viewBox="0 0 126 109" fill="none" xmlns="http://www.w3.org/2000/svg">
<path d="M113.404 32.6785C112.837 33.3551 112.247 34.0544 111.582 34.7046L111.518 34.7688C111.442 34.8406 111.37 34.9125 111.291 34.9881C111.261 35.0183 111.234 35.041 111.215 35.0599C111.223 35.0901 111.238 35.143 111.265 35.2224C111.299 35.3283 111.333 35.4341 111.37 35.5399L122.306 54.4439L92.6517 105.697H33.3467L17.0887 77.5966C15.9509 77.8046 14.7829 77.9255 13.6035 77.9557L31.4982 108.888H94.5001L125.999 54.4401L113.404 32.6709V32.6785Z" fill="#E0AD25"/>
<path d="M101.184 29.1668L96.4777 28.7925C96.232 28.785 95.9863 28.785 95.7519 28.785H95.7255C94.3949 28.7472 93.0946 28.8114 91.8358 28.9664C91.7375 28.9778 91.6695 28.9853 91.609 28.9929C91.5561 29.0004 91.5183 29.0042 91.4994 29.0042H91.488C85.973 29.7527 81.1232 32.2513 76.9009 36.3073C75.1054 38.0272 73.5329 39.9701 71.794 41.7581C71.2875 42.2797 70.6487 42.8694 69.9721 43.0206C66.1429 43.8749 62.858 45.6969 60.246 48.5697C57.1426 51.9869 53.3172 54.0167 48.9362 55.2566C47.4468 55.6762 45.9688 56.1373 44.4984 56.6023L40.7221 57.8232C39.8225 58.1143 38.9191 58.4054 38.0194 58.6889C37.8115 58.7531 37.5923 58.8514 37.3844 58.8325C35.6304 58.6662 33.8651 58.5981 32.27 57.6418C31.5102 57.1958 30.6105 56.8518 29.7487 56.7497C25.9611 56.2848 22.5023 58.5603 20.9299 62.518C20.4006 63.8562 20.0567 65.2661 19.5993 66.6307C18.3556 70.3767 16.3673 73.5558 12.7612 75.4911C12.2433 75.7633 11.699 76.0014 11.166 76.2585C14.2052 75.8389 16.9003 74.6935 18.4388 71.9492C19.5728 69.9307 20.3326 67.6929 21.2323 65.5459C21.7879 64.2191 22.1319 62.7864 22.8388 61.5504C24.4528 58.6851 27.7831 57.2222 30.448 58.1634C32.1414 58.7645 33.7593 59.5734 35.4565 60.3105C33.6799 61.728 32.1641 63.5387 31.393 65.7878C30.6294 68.018 29.7789 72.6826 29.9074 72.709C30.1418 71.9266 30.3875 71.1365 30.6143 70.3427C32.3002 64.6311 35.8043 60.7187 41.2249 58.7002C41.686 58.5263 42.1585 58.3638 42.6424 58.2201C43.44 57.982 44.2451 57.759 45.0389 57.5435C45.9083 57.3091 46.7815 57.0899 47.6585 56.8858C52.8561 55.6233 57.5735 53.5594 61.1759 49.3938C61.8941 48.5584 62.7976 47.8477 63.6972 47.1938C65.5759 45.8103 67.6171 44.68 69.9758 44.4532C71.2384 44.3247 71.9793 43.6708 72.705 42.7787C75.2717 39.5959 78.0009 36.5756 81.384 34.2018C85.1489 31.5558 89.1936 29.7149 93.775 29.3444C93.8052 29.3444 93.8392 29.3369 93.8657 29.3369C94.2097 29.3066 94.565 29.2915 94.9241 29.284H94.9883C95.5856 29.2651 96.1828 29.2575 96.7574 29.2575H97.022C97.022 29.2575 97.0296 29.2499 97.0334 29.2575C97.6571 29.2575 98.2467 29.284 98.8138 29.3104C99.755 29.3633 100.621 29.4389 101.388 29.5259C102.121 29.609 102.768 29.6998 103.304 29.7905C104.348 29.9644 105.017 30.1269 105.191 30.1647C103.921 29.6922 102.548 29.3709 101.18 29.163L101.184 29.1668Z" fill="#5D5D5A"/>
<path d="M29.3144 62.7672C29.1405 62.9562 28.9591 63.1301 28.789 63.3153C28.6265 63.5081 28.4526 63.6895 28.3014 63.8823C27.9952 64.2754 27.7003 64.6686 27.4471 65.0919C26.9254 65.9273 26.5134 66.8118 26.1279 67.7304C25.7385 68.6452 25.3605 69.5939 24.8691 70.5201C24.631 70.985 24.3475 71.4386 24.0375 71.8771C23.8749 72.0925 23.72 72.3118 23.5385 72.5121L23.2739 72.8183L22.9866 73.1056C22.6011 73.4874 22.1739 73.8238 21.7354 74.1338C21.5162 74.2888 21.2781 74.4173 21.0513 74.5609C20.8207 74.697 20.5788 74.8104 20.3406 74.9314C19.3767 75.385 18.3712 75.6987 17.3582 75.9217C15.3283 76.3489 13.2719 76.4585 11.2383 76.3111C13.2341 75.9066 15.2073 75.5059 17.0822 74.9087C18.0159 74.5987 18.9269 74.251 19.7698 73.8011C20.6128 73.3551 21.3877 72.8108 22.0492 72.153C22.7183 71.5029 23.2777 70.7393 23.7653 69.9001C24.2605 69.0685 24.6952 68.1651 25.1866 67.2692C25.6742 66.3734 26.2299 65.4813 26.9217 64.695C27.6096 63.9125 28.4186 63.2397 29.3144 62.7559V62.7672Z" fill="#5E5E5B"/>
<path d="M22.7334 67.5078C22.5519 68.7968 22.1399 70.0707 21.4746 71.2312C20.8093 72.3916 19.853 73.3896 18.7492 74.1569C17.6454 74.9242 16.398 75.4535 15.1279 75.8088C13.8503 76.149 12.5424 76.3077 11.2383 76.3266C12.4933 75.9638 13.7369 75.6387 14.9276 75.1851C16.1145 74.7315 17.2523 74.1834 18.2729 73.4727C19.2935 72.7658 20.2045 71.904 20.9265 70.8796C21.6598 69.859 22.2193 68.7099 22.7372 67.5116L22.7334 67.5078Z" fill="#5E5E5B"/>
<path d="M28.5662 61.0207C28.0219 61.3042 27.5229 61.5764 27.0731 61.9015C26.6195 62.2228 26.215 62.5895 25.837 62.9939C25.459 63.3984 25.1037 63.8369 24.7408 64.2867C24.3779 64.7365 24.015 65.2015 23.5879 65.6399C23.7126 65.0389 23.9205 64.4757 24.1889 63.9351C24.4611 63.3946 24.8013 62.8805 25.2284 62.4269C25.6556 61.9733 26.1734 61.5877 26.7518 61.3383C27.3301 61.0888 27.9538 60.9678 28.5662 61.0245V61.0207Z" fill="#5E5E5B"/>
<path d="M113.525 49.3177C113.336 47.715 113.056 46.1047 112.603 44.5662C111.722 41.5989 110.698 38.6693 109.745 35.7247C109.692 35.5697 109.654 35.4185 109.632 35.2786C109.549 34.757 109.677 34.2996 110.203 33.8196C110.293 33.7364 110.376 33.6494 110.463 33.5663C111.416 32.6364 112.232 31.5553 113.121 30.546C113.056 30.444 112.996 30.3344 112.932 30.2285C111.624 30.5196 110.237 30.6065 109.016 31.0752C108.898 31.1206 108.781 31.166 108.664 31.2189C107.904 31.5629 107.167 31.7367 106.434 31.7859C105.375 31.8691 104.328 31.7141 103.221 31.5024C102.968 31.457 102.711 31.4079 102.45 31.3663C101.777 31.2491 101.096 31.1471 100.424 31.0677C99.5088 30.9581 98.5941 30.8938 97.6755 30.8673C95.5473 30.8031 93.4192 30.9694 91.291 31.4721C91.1814 31.4986 91.0718 31.5251 90.9622 31.5515C85.5681 32.9161 81.5574 36.3333 77.974 40.3552C76.8853 41.5762 75.8496 42.8576 74.6664 44.2487C81.0887 43.3755 86.6491 45.428 88.199 47.0799C85.4584 46.2294 82.7066 45.8023 79.932 45.7153C79.176 45.6889 78.4162 45.6927 77.6564 45.7153C74.9083 45.7985 72.1678 46.0896 69.6276 47.2651C68.9132 47.594 68.2668 48.0627 67.5902 48.4559C67.6053 48.4672 67.6204 48.4785 67.6355 48.4861C68.0136 48.7545 68.2857 48.7847 68.5465 48.8339C71.7785 49.4576 74.5795 50.8713 76.6623 53.4531C76.8966 53.7441 77.1083 54.0428 77.2935 54.3489C77.3351 54.4132 77.3691 54.4775 77.4069 54.5455C78.3406 56.186 78.6241 58.0383 78.163 59.9736C77.9475 60.8846 77.2595 61.4252 77.2444 61.4478C77.2369 61.4365 77.2331 61.4214 77.2217 61.41C76.9496 60.9338 76.6094 60.4764 76.4279 59.9623C76.2276 59.3915 76.2314 58.7527 76.0575 58.1706C75.4754 56.2579 74.5152 55.9139 72.973 57.1953C71.5592 58.3747 70.2513 59.6712 68.9472 60.9791C67.2311 62.7028 65.4318 64.3245 63.3944 65.5945C62.506 66.1502 61.5686 66.6378 60.5744 67.0385C59.3232 67.5413 57.9624 67.9117 56.6205 68.0402C54.7456 68.2217 53.8195 67.0158 54.1559 65.1674C54.2391 64.7138 54.3525 64.2602 54.4848 63.5987C54.379 63.6516 54.2769 63.7083 54.1786 63.765C52.625 64.6382 51.5023 65.7987 50.5347 67.0574C50.3268 67.3145 50.1378 67.5753 49.9488 67.8399C49.7068 68.1839 49.4611 68.5279 49.223 68.8718C48.8336 69.4237 48.4519 69.9794 48.0663 70.5313C46.645 72.5687 45.2502 74.6213 43.8062 76.636C43.0502 77.6907 42.1203 78.6168 41.2773 79.5996C43.2354 78.1632 45.0876 76.5982 46.8075 74.9123C47.6165 74.1147 48.4027 73.2869 49.1738 72.4553C49.9374 71.6313 50.6896 70.7921 51.4532 69.9718C51.5477 69.866 51.646 69.7602 51.7443 69.6543C51.7896 69.6883 51.835 69.7299 51.869 69.745V69.7564L51.7216 70.0701C51.4683 70.5993 51.2113 71.1361 50.9542 71.6766C50.9429 71.6993 50.9353 71.7182 50.924 71.7409C50.6065 72.41 50.2814 73.0941 49.9412 73.801L54.1635 73.3361C57.0666 72.8825 59.9167 72.444 62.7744 72.066C71.1812 70.9735 78.7111 67.8248 85.4206 62.6688C85.5945 62.5327 85.7268 62.3437 86.0028 62.0413C84.3811 62.0867 83.3643 61.4743 82.9674 60.0606C82.4684 58.2953 81.9695 56.53 81.0849 54.9386C81.0471 54.8668 81.0055 54.795 80.964 54.7269C80.5897 54.0881 80.1513 53.4757 79.6145 52.9087C80.5822 53.3208 81.2815 53.9974 81.8409 54.8063C81.8901 54.8781 81.9354 54.9462 81.9846 55.018C82.098 55.1919 82.2038 55.3695 82.3059 55.551C82.9485 56.6812 83.5042 57.8606 84.1657 58.9795C85.0577 60.518 86.3165 61.1001 88.0024 60.5822C89.4086 60.1513 90.7769 59.5427 92.0773 58.8623C92.6065 58.5864 93.1319 58.3029 93.6573 58.0156L100.703 55.7438L98.4013 60.174C98.2841 61.2626 97.6906 60.9338 97.6906 60.9338C96.5982 59.8224 94.9425 60.6578 94.9425 60.6578L93.5477 65.1447L95.7477 64.5437C96.602 64.3093 97.3731 63.8406 97.9439 63.1678C98.7755 62.185 99.7545 62.1434 99.7545 62.1434C102.627 62.6159 102.412 61.41 102.578 60.2004C102.745 58.9908 104.408 54.9424 104.408 54.9424C104.408 54.9424 105.311 54.0654 103.553 52.527C101.826 51.0112 95.5889 52.6744 95.4377 52.7311C95.1202 52.7878 94.8027 52.8369 94.4814 52.8823C93.5061 53.0146 92.5158 53.0902 91.5141 53.1166C91.2343 53.1242 90.9508 53.1204 90.6711 53.1242C89.28 53.1318 87.8777 53.2225 86.978 54.7307C87.2577 53.1166 87.9759 52.2661 89.3065 51.9902C89.556 51.9373 89.8319 51.907 90.1306 51.8919C91.0604 51.8617 91.9979 51.8919 92.9883 51.8919H93.0941C93.0941 50.5462 92.8786 49.3139 92.5309 48.1194C92.323 47.4088 92.0697 46.7133 91.7824 46.0177C91.3099 44.8573 90.8677 43.6628 90.6031 42.4418C90.4367 41.6404 90.6031 40.7597 90.622 39.9205C90.7467 39.9205 90.8563 39.913 90.9773 39.9092C90.9017 42.8009 92.1 45.1672 93.835 47.3861C94.0467 46.7511 94.1639 46.2219 94.3907 45.738C95.124 44.2184 96.1408 43.0239 97.5848 42.3889C98.0384 42.1886 98.5298 42.0374 99.0703 41.9542C99.3992 41.9013 100.068 42.1583 100.099 42.3549C100.443 44.3394 101.86 45.0198 103.58 45.4205C104.612 45.6662 106.445 47.56 107.031 48.9321C107.152 49.2194 107.22 49.4802 107.216 49.6995C107.19 50.6823 107.727 50.9998 108.381 51.4194C108.672 51.6084 108.955 51.7483 109.242 51.8541C109.465 51.9335 109.677 51.9826 109.889 52.0091C110.932 52.1527 111.896 51.7105 112.788 50.8789C112.977 50.6899 113.174 50.4328 113.306 50.1607C113.378 50.0246 113.431 49.8885 113.469 49.7524C113.506 49.5974 113.525 49.4538 113.506 49.3253L113.525 49.3177Z" fill="#E0AD25"/>
<path d="M3.6931 54.4477L33.3475 3.19035H92.6525L108.022 29.7565C108.143 29.7035 108.249 29.662 108.359 29.6166L108.449 29.5826C109.375 29.2273 110.32 29.0685 111.231 28.9173L94.4972 0H31.4991L0 54.4477L11.5064 74.3344C11.6841 74.2513 11.8542 74.1681 12.0167 74.0812C12.803 73.6578 13.5212 73.1589 14.1751 72.5692L3.6931 54.4477Z" fill="#5D5D59"/>
</svg>
