<svg width="39" height="39" viewBox="0 0 39 39" fill="none" xmlns="http://www.w3.org/2000/svg">
<circle cx="19.5" cy="19.5" r="19.5" fill="#303030"/>
<mask id="mask0_737_6420" style="mask-type:alpha" maskUnits="userSpaceOnUse" x="9" y="10" width="20" height="20">
<rect x="9" y="10" width="20" height="20" fill="#D0D3D6"/>
</mask>
<g mask="url(#mask0_737_6420)">
<path d="M14.8333 24.1667H16.5833L21.5833 19.2084L19.7917 17.4167L14.8333 22.375V24.1667ZM22.1667 18.625L23.0417 17.7084C23.125 17.625 23.1667 17.5278 23.1667 17.4167C23.1667 17.3056 23.125 17.2084 23.0417 17.125L21.875 15.9584C21.7917 15.875 21.6944 15.8334 21.5833 15.8334C21.4722 15.8334 21.375 15.875 21.2917 15.9584L20.375 16.8334L22.1667 18.625ZM13.1667 27.5C12.7083 27.5 12.316 27.3368 11.9896 27.0105C11.6632 26.6841 11.5 26.2917 11.5 25.8334V14.1667C11.5 13.7084 11.6632 13.316 11.9896 12.9896C12.316 12.6632 12.7083 12.5 13.1667 12.5H16.6667C16.8472 12 17.1493 11.5973 17.5729 11.2917C17.9965 10.9862 18.4722 10.8334 19 10.8334C19.5278 10.8334 20.0035 10.9862 20.4271 11.2917C20.8507 11.5973 21.1528 12 21.3333 12.5H24.8333C25.2917 12.5 25.684 12.6632 26.0104 12.9896C26.3368 13.316 26.5 13.7084 26.5 14.1667V25.8334C26.5 26.2917 26.3368 26.6841 26.0104 27.0105C25.684 27.3368 25.2917 27.5 24.8333 27.5H13.1667ZM13.1667 25.8334H24.8333V14.1667H13.1667V25.8334ZM19 13.5417C19.1806 13.5417 19.3299 13.4827 19.4479 13.3646C19.566 13.2466 19.625 13.0973 19.625 12.9167C19.625 12.7362 19.566 12.5868 19.4479 12.4688C19.3299 12.3507 19.1806 12.2917 19 12.2917C18.8194 12.2917 18.6701 12.3507 18.5521 12.4688C18.434 12.5868 18.375 12.7362 18.375 12.9167C18.375 13.0973 18.434 13.2466 18.5521 13.3646C18.6701 13.4827 18.8194 13.5417 19 13.5417Z" fill="#D0D3D6"/>
</g>
</svg>
