<svg width="190" height="158" viewBox="0 0 190 158" fill="none" xmlns="http://www.w3.org/2000/svg">
<path d="M144.381 32.2916C143.825 32.9603 143.247 33.6515 142.596 34.294L142.533 34.3575C142.458 34.4285 142.388 34.4995 142.31 34.5742C142.281 34.6041 142.255 34.6265 142.236 34.6452C142.244 34.6751 142.258 34.7274 142.284 34.8058C142.318 34.9104 142.351 35.015 142.388 35.1196L153.103 53.802L124.048 104.455H65.9417L50.0124 76.6835C48.8976 76.8889 47.7532 77.0085 46.5977 77.0384L64.1306 107.608H125.855L156.717 53.7983L144.377 32.2842L144.381 32.2916Z" fill="#E0AD25"/>
<path d="M7.24428 142.164L5.56284 150.192H0L3.84065 131.958H9.4035L8.19612 137.628H15.8441C16.307 137.628 16.6293 137.531 16.8144 137.333C16.9996 137.139 17.1515 136.754 17.2737 136.19L18.3329 131.293C18.3811 131.046 18.407 130.874 18.407 130.777C18.407 130.508 18.3255 130.329 18.17 130.243C18.0107 130.157 17.7626 130.112 17.4181 130.112H4.21102L5.23693 125.252H20.7514C21.9958 125.252 22.8847 125.472 23.4217 125.913C23.9587 126.354 24.2254 127.041 24.2254 127.975C24.2254 128.222 24.2069 128.472 24.1698 128.73C24.1328 128.988 24.0884 129.279 24.0402 129.597L22.318 137.808C22.0032 139.28 21.4625 140.374 20.707 141.084C19.9514 141.798 18.7811 142.152 17.1922 142.152H7.24058L7.24428 142.164Z" fill="#E0AD25"/>
<path d="M23.0527 150.192L26.9675 131.555H31.9451L31.5081 133.579C31.9711 132.866 32.4896 132.354 33.0636 132.033C33.6377 131.715 34.3266 131.555 35.1303 131.555H40.5079L39.5561 136.011H32.1636C31.797 136.011 31.5229 136.079 31.3414 136.217C31.1563 136.351 31.0155 136.628 30.9229 137.046L28.1785 150.196H23.0527V150.192Z" fill="#E0AD25"/>
<path d="M42.9589 150.192C41.933 150.192 41.196 150.013 40.7442 149.658C40.2923 149.303 40.0664 148.743 40.0664 147.984C40.0664 147.641 40.1257 147.163 40.2516 146.546L42.6293 135.201C42.896 133.949 43.3441 133.027 43.9626 132.44C44.5848 131.85 45.5552 131.555 46.87 131.555H59.4586C60.5326 131.555 61.2882 131.734 61.7289 132.089C62.1659 132.444 62.3881 133.004 62.3881 133.766C62.3881 134.11 62.3252 134.588 62.203 135.205L59.8252 146.55C59.5586 147.801 59.1104 148.724 58.4919 149.311C57.8697 149.901 56.8883 150.196 55.5476 150.196H42.9626L42.9589 150.192ZM56.6809 137.042C56.729 136.796 56.7549 136.65 56.7549 136.602C56.7549 136.209 56.4253 136.011 55.7661 136.011H48.5218C48.1329 136.011 47.8588 136.079 47.6996 136.217C47.5403 136.351 47.4255 136.628 47.3514 137.046L45.7774 144.634C45.7515 144.734 45.733 144.817 45.7218 144.891C45.7107 144.966 45.7033 145.037 45.7033 145.112C45.7033 145.455 45.97 145.627 46.507 145.627H53.7513C54.1883 145.627 54.5068 145.553 54.7031 145.407C54.8957 145.261 55.0327 145 55.1068 144.634L56.6809 137.046V137.042Z" fill="#E0AD25"/>
<path d="M66.1033 150.191L69.944 131.957H75.6883L74.8105 136.007H83.9214L83.0807 139.985H73.9698L72.8698 145.215H85.4918L84.4659 150.187H66.0996L66.1033 150.191ZM70.3106 130.119L71.3365 125.259H89.7028L88.6769 130.119H70.3106Z" fill="#5D5D59"/>
<path d="M100.68 158L105.324 136.123H97.3835C96.9687 136.123 96.6872 136.198 96.5428 136.344C96.3983 136.49 96.2724 136.774 96.1761 137.192L94.5651 144.742C94.5169 144.988 94.491 145.145 94.491 145.22C94.491 145.44 94.5576 145.59 94.6947 145.661C94.828 145.736 95.0428 145.773 95.3354 145.773H101.446L100.532 150.192H91.7873C89.8837 150.192 88.9355 149.393 88.9355 147.798C88.9355 147.379 88.9837 146.965 89.08 146.546L91.4577 135.201C91.7244 133.949 92.1688 133.027 92.791 132.44C93.4132 131.85 94.3836 131.555 95.6984 131.555H111.431L105.831 158H100.676H100.68Z" fill="#5D5D59"/>
<path d="M126.001 150.192L126.405 148.205C125.942 148.918 125.423 149.426 124.849 149.733C124.275 150.039 123.597 150.192 122.82 150.192H114.772C113.794 150.192 113.072 150.02 112.594 149.677C112.12 149.333 111.883 148.754 111.883 147.947C111.883 147.577 111.946 147.114 112.068 146.546L115.216 131.555H120.338L117.557 144.704C117.509 144.951 117.483 145.108 117.483 145.183C117.483 145.575 117.775 145.773 118.36 145.773H125.716C126.105 145.773 126.386 145.698 126.557 145.552C126.727 145.407 126.86 145.123 126.96 144.704L129.742 131.555H134.864L130.949 150.192H126.008H126.001Z" fill="#5D5D59"/>
<path d="M134.889 150.191L138.803 131.554H143.925L140.011 150.191H134.889ZM139.277 129.342L140.448 123.746H145.607L144.437 129.342H139.277Z" fill="#5D5D59"/>
<path d="M158.785 150.191L161.529 137.042C161.577 136.795 161.603 136.649 161.603 136.601C161.603 136.209 161.296 136.011 160.688 136.011H153.04C152.674 136.011 152.407 136.078 152.233 136.216C152.063 136.351 151.929 136.627 151.829 137.045L149.085 150.195H143.963L147.878 131.558H152.818L152.381 133.582C153.259 132.23 154.466 131.558 156.003 131.558H164.311C165.311 131.558 166.036 131.729 166.488 132.073C166.94 132.417 167.166 132.996 167.166 133.803C167.166 134.27 167.118 134.737 167.022 135.204L163.874 150.195H158.785V150.191Z" fill="#5D5D59"/>
<path d="M170.967 150.192C169.919 150.192 169.167 150.013 168.719 149.658C168.267 149.303 168.041 148.743 168.041 147.984C168.041 147.641 168.1 147.163 168.226 146.546L170.604 135.201C170.871 133.949 171.315 133.027 171.941 132.44C172.563 131.85 173.545 131.555 174.885 131.555H187.4C188.326 131.555 188.992 131.734 189.396 132.089C189.8 132.444 190 132.978 190 133.692C190 134.132 189.948 134.588 189.855 135.055L188.318 142.385H175.989L176.611 139.291H184.078L184.626 136.788C184.648 136.665 184.663 136.505 184.663 136.31C184.663 136.116 184.607 135.978 184.5 135.903C184.389 135.828 184.189 135.795 183.896 135.795H176.541C176.126 135.795 175.845 135.862 175.7 135.996C175.556 136.131 175.433 136.407 175.333 136.826L173.615 144.854C173.589 144.977 173.571 145.082 173.559 145.168C173.548 145.254 173.541 145.332 173.541 145.407C173.541 145.627 173.604 145.777 173.726 145.848C173.848 145.922 174.067 145.96 174.385 145.96H186.863L185.985 150.196H170.985L170.967 150.192Z" fill="#5D5D59"/>
<path d="M132.413 28.8253L127.802 28.4554C127.561 28.4479 127.32 28.448 127.091 28.448H127.065C125.761 28.4106 124.487 28.4741 123.254 28.6273C123.158 28.6385 123.091 28.6459 123.032 28.6534C122.98 28.6609 122.943 28.6646 122.924 28.6646H122.913C117.51 29.4043 112.758 31.8736 108.621 35.8821C106.862 37.5818 105.321 39.502 103.617 41.269C103.121 41.7845 102.495 42.3673 101.832 42.5167C98.0803 43.361 94.8619 45.1616 92.3027 48.0008C89.262 51.3779 85.5139 53.384 81.2214 54.6093C79.7622 55.024 78.3141 55.4798 76.8734 55.9393L73.1735 57.1459C72.292 57.4335 71.4068 57.7212 70.5254 58.0014C70.3217 58.0649 70.1069 58.162 69.9032 58.1433C68.1847 57.979 66.4551 57.9117 64.8922 56.9666C64.1477 56.5258 63.2663 56.1858 62.4219 56.0849C58.7108 55.6255 55.322 57.8744 53.7813 61.7857C53.2628 63.1081 52.9258 64.5016 52.4776 65.8502C51.2591 69.5523 49.311 72.6941 45.7778 74.6068C45.2704 74.8757 44.7371 75.1111 44.2148 75.3651C47.1926 74.9504 49.8332 73.8185 51.3406 71.1064C52.4517 69.1115 53.1961 66.8999 54.0776 64.778C54.622 63.4668 54.9591 62.0509 55.6516 60.8293C57.2331 57.9977 60.496 56.5519 63.107 57.4821C64.7662 58.0761 66.3514 58.8755 68.0143 59.604C66.2736 61.0049 64.7885 62.7943 64.0329 65.0171C63.2848 67.2212 62.4515 71.8311 62.5774 71.8573C62.807 71.084 63.0478 70.3032 63.27 69.5187C64.9218 63.874 68.355 60.0075 73.666 58.0126C74.1179 57.8407 74.5808 57.6801 75.0549 57.5382C75.8364 57.3028 76.6252 57.0824 77.403 56.8695C78.2548 56.6378 79.1104 56.4212 79.9696 56.2194C85.0621 54.9717 89.6842 52.932 93.2138 48.8152C93.9174 47.9896 94.8026 47.2873 95.6841 46.641C97.5248 45.2737 99.5247 44.1567 101.836 43.9326C103.073 43.8056 103.799 43.1593 104.51 42.2777C107.025 39.1322 109.699 36.1473 113.013 33.8013C116.702 31.1862 120.665 29.3669 125.154 29.0008C125.183 29.0008 125.217 28.9934 125.243 28.9934C125.58 28.9635 125.928 28.9485 126.28 28.9411H126.343C126.928 28.9224 127.513 28.9149 128.076 28.9149H128.335C128.335 28.9149 128.343 28.9074 128.346 28.9149C128.957 28.9149 129.535 28.9411 130.091 28.9672C131.013 29.0195 131.861 29.0942 132.613 29.1802C133.331 29.2623 133.965 29.352 134.491 29.4417C135.513 29.6135 136.168 29.7741 136.339 29.8115C135.094 29.3445 133.75 29.027 132.409 28.8215L132.413 28.8253Z" fill="#5D5D5A"/>
<path d="M61.9939 62.0317C61.8236 62.2185 61.6458 62.3903 61.4791 62.5734C61.3199 62.7639 61.1495 62.9432 61.0013 63.1338C60.7014 63.5223 60.4125 63.9108 60.1643 64.3292C59.6532 65.1548 59.2495 66.029 58.8718 66.9367C58.4903 67.8408 58.1199 68.7785 57.6385 69.6937C57.4051 70.1532 57.1274 70.6015 56.8237 71.0349C56.6644 71.2478 56.5126 71.4645 56.3348 71.6625L56.0755 71.965L55.7941 72.249C55.4163 72.6263 54.9978 72.9587 54.5682 73.2651C54.3533 73.4182 54.12 73.5453 53.8978 73.6872C53.6719 73.8217 53.4348 73.9338 53.2015 74.0533C52.2571 74.5016 51.2719 74.8117 50.2794 75.0321C48.2905 75.4542 46.2758 75.5626 44.2832 75.4169C46.2387 75.0171 48.172 74.6212 50.009 74.0309C50.9238 73.7246 51.8164 73.3809 52.6423 72.9363C53.4682 72.4955 54.2274 71.9576 54.8756 71.3076C55.5311 70.665 56.0792 69.9104 56.557 69.0811C57.0422 68.2592 57.4681 67.3664 57.9496 66.481C58.4273 65.5956 58.9718 64.714 59.6495 63.9369C60.3236 63.1636 61.1162 62.4987 61.9939 62.0205V62.0317Z" fill="#5E5E5B"/>
<path d="M55.542 66.7129C55.3642 67.9868 54.9605 69.2457 54.3087 70.3926C53.6569 71.5395 52.7198 72.5257 51.6384 73.2841C50.5569 74.0424 49.3347 74.5654 48.0903 74.9166C46.8385 75.2528 45.557 75.4097 44.2793 75.4284C45.5089 75.0697 46.7274 74.7485 47.894 74.3002C49.057 73.8519 50.1718 73.3102 51.1717 72.6079C52.1717 71.9093 53.0643 71.0575 53.7717 70.0452C54.4902 69.0365 55.0383 67.9009 55.5457 66.7166L55.542 66.7129Z" fill="#5E5E5B"/>
<path d="M61.2585 60.3058C60.7252 60.586 60.2363 60.8549 59.7956 61.1762C59.3512 61.4937 58.9549 61.8561 58.5845 62.2558C58.2141 62.6556 57.866 63.0889 57.5105 63.5335C57.1549 63.978 56.7994 64.4375 56.3809 64.8709C56.5031 64.2769 56.7068 63.7203 56.9697 63.186C57.2364 62.6518 57.5697 62.1438 57.9882 61.6955C58.4067 61.2472 58.9141 60.8661 59.4808 60.6196C60.0474 60.373 60.6585 60.2535 61.2585 60.3095V60.3058Z" fill="#5E5E5B"/>
<path d="M144.502 48.7405C144.317 47.1565 144.043 45.5651 143.598 44.0447C142.736 41.1121 141.732 38.2169 140.799 35.3068C140.747 35.1536 140.71 35.0042 140.687 34.866C140.606 34.3504 140.732 33.8984 141.247 33.424C141.336 33.3418 141.417 33.2559 141.502 33.1737C142.436 32.2547 143.236 31.1863 144.106 30.1888C144.043 30.0879 143.984 29.9796 143.921 29.875C142.639 30.1627 141.28 30.2486 140.084 30.7118C139.969 30.7566 139.854 30.8015 139.739 30.8538C138.995 31.1937 138.273 31.3656 137.554 31.4141C136.517 31.4963 135.491 31.3432 134.406 31.134C134.158 31.0891 133.906 31.0406 133.651 30.9995C132.991 30.8837 132.325 30.7828 131.665 30.7043C130.769 30.596 129.873 30.5325 128.973 30.5063C126.888 30.4428 124.803 30.6072 122.717 31.1041C122.61 31.1302 122.503 31.1564 122.395 31.1825C117.11 32.5311 113.181 35.9082 109.67 39.8831C108.603 41.0897 107.588 42.3561 106.429 43.7309C112.721 42.8679 118.169 44.8964 119.688 46.5289C117.003 45.6884 114.307 45.2663 111.588 45.1803C110.847 45.1542 110.103 45.1579 109.359 45.1803C106.666 45.2625 103.981 45.5502 101.492 46.712C100.792 47.037 100.159 47.5002 99.4958 47.8887C99.5106 47.8999 99.5254 47.9112 99.5402 47.9186C99.9106 48.1839 100.177 48.2138 100.433 48.2623C103.599 48.8787 106.344 50.2759 108.384 52.8274C108.614 53.115 108.821 53.4102 109.003 53.7128C109.044 53.7763 109.077 53.8398 109.114 53.907C110.029 55.5283 110.307 57.3588 109.855 59.2715C109.644 60.1719 108.97 60.7061 108.955 60.7285C108.947 60.7173 108.944 60.7023 108.933 60.6911C108.666 60.2204 108.333 59.7684 108.155 59.2603C107.959 58.6962 107.962 58.0649 107.792 57.4896C107.222 55.5993 106.281 55.2594 104.77 56.5258C103.385 57.6913 102.103 58.9727 100.825 60.2653C99.1439 61.9688 97.381 63.5714 95.3847 64.8266C94.5144 65.3758 93.5959 65.8577 92.6218 66.2536C91.3959 66.7505 90.0626 67.1166 88.7478 67.2436C86.9108 67.4229 86.0035 66.2312 86.3331 64.4045C86.4146 63.9562 86.5257 63.5079 86.6553 62.8541C86.5516 62.9064 86.4516 62.9625 86.3553 63.0185C84.8331 63.8814 83.7331 65.0283 82.785 66.2723C82.5813 66.5264 82.3961 66.7841 82.211 67.0456C81.9739 67.3856 81.7332 67.7255 81.4999 68.0655C81.1184 68.6109 80.7443 69.1601 80.3665 69.7055C78.974 71.719 77.6074 73.7475 76.1926 75.7387C75.4518 76.781 74.5408 77.6962 73.7148 78.6675C75.6333 77.2479 77.4481 75.7013 79.1332 74.0352C79.9258 73.2469 80.6962 72.4288 81.4517 71.607C82.1998 70.7926 82.9369 69.9632 83.685 69.1526C83.7776 69.048 83.8739 68.9434 83.9702 68.8388C84.0146 68.8724 84.0591 68.9135 84.0924 68.9284V68.9396L83.948 69.2497C83.6998 69.7727 83.448 70.3032 83.1961 70.8374C83.185 70.8598 83.1776 70.8785 83.1665 70.9009C82.8554 71.5621 82.5369 72.2383 82.2036 72.9369L86.3405 72.4774C89.1849 72.0291 91.9774 71.5958 94.7774 71.2222C103.014 70.1426 110.392 67.0307 116.966 61.9351C117.136 61.8006 117.266 61.6139 117.536 61.315C115.947 61.3598 114.951 60.7546 114.562 59.3575C114.073 57.6129 113.584 55.8683 112.718 54.2955C112.681 54.2246 112.64 54.1536 112.599 54.0863C112.233 53.455 111.803 52.8498 111.277 52.2894C112.225 52.6966 112.91 53.3653 113.458 54.1648C113.507 54.2358 113.551 54.303 113.599 54.374C113.71 54.5458 113.814 54.7214 113.914 54.9007C114.544 56.0177 115.088 57.1833 115.736 58.2891C116.61 59.8095 117.844 60.3848 119.495 59.873C120.873 59.4471 122.214 58.8457 123.488 58.1732C124.006 57.9005 124.521 57.6203 125.036 57.3364L131.939 55.0912L129.684 59.4695C129.569 60.5454 128.988 60.2204 128.988 60.2204C127.917 59.1221 126.295 59.9477 126.295 59.9477L124.929 64.382L127.084 63.7881C127.921 63.5564 128.677 63.0932 129.236 62.4282C130.051 61.457 131.01 61.4159 131.01 61.4159C133.825 61.8828 133.614 60.6911 133.776 59.4957C133.939 58.3003 135.569 54.2993 135.569 54.2993C135.569 54.2993 136.454 53.4326 134.732 51.9121C133.039 50.4141 126.928 52.0578 126.78 52.1139C126.469 52.1699 126.158 52.2185 125.843 52.2633C124.888 52.3941 123.917 52.4688 122.936 52.4949C122.662 52.5024 122.384 52.4986 122.11 52.5024C120.747 52.5099 119.373 52.5995 118.492 54.0901C118.766 52.4949 119.469 51.6544 120.773 51.3817C121.018 51.3294 121.288 51.2995 121.58 51.2845C122.492 51.2547 123.41 51.2845 124.38 51.2845H124.484C124.484 49.9546 124.273 48.7368 123.932 47.5563C123.729 46.8539 123.48 46.1666 123.199 45.4792C122.736 44.3323 122.303 43.1518 122.043 41.9452C121.88 41.1532 122.043 40.2828 122.062 39.4534C122.184 39.4534 122.292 39.446 122.41 39.4422C122.336 42.3001 123.51 44.6387 125.21 46.8315C125.417 46.2039 125.532 45.6809 125.754 45.2027C126.473 43.701 127.469 42.5205 128.884 41.8929C129.328 41.6949 129.81 41.5455 130.34 41.4633C130.662 41.411 131.317 41.665 131.347 41.8593C131.684 43.8205 133.073 44.493 134.758 44.8889C135.769 45.1318 137.565 47.0034 138.139 48.3594C138.258 48.6434 138.325 48.9011 138.321 49.1178C138.295 50.0891 138.821 50.4029 139.462 50.8176C139.747 51.0044 140.024 51.1426 140.306 51.2472C140.524 51.3256 140.732 51.3742 140.939 51.4003C141.961 51.5423 142.906 51.1052 143.78 50.2834C143.965 50.0966 144.158 49.8425 144.287 49.5736C144.358 49.4391 144.41 49.3046 144.447 49.1701C144.484 49.0169 144.502 48.875 144.484 48.748L144.502 48.7405Z" fill="#E0AD25"/>
<path d="M36.8882 53.8096L65.9431 3.15297H124.049L139.108 29.4077C139.227 29.3554 139.33 29.3144 139.438 29.2695L139.527 29.2359C140.434 28.8847 141.36 28.7278 142.253 28.5784L125.86 0H64.1357L33.2734 53.8096L44.5473 73.4633C44.7213 73.3812 44.888 73.299 45.0473 73.2131C45.8176 72.7947 46.5213 72.3015 47.162 71.7188L36.8919 53.8096H36.8882Z" fill="#5D5D59"/>
</svg>
