<svg width="110" height="22" viewBox="0 0 110 22" fill="none" xmlns="http://www.w3.org/2000/svg">
<path d="M31.9113 12.481L31.1977 15.908H28.8381L30.4666 8.1274H32.8262L32.314 10.5476H35.5572C35.7527 10.5476 35.8915 10.5066 35.9678 10.4225C36.046 10.3384 36.1105 10.1762 36.1613 9.93571L36.6109 7.84589C36.6325 7.74032 36.6422 7.66799 36.6422 7.62498C36.6422 7.50964 36.609 7.4334 36.5406 7.39626C36.4741 7.35911 36.3666 7.34151 36.2219 7.34151H30.6191L31.0531 5.26733H37.6334C38.1612 5.26733 38.5385 5.36117 38.7653 5.5508C38.9921 5.73847 39.1074 6.03367 39.1074 6.43052C39.1074 6.53609 39.0996 6.6436 39.0839 6.75308C39.0683 6.86255 39.0507 6.98572 39.0292 7.12256L38.3 10.6278C38.1651 11.2572 37.9384 11.7225 37.6177 12.0275C37.2971 12.3325 36.8006 12.483 36.1281 12.483H31.9074L31.9113 12.481Z" fill="#E0AD25"/>
<path d="M38.6172 15.908L40.2769 7.95533H42.3882L42.2025 8.8194C42.4 8.51639 42.6189 8.29548 42.8614 8.15863C43.1038 8.02179 43.397 7.95337 43.7391 7.95337H46.0205L45.6178 9.85551H42.4821C42.3277 9.85551 42.2103 9.88484 42.1322 9.94153C42.054 10.0002 41.9953 10.1175 41.9543 10.2954L40.7911 15.906H38.6191L38.6172 15.908Z" fill="#E0AD25"/>
<path d="M47.0588 15.908C46.6248 15.908 46.312 15.8318 46.1204 15.6793C45.9288 15.5268 45.833 15.2883 45.833 14.9638C45.833 14.8171 45.8584 14.6119 45.9112 14.3499L46.9199 9.5095C47.0333 8.9758 47.223 8.58286 47.4869 8.33067C47.7508 8.07848 48.1613 7.95337 48.7204 7.95337H54.0594C54.5149 7.95337 54.8355 8.02961 55.0212 8.18209C55.2069 8.33458 55.3007 8.57309 55.3007 8.8976C55.3007 9.04422 55.2753 9.24948 55.2226 9.51144L54.2138 14.3519C54.1004 14.8856 53.9108 15.2785 53.6469 15.5307C53.383 15.7829 52.9666 15.908 52.3977 15.908H47.0588ZM52.8786 10.2973C52.9001 10.1918 52.9099 10.1292 52.9099 10.1097C52.9099 9.94154 52.7711 9.85747 52.4915 9.85747H49.4184C49.2522 9.85747 49.1369 9.8868 49.0684 9.94349C49.002 10.0021 48.9531 10.1194 48.9218 10.2973L48.2552 13.5347C48.2454 13.5777 48.2376 13.6129 48.2317 13.6442C48.2258 13.6755 48.2239 13.7067 48.2239 13.738C48.2239 13.8846 48.3373 13.9589 48.566 13.9589H51.6392C51.8249 13.9589 51.9598 13.9276 52.0419 13.8651C52.124 13.8025 52.1807 13.693 52.212 13.5347L52.8786 10.2973Z" fill="#E0AD25"/>
<path d="M56.8743 15.908L58.5027 8.1274H60.9386L60.5652 9.85556H64.4301L64.0723 11.5524H60.2074L59.7422 13.785H65.0967L64.6627 15.9061H56.8723L56.8743 15.908ZM58.6591 7.34151L59.0931 5.26733H66.8835L66.4495 7.34151H58.6591Z" fill="#5D5D59"/>
<path d="M71.5402 19.2397L73.5108 9.90292H70.1425C69.9665 9.90292 69.8473 9.93421 69.7847 9.99677C69.7222 10.0593 69.6713 10.1805 69.6303 10.3584L68.948 13.5802C68.9265 13.6857 68.9167 13.7522 68.9167 13.7835C68.9167 13.8773 68.9461 13.9399 69.0027 13.9711C69.0594 14.0024 69.1494 14.0181 69.2745 14.0181H71.8667L71.4796 15.9046H67.7711C66.9638 15.9046 66.561 15.5644 66.561 14.8821C66.561 14.7042 66.5825 14.5263 66.6236 14.3485L67.6323 9.50803C67.7457 8.97434 67.9354 8.58139 68.1993 8.3292C68.4632 8.07702 68.8737 7.9519 69.4328 7.9519H76.105L73.7298 19.2377H71.5422L71.5402 19.2397Z" fill="#5D5D59"/>
<path d="M82.2782 15.908L82.4483 15.0595C82.2509 15.3645 82.0319 15.5815 81.7895 15.7125C81.5471 15.8435 81.2597 15.908 80.9274 15.908H77.5141C77.0996 15.908 76.7927 15.8357 76.5913 15.6871C76.39 15.5405 76.2883 15.2941 76.2883 14.9481C76.2883 14.7917 76.3137 14.5923 76.3665 14.3519L77.7017 7.95532H79.8737L78.6949 13.566C78.6733 13.6715 78.6636 13.738 78.6636 13.7712C78.6636 13.9394 78.7887 14.0234 79.037 14.0234H82.157C82.3232 14.0234 82.4405 13.9922 82.5148 13.9296C82.5871 13.867 82.6438 13.7458 82.6849 13.5679L83.8637 7.95728H86.0356L84.3759 15.9099H82.2802L82.2782 15.908Z" fill="#5D5D59"/>
<path d="M86.0493 15.9079L87.7091 7.95523H89.881L88.2212 15.9079H86.0493ZM87.9124 7.011L88.4089 4.62207H90.5965L90.0999 7.011H87.9124Z" fill="#5D5D59"/>
<path d="M96.1835 15.908L97.3467 10.2973C97.3682 10.1918 97.378 10.1292 97.378 10.1097C97.378 9.94154 97.249 9.85747 96.9909 9.85747H93.7477C93.5933 9.85747 93.4779 9.88679 93.4056 9.94349C93.3333 10.0021 93.2766 10.1194 93.2355 10.2973L92.0723 15.908H89.9004L91.5601 7.95532H93.6558L93.4701 8.8194C93.8435 8.24269 94.3537 7.95532 95.0067 7.95532H98.5295C98.9537 7.95532 99.2606 8.02961 99.4522 8.17623C99.6438 8.32285 99.7396 8.56917 99.7396 8.91519C99.7396 9.11459 99.7181 9.31399 99.677 9.5134L98.3418 15.9099H96.1855L96.1835 15.908Z" fill="#5D5D59"/>
<path d="M101.35 15.908C100.905 15.908 100.588 15.8318 100.396 15.6793C100.205 15.5268 100.109 15.2883 100.109 14.9638C100.109 14.8171 100.134 14.6119 100.187 14.3499L101.196 9.5095C101.309 8.9758 101.499 8.58286 101.763 8.33067C102.027 8.07848 102.443 7.95337 103.012 7.95337H108.32C108.713 7.95337 108.994 8.02961 109.166 8.18209C109.336 8.33458 109.422 8.56135 109.422 8.86632C109.422 9.05399 109.401 9.24949 109.36 9.44694L108.709 12.5748H103.479L103.743 11.2553H106.908L107.141 10.1859C107.151 10.1331 107.156 10.0647 107.156 9.98063C107.156 9.89657 107.133 9.83988 107.086 9.8086C107.039 9.77732 106.955 9.76168 106.83 9.76168H103.71C103.534 9.76168 103.415 9.79101 103.352 9.8477C103.29 9.90635 103.239 10.0236 103.198 10.2015L102.468 13.6285C102.459 13.6813 102.451 13.7263 102.445 13.7615C102.439 13.7986 102.437 13.8318 102.437 13.8631C102.437 13.957 102.463 14.0195 102.515 14.0508C102.566 14.0821 102.66 14.0977 102.795 14.0977H108.087L107.714 15.906H101.35V15.908Z" fill="#5D5D59"/>
<path d="M21.9372 6.41479C21.8273 6.54791 21.7135 6.68489 21.5852 6.81318L21.5726 6.82572C21.5582 6.84018 21.5437 6.85466 21.5283 6.86912C21.5225 6.87491 21.5167 6.87973 21.5138 6.88359C21.5147 6.88938 21.5176 6.89999 21.5234 6.91543C21.5302 6.93665 21.5369 6.9569 21.5437 6.97813L23.6591 10.6899L17.9226 20.7527H6.45047L3.30585 15.2361C3.08592 15.2766 2.8602 15.3008 2.63159 15.3065L6.0926 21.3788H18.2795L24.3729 10.6899L21.9363 6.41576L21.9372 6.41479Z" fill="#E0AD25"/>
<path d="M19.5723 5.72469L18.6617 5.65138C18.6144 5.65041 18.5662 5.65041 18.5209 5.65041H18.516C18.2594 5.64269 18.0067 5.65523 17.7636 5.6861C17.7453 5.689 17.7308 5.68996 17.7202 5.69093C17.7106 5.69189 17.7029 5.69382 17.699 5.69382H17.6961C16.6293 5.84141 15.6917 6.33142 14.8746 7.12723C14.5274 7.46484 14.2226 7.84586 13.8869 8.19794C13.7895 8.30116 13.665 8.41594 13.5348 8.44584C12.794 8.61368 12.1583 8.97156 11.6528 9.53489C11.0519 10.2053 10.313 10.6037 9.46512 10.8477C9.1767 10.9307 8.89118 11.0204 8.60662 11.112L7.87544 11.3522C7.70085 11.4091 7.52722 11.466 7.35263 11.522C7.31211 11.5345 7.26967 11.5538 7.23012 11.55C6.89058 11.5172 6.54911 11.5046 6.2414 11.3165C6.09478 11.2287 5.92018 11.1612 5.75331 11.141C5.02117 11.0493 4.35173 11.4969 4.04692 12.2734C3.9437 12.5358 3.87811 12.8126 3.79033 13.0808C3.54918 13.8158 3.1643 14.4409 2.46786 14.82C2.36754 14.873 2.26239 14.9203 2.15918 14.9714C2.74759 14.8885 3.26848 14.6637 3.56558 14.1255C3.78454 13.729 3.93116 13.2901 4.10576 12.8686C4.21379 12.6081 4.28035 12.3265 4.41636 12.0843C4.7289 11.522 5.37325 11.2345 5.88835 11.4188C6.21536 11.5364 6.52885 11.6956 6.85778 11.8403C6.51438 12.1181 6.22114 12.474 6.07163 12.9158C5.92404 13.3538 5.7591 14.2692 5.78418 14.274C5.82951 14.1206 5.87678 13.9653 5.92115 13.8091C6.24719 12.6882 6.92531 11.9194 7.97287 11.5239C8.06161 11.4892 8.15325 11.4583 8.24778 11.4303C8.40212 11.3831 8.55742 11.3406 8.71176 11.2972C8.8796 11.2519 9.04937 11.2085 9.21818 11.168C10.2233 10.9201 11.1358 10.5149 11.8332 9.69791C11.9721 9.53392 12.1467 9.39405 12.3213 9.26576C12.685 8.99374 13.0795 8.77188 13.5358 8.72751C13.7798 8.70243 13.9235 8.57414 14.0634 8.39858C14.5602 7.77351 15.0878 7.18124 15.7418 6.71534C16.4701 6.19638 17.2524 5.83369 18.1389 5.76134C18.1447 5.76134 18.1514 5.76038 18.1562 5.76038C18.2228 5.75363 18.2913 5.7517 18.3607 5.74977H18.3733C18.489 5.74591 18.6038 5.74494 18.7157 5.74494H18.7668C18.7668 5.74494 18.7678 5.74398 18.7697 5.74494C18.8903 5.74494 19.0041 5.74977 19.1141 5.75555C19.2954 5.76616 19.4642 5.78064 19.6118 5.79703C19.7536 5.81343 19.879 5.83176 19.9832 5.84912C20.1848 5.88385 20.3141 5.91471 20.3478 5.92243C20.1018 5.82983 19.8366 5.76616 19.5723 5.72565V5.72469Z" fill="#5D5D59"/>
<path d="M5.67032 12.3215C5.63656 12.3582 5.60184 12.3929 5.56807 12.4286C5.53624 12.4662 5.50344 12.5019 5.47354 12.5405C5.4147 12.6177 5.35683 12.6948 5.30859 12.7778C5.20828 12.9418 5.12821 13.1154 5.05394 13.2958C4.9787 13.4752 4.90539 13.6614 4.81086 13.8437C4.76456 13.9353 4.70957 14.0241 4.65073 14.1099C4.6189 14.1524 4.589 14.1948 4.55427 14.2343L4.50315 14.2942L4.44816 14.3511C4.37389 14.4263 4.29093 14.4929 4.20605 14.5536C4.1636 14.5845 4.1173 14.6096 4.0739 14.6376C4.02952 14.6646 3.98226 14.6867 3.93692 14.7099C3.75075 14.7986 3.5559 14.8604 3.36009 14.9047C2.96749 14.9887 2.57007 15.0099 2.17651 14.9819C2.56236 14.9019 2.94434 14.8237 3.30703 14.707C3.48742 14.6462 3.66394 14.5777 3.82696 14.489C3.98998 14.4012 4.13949 14.2942 4.26778 14.1659C4.39704 14.0385 4.50508 13.8881 4.59961 13.7241C4.6951 13.5601 4.77903 13.3836 4.87452 13.207C4.96905 13.0315 5.07613 12.8559 5.21021 12.7016C5.34332 12.5482 5.49959 12.4161 5.67322 12.3215H5.67032Z" fill="#5D5D59"/>
<path d="M4.39675 13.2515C4.36202 13.5042 4.28196 13.754 4.1527 13.9817C4.02441 14.2093 3.83921 14.4061 3.62506 14.5556C3.41092 14.7061 3.17073 14.8103 2.92476 14.8797C2.67782 14.9463 2.42413 14.9771 2.17236 14.981C2.41544 14.9096 2.65563 14.846 2.88617 14.7572C3.11575 14.6675 3.33568 14.5604 3.53342 14.4215C3.73117 14.2826 3.90673 14.1129 4.0466 13.9122C4.18839 13.7126 4.29643 13.4859 4.39675 13.2515Z" fill="#5D5D59"/>
<path d="M5.52541 11.9793C5.42027 12.0353 5.32381 12.0883 5.23603 12.152C5.14825 12.2147 5.07012 12.287 4.99681 12.3661C4.92349 12.4452 4.85501 12.5311 4.78459 12.6198C4.71418 12.7076 4.64472 12.7992 4.56177 12.8851C4.58588 12.7674 4.6264 12.6565 4.67849 12.5504C4.73154 12.4443 4.79713 12.343 4.88009 12.2542C4.96208 12.1655 5.0624 12.0893 5.17429 12.0401C5.28619 11.9909 5.40676 11.9678 5.52541 11.9784V11.9793Z" fill="#5D5D59"/>
<path d="M21.9597 9.68159C21.923 9.36713 21.869 9.05074 21.7812 8.74882C21.6105 8.16619 21.4127 7.59129 21.2285 7.01349C21.2188 6.98262 21.2111 6.95368 21.2063 6.92571C21.1899 6.8225 21.215 6.73375 21.3172 6.63922C21.3346 6.62282 21.351 6.60546 21.3674 6.59003C21.5516 6.40675 21.7098 6.1955 21.8815 5.99679C21.869 5.97654 21.8574 5.95532 21.8449 5.93506C21.5921 5.99197 21.324 6.00933 21.0877 6.10097C21.0655 6.10965 21.0423 6.1193 21.0201 6.12894C20.8735 6.19647 20.7307 6.23023 20.589 6.24084C20.3845 6.25724 20.1819 6.22637 19.9668 6.18489C19.9176 6.17621 19.8674 6.1656 19.8173 6.15788C19.687 6.13473 19.5549 6.11447 19.4247 6.09904C19.2481 6.07782 19.0707 6.06431 18.8932 6.05949C18.4813 6.04695 18.0694 6.07975 17.6585 6.1791C17.6373 6.18393 17.616 6.18972 17.5948 6.19454C16.5511 6.4627 15.7756 7.1331 15.083 7.92311C14.8717 8.1633 14.672 8.4141 14.4434 8.68805C15.6859 8.51635 16.7614 8.91955 17.0614 9.24366C16.5318 9.07582 15.9993 8.99287 15.4621 8.9755C15.3154 8.97068 15.1688 8.97068 15.0212 8.9755C14.4897 8.9919 13.9592 9.04881 13.4682 9.28032C13.3303 9.34495 13.2049 9.43658 13.0747 9.51375C13.0776 9.51568 13.0804 9.51857 13.0833 9.51954C13.1566 9.57163 13.2097 9.57838 13.2599 9.58803C13.8859 9.71053 14.427 9.98834 14.8293 10.4948C14.8746 10.5517 14.9161 10.6105 14.9518 10.6703C14.9595 10.6829 14.9663 10.6954 14.974 10.7089C15.1553 11.0311 15.2093 11.3947 15.1206 11.7748C15.0781 11.9542 14.946 12.0594 14.9431 12.0642C14.9421 12.0622 14.9402 12.0593 14.9392 12.0574C14.8862 11.9639 14.8206 11.8741 14.7859 11.7729C14.7473 11.661 14.7483 11.5356 14.7145 11.4208C14.6016 11.0446 14.4164 10.978 14.1184 11.2288C13.8454 11.4603 13.5917 11.715 13.3399 11.9716C13.0081 12.3102 12.6599 12.6285 12.2654 12.8783C12.0937 12.9873 11.9123 13.0828 11.7203 13.1619C11.4782 13.2613 11.2149 13.3336 10.9554 13.3587C10.5927 13.3944 10.4143 13.158 10.4789 12.7953C10.4953 12.7066 10.5165 12.6179 10.5426 12.4867C10.5223 12.4973 10.503 12.5079 10.4837 12.5195C10.1828 12.6912 9.96573 12.9188 9.77859 13.1658C9.73808 13.2159 9.70142 13.267 9.66573 13.3191C9.61847 13.3867 9.5712 13.4542 9.5249 13.5217C9.44966 13.6297 9.37539 13.7387 9.30111 13.8468C9.0262 14.2471 8.75707 14.6493 8.47734 15.0458C8.33072 15.2532 8.1513 15.4345 7.98828 15.6274C8.36737 15.3458 8.72524 15.0381 9.05803 14.7072C9.2143 14.5509 9.3667 14.3879 9.51525 14.2249C9.66284 14.0628 9.8085 13.8989 9.95608 13.7368C9.97441 13.7165 9.9937 13.6953 10.012 13.6751C10.0207 13.6818 10.0294 13.6905 10.0361 13.6934V13.6963L10.0082 13.758C9.95897 13.8622 9.90978 13.9673 9.85962 14.0735C9.85769 14.0773 9.85576 14.0812 9.85383 14.086C9.7921 14.2172 9.7294 14.3513 9.6638 14.4902L10.4799 14.3985C11.0413 14.3098 11.593 14.223 12.1457 14.1497C13.7721 13.9355 15.2286 13.3172 16.526 12.3053C16.5598 12.2783 16.5849 12.2417 16.6389 12.1819C16.3254 12.1905 16.1286 12.07 16.0524 11.7931C15.9559 11.4468 15.8595 11.0996 15.6887 10.787C15.681 10.7726 15.6733 10.7591 15.6656 10.7456C15.5932 10.6202 15.5084 10.5005 15.4042 10.3887C15.5913 10.4697 15.7264 10.6028 15.8344 10.761C15.844 10.7745 15.8527 10.788 15.8624 10.8025C15.8846 10.8362 15.9048 10.871 15.9251 10.9066C16.0495 11.1285 16.1566 11.36 16.2849 11.5799C16.4575 11.8819 16.7006 11.9957 17.0267 11.8944C17.2987 11.8095 17.563 11.6899 17.8147 11.5568C17.917 11.5028 18.0183 11.4468 18.1205 11.3899L19.4835 10.9443L19.0379 11.8134C19.0147 12.0275 18.8999 11.9619 18.8999 11.9619C18.6887 11.743 18.3684 11.9079 18.3684 11.9079L18.0993 12.7886L18.5247 12.6709C18.6896 12.6256 18.8392 12.533 18.9491 12.4008C19.1102 12.2079 19.2993 12.1992 19.2993 12.1992C19.8549 12.2918 19.8134 12.0555 19.8452 11.8182C19.8771 11.5809 20.1983 10.7861 20.1983 10.7861C20.1983 10.7861 20.3729 10.6144 20.0333 10.3115C19.6996 10.0144 18.4929 10.3404 18.463 10.352C18.4012 10.3626 18.3395 10.3732 18.2778 10.3819C18.0887 10.4079 17.8977 10.4234 17.7038 10.4282C17.6498 10.4292 17.5948 10.4292 17.5408 10.4301C17.2717 10.4321 17.0006 10.4494 16.827 10.7456C16.881 10.4282 17.0199 10.2613 17.2775 10.2073C17.3257 10.1967 17.3797 10.1909 17.4366 10.188C17.617 10.1822 17.7974 10.188 17.9893 10.188H18.0096C18.0096 9.92467 17.9681 9.68159 17.9006 9.44719C17.861 9.30732 17.8109 9.17035 17.7559 9.03531C17.6643 8.80766 17.5794 8.57326 17.5273 8.33307C17.4945 8.17584 17.5273 8.00318 17.5311 7.83823C17.5553 7.83823 17.5765 7.83726 17.6006 7.83533C17.5861 8.40252 17.8176 8.86746 18.1533 9.3025C18.1948 9.17807 18.217 9.07389 18.2614 8.97839C18.4031 8.68033 18.5999 8.44497 18.8797 8.32053C18.9674 8.28098 19.0629 8.25204 19.1671 8.23565C19.2308 8.226 19.36 8.27616 19.3658 8.31474C19.4324 8.70445 19.7063 8.83756 20.0391 8.91666C20.2388 8.96489 20.5938 9.33723 20.7066 9.60635C20.7298 9.6623 20.7433 9.71439 20.7423 9.75683C20.7375 9.94975 20.8417 10.0125 20.968 10.0944C21.024 10.1311 21.0799 10.1591 21.1349 10.1793C21.1774 10.1948 21.2188 10.2044 21.2603 10.2092C21.4619 10.2372 21.6491 10.1504 21.8208 9.98738C21.8574 9.95072 21.895 9.89959 21.9211 9.84654C21.9346 9.81953 21.9452 9.79349 21.9519 9.76648C21.9597 9.73657 21.9635 9.70764 21.9597 9.68256V9.68159Z" fill="#E0AD25"/>
<path d="M0.714775 10.6888L6.4513 0.626029H17.9234L20.8963 5.84166C20.9194 5.83105 20.9407 5.82334 20.9609 5.81465L20.9783 5.8079C21.1577 5.73845 21.34 5.70662 21.5165 5.67768L18.2803 0H6.09343L0 10.6898L2.22535 14.5935C2.25911 14.5771 2.29287 14.5607 2.3247 14.5434C2.47711 14.4604 2.61602 14.362 2.74238 14.2463L0.714775 10.6888Z" fill="#5D5D59"/>
</svg>
