<svg width="21" height="20" viewBox="0 0 21 20" fill="none" xmlns="http://www.w3.org/2000/svg">
<g id="heroicons-mini/pencil-square">
<g id="Union">
<path d="M5.93306 13.9168L7.19485 10.7623C7.39603 10.2593 7.69728 9.80249 8.08033 9.41945L14.9995 2.50071C15.8279 1.67229 17.1711 1.67229 17.9995 2.50072C18.8279 3.32914 18.8279 4.67229 17.9995 5.50072L11.0803 12.4194C10.6973 12.8025 10.2404 13.1037 9.73746 13.3049L6.58299 14.5667C6.17484 14.73 5.7698 14.3249 5.93306 13.9168Z" fill="#0F172A"/>
<path d="M4 5.75C4 5.05964 4.55964 4.5 5.25 4.5H10.5C10.9142 4.5 11.25 4.16421 11.25 3.75C11.25 3.33579 10.9142 3 10.5 3H5.25C3.73122 3 2.5 4.23122 2.5 5.75V15.25C2.5 16.7688 3.73122 18 5.25 18H14.75C16.2688 18 17.5 16.7688 17.5 15.25V10C17.5 9.58579 17.1642 9.25 16.75 9.25C16.3358 9.25 16 9.58579 16 10V15.25C16 15.9404 15.4404 16.5 14.75 16.5H5.25C4.55964 16.5 4 15.9404 4 15.25V5.75Z" fill="#0F172A"/>
</g>
</g>
</svg>
