<svg width="130" height="22" viewBox="0 0 130 22" fill="none" xmlns="http://www.w3.org/2000/svg">
<path d="M5.39055 12.4632L4.13849 18.3812H0L2.85848 4.94212H6.99583L6.097 9.12291H11.786C12.1311 9.12291 12.3712 9.05075 12.5076 8.90562C12.644 8.76128 12.7571 8.48004 12.848 8.06388L13.6372 4.45261C13.6734 4.2714 13.692 4.14471 13.692 4.07254C13.692 3.87368 13.6326 3.74228 13.5148 3.67835C13.3971 3.61559 13.2105 3.58303 12.9564 3.58303H3.1301L3.89252 0H15.4349C16.3605 0 17.0226 0.162777 17.4225 0.488329C17.8212 0.813882 18.0217 1.32064 18.0217 2.00901C18.0217 2.19022 18.0077 2.37496 17.9809 2.56558C17.9541 2.7566 17.9215 2.96919 17.8853 3.20414L16.6053 9.25784C16.3698 10.3439 15.97 11.1496 15.408 11.6736C14.845 12.1992 13.9742 12.4608 12.7944 12.4608H5.39055V12.4632Z" fill="url(#paint0_linear_2026_1465)"/>
<path d="M17.1497 18.3808L20.0629 4.64326H23.7654L23.439 6.13571C23.7841 5.61169 24.17 5.23122 24.5955 4.99549C25.0221 4.76054 25.5351 4.64209 26.1331 4.64209H30.134L29.4264 7.92624H23.9275C23.6547 7.92624 23.4507 7.97645 23.3154 8.07647C23.179 8.17649 23.0741 8.37967 23.003 8.68678L20.9617 18.3784H17.1508L17.1497 18.3808Z" fill="url(#paint1_linear_2026_1465)"/>
<path d="M31.9582 18.3794C31.1958 18.3794 30.6467 18.248 30.311 17.9852C29.9752 17.7236 29.8074 17.3109 29.8074 16.7504C29.8074 16.497 29.8528 16.1448 29.9438 15.6914L31.7134 7.32981C31.9128 6.4065 32.2438 5.72755 32.7066 5.29374C33.1695 4.85914 33.8911 4.64185 34.8703 4.64185H44.2352C45.0334 4.64185 45.5953 4.77324 45.9232 5.03564C46.2494 5.29844 46.4128 5.71029 46.4128 6.27157C46.4128 6.52495 46.3672 6.87874 46.2761 7.33099L44.5065 15.6926C44.3074 16.6155 43.976 17.2944 43.5135 17.7283C43.0506 18.1629 42.3195 18.3805 41.3218 18.3805H31.9571L31.9582 18.3794ZM42.1667 8.68771C42.2029 8.50611 42.2217 8.39825 42.2217 8.36216C42.2217 8.07269 41.9767 7.92718 41.4871 7.92718H36.0967C35.8064 7.92718 35.6024 7.97738 35.4847 8.0774C35.367 8.17703 35.2807 8.3806 35.2259 8.68771L34.0555 14.2798C34.0368 14.3531 34.0228 14.4159 34.0147 14.4704C34.0053 14.5253 34.0007 14.5786 34.0007 14.6332C34.0007 14.8865 34.2 15.0136 34.5999 15.0136H39.9903C40.317 15.0136 40.5522 14.9587 40.6979 14.8509C40.8428 14.7426 40.9429 14.552 40.9975 14.2798L42.1679 8.68771H42.1667Z" fill="url(#paint2_linear_2026_1465)"/>
<path d="M50.1824 17.1762L52.6496 5.10928H56.3384L55.7739 7.79012H61.6239L61.0836 10.4229H55.2335L54.5282 13.8846H62.6342L61.9761 17.1751H50.1814L50.1824 17.1762ZM52.8841 3.89101L53.5421 0.673584H65.3368L64.6788 3.89101H52.8841Z" fill="url(#paint3_linear_2026_1465)"/>
<path d="M72.3988 21.8913L75.4585 7.68279H70.2296C69.9562 7.68279 69.7714 7.73093 69.6755 7.8262C69.5795 7.92147 69.498 8.10484 69.434 8.3763L68.3732 13.2801C68.3412 13.4399 68.3247 13.5434 68.3247 13.5905C68.3247 13.7339 68.369 13.8302 68.4578 13.8774C68.5455 13.9255 68.6869 13.9491 68.8798 13.9491H72.9044L72.3018 16.8194H66.5425C65.2897 16.8194 64.6633 16.3011 64.6633 15.2644C64.6633 14.994 64.6953 14.7225 64.7593 14.451L66.3258 7.08351C66.5022 6.27013 66.7953 5.67188 67.205 5.28978C67.6147 4.90665 68.2534 4.71509 69.1203 4.71509H79.482L75.7949 21.8902H72.3977L72.3988 21.8913Z" fill="url(#paint4_linear_2026_1465)"/>
<path d="M88.7183 17.1752L88.9721 15.8454C88.6798 16.3221 88.3529 16.6627 87.9925 16.8673C87.6311 17.0729 87.2044 17.1752 86.7127 17.1752H81.6398C81.0246 17.1752 80.5674 17.0602 80.2682 16.8304C79.969 16.6005 79.8188 16.2145 79.8188 15.6725C79.8188 15.4257 79.8574 15.1147 79.9344 14.7371L81.9173 4.71509H85.1455L83.3927 13.5055C83.362 13.67 83.3462 13.7765 83.3462 13.8261C83.3462 14.0886 83.5309 14.2204 83.9002 14.2204H88.5356C88.7815 14.2204 88.9583 14.1709 89.0659 14.0728C89.1736 13.9747 89.2575 13.786 89.3197 13.5065L91.0725 4.71614H94.3007L91.8329 17.1762H88.7203L88.7183 17.1752Z" fill="url(#paint5_linear_2026_1465)"/>
<path d="M94.3005 17.1762L96.8837 5.0711H100.263L97.6797 17.1762H94.3005ZM97.1969 3.63582L97.9691 0H101.373L100.601 3.63582H97.198H97.1969Z" fill="url(#paint6_linear_2026_1465)"/>
<path d="M109.829 17.1762L111.581 8.38509C111.612 8.22057 111.628 8.1225 111.628 8.0898C111.628 7.82721 111.433 7.69539 111.044 7.69539H106.159C105.925 7.69539 105.754 7.74073 105.645 7.83143C105.536 7.92212 105.449 8.10668 105.387 8.38509L103.635 17.1762H100.363L102.864 4.71509H106.019L105.739 6.0692C106.3 5.16646 107.071 4.71509 108.053 4.71509H113.359C113.997 4.71509 114.461 4.83004 114.749 5.05994C115.037 5.28985 115.181 5.67583 115.181 6.21789C115.181 6.53005 115.15 6.84221 115.088 7.15332L113.079 17.1762H109.83H109.829Z" fill="url(#paint7_linear_2026_1465)"/>
<path d="M117.741 17.1762C117.064 17.1762 116.582 17.0571 116.291 16.8187C116 16.5814 115.855 16.2071 115.855 15.6987C115.855 15.4688 115.894 15.1493 115.973 14.738L117.506 7.15332C117.678 6.31597 117.965 5.70008 118.366 5.30672C118.767 4.9123 119.4 4.71509 120.264 4.71509H128.326C128.924 4.71509 129.352 4.83426 129.611 5.0726C129.871 5.31094 130 5.66844 130 6.14407C130 6.43936 129.968 6.74308 129.906 7.05524L128.916 11.956H120.971L121.372 9.88684H126.182L126.535 8.21214C126.55 8.12988 126.558 8.02336 126.558 7.89154C126.558 7.75971 126.523 7.67007 126.452 7.62051C126.382 7.57094 126.253 7.54668 126.064 7.54668H121.325C121.057 7.54668 120.877 7.59204 120.783 7.68273C120.689 7.77343 120.61 7.95798 120.546 8.2364L119.438 13.6043C119.422 13.6866 119.411 13.7562 119.403 13.8131C119.395 13.8711 119.39 13.9238 119.39 13.9734C119.39 14.1211 119.43 14.2202 119.509 14.2687C119.587 14.3183 119.729 14.3425 119.933 14.3425H127.972L127.405 17.1741H117.74L117.741 17.1762Z" fill="url(#paint8_linear_2026_1465)"/>
<defs>
<linearGradient id="paint0_linear_2026_1465" x1="-1.95617" y1="11.9689" x2="38.8659" y2="-7.11728" gradientUnits="userSpaceOnUse">
<stop stop-color="#EFCE72"/>
<stop offset="1" stop-color="#C48636"/>
</linearGradient>
<linearGradient id="paint1_linear_2026_1465" x1="1.8815" y1="20.1756" x2="42.7033" y2="1.08942" gradientUnits="userSpaceOnUse">
<stop stop-color="#EFCE72"/>
<stop offset="1" stop-color="#C48636"/>
</linearGradient>
<linearGradient id="paint2_linear_2026_1465" x1="5.02416" y1="26.8955" x2="45.8462" y2="7.80889" gradientUnits="userSpaceOnUse">
<stop stop-color="#EFCE72"/>
<stop offset="1" stop-color="#C48636"/>
</linearGradient>
<linearGradient id="paint3_linear_2026_1465" x1="50.1824" y1="8.92384" x2="65.3368" y2="8.92384" gradientUnits="userSpaceOnUse">
<stop stop-color="#FFFDF3"/>
<stop offset="1" stop-color="#B5B3AB"/>
</linearGradient>
<linearGradient id="paint4_linear_2026_1465" x1="64.6633" y1="13.3037" x2="79.483" y2="13.3037" gradientUnits="userSpaceOnUse">
<stop stop-color="#FFFDF3"/>
<stop offset="1" stop-color="#B5B3AB"/>
</linearGradient>
<linearGradient id="paint5_linear_2026_1465" x1="79.8179" y1="10.9451" x2="94.2987" y2="10.9451" gradientUnits="userSpaceOnUse">
<stop stop-color="#FFFDF3"/>
<stop offset="1" stop-color="#B5B3AB"/>
</linearGradient>
<linearGradient id="paint6_linear_2026_1465" x1="94.3005" y1="8.58808" x2="101.373" y2="8.58808" gradientUnits="userSpaceOnUse">
<stop stop-color="#FFFDF3"/>
<stop offset="1" stop-color="#B5B3AB"/>
</linearGradient>
<linearGradient id="paint7_linear_2026_1465" x1="100.362" y1="10.9457" x2="115.18" y2="10.9457" gradientUnits="userSpaceOnUse">
<stop stop-color="#FFFDF3"/>
<stop offset="1" stop-color="#B5B3AB"/>
</linearGradient>
<linearGradient id="paint8_linear_2026_1465" x1="115.855" y1="10.9457" x2="130" y2="10.9457" gradientUnits="userSpaceOnUse">
<stop stop-color="#FFFDF3"/>
<stop offset="1" stop-color="#B5B3AB"/>
</linearGradient>
</defs>
</svg>
