<svg width="119" height="22" viewBox="0 0 119 22" fill="none" xmlns="http://www.w3.org/2000/svg">
<g id="Group 609">
<path id="Vector" d="M4.53722 11.4363L3.4841 16.4212H0L2.40547 5.09906H5.88957L5.13337 8.62027H9.92343C10.2134 8.62027 10.4152 8.55996 10.5312 8.43702C10.6472 8.3164 10.7423 8.07748 10.8188 7.72721L11.4822 4.68616C11.5124 4.53307 11.5286 4.42636 11.5286 4.36605C11.5286 4.19904 11.4776 4.08769 11.3802 4.03434C11.2804 3.98099 11.125 3.95316 10.9093 3.95316H2.63511L3.27765 0.935303H12.9946C13.774 0.935303 14.3307 1.07216 14.6671 1.34588C15.0034 1.6196 15.1705 2.04641 15.1705 2.62632C15.1705 2.77942 15.1589 2.93483 15.1357 3.09489C15.1125 3.25494 15.0846 3.43588 15.0545 3.63305L13.9758 8.73162C13.7787 9.64556 13.44 10.3252 12.9668 10.7659C12.4936 11.209 11.7606 11.4294 10.7655 11.4294H4.53722V11.4363Z" fill="#E0AD25"/>
<path id="Vector_2" d="M14.4365 16.4206L16.8884 4.8479H20.006L19.7323 6.10515C20.0222 5.66209 20.347 5.3443 20.7065 5.14481C21.0661 4.94765 21.4975 4.8479 22.0009 4.8479H25.369L24.7728 7.61523H20.1428C19.9132 7.61523 19.7415 7.65699 19.6279 7.74281C19.5119 7.82632 19.4238 7.99797 19.3658 8.25777L17.6469 16.4229H14.4365V16.4206Z" fill="#E0AD25"/>
<path id="Vector_3" d="M26.9054 16.4206C26.2628 16.4206 25.8012 16.3092 25.5182 16.0889C25.2352 15.8685 25.0938 15.5206 25.0938 15.0497C25.0938 14.8363 25.1309 14.5394 25.2097 14.1566L26.6989 7.11187C26.866 6.33479 27.1466 5.76184 27.534 5.39766C27.9237 5.03115 28.5315 4.8479 29.3549 4.8479H37.2394C37.9121 4.8479 38.3853 4.95924 38.6613 5.17961C38.9351 5.39998 39.0742 5.74792 39.0742 6.22113C39.0742 6.43454 39.0348 6.73145 38.9582 7.11419L37.469 14.1589C37.302 14.936 37.0213 15.509 36.634 15.8732C36.2443 16.2397 35.6296 16.4229 34.7899 16.4229H26.9077L26.9054 16.4206ZM35.4997 8.25545C35.5298 8.10236 35.5461 8.01189 35.5461 7.98174C35.5461 7.73817 35.3396 7.61523 34.9267 7.61523H30.3895C30.1459 7.61523 29.9743 7.65699 29.8745 7.74281C29.7748 7.82632 29.7029 7.99797 29.6565 8.25777L28.6706 12.969C28.6544 13.0316 28.6428 13.0826 28.6358 13.129C28.6289 13.1754 28.6242 13.2195 28.6242 13.2659C28.6242 13.4793 28.7913 13.586 29.1276 13.586H33.6648C33.9385 13.586 34.138 13.5396 34.261 13.4491C34.3816 13.3587 34.4674 13.1963 34.5138 12.969L35.4997 8.25777V8.25545Z" fill="#E0AD25"/>
<path id="Vector_4" d="M41.4017 16.4205L43.8072 5.09833H47.405L46.8552 7.61282H52.5615L52.035 10.0832H46.3287L45.6397 13.3307H53.5451L52.9025 16.4182H41.3994L41.4017 16.4205ZM44.0368 3.95706L44.6794 0.939209H56.1825L55.5399 3.95706H44.0368Z" fill="#5D5D59"/>
<path id="Vector_5" d="M63.0568 21.2686L65.9656 7.68482H60.9923C60.7325 7.68482 60.5562 7.73122 60.4657 7.82168C60.3753 7.91215 60.2964 8.08844 60.2361 8.34824L59.227 13.0362C59.1969 13.1893 59.1806 13.2868 59.1806 13.3331C59.1806 13.47 59.2224 13.5628 59.3082 13.6069C59.3917 13.6533 59.5263 13.6765 59.7095 13.6765H63.5369L62.964 16.4206H57.4873C56.295 16.4206 55.7012 15.9242 55.7012 14.9337C55.7012 14.6739 55.7313 14.4164 55.7916 14.1566L57.2808 7.11187C57.4479 6.33479 57.7262 5.76184 58.1159 5.39766C58.5056 5.03115 59.1134 4.8479 59.9368 4.8479H69.7907L66.2834 21.2686H63.0544H63.0568Z" fill="#5D5D59"/>
<path id="Vector_6" d="M78.9167 16.4206L79.1695 15.1865C78.8796 15.6296 78.5548 15.9451 78.1953 16.1353C77.8357 16.3255 77.4112 16.4206 76.9241 16.4206H71.8835C71.2712 16.4206 70.8188 16.3139 70.5196 16.1005C70.2227 15.8871 70.0742 15.5275 70.0742 15.0265C70.0742 14.7968 70.1137 14.5092 70.1902 14.1566L72.1619 4.8479H75.37L73.6279 13.013C73.5978 13.1661 73.5815 13.2636 73.5815 13.31C73.5815 13.5535 73.7648 13.6765 74.1313 13.6765H78.7381C78.9816 13.6765 79.1579 13.6301 79.2646 13.5396C79.3713 13.4491 79.4548 13.2728 79.5175 13.013L81.2595 4.8479H84.4676L82.0157 16.4206H78.9213H78.9167Z" fill="#5D5D59"/>
<path id="Vector_7" d="M84.4844 16.4207L86.9362 4.84805H90.1443L87.6924 16.4207H84.4844ZM87.2332 3.47482L87.9662 0H91.1974L90.4644 3.47482H87.2332Z" fill="#5D5D59"/>
<path id="Vector_8" d="M99.4502 16.4207L101.169 8.25558C101.199 8.10248 101.215 8.01201 101.215 7.98186C101.215 7.7383 101.023 7.61535 100.642 7.61535H95.8524C95.6228 7.61535 95.4558 7.65711 95.3468 7.74293C95.2401 7.82644 95.1565 7.99809 95.0939 8.25789L93.3751 16.423H90.167L92.6189 4.85034H95.7133L95.4395 6.10759C95.9893 5.26788 96.7455 4.85034 97.7081 4.85034H102.911C103.537 4.85034 103.992 4.95705 104.275 5.17045C104.558 5.38386 104.7 5.7434 104.7 6.24445C104.7 6.5344 104.669 6.82436 104.609 7.11431L102.637 16.423H99.4502V16.4207Z" fill="#5D5D59"/>
<path id="Vector_9" d="M107.08 16.4206C106.423 16.4206 105.952 16.3092 105.672 16.0889C105.389 15.8685 105.247 15.5206 105.247 15.0497C105.247 14.8363 105.284 14.5394 105.363 14.1566L106.852 7.11187C107.019 6.33479 107.298 5.76184 107.69 5.39766C108.079 5.03115 108.694 4.8479 109.534 4.8479H117.372C117.952 4.8479 118.369 4.95924 118.622 5.17961C118.875 5.39998 119 5.73168 119 6.17474C119 6.44845 118.968 6.73145 118.91 7.0214L117.947 11.5725H110.225L110.615 9.65188H115.291L115.634 8.09772C115.648 8.02117 115.658 7.92143 115.658 7.8008C115.658 7.68018 115.623 7.59436 115.556 7.54796C115.486 7.50157 115.361 7.48069 115.177 7.48069H110.571C110.311 7.48069 110.135 7.52245 110.044 7.60595C109.954 7.68946 109.877 7.86111 109.814 8.12091L108.738 13.1058C108.722 13.1824 108.71 13.2473 108.703 13.3007C108.696 13.354 108.692 13.4027 108.692 13.4491C108.692 13.586 108.731 13.6788 108.808 13.7228C108.884 13.7692 109.021 13.7924 109.221 13.7924H117.035L116.486 16.4229H107.091L107.08 16.4206Z" fill="#5D5D59"/>
</g>
</svg>
