<svg width="33" height="33" viewBox="0 0 33 33" fill="none" xmlns="http://www.w3.org/2000/svg">
<rect width="33" height="33" rx="5.73913" fill="#E0AD25"/>
<path d="M27.1303 10.3867L21.3808 5.81325C21.2501 5.71525 21.0868 5.71525 20.9888 5.81325L15.2392 10.3867C15.1412 10.4847 15.0759 10.6154 15.1412 10.7461C15.1739 10.8768 15.3046 10.9748 15.4352 10.9748H16.0886V15.4503H15.6639C15.4679 15.4503 15.3372 15.5809 15.3372 15.7769V17.1817C15.3372 17.3777 15.4679 17.5083 15.6639 17.5083H26.7056C26.9017 17.5083 27.0323 17.3777 27.0323 17.1817V15.7769C27.0323 15.5809 26.9017 15.4503 26.7056 15.4503H26.281V10.9748H26.9343C27.065 10.9748 27.1957 10.8768 27.2283 10.7461C27.2937 10.6154 27.261 10.4847 27.1303 10.3867ZM21.1848 6.49927L25.987 10.3214H16.3826L21.1848 6.49927ZM22.2628 15.4503V10.9748H24.1249V15.4503H22.2628ZM18.2447 15.4503V10.9748H20.1067V15.4503H18.2447ZM20.7601 10.9748H21.6095V15.4503H20.7601V10.9748ZM16.742 10.9748H17.5913V15.4503H16.742V10.9748ZM26.379 16.855H15.9906V16.1036H26.379V16.855ZM25.6276 15.4503H24.7782V10.9748H25.6276V15.4503ZM12.0051 15.6136C11.8744 15.5156 11.7111 15.5156 11.6131 15.6136L5.86356 20.1871C5.76556 20.2851 5.70022 20.4158 5.76556 20.5464C5.76556 20.6771 5.89623 20.7751 6.0269 20.7751H6.68026V25.2506H6.25558C6.05957 25.2506 5.9289 25.3813 5.9289 25.5773V26.982C5.9289 27.178 6.05957 27.3087 6.25558 27.3087H17.2973C17.4933 27.3087 17.624 27.178 17.624 26.982V25.5773C17.624 25.3813 17.4933 25.2506 17.2973 25.2506H16.8726V20.7751H17.526C17.6567 20.7751 17.7873 20.6771 17.82 20.5464C17.8527 20.4158 17.82 20.2851 17.722 20.1871L12.0051 15.6136ZM11.7764 16.2996L16.6113 20.1218H6.97427L11.7764 16.2996ZM12.8545 25.2506V20.7751H14.7165V25.2506H12.8545ZM8.83633 25.2506V20.7751H10.6984V25.2506H8.83633ZM11.3518 20.7751H12.2011V25.2506H11.3518V20.7751ZM7.33361 20.7751H8.18298V25.2506H7.33361V20.7751ZM17.0033 26.6553H6.58225V25.904H16.9706V26.6553H17.0033ZM16.2193 25.2506H15.3699V20.7751H16.2193V25.2506ZM24.1576 18.2924C24.0922 18.227 23.9942 18.1617 23.8962 18.1617C23.7982 18.1617 23.7329 18.1944 23.6675 18.2597L21.7728 20.3831C21.6421 20.5138 21.6748 20.7098 21.8055 20.8405C21.9361 20.9711 22.1321 20.9385 22.2628 20.8078L23.5695 19.3051V25.904H18.8C18.604 25.904 18.4733 26.0346 18.4733 26.2306C18.4733 26.4267 18.604 26.5573 18.8 26.5573H23.9289C24.1249 26.5573 24.2556 26.4267 24.2556 26.2306V19.3704L25.5623 20.8731C25.6929 21.0038 25.8889 21.0365 26.0196 20.9058C26.1503 20.7751 26.183 20.5791 26.0523 20.4484L24.1576 18.2924ZM8.18298 16.8876C8.37898 16.8876 8.50966 16.757 8.50966 16.561V8.85136H14.1285L12.6258 10.1581C12.4951 10.2887 12.4625 10.4847 12.5931 10.6154C12.7238 10.7461 12.9198 10.7788 13.0505 10.6481C13.0505 10.6481 15.1739 8.75335 15.2066 8.75335C15.2719 8.68802 15.3046 8.59001 15.3046 8.52468C15.3046 8.42668 15.2392 8.32867 15.2066 8.296L13.0505 6.40127C12.9198 6.2706 12.7238 6.30327 12.5931 6.43394C12.4625 6.56461 12.4951 6.76062 12.6258 6.89129L14.1285 8.198H8.18298C7.98697 8.198 7.8563 8.32867 7.8563 8.52468V16.5936C7.8563 16.757 7.98697 16.8876 8.18298 16.8876Z" fill="white"/>
<path d="M11.7762 19.5989C12.4295 19.5989 12.9196 19.0762 12.9196 18.4555C12.9196 17.8021 12.3969 17.3121 11.7762 17.3121C11.1555 17.3121 10.6328 17.8348 10.6328 18.4555C10.6328 19.0762 11.1555 19.5989 11.7762 19.5989ZM11.7762 17.9328C12.0375 17.9328 12.2662 18.1615 12.2662 18.4228C12.2662 18.6842 12.0375 18.9128 11.7762 18.9128C11.5148 18.9128 11.2862 18.6842 11.2862 18.4228C11.2862 18.1615 11.5148 17.9328 11.7762 17.9328ZM21.1845 9.83118C21.8379 9.83118 22.3279 9.3085 22.3279 8.68781C22.3279 8.03445 21.8052 7.54443 21.1845 7.54443C20.5638 7.54443 20.0085 8.03445 20.0085 8.65514C20.0085 9.3085 20.5312 9.83118 21.1845 9.83118ZM21.1845 8.16512C21.4459 8.16512 21.6745 8.3938 21.6745 8.65514C21.6745 8.91648 21.4459 9.14516 21.1845 9.14516C20.9232 9.14516 20.6945 8.91648 20.6945 8.65514C20.6945 8.3938 20.8905 8.16512 21.1845 8.16512Z" fill="white"/>
</svg>
