<svg width="33" height="33" viewBox="0 0 33 33" fill="none" xmlns="http://www.w3.org/2000/svg">
<rect width="33" height="33" rx="5.73913" fill="#E0AD25"/>
<path d="M25.4049 6H8.32859C8.12273 6 7.9253 6.08178 7.77974 6.22734C7.63417 6.37291 7.5524 6.57034 7.5524 6.7762V16.8668C7.5524 16.8916 7.56404 16.9126 7.56637 16.9366C6.56254 17.951 5.99964 19.3206 6 20.7478C6 23.7439 8.43726 26.1811 11.4334 26.1811C13.8901 26.1811 15.9679 24.5418 16.6378 22.3002H25.4049C26.6888 22.3002 27.7335 21.2554 27.7335 19.9716V8.32859C27.7335 7.04476 26.6888 6 25.4049 6ZM11.4334 24.6288C9.29341 24.6288 7.5524 22.8877 7.5524 20.7478C7.5524 18.6078 9.29341 16.8668 11.4334 16.8668C13.5734 16.8668 15.3144 18.6078 15.3144 20.7478C15.3144 22.8877 13.5734 24.6288 11.4334 24.6288ZM26.1811 15.3144H24.2407C23.5987 15.3144 23.0764 14.792 23.0764 14.1501C23.0764 13.5082 23.5987 12.9858 24.2407 12.9858H26.1811V15.3144ZM26.1811 11.4334H24.2407C22.7426 11.4334 21.524 12.652 21.524 14.1501C21.524 15.6481 22.7426 16.8668 24.2407 16.8668H26.1811V19.9716C26.1811 20.3992 25.8326 20.7478 25.4049 20.7478H16.8668C16.8668 17.7516 14.4295 15.3144 11.4334 15.3144C10.599 15.3144 9.81191 15.5084 9.10479 15.8461V7.5524H25.4049C25.8326 7.5524 26.1811 7.90091 26.1811 8.32859V11.4334Z" fill="white"/>
<path d="M14.1502 20.7479C14.1502 20.9538 14.0684 21.1512 13.9228 21.2968C13.7773 21.4424 13.5798 21.5241 13.374 21.5241H12.2097V22.6884C12.2097 22.8943 12.1279 23.0917 11.9823 23.2373C11.8368 23.3829 11.6394 23.4646 11.4335 23.4646C11.2276 23.4646 11.0302 23.3829 10.8846 23.2373C10.7391 23.0917 10.6573 22.8943 10.6573 22.6884V21.5241H9.49299C9.28713 21.5241 9.08971 21.4424 8.94414 21.2968C8.79857 21.1512 8.7168 20.9538 8.7168 20.7479C8.7168 20.5421 8.79857 20.3447 8.94414 20.1991C9.08971 20.0535 9.28713 19.9717 9.49299 19.9717H10.6573V18.8074C10.6573 18.6016 10.7391 18.4042 10.8846 18.2586C11.0302 18.113 11.2276 18.0312 11.4335 18.0312C11.6394 18.0312 11.8368 18.113 11.9823 18.2586C12.1279 18.4042 12.2097 18.6016 12.2097 18.8074V19.9717H13.374C13.5798 19.9717 13.7773 20.0535 13.9228 20.1991C14.0684 20.3447 14.1502 20.5421 14.1502 20.7479Z" fill="white"/>
</svg>
