<svg version="1.1" id="Layer_1" xmlns="http://www.w3.org/2000/svg" xmlns:xlink="http://www.w3.org/1999/xlink" x="0px" y="0px"
	 width="100%" viewBox="0 0 276 276" enable-background="new 0 0 276 276" xml:space="preserve">
<path fill="#000000" opacity="1.000000" stroke="none" 
	d="
M178.000000,277.000000 
	C118.666664,277.000000 59.833332,277.000000 1.000000,277.000000 
	C1.000000,185.000000 1.000000,93.000000 1.000000,1.000000 
	C93.000000,1.000000 185.000000,1.000000 277.000000,1.000000 
	C277.000000,93.000000 277.000000,185.000000 277.000000,277.000000 
	C244.166672,277.000000 211.333328,277.000000 178.000000,277.000000 
M127.244980,196.838806 
	C126.494545,196.910797 125.744102,196.982788 124.516037,196.875275 
	C124.350029,196.912231 124.184013,196.949203 123.807320,196.757401 
	C123.465454,196.669067 123.186317,196.742249 122.331726,196.853745 
	C121.900772,196.894653 121.469818,196.935577 120.488388,196.630493 
	C120.353004,196.461258 120.217628,196.292007 120.538986,195.356445 
	C120.864418,191.564728 123.934464,193.197617 126.650833,192.896088 
	C129.901169,192.772980 130.253479,190.996780 129.463333,188.070282 
	C127.434036,188.165970 125.667519,188.249283 123.065132,188.186661 
	C121.789162,185.195740 119.765015,183.910995 116.388039,185.391586 
	C115.238815,190.708694 114.069893,196.116943 112.837067,201.820816 
	C116.730705,201.820816 120.356110,201.820816 124.717087,201.986588 
	C125.468536,201.950424 126.219986,201.914246 127.728516,202.036407 
	C128.508194,200.885284 129.384277,199.778732 129.960190,198.533371 
	C130.043457,198.353317 128.685593,197.506836 127.244980,196.838806 
M125.345840,69.770210 
	C121.899261,69.890663 118.452675,70.011116 114.265686,69.740654 
	C112.521988,70.762413 110.048500,71.352974 109.149788,72.874001 
	C101.824783,85.271248 94.947845,97.933723 87.594688,110.313629 
	C84.828720,114.970444 83.918938,118.774132 87.706154,123.442665 
	C90.441750,126.814857 92.058998,131.094284 94.153374,135.579651 
	C94.774269,136.096176 95.395164,136.612686 96.216599,137.797256 
	C100.822060,145.992462 105.364853,154.224335 110.109467,162.338165 
	C110.727615,163.395294 112.365410,164.432724 113.563469,164.471420 
	C118.037491,164.615921 122.525063,164.340912 127.672234,164.470230 
	C128.140289,164.429260 128.608337,164.388290 129.940842,164.668182 
	C134.258438,164.539337 138.576050,164.410492 143.632828,164.437515 
	C144.381516,164.380661 145.130219,164.323807 146.773529,164.601685 
	C152.204865,164.635345 157.639862,164.787476 163.064926,164.619156 
	C164.416641,164.577209 166.297058,163.863846 166.965332,162.831635 
	C168.961441,159.748520 170.476761,156.354126 172.804306,152.744064 
	C175.860458,147.105820 178.916611,141.467560 182.509445,135.434830 
	C184.339813,132.280518 186.170181,129.126190 188.512573,125.630562 
	C189.062820,124.483330 189.613068,123.336098 190.719727,121.679779 
	C191.132233,121.095230 191.544739,120.510681 192.518494,119.539314 
	C192.424835,117.661591 192.976974,115.398079 192.125641,113.972977 
	C188.456604,107.831169 184.376022,101.935226 180.530548,95.211349 
	C177.292007,89.086067 174.129028,82.919312 170.796204,76.845772 
	C166.421768,68.874023 166.364197,68.905617 156.061890,69.763336 
	C149.375641,69.834099 142.689377,69.904861 135.108932,69.767128 
	C132.069992,69.917839 129.031052,70.068558 125.345840,69.770210 
M128.656586,184.173248 
	C130.283005,184.173248 131.909409,184.173248 133.626709,184.173248 
	C133.912277,182.437317 134.145126,181.021942 134.424454,179.324036 
	C132.792725,179.324036 131.361847,179.324036 129.029724,179.187332 
	C126.706253,179.157410 124.363968,179.303238 122.063629,179.057129 
	C118.449280,178.670410 116.804512,180.083237 117.102684,183.933151 
	C120.761063,183.933151 124.387619,183.933151 128.656586,184.173248 
M216.865555,194.873016 
	C218.235672,194.802505 219.605804,194.731995 221.444992,194.788467 
	C221.444992,194.788467 221.788177,194.444885 221.788177,194.444885 
	C221.788177,194.444885 221.660767,193.976166 221.830826,193.322495 
	C221.846344,192.872650 221.861847,192.422791 222.357727,191.508942 
	C222.480362,190.654877 222.603012,189.800797 222.847610,188.229233 
	C222.802307,187.505692 222.757004,186.782135 222.690796,185.339722 
	C221.110123,184.982025 219.529465,184.624329 217.310303,184.144394 
	C216.879822,184.180206 216.449326,184.216034 215.506668,184.070557 
	C215.333313,184.123032 215.159973,184.175491 214.304932,184.111450 
	C213.853210,184.179703 213.401489,184.247971 212.157623,184.156982 
	C209.122925,184.106812 205.991104,183.953110 205.077301,187.861130 
	C204.331543,191.050522 203.587921,194.251144 203.091476,197.484863 
	C202.654984,200.328094 203.385483,202.479446 207.004883,202.032928 
	C208.315445,201.871262 209.645218,201.865280 211.835709,201.969452 
	C215.201767,201.454285 220.298477,204.111023 220.274872,197.207596 
	C217.167877,197.207596 214.067032,197.207596 210.213501,197.071335 
	C209.803955,196.372620 209.394409,195.673889 209.864548,194.857697 
	C211.925232,194.828369 213.985916,194.799026 216.865555,194.873016 
M176.936127,186.801331 
	C175.782028,191.747391 174.627945,196.693451 173.473846,201.639511 
	C173.903778,201.955444 174.333725,202.271362 174.763657,202.587296 
	C176.244400,201.696411 178.658264,201.080505 179.018158,199.859314 
	C179.853745,197.024063 179.697739,193.896561 180.422226,190.319641 
	C181.759308,186.336746 183.096375,182.353851 184.546722,178.033569 
	C181.852585,178.033569 180.096802,178.033569 178.278427,178.033569 
	C177.879807,180.875916 177.517578,183.458817 176.936127,186.801331 
M152.193008,193.296188 
	C152.839905,190.388458 153.486801,187.480713 154.198883,184.279938 
	C151.190399,184.279938 149.078064,184.279938 146.294144,184.131042 
	C145.845139,184.198700 145.396149,184.266357 144.109787,184.170822 
	C140.477493,184.276047 136.218994,183.137375 135.155869,188.495544 
	C134.517593,191.712524 133.948730,194.944672 133.421356,198.181854 
	C132.990662,200.825684 133.940598,202.494614 136.861969,201.979263 
	C138.975449,201.606415 141.016479,200.822815 143.369781,200.585861 
	C143.797440,200.726578 144.225082,200.867294 144.946075,201.750305 
	C144.595474,203.766617 144.244858,205.782944 143.860718,207.992111 
	C149.923523,209.068954 148.852905,205.012665 149.281357,201.666489 
	C149.454956,201.425201 149.628555,201.183914 150.402374,200.442413 
	C150.543991,199.946640 150.685608,199.450851 151.347702,198.526398 
	C151.439865,197.669678 151.532028,196.812958 151.751114,195.294052 
	C151.765793,194.846329 151.780472,194.398590 152.193008,193.296188 
M90.871025,187.314636 
	C90.846062,186.895111 90.821091,186.475586 90.925262,185.222717 
	C88.265671,184.984406 85.606079,184.746094 82.222633,184.179260 
	C80.859314,185.164001 78.654297,185.903687 78.283440,187.177414 
	C76.929466,191.827667 76.187363,196.656067 75.103806,201.960281 
	C77.327354,201.842529 79.012016,201.753326 80.127274,201.694275 
	C81.184669,197.239609 82.070465,193.507889 83.814697,189.821442 
	C86.136711,189.194214 88.458725,188.567001 90.871025,187.314636 
M106.897476,200.951538 
	C106.897476,200.951538 106.916588,200.827927 107.607735,200.583450 
	C108.136864,199.074951 108.805351,197.599564 109.173126,196.052704 
	C112.176720,183.419449 112.030556,183.267319 98.212784,184.179718 
	C97.472771,184.251923 96.732758,184.324142 95.553772,184.332367 
	C95.267647,184.469864 95.082947,184.691803 94.255051,185.101257 
	C93.349937,187.601654 92.224136,190.046585 91.579277,192.612396 
	C89.232430,201.950089 89.326187,202.042007 98.723389,201.932404 
	C101.164963,201.903931 103.603195,201.589813 106.391174,201.473846 
	C106.644241,201.376923 106.772514,201.192902 106.897476,200.951538 
M56.987423,191.715683 
	C56.278976,194.980225 55.570534,198.244766 54.800220,201.794403 
	C57.208290,201.794403 58.809147,201.794403 60.702045,201.794403 
	C61.155983,199.451889 61.584446,197.240860 62.907574,194.952896 
	C65.598015,194.897385 68.288452,194.841873 71.699722,194.932617 
	C73.368835,192.163300 75.657875,189.584320 76.578682,186.585251 
	C78.527527,180.237839 77.443672,179.106323 70.884102,179.103363 
	C68.914322,179.102478 66.944473,179.235519 64.153488,179.158890 
	C61.025688,178.793442 58.559364,179.097382 58.993065,183.324265 
	C59.115128,184.513931 58.416004,185.787872 57.656082,187.403030 
	C57.563507,187.943039 57.470932,188.483063 57.210346,189.664810 
	C57.241589,190.104355 57.272831,190.543915 56.987423,191.715683 
M188.162170,184.120651 
	C186.861938,184.841766 184.629745,185.357239 184.417633,186.318466 
	C183.310059,191.337418 182.715637,196.469604 181.908142,201.790283 
	C183.858414,201.790283 185.269943,201.790283 186.741043,201.790283 
	C187.834610,197.680298 188.880539,193.749420 190.822479,189.705521 
	C192.765839,189.705521 194.709198,189.705521 197.122528,189.705521 
	C196.249664,194.000519 195.489166,197.742599 194.727493,201.490479 
	C199.147552,202.752029 200.910980,201.588028 201.023163,197.464050 
	C201.093658,194.872833 201.953690,192.279709 202.633606,189.733932 
	C203.641891,185.958649 202.594528,183.907623 198.392685,184.064575 
	C195.243790,184.182190 192.091187,184.200638 188.162170,184.120651 
M165.624649,201.394821 
	C167.328796,201.597763 169.032959,201.800720 170.999619,202.034943 
	C172.321793,195.953812 173.529785,190.397766 174.736954,184.845551 
	C170.370682,182.875687 168.607071,184.766769 168.039642,188.562515 
	C167.630020,191.302612 167.301483,194.054840 166.040329,197.013962 
	C163.900085,197.013962 161.759857,197.013962 159.292435,197.013962 
	C159.899429,194.211212 160.277054,191.760208 160.972061,189.402756 
	C162.514633,184.170334 162.330826,183.912506 156.633087,184.485580 
	C155.531754,188.796692 154.194595,193.037628 153.485992,197.381134 
	C153.259354,198.770416 154.627289,201.704514 155.385727,201.746185 
	C158.570862,201.921188 161.801498,201.268127 165.624649,201.394821 
z"/>
<path fill="#E5E3DB" opacity="1.000000" stroke="none" 
	d="
M94.175018,134.969101 
	C92.058998,131.094284 90.441750,126.814857 87.706154,123.442665 
	C83.918938,118.774132 84.828720,114.970444 87.594688,110.313629 
	C94.947845,97.933723 101.824783,85.271248 109.149788,72.874001 
	C110.048500,71.352974 112.521988,70.762413 114.581680,70.168930 
	C114.897682,70.597206 114.957573,71.071541 114.974510,71.362465 
	C114.988068,72.042419 114.984680,72.431458 114.625328,72.935570 
	C113.392044,73.736649 112.189713,74.240074 111.686356,75.136139 
	C104.521317,87.891220 97.339844,100.640579 90.488853,113.564407 
	C89.564438,115.308250 89.774475,118.261894 90.578270,120.188446 
	C92.321327,124.366180 94.788696,128.241714 96.774422,132.473541 
	C95.784302,133.460526 94.979660,134.214813 94.175018,134.969101 
z"/>
<path fill="#D6B867" opacity="1.000000" stroke="none" 
	d="
M127.007545,164.223267 
	C122.525063,164.340912 118.037491,164.615921 113.563469,164.471420 
	C112.365410,164.432724 110.727615,163.395294 110.109467,162.338165 
	C105.364853,154.224335 100.822060,145.992462 96.366531,137.350891 
	C97.379372,136.905762 98.242279,136.906982 99.430641,137.017700 
	C102.049934,140.875778 104.767662,144.434326 106.550964,148.411835 
	C110.481514,157.178589 115.459366,163.791306 126.524445,161.153107 
	C126.671341,161.118088 126.847137,161.204285 127.008919,161.533081 
	C127.008110,162.629257 127.007828,163.426270 127.007545,164.223267 
z"/>
<path fill="#C89343" opacity="1.000000" stroke="none" 
	d="
M95.992744,184.396362 
	C96.732758,184.324142 97.472771,184.251923 98.673065,184.544037 
	C99.950294,185.600327 100.767258,186.292313 101.635788,187.027985 
	C100.271835,187.943207 99.122208,188.714630 97.659302,189.765411 
	C96.954552,192.228348 96.563080,194.411880 96.103004,196.978058 
	C98.504517,196.978058 100.729416,196.978058 103.310127,196.947113 
	C108.326630,195.247498 106.683464,198.817307 106.916588,200.827927 
	C106.916588,200.827927 106.897476,200.951538 106.687668,200.972046 
	C106.279907,201.075089 106.134949,201.213196 106.042961,201.406891 
	C103.603195,201.589813 101.164963,201.903931 98.723389,201.932404 
	C89.326187,202.042007 89.232430,201.950089 91.579277,192.612396 
	C92.224136,190.046585 93.349937,187.601654 94.829109,185.018631 
	C95.673401,184.836655 95.869926,184.656769 95.992744,184.396362 
z"/>
<path fill="#AEACA5" opacity="1.000000" stroke="none" 
	d="
M156.983917,69.931549 
	C166.364197,68.905617 166.421768,68.874023 170.796204,76.845772 
	C174.129028,82.919312 177.292007,89.086067 180.523132,95.587296 
	C180.515732,95.963242 180.585632,95.946999 180.302444,95.858490 
	C179.420715,95.865875 178.822159,95.961777 177.901199,95.919151 
	C174.446838,90.574242 170.783539,85.603981 168.335114,80.093872 
	C165.973007,74.777985 162.866837,71.940521 156.957504,72.417343 
	C156.967377,71.351891 156.975647,70.641724 156.983917,69.931549 
z"/>
<path fill="#E5E3DB" opacity="1.000000" stroke="none" 
	d="
M125.898590,192.644714 
	C123.934464,193.197617 120.864418,191.564728 120.224197,195.957916 
	C120.285889,196.698410 120.662376,196.837448 121.038864,196.976486 
	C121.469818,196.935577 121.900772,196.894653 122.912003,197.011688 
	C123.667511,197.108490 123.842751,197.047333 124.017998,196.986191 
	C124.184013,196.949203 124.350029,196.912231 124.743347,197.316711 
	C124.640945,199.112381 124.311234,200.466599 123.981522,201.820816 
	C120.356110,201.820816 116.730705,201.820816 112.837067,201.820816 
	C114.069893,196.116943 115.238815,190.708694 116.388039,185.391586 
	C119.765015,183.910995 121.789162,185.195740 123.553253,188.565308 
	C124.660446,190.177536 125.279518,191.411118 125.898590,192.644714 
z"/>
<path fill="#E0DDD4" opacity="1.000000" stroke="none" 
	d="
M165.015472,200.918259 
	C161.801498,201.268127 158.570862,201.921188 155.385727,201.746185 
	C154.627289,201.704514 153.259354,198.770416 153.485992,197.381134 
	C154.194595,193.037628 155.531754,188.796692 156.633087,184.485580 
	C162.330826,183.912506 162.514633,184.170334 160.972061,189.402756 
	C160.277054,191.760208 159.899429,194.211212 159.292435,197.013962 
	C161.759857,197.013962 163.900085,197.013962 166.599014,197.207230 
	C169.287994,200.305237 166.129883,199.989456 165.015472,200.918259 
z"/>
<path fill="#B3B1AA" opacity="1.000000" stroke="none" 
	d="
M188.940231,184.263245 
	C192.091187,184.200638 195.243790,184.182190 198.392685,184.064575 
	C202.594528,183.907623 203.641891,185.958649 202.633606,189.733932 
	C201.953690,192.279709 201.093658,194.872833 201.023163,197.464050 
	C200.910980,201.588028 199.147552,202.752029 194.727493,201.490479 
	C195.489166,197.742599 196.249664,194.000519 197.122528,189.705521 
	C194.709198,189.705521 192.765839,189.705521 190.452881,189.407257 
	C191.872528,188.435837 193.661774,187.762680 195.603653,187.032104 
	C193.093643,185.989120 191.016937,185.126175 188.940231,184.263245 
z"/>
<path fill="#D3AB5A" opacity="1.000000" stroke="none" 
	d="
M64.974655,179.307220 
	C66.944473,179.235519 68.914322,179.102478 70.884102,179.103363 
	C77.443672,179.106323 78.527527,180.237839 76.578682,186.585251 
	C75.657875,189.584320 73.368835,192.163300 71.330109,194.490875 
	C70.613083,192.622147 70.265663,191.195129 69.947784,189.388794 
	C70.287361,187.797623 70.597404,186.585785 70.948898,185.211914 
	C68.791641,185.077805 66.886444,184.959381 64.989792,184.445343 
	C64.990433,182.468918 64.982544,180.888062 64.974655,179.307220 
z"/>
<path fill="#E5E3DB" opacity="1.000000" stroke="none" 
	d="
M143.089813,200.222412 
	C141.016479,200.822815 138.975449,201.606415 136.861969,201.979263 
	C133.940598,202.494614 132.990662,200.825684 133.421356,198.181854 
	C133.948730,194.944672 134.517593,191.712524 135.155869,188.495544 
	C136.218994,183.137375 140.477493,184.276047 144.501404,184.620163 
	C144.935211,186.051422 144.977386,187.033340 144.648285,188.022491 
	C143.173340,188.664597 142.069672,189.299438 140.919678,190.201691 
	C140.788635,190.628952 140.703903,190.788803 140.400040,191.027588 
	C139.915970,191.346054 139.849274,191.631836 139.944489,192.355103 
	C137.025604,196.916519 141.009796,198.164276 143.089813,200.222412 
z"/>
<path fill="#E5E3DB" opacity="1.000000" stroke="none" 
	d="
M210.966217,201.788269 
	C209.645218,201.865280 208.315445,201.871262 207.004883,202.032928 
	C203.385483,202.479446 202.654984,200.328094 203.091476,197.484863 
	C203.587921,194.251144 204.331543,191.050522 205.077301,187.861130 
	C205.991104,183.953110 209.122925,184.106812 212.531097,184.592407 
	C212.594650,186.632172 212.284714,188.236496 211.718536,189.933990 
	C211.352386,190.343140 211.242477,190.659134 210.767624,191.053406 
	C209.930084,192.412811 209.457474,193.693985 208.984879,194.975159 
	C209.394409,195.673889 209.803955,196.372620 210.622009,197.433731 
	C211.009094,199.126831 210.987656,200.457550 210.966217,201.788269 
z"/>
<path fill="#E4BE66" opacity="1.000000" stroke="none" 
	d="
M64.564072,179.233063 
	C64.982544,180.888062 64.990433,182.468918 64.650391,184.616272 
	C63.990738,186.681900 63.679024,188.181015 63.349010,189.768127 
	C65.748611,189.768127 67.833435,189.768127 69.918243,189.768127 
	C70.265663,191.195129 70.613083,192.622147 70.969696,194.417755 
	C68.288452,194.841873 65.598015,194.897385 62.311333,194.704712 
	C60.244751,193.298843 58.774410,192.141159 57.304070,190.983459 
	C57.272831,190.543915 57.241589,190.104355 57.543121,189.288666 
	C57.948441,188.282745 58.020992,187.652939 58.093536,187.023148 
	C58.416004,185.787872 59.115128,184.513931 58.993065,183.324265 
	C58.559364,179.097382 61.025688,178.793442 64.564072,179.233063 
z"/>
<path fill="#AC7B38" opacity="1.000000" stroke="none" 
	d="
M180.480499,95.956505 
	C184.376022,101.935226 188.456604,107.831169 192.125641,113.972977 
	C192.976974,115.398079 192.424835,117.661591 192.013306,119.500793 
	C190.450104,119.317795 189.392075,119.173325 188.454926,118.705612 
	C186.135345,113.955063 183.694885,109.527748 180.999969,104.935898 
	C180.692215,101.829910 180.638931,98.888458 180.585632,95.946999 
	C180.585632,95.946999 180.515732,95.963242 180.480499,95.956505 
z"/>
<path fill="#B2904D" opacity="1.000000" stroke="none" 
	d="
M172.179840,153.081299 
	C170.476761,156.354126 168.961441,159.748520 166.965332,162.831635 
	C166.297058,163.863846 164.416641,164.577209 163.064926,164.619156 
	C157.639862,164.787476 152.204865,164.635345 146.363876,164.128677 
	C145.951340,162.836411 145.948471,162.017136 146.408203,161.099426 
	C154.984268,160.286285 164.867493,164.490845 169.489227,153.013763 
	C170.642380,153.044128 171.411118,153.062714 172.179840,153.081299 
z"/>
<path fill="#E0DDD4" opacity="1.000000" stroke="none" 
	d="
M188.551208,184.191956 
	C191.016937,185.126175 193.093643,185.989120 195.603653,187.032104 
	C193.661774,187.762680 191.872528,188.435837 190.004883,189.463760 
	C188.880539,193.749420 187.834610,197.680298 186.741043,201.790283 
	C185.269943,201.790283 183.858414,201.790283 181.908142,201.790283 
	C182.715637,196.469604 183.310059,191.337418 184.417633,186.318466 
	C184.629745,185.357239 186.861938,184.841766 188.551208,184.191956 
z"/>
<path fill="#AC7B38" opacity="1.000000" stroke="none" 
	d="
M107.262161,200.705688 
	C106.683464,198.817307 108.326630,195.247498 103.409882,196.554382 
	C103.510727,194.244629 103.867622,192.296646 104.278099,190.056213 
	C101.741219,189.826813 99.856895,189.656433 97.972580,189.486038 
	C99.122208,188.714630 100.271835,187.943207 101.635788,187.027985 
	C100.767258,186.292313 99.950294,185.600327 99.042519,184.608124 
	C112.030556,183.267319 112.176720,183.419449 109.173126,196.052704 
	C108.805351,197.599564 108.136864,199.074951 107.262161,200.705688 
z"/>
<path fill="#D3A654" opacity="1.000000" stroke="none" 
	d="
M82.956253,189.776169 
	C82.070465,193.507889 81.184669,197.239609 80.127274,201.694275 
	C79.012016,201.753326 77.327354,201.842529 75.103806,201.960281 
	C76.187363,196.656067 76.929466,191.827667 78.283440,187.177414 
	C78.654297,185.903687 80.859314,185.164001 82.707306,184.680481 
	C85.726692,185.473145 88.261406,185.764603 90.796120,186.056061 
	C90.821091,186.475586 90.846062,186.895111 90.414459,187.648712 
	C87.624008,188.580582 85.290131,189.178375 82.956253,189.776169 
z"/>
<path fill="#C7C6BF" opacity="1.000000" stroke="none" 
	d="
M99.105179,136.908203 
	C98.242279,136.906982 97.379372,136.905762 96.266266,137.016861 
	C95.395164,136.612686 94.774269,136.096176 94.164200,135.274384 
	C94.979660,134.214813 95.784302,133.460526 97.138885,132.409607 
	C99.003082,130.110535 100.378090,128.144730 101.614258,126.095192 
	C102.815208,124.104042 103.873764,122.027000 105.182739,120.229668 
	C105.942566,120.659988 106.514503,120.848328 107.009315,121.282608 
	C106.337074,122.807755 105.741959,124.086937 105.076591,125.517128 
	C108.720772,128.263062 107.516373,131.136856 104.719376,133.596207 
	C103.116508,135.005600 100.993835,135.823822 99.105179,136.908203 
z"/>
<path fill="#B3B1AA" opacity="1.000000" stroke="none" 
	d="
M165.320068,201.156540 
	C166.129883,199.989456 169.287994,200.305237 167.047241,197.101074 
	C167.301483,194.054840 167.630020,191.302612 168.039642,188.562515 
	C168.607071,184.766769 170.370682,182.875687 174.736954,184.845551 
	C173.529785,190.397766 172.321793,195.953812 170.999619,202.034943 
	C169.032959,201.800720 167.328796,201.597763 165.320068,201.156540 
z"/>
<path fill="#C7C6BF" opacity="1.000000" stroke="none" 
	d="
M145.019562,188.015259 
	C144.977386,187.033340 144.935211,186.051422 144.920090,184.701752 
	C145.396149,184.266357 145.845139,184.198700 146.734741,184.536896 
	C148.715286,187.945450 150.255219,190.948151 151.795135,193.950867 
	C151.780472,194.398590 151.765793,194.846329 151.405334,195.695984 
	C150.982101,197.050308 150.904663,198.002686 150.827225,198.955078 
	C150.685608,199.450851 150.543991,199.946640 149.928558,200.727509 
	C149.294891,201.305496 149.135025,201.598404 148.975159,201.891312 
	C148.852905,205.012665 149.923523,209.068954 143.860718,207.992111 
	C144.244858,205.782944 144.595474,203.766617 144.799652,200.968170 
	C145.519104,196.763794 146.384979,193.341568 147.442261,189.707123 
	C146.762314,189.001678 145.890930,188.508469 145.019562,188.015259 
z"/>
<path fill="#E0DDD4" opacity="1.000000" stroke="none" 
	d="
M179.943665,190.887527 
	C179.697739,193.896561 179.853745,197.024063 179.018158,199.859314 
	C178.658264,201.080505 176.244400,201.696411 174.763657,202.587296 
	C174.333725,202.271362 173.903778,201.955444 173.473846,201.639511 
	C174.627945,196.693451 175.782028,191.747391 177.419327,186.422638 
	C178.582901,187.658478 179.263290,189.273010 179.943665,190.887527 
z"/>
<path fill="#C89343" opacity="1.000000" stroke="none" 
	d="
M172.492065,152.912689 
	C171.411118,153.062714 170.642380,153.044128 169.469177,152.736908 
	C169.160187,152.289841 169.255646,152.131393 169.502808,151.882385 
	C169.841049,151.637115 169.973297,151.445038 170.161133,150.869522 
	C173.001587,145.664581 175.732178,140.805710 178.581528,135.883148 
	C178.845551,135.709579 178.960541,135.574020 179.102020,135.100784 
	C179.712799,134.160492 180.266830,133.532196 181.119293,132.960938 
	C181.602737,133.955078 181.787750,134.892197 181.972763,135.829315 
	C178.916611,141.467560 175.860458,147.105820 172.492065,152.912689 
z"/>
<path fill="#C7C6BF" opacity="1.000000" stroke="none" 
	d="
M211.974777,189.840836 
	C212.284714,188.236496 212.594650,186.632172 212.927185,184.672028 
	C213.401489,184.247971 213.853210,184.179703 214.743820,184.308990 
	C215.461411,184.421631 215.740128,184.336731 216.018845,184.251846 
	C216.449326,184.216034 216.879822,184.180206 217.731522,184.532074 
	C219.672394,185.299362 221.192047,185.678970 222.711700,186.058594 
	C222.757004,186.782135 222.802307,187.505692 222.494873,188.652802 
	C222.053864,190.041885 221.965607,191.007416 221.877350,191.972946 
	C221.861847,192.422791 221.846344,192.872650 221.579376,193.701782 
	C221.117355,194.218002 221.000031,194.411484 220.975922,194.661484 
	C219.605804,194.731995 218.235672,194.802505 216.414246,194.508392 
	C215.652695,193.149124 215.342453,192.154465 215.404526,191.083679 
	C215.680695,190.347092 215.584549,189.686661 215.488403,189.026230 
	C214.317200,189.297760 213.145981,189.569305 211.974777,189.840836 
z"/>
<path fill="#BE863A" opacity="1.000000" stroke="none" 
	d="
M182.241104,135.632080 
	C181.787750,134.892197 181.602737,133.955078 181.185730,132.607697 
	C183.413849,127.807892 185.873962,123.418373 188.334061,119.028847 
	C189.392075,119.173325 190.450104,119.317795 191.732681,119.694199 
	C191.544739,120.510681 191.132233,121.095230 190.267242,122.133049 
	C189.210022,123.714836 188.605286,124.843353 188.000549,125.971870 
	C186.170181,129.126190 184.339813,132.280518 182.241104,135.632080 
z"/>
<path fill="#D3D0C8" opacity="1.000000" stroke="none" 
	d="
M156.522903,69.847443 
	C156.975647,70.641724 156.967377,71.351891 156.494919,72.474854 
	C149.346863,72.842613 142.662979,72.797577 135.971893,72.405426 
	C135.977524,71.364082 135.990326,70.669846 136.003128,69.975616 
	C142.689377,69.904861 149.375641,69.834099 156.522903,69.847443 
z"/>
<path fill="#E4BE66" opacity="1.000000" stroke="none" 
	d="
M145.945602,161.197876 
	C145.948471,162.017136 145.951340,162.836411 145.916565,163.961304 
	C145.130219,164.323807 144.381516,164.380661 142.901672,164.199738 
	C137.805817,164.090408 133.441101,164.218857 129.076401,164.347321 
	C128.608337,164.388290 128.140289,164.429260 127.339890,164.346756 
	C127.007828,163.426270 127.008110,162.629257 127.471558,161.460281 
	C133.938339,161.124832 139.941971,161.161346 145.945602,161.197876 
z"/>
<path fill="#020202" opacity="1.000000" stroke="none" 
	d="
M147.250854,189.919357 
	C146.384979,193.341568 145.519104,196.763794 144.652985,200.597015 
	C144.225082,200.867294 143.797440,200.726578 143.229797,200.404144 
	C141.009796,198.164276 137.025604,196.916519 140.150345,192.255615 
	C140.687958,191.553818 140.763489,191.281754 140.619156,190.948669 
	C140.703903,190.788803 140.788635,190.628952 141.367371,190.174927 
	C143.657883,189.893616 145.454376,189.906479 147.250854,189.919357 
z"/>
<path fill="#D8D7CE" opacity="1.000000" stroke="none" 
	d="
M128.014191,183.933151 
	C124.387619,183.933151 120.761063,183.933151 117.102684,183.933151 
	C116.804512,180.083237 118.449280,178.670410 122.063629,179.057129 
	C124.363968,179.303238 126.706253,179.157410 129.466324,179.593430 
	C129.273346,181.310745 128.643768,182.621948 128.014191,183.933151 
z"/>
<path fill="#D6B867" opacity="1.000000" stroke="none" 
	d="
M57.145744,191.349579 
	C58.774410,192.141159 60.244751,193.298843 61.863998,194.743179 
	C61.584446,197.240860 61.155983,199.451889 60.702045,201.794403 
	C58.809147,201.794403 57.208290,201.794403 54.800220,201.794403 
	C55.570534,198.244766 56.278976,194.980225 57.145744,191.349579 
z"/>
<path fill="#B3B1AA" opacity="1.000000" stroke="none" 
	d="
M180.182953,190.603577 
	C179.263290,189.273010 178.582901,187.658478 177.528931,186.042847 
	C177.517578,183.458817 177.879807,180.875916 178.278427,178.033569 
	C180.096802,178.033569 181.852585,178.033569 184.546722,178.033569 
	C183.096375,182.353851 181.759308,186.336746 180.182953,190.603577 
z"/>
<path fill="#C7C6BF" opacity="1.000000" stroke="none" 
	d="
M211.400970,201.878845 
	C210.987656,200.457550 211.009094,199.126831 210.998367,197.501862 
	C214.067032,197.207596 217.167877,197.207596 220.274872,197.207596 
	C220.298477,204.111023 215.201767,201.454285 211.400970,201.878845 
z"/>
<path fill="#B3B1AA" opacity="1.000000" stroke="none" 
	d="
M151.994080,193.623535 
	C150.255219,190.948151 148.715286,187.945450 147.070541,184.611328 
	C149.078064,184.279938 151.190399,184.279938 154.198883,184.279938 
	C153.486801,187.480713 152.839905,190.388458 151.994080,193.623535 
z"/>
<path fill="#E5E3DB" opacity="1.000000" stroke="none" 
	d="
M135.556030,69.871368 
	C135.990326,70.669846 135.977524,71.364082 135.524628,72.479027 
	C132.063583,72.862083 129.042633,72.824425 126.030754,72.517853 
	C126.055588,71.891510 126.071342,71.534081 126.108749,70.932808 
	C126.130417,70.688957 125.992119,70.219269 125.992119,70.219269 
	C129.031052,70.068558 132.069992,69.917839 135.556030,69.871368 
z"/>
<path fill="#B3B1AA" opacity="1.000000" stroke="none" 
	d="
M128.335388,184.053192 
	C128.643768,182.621948 129.273346,181.310745 129.916946,179.661774 
	C131.361847,179.324036 132.792725,179.324036 134.424454,179.324036 
	C134.145126,181.021942 133.912277,182.437317 133.626709,184.173248 
	C131.909409,184.173248 130.283005,184.173248 128.335388,184.053192 
z"/>
<path fill="#A8A69F" opacity="1.000000" stroke="none" 
	d="
M215.032211,191.159821 
	C215.342453,192.154465 215.652695,193.149124 216.004761,194.456726 
	C213.985916,194.799026 211.925232,194.828369 209.424713,194.916428 
	C209.457474,193.693985 209.930084,192.412811 211.158966,191.047791 
	C212.954239,191.029221 213.993225,191.094513 215.032211,191.159821 
z"/>
<path fill="#AEACA5" opacity="1.000000" stroke="none" 
	d="
M126.274712,192.770401 
	C125.279518,191.411118 124.660446,190.177536 123.971191,188.638260 
	C125.667519,188.249283 127.434036,188.165970 129.463333,188.070282 
	C130.253479,190.996780 129.901169,192.772980 126.274712,192.770401 
z"/>
<path fill="#AEACA5" opacity="1.000000" stroke="none" 
	d="
M125.668976,69.994736 
	C125.992119,70.219269 126.130417,70.688957 125.642227,70.949860 
	C121.755219,71.164360 118.356400,71.117950 114.957573,71.071548 
	C114.957573,71.071541 114.897682,70.597206 114.951889,70.364380 
	C118.452675,70.011116 121.899261,69.890663 125.668976,69.994736 
z"/>
<path fill="#AC7B38" opacity="1.000000" stroke="none" 
	d="
M90.860687,185.639404 
	C88.261406,185.764603 85.726692,185.473145 83.069237,184.844727 
	C85.606079,184.746094 88.265671,184.984406 90.860687,185.639404 
z"/>
<path fill="#AC7B38" opacity="1.000000" stroke="none" 
	d="
M83.385475,189.798798 
	C85.290131,189.178375 87.624008,188.580582 90.369316,187.961304 
	C88.458725,188.567001 86.136711,189.194214 83.385475,189.798798 
z"/>
<path fill="#D3D0C8" opacity="1.000000" stroke="none" 
	d="
M124.349304,201.903702 
	C124.311234,200.466599 124.640945,199.112381 124.982162,197.406464 
	C125.744102,196.982788 126.494545,196.910797 127.642242,197.267242 
	C127.683479,199.089798 127.327461,200.483948 126.971436,201.878082 
	C126.219986,201.914246 125.468536,201.950424 124.349304,201.903702 
z"/>
<path fill="#B2904D" opacity="1.000000" stroke="none" 
	d="
M129.508621,164.507751 
	C133.441101,164.218857 137.805817,164.090408 142.532074,164.121796 
	C138.576050,164.410492 134.258438,164.539337 129.508621,164.507751 
z"/>
<path fill="#AEACA5" opacity="1.000000" stroke="none" 
	d="
M127.349976,201.957245 
	C127.327461,200.483948 127.683479,199.089798 128.017075,197.332199 
	C128.685593,197.506836 130.043457,198.353317 129.960190,198.533371 
	C129.384277,199.778732 128.508194,200.885284 127.349976,201.957245 
z"/>
<path fill="#A8A69F" opacity="1.000000" stroke="none" 
	d="
M222.701248,185.699158 
	C221.192047,185.678970 219.672394,185.299362 218.050766,184.593185 
	C219.529465,184.624329 221.110123,184.982025 222.701248,185.699158 
z"/>
<path fill="#A8A69F" opacity="1.000000" stroke="none" 
	d="
M222.117538,191.740936 
	C221.965607,191.007416 222.053864,190.041885 222.433899,189.011536 
	C222.603012,189.800797 222.480362,190.654877 222.117538,191.740936 
z"/>
<path fill="#B3B1AA" opacity="1.000000" stroke="none" 
	d="
M151.087463,198.740738 
	C150.904663,198.002686 150.982101,197.050308 151.341873,196.027069 
	C151.532028,196.812958 151.439865,197.669678 151.087463,198.740738 
z"/>
<path fill="#AC7B38" opacity="1.000000" stroke="none" 
	d="
M188.256561,125.801216 
	C188.605286,124.843353 189.210022,123.714836 189.989044,122.387589 
	C189.613068,123.336098 189.062820,124.483330 188.256561,125.801216 
z"/>
<path fill="#D6B867" opacity="1.000000" stroke="none" 
	d="
M57.874809,187.213089 
	C58.020992,187.652939 57.948441,188.282745 57.627125,188.967804 
	C57.470932,188.483063 57.563507,187.943039 57.874809,187.213089 
z"/>
<path fill="#B3B1AA" opacity="1.000000" stroke="none" 
	d="
M149.128265,201.778900 
	C149.135025,201.598404 149.294891,201.305496 149.628448,200.977600 
	C149.628555,201.183914 149.454956,201.425201 149.128265,201.778900 
z"/>
<path fill="#AC7B38" opacity="1.000000" stroke="none" 
	d="
M95.773254,184.364349 
	C95.869926,184.656769 95.673401,184.836655 95.201424,184.967102 
	C95.082947,184.691803 95.267647,184.469864 95.773254,184.364349 
z"/>
<path fill="#A8A69F" opacity="1.000000" stroke="none" 
	d="
M221.210449,194.724976 
	C221.000031,194.411484 221.117355,194.218002 221.494339,194.028610 
	C221.660767,193.976166 221.788177,194.444885 221.788177,194.444885 
	C221.788177,194.444885 221.444992,194.788467 221.210449,194.724976 
z"/>
<path fill="#AEACA5" opacity="1.000000" stroke="none" 
	d="
M120.763626,196.803482 
	C120.662376,196.837448 120.285889,196.698410 119.995827,196.341064 
	C120.217628,196.292007 120.353004,196.461258 120.763626,196.803482 
z"/>
<path fill="#AEACA5" opacity="1.000000" stroke="none" 
	d="
M123.912659,196.871796 
	C123.842751,197.047333 123.667511,197.108490 123.231094,197.073288 
	C123.186317,196.742249 123.465454,196.669067 123.912659,196.871796 
z"/>
<path fill="#A8A69F" opacity="1.000000" stroke="none" 
	d="
M215.762756,184.161194 
	C215.740128,184.336731 215.461411,184.421631 215.084671,184.367249 
	C215.159973,184.175491 215.333313,184.123032 215.762756,184.161194 
z"/>
<path fill="#AC7B38" opacity="1.000000" stroke="none" 
	d="
M106.217072,201.440369 
	C106.134949,201.213196 106.279907,201.075089 106.626923,200.957184 
	C106.772514,201.192902 106.644241,201.376923 106.217072,201.440369 
z"/>
<path fill="#010101" opacity="1.000000" stroke="none" 
	d="
M126.021667,72.786774 
	C129.042633,72.824425 132.063583,72.862083 135.531830,72.826141 
	C142.662979,72.797577 149.346863,72.842613 156.493332,72.830139 
	C162.866837,71.940521 165.973007,74.777985 168.335114,80.093872 
	C170.783539,85.603981 174.446838,90.574242 177.691406,96.242874 
	C176.535751,96.840622 175.267487,96.976112 173.675003,96.880859 
	C169.413239,96.440826 165.475677,96.231537 161.633606,95.865311 
	C160.150177,96.097809 158.587402,96.579506 156.989319,96.859596 
	C151.988174,97.736160 149.033371,101.115829 148.995758,105.868362 
	C148.149246,106.571281 147.601761,107.179253 146.721390,107.901154 
	C144.653610,108.418449 142.918732,108.821808 141.243439,109.605438 
	C141.623062,110.372894 141.943085,110.760071 142.443390,111.420494 
	C145.815170,113.637665 150.445343,113.922501 150.637970,118.885803 
	C148.868347,119.124756 147.088745,118.979607 146.074661,119.791100 
	C143.819901,121.595421 141.948410,123.878685 139.572205,126.109528 
	C136.173080,127.865639 132.997803,130.342682 130.754913,123.934326 
	C127.566513,128.195480 124.845238,131.832352 122.123962,135.469208 
	C124.481918,135.410843 126.135727,134.073227 127.966660,133.755142 
	C132.933578,132.892258 137.975632,132.461685 143.360168,131.817078 
	C146.761322,130.485306 149.790176,129.196152 153.163239,127.863541 
	C155.022568,126.254311 156.537689,124.688545 158.419632,123.070480 
	C160.568314,122.418320 162.350189,121.818459 164.467743,121.186554 
	C165.231506,121.017578 165.659592,120.880646 166.130829,121.142136 
	C165.847168,123.193146 165.520340,124.845726 164.962982,127.663956 
	C168.479416,125.741066 171.050949,124.334885 173.740326,122.595993 
	C173.898895,121.794441 173.939621,121.325584 174.150696,120.799248 
	C174.321045,120.741760 174.526947,120.449974 174.526947,120.449974 
	C174.526947,120.449974 174.352707,120.138405 174.509155,119.756607 
	C174.741684,118.832283 174.817749,118.289757 175.032135,117.616707 
	C175.089981,117.043869 175.009491,116.601540 174.885727,115.889305 
	C174.557678,115.414291 174.272888,115.209175 173.903748,114.786362 
	C173.621155,114.257103 173.347992,114.162888 172.597107,114.193451 
	C171.115311,114.249039 170.036270,114.397163 168.759293,114.490608 
	C168.289413,114.538803 168.093124,114.722527 167.695923,115.046524 
	C166.947571,115.301476 166.475769,115.497025 166.001053,115.402481 
	C165.733353,114.421181 165.468567,113.729980 165.085251,112.703918 
	C164.933456,111.896667 164.900192,111.424278 165.190186,110.825966 
	C167.344101,109.467056 169.174759,108.234062 171.053467,107.349548 
	C173.057205,109.561623 174.880707,111.599625 177.020004,113.220940 
	C178.230316,114.138214 179.959320,114.371056 181.454712,114.912170 
	C181.910568,113.564148 182.803635,112.188072 182.719391,110.874695 
	C182.594437,108.926636 181.777054,107.022980 181.254425,105.100426 
	C183.694885,109.527748 186.135345,113.955063 188.454926,118.705612 
	C185.873962,123.418373 183.413849,127.807892 180.887314,132.550659 
	C180.266830,133.532196 179.712799,134.160492 178.954361,135.119873 
	C178.556335,135.559509 178.460602,135.724792 178.462769,135.946854 
	C175.732178,140.805710 173.001587,145.664581 169.983276,150.929901 
	C169.463593,151.485153 169.348770,151.697357 169.351105,151.972961 
	C169.255646,152.131393 169.160187,152.289841 169.084747,152.725128 
	C164.867493,164.490845 154.984268,160.286285 146.408203,161.099426 
	C139.941971,161.161346 133.938339,161.124832 127.472076,161.161102 
	C126.847137,161.204285 126.671341,161.118088 126.524445,161.153107 
	C115.459366,163.791306 110.481514,157.178589 106.550964,148.411835 
	C104.767662,144.434326 102.049934,140.875778 99.430634,137.017685 
	C100.993835,135.823822 103.116508,135.005600 104.719376,133.596207 
	C107.516373,131.136856 108.720772,128.263062 105.076591,125.517128 
	C105.741959,124.086937 106.337074,122.807755 107.417885,121.242172 
	C110.259064,121.387848 112.614555,121.819908 114.869598,122.484901 
	C115.050995,123.104790 115.332840,123.491737 115.614685,123.878677 
	C116.077362,123.341721 116.540039,122.804764 117.381172,122.138855 
	C123.200401,120.162987 128.641174,118.316063 134.081955,116.469139 
	C133.886414,115.882301 133.690887,115.295471 133.495346,114.708641 
	C131.506866,115.184486 129.319687,115.283043 127.566803,116.206230 
	C122.087334,119.092072 116.708069,121.143898 110.364037,118.742256 
	C108.936104,118.201691 106.803215,119.523308 104.994850,119.987679 
	C103.873764,122.027000 102.815208,124.104042 101.614258,126.095192 
	C100.378090,128.144730 99.003082,130.110535 97.324356,132.176910 
	C94.788696,128.241714 92.321327,124.366180 90.578270,120.188446 
	C89.774475,118.261894 89.564438,115.308250 90.488853,113.564407 
	C97.339844,100.640579 104.521317,87.891220 111.686356,75.136139 
	C112.189713,74.240074 113.392044,73.736649 115.078552,73.020538 
	C119.265717,72.922531 122.643692,72.854652 126.021667,72.786774 
M138.590317,112.444183 
	C138.198883,112.206474 137.807465,111.968773 137.416031,111.731064 
	C137.225555,112.275322 137.035095,112.819580 136.844635,113.363838 
	C137.355179,113.212547 137.865723,113.061249 138.590317,112.444183 
M111.932686,128.634262 
	C112.131088,128.366486 112.329483,128.098694 112.527878,127.830902 
	C112.243217,128.008743 111.958557,128.186569 111.932686,128.634262 
z"/>
<path fill="#D3D0C8" opacity="1.000000" stroke="none" 
	d="
M126.030754,72.517853 
	C122.643692,72.854652 119.265717,72.922531 115.434525,72.905457 
	C114.984680,72.431458 114.988068,72.042419 114.974510,71.362473 
	C118.356400,71.117950 121.755219,71.164360 125.620567,71.193710 
	C126.071342,71.534081 126.055588,71.891510 126.030754,72.517853 
z"/>
<path fill="#010101" opacity="1.000000" stroke="none" 
	d="
M97.659302,189.765411 
	C99.856895,189.656433 101.741219,189.826813 104.278099,190.056213 
	C103.867622,192.296646 103.510727,194.244629 103.054077,196.585327 
	C100.729416,196.978058 98.504517,196.978058 96.103004,196.978058 
	C96.563080,194.411880 96.954552,192.228348 97.659302,189.765411 
z"/>
<path fill="#BE863A" opacity="1.000000" stroke="none" 
	d="
M180.999969,104.935898 
	C181.777054,107.022980 182.594437,108.926636 182.719391,110.874695 
	C182.803635,112.188072 181.910568,113.564148 181.454712,114.912170 
	C179.959320,114.371056 178.230316,114.138214 177.020004,113.220940 
	C174.880707,111.599625 173.057205,109.561623 171.434296,107.282379 
	C175.980652,104.408905 173.205414,100.351929 173.999207,97.111603 
	C175.267487,96.976112 176.535751,96.840622 178.013824,96.381409 
	C178.822159,95.961777 179.420715,95.865875 180.302460,95.858490 
	C180.638931,98.888458 180.692215,101.829910 180.999969,104.935898 
z"/>
<path fill="#020202" opacity="1.000000" stroke="none" 
	d="
M69.947784,189.388794 
	C67.833435,189.768127 65.748611,189.768127 63.349010,189.768127 
	C63.679024,188.181015 63.990738,186.681900 64.641853,185.011871 
	C66.886444,184.959381 68.791641,185.077805 70.948898,185.211914 
	C70.597404,186.585785 70.287361,187.797623 69.947784,189.388794 
z"/>
<path fill="#B3B1AA" opacity="1.000000" stroke="none" 
	d="
M147.442276,189.707123 
	C145.454376,189.906479 143.657883,189.893616 141.413696,189.907501 
	C142.069672,189.299438 143.173340,188.664597 144.648285,188.022491 
	C145.890930,188.508469 146.762314,189.001678 147.442276,189.707123 
z"/>
<path fill="#B3B1AA" opacity="1.000000" stroke="none" 
	d="
M140.400040,191.027588 
	C140.763489,191.281754 140.687958,191.553818 140.186722,191.864349 
	C139.849274,191.631836 139.915970,191.346054 140.400040,191.027588 
z"/>
<path fill="#000000" opacity="1.000000" stroke="none" 
	d="
M215.404526,191.083679 
	C213.993225,191.094513 212.954239,191.029221 211.523895,190.969543 
	C211.242477,190.659134 211.352386,190.343140 211.718536,189.933990 
	C213.145981,189.569305 214.317200,189.297760 215.488403,189.026230 
	C215.584549,189.686661 215.680695,190.347092 215.404526,191.083679 
z"/>
<path fill="#D8D7CE" opacity="1.000000" stroke="none" 
	d="
M105.182739,120.229668 
	C106.803215,119.523308 108.936104,118.201691 110.364037,118.742256 
	C116.708069,121.143898 122.087334,119.092072 127.566803,116.206230 
	C129.319687,115.283043 131.506866,115.184486 133.495346,114.708641 
	C133.690887,115.295471 133.886414,115.882301 134.081955,116.469139 
	C128.641174,118.316063 123.200401,120.162987 117.043045,122.104881 
	C115.874321,122.217224 115.422180,122.234596 114.970039,122.251968 
	C112.614555,121.819908 110.259064,121.387848 107.495010,120.996223 
	C106.514503,120.848328 105.942566,120.659988 105.182739,120.229668 
z"/>
<path fill="#BE863A" opacity="1.000000" stroke="none" 
	d="
M178.581528,135.883148 
	C178.460602,135.724792 178.556335,135.559509 178.897614,135.431885 
	C178.960541,135.574020 178.845551,135.709579 178.581528,135.883148 
z"/>
<path fill="#B2904D" opacity="1.000000" stroke="none" 
	d="
M169.502808,151.882385 
	C169.348770,151.697357 169.463593,151.485153 169.873413,151.275970 
	C169.973297,151.445038 169.841049,151.637115 169.502808,151.882385 
z"/>
<path fill="#D0A251" opacity="1.000000" stroke="none" 
	d="
M150.975327,118.935783 
	C150.445343,113.922501 145.815170,113.637665 142.775925,111.373657 
	C143.306366,110.541817 143.684540,110.030060 144.327057,109.376266 
	C145.412369,108.751884 146.233322,108.269554 147.054276,107.787216 
	C147.601761,107.179253 148.149246,106.571281 149.294128,105.828033 
	C151.857941,104.074631 153.824326,102.456490 155.892273,101.229233 
	C156.241241,106.171638 156.387161,110.731850 156.774994,115.271385 
	C157.000076,117.905678 157.613907,120.506760 158.052811,123.122780 
	C156.537689,124.688545 155.022568,126.254311 152.933380,127.562866 
	C151.897995,124.515694 151.436661,121.725739 150.975327,118.935783 
z"/>
<path fill="#D09F4D" opacity="1.000000" stroke="none" 
	d="
M158.419632,123.070480 
	C157.613907,120.506760 157.000076,117.905678 156.774994,115.271385 
	C156.387161,110.731850 156.241241,106.171638 155.941589,101.237442 
	C155.889374,100.854790 155.951157,100.929619 156.171936,100.818161 
	C156.670685,100.503838 156.855911,100.236656 157.116165,99.669746 
	C158.081635,98.914932 158.879333,98.395561 160.093597,97.908936 
	C163.742325,97.870674 165.049240,99.880814 163.518173,102.291626 
	C161.218430,105.912758 162.405334,108.384499 164.866913,110.951889 
	C164.900192,111.424278 164.933456,111.896667 165.056030,113.057358 
	C165.197922,114.452988 165.250504,115.160324 164.994858,116.132156 
	C164.501770,118.003967 164.316910,119.611275 164.132050,121.218597 
	C162.350189,121.818459 160.568314,122.418320 158.419632,123.070480 
z"/>
<path fill="#C89343" opacity="1.000000" stroke="none" 
	d="
M165.190186,110.825966 
	C162.405334,108.384499 161.218430,105.912758 163.518173,102.291626 
	C165.049240,99.880814 163.742325,97.870674 160.139847,97.657272 
	C160.359070,96.922653 160.948593,96.472450 161.538116,96.022255 
	C165.475677,96.231537 169.413239,96.440826 173.675003,96.880859 
	C173.205414,100.351929 175.980652,104.408905 171.386246,106.933899 
	C169.174759,108.234062 167.344101,109.467056 165.190186,110.825966 
z"/>
<path fill="#D8B360" opacity="1.000000" stroke="none" 
	d="
M142.987885,131.859711 
	C137.975632,132.461685 132.933578,132.892258 127.966660,133.755142 
	C126.135727,134.073227 124.481918,135.410843 122.123962,135.469208 
	C124.845238,131.832352 127.566513,128.195480 130.754913,123.934326 
	C132.997803,130.342682 136.173080,127.865639 139.941711,126.175194 
	C141.435776,128.018600 142.211838,129.939148 142.987885,131.859711 
z"/>
<path fill="#D3A654" opacity="1.000000" stroke="none" 
	d="
M143.360168,131.817078 
	C142.211838,129.939148 141.435776,128.018600 140.290192,126.032379 
	C141.948410,123.878685 143.819901,121.595421 146.074661,119.791100 
	C147.088745,118.979607 148.868347,119.124756 150.637970,118.885803 
	C151.436661,121.725739 151.897995,124.515694 152.589172,127.606331 
	C149.790176,129.196152 146.761322,130.485306 143.360168,131.817078 
z"/>
<path fill="#C89343" opacity="1.000000" stroke="none" 
	d="
M164.467743,121.186546 
	C164.316910,119.611275 164.501770,118.003967 165.170380,116.089607 
	C165.654144,115.782562 166.003967,115.692581 166.003967,115.692581 
	C166.475769,115.497025 166.947571,115.301476 167.884705,115.037300 
	C168.607651,114.906715 168.810059,114.765587 168.957245,114.545288 
	C170.036270,114.397163 171.115311,114.249039 172.712982,114.372345 
	C173.438126,114.859756 173.690277,114.979858 173.988113,115.004066 
	C174.272888,115.209175 174.557678,115.414291 174.851013,116.152878 
	C174.870987,117.039970 174.882401,117.393600 174.893829,117.747223 
	C174.817749,118.289757 174.741684,118.832283 174.395370,119.842056 
	C174.004517,120.472603 173.956253,120.655083 173.980362,120.856735 
	C173.939621,121.325584 173.898895,121.794441 173.404877,122.599045 
	C170.663620,122.204437 168.375656,121.474075 166.087677,120.743713 
	C165.659592,120.880646 165.231506,121.017578 164.467743,121.186546 
z"/>
<path fill="#A8A69F" opacity="1.000000" stroke="none" 
	d="
M161.633606,95.865311 
	C160.948593,96.472450 160.359070,96.922653 159.723297,97.624527 
	C158.879333,98.395561 158.081635,98.914932 156.897491,99.788963 
	C156.189972,100.309830 156.003326,100.571831 155.951157,100.929619 
	C155.951157,100.929619 155.889374,100.854790 155.840042,100.846573 
	C153.824326,102.456490 151.857941,104.074631 149.593170,105.733093 
	C149.033371,101.115829 151.988174,97.736160 156.989319,96.859596 
	C158.587402,96.579506 160.150177,96.097809 161.633606,95.865311 
z"/>
<path fill="#AC7B38" opacity="1.000000" stroke="none" 
	d="
M166.130829,121.142143 
	C168.375656,121.474075 170.663620,122.204437 173.287048,122.931747 
	C171.050949,124.334885 168.479416,125.741066 164.962982,127.663956 
	C165.520340,124.845726 165.847168,123.193146 166.130829,121.142143 
z"/>
<path fill="#A8A69F" opacity="1.000000" stroke="none" 
	d="
M146.721390,107.901154 
	C146.233322,108.269554 145.412369,108.751884 143.963654,109.403435 
	C142.618530,109.456818 141.901184,109.340988 141.183838,109.225159 
	C142.918732,108.821808 144.653610,108.418449 146.721390,107.901154 
z"/>
<path fill="#020202" opacity="1.000000" stroke="none" 
	d="
M138.483292,112.677063 
	C137.865723,113.061249 137.355179,113.212547 136.844635,113.363838 
	C137.035095,112.819580 137.225555,112.275322 137.416031,111.731064 
	C137.807465,111.968773 138.198883,112.206474 138.483292,112.677063 
z"/>
<path fill="#020202" opacity="1.000000" stroke="none" 
	d="
M114.869598,122.484909 
	C115.422180,122.234596 115.874321,122.217224 116.664597,122.233826 
	C116.540039,122.804764 116.077362,123.341721 115.614685,123.878677 
	C115.332840,123.491737 115.050995,123.104790 114.869598,122.484909 
z"/>
<path fill="#020202" opacity="1.000000" stroke="none" 
	d="
M111.803284,128.499329 
	C111.958557,128.186569 112.243217,128.008743 112.527878,127.830902 
	C112.329483,128.098694 112.131088,128.366486 111.803284,128.499329 
z"/>
<path fill="#020202" opacity="1.000000" stroke="none" 
	d="
M141.243439,109.605438 
	C141.901184,109.340988 142.618530,109.456818 143.699295,109.545479 
	C143.684540,110.030060 143.306366,110.541817 142.595673,111.100403 
	C141.943085,110.760071 141.623062,110.372894 141.243439,109.605438 
z"/>
<path fill="#020202" opacity="1.000000" stroke="none" 
	d="
M166.001053,115.402481 
	C166.003967,115.692581 165.654144,115.782562 165.478607,115.825111 
	C165.250504,115.160324 165.197922,114.452988 165.174561,113.392212 
	C165.468567,113.729980 165.733353,114.421181 166.001053,115.402481 
z"/>
<path fill="#AC7B38" opacity="1.000000" stroke="none" 
	d="
M175.032135,117.616707 
	C174.882401,117.393600 174.870987,117.039970 174.894287,116.422775 
	C175.009491,116.601540 175.089981,117.043869 175.032135,117.616707 
z"/>
<path fill="#AC7B38" opacity="1.000000" stroke="none" 
	d="
M168.759293,114.490616 
	C168.810059,114.765587 168.607651,114.906715 168.161255,114.977890 
	C168.093124,114.722527 168.289413,114.538803 168.759293,114.490616 
z"/>
<path fill="#AC7B38" opacity="1.000000" stroke="none" 
	d="
M174.150696,120.799248 
	C173.956253,120.655083 174.004517,120.472603 174.238922,120.223846 
	C174.352707,120.138405 174.526947,120.449974 174.526947,120.449974 
	C174.526947,120.449974 174.321045,120.741760 174.150696,120.799248 
z"/>
<path fill="#AC7B38" opacity="1.000000" stroke="none" 
	d="
M173.903748,114.786362 
	C173.690277,114.979858 173.438126,114.859756 173.115753,114.464890 
	C173.347992,114.162888 173.621155,114.257103 173.903748,114.786362 
z"/>
<path fill="#D0A251" opacity="1.000000" stroke="none" 
	d="
M156.171936,100.818161 
	C156.003326,100.571831 156.189972,100.309830 156.729736,100.024399 
	C156.855911,100.236656 156.670685,100.503838 156.171936,100.818161 
z"/>
</svg>