<svg width="118" height="44" viewBox="0 0 118 44" fill="none" xmlns="http://www.w3.org/2000/svg">
<g id="_Key">
<g id="Union">
<path d="M57.4344 19.0927C57.1557 18.8139 57.1557 18.362 57.4344 18.0832C57.7132 17.8044 58.1652 17.8044 58.4439 18.0832L60.7994 20.4386L63.1548 18.0832C63.4335 17.8044 63.8854 17.8044 64.1642 18.0832C64.4429 18.3619 64.4429 18.8139 64.1642 19.0927L61.8087 21.4481L64.1642 23.8035C64.4429 24.0822 64.4429 24.5342 64.1642 24.8129C63.8854 25.0917 63.4335 25.0917 63.1548 24.8129L60.7994 22.4575L58.4439 24.8129C58.1652 25.0917 57.7132 25.0917 57.4345 24.8129C57.1557 24.5341 57.1557 24.0822 57.4345 23.8034L59.7899 21.4481L57.4344 19.0927Z" fill="#232F39"/>
<path fill-rule="evenodd" clip-rule="evenodd" d="M54.4907 14.1946L47.2373 21.4481L54.4907 28.7015C55.0262 29.2369 55.7524 29.5377 56.5096 29.5377H66.2718C67.8487 29.5377 69.127 28.2594 69.127 26.6825V16.2136C69.127 14.6367 67.8487 13.3584 66.2718 13.3584H56.5096C55.7524 13.3584 55.0262 13.6592 54.4907 14.1946ZM66.2718 28.3005H56.5096C56.0805 28.3005 55.669 28.13 55.3655 27.8266L48.9871 21.4481L55.3655 15.0695C55.669 14.7661 56.0805 14.5956 56.5096 14.5956H66.2718C67.1653 14.5956 67.8897 15.32 67.8897 16.2136V26.6825C67.8897 27.5761 67.1653 28.3005 66.2718 28.3005Z" fill="#232F39"/>
</g>
</g>
</svg>
