<svg width="32" height="19" viewBox="0 0 32 19" fill="none" xmlns="http://www.w3.org/2000/svg">
<path d="M28.9803 16.2412L20.5282 1.81063L3.55257 1.80364L2.98713 0.762543H0V1.72927L0.552816 2.05055L0 2.33257V16.2398H1.9208C1.92501 15.9072 1.99657 15.6126 2.07654 15.2997C2.44835 13.8616 3.92999 13.4098 4.65678 13.4098C5.52387 13.4098 6.43306 13.6104 7.11916 14.6319C7.40679 15.0598 7.57375 15.7403 7.58778 16.2398H22.6202C22.6637 15.6547 22.8363 15.0135 23.1912 14.5463C23.8984 13.6174 24.6701 13.3116 25.7841 13.4056C26.1966 13.4407 26.9627 13.5712 27.6362 14.2559C28.4121 15.0458 28.4513 16.1528 28.4261 16.2398H28.9803V16.2412Z" fill="#E0AD25"/>
<path d="M2.19026 11.5311H0.00146484V11.1635H20.6167V11.5311H7.58924" fill="#11171F"/>
<path d="M28.9803 16.2412C29.8544 16.2412 31.3248 16.2412 31.3248 16.2412C31.7289 15.1776 31.6292 12.9341 31.6292 12.9341C31.5942 12.7433 31.416 12.495 31.416 12.495L31.336 12.4431L31.2953 12.4164C31.4889 11.3122 30.7551 11.0203 30.5194 10.7973C30.5068 10.7846 30.4886 10.7804 30.4745 10.7706C30.2528 10.6163 30.3412 10.678 30.337 10.6752C29.8586 10.3357 29.0434 9.90911 28.586 9.70848C28.3657 9.61166 28.2072 9.47276 28.0514 9.28896L27.2419 8.4401C26.4084 7.50566 25.2285 6.34112 25.2285 6.34112C25.7897 6.198 25.6887 6.08297 25.6887 6.08297C25.2425 3.76791 24.8973 3.69636 24.8973 3.69636C23.8619 2.74788 22.3522 2.10105 22.3522 2.10105C22.1151 2.00705 21.0263 1.86393 20.6531 1.81904C20.5717 1.80922 20.5254 1.81201 20.5254 1.81201" fill="#E0AD25"/>
<path d="M4.77315 17.5923C5.51782 17.5923 6.12149 16.9886 6.12149 16.2439C6.12149 15.4993 5.51782 14.8956 4.77315 14.8956C4.02848 14.8956 3.4248 15.4993 3.4248 16.2439C3.4248 16.9886 4.02848 17.5923 4.77315 17.5923Z" fill="white" stroke="white" stroke-width="1.26276" stroke-miterlimit="10"/>
<path fill-rule="evenodd" clip-rule="evenodd" d="M2.29248 16.2412C2.29248 17.6134 3.4051 18.7246 4.77168 18.7246C6.14388 18.7246 7.25512 17.56 7.25512 16.1878C7.25512 14.8212 6.14248 13.7619 4.77168 13.7619C3.4037 13.7619 2.29248 14.8746 2.29248 16.2412Z" fill="#E0AD25"/>
<path d="M4.77315 17.5923C5.51782 17.5923 6.12149 16.9886 6.12149 16.2439C6.12149 15.4993 5.51782 14.8956 4.77315 14.8956C4.02848 14.8956 3.4248 15.4993 3.4248 16.2439C3.4248 16.9886 4.02848 17.5923 4.77315 17.5923Z" stroke="#11171F" stroke-width="0.42092" stroke-miterlimit="10"/>
<path d="M4.77338 16.5778C4.95781 16.5778 5.10731 16.4284 5.10731 16.2439C5.10731 16.0595 4.95781 15.91 4.77338 15.91C4.58896 15.91 4.43945 16.0595 4.43945 16.2439C4.43945 16.4284 4.58896 16.5778 4.77338 16.5778Z" fill="#11171F"/>
<path d="M5.7791 4.15229H2.40332V8.6421H5.7791V4.15229Z" fill="#11171F"/>
<path d="M20.994 16.2412H20.625V1.81061L20.8846 1.84428L20.994 1.86113V16.2412Z" fill="#11171F"/>
<path d="M30.637 12.2873C30.4826 12.5539 29.8611 12.2971 29.2633 11.952C28.6656 11.6068 28.371 11.2785 28.4033 10.9544C28.4201 10.7874 28.6727 10.6289 28.9519 10.6724C29.1848 10.7089 29.4934 10.9404 29.7642 11.0975C30.1375 11.3136 30.5345 11.5647 30.6552 11.8046C30.7268 11.9492 30.6945 12.1863 30.637 12.2873Z" fill="#11171F"/>
<path d="M25.2312 6.57679H20.7007V6.11802H25.2312L25.6914 6.08295C25.6914 6.08295 25.697 6.08995 25.6984 6.10257C25.6998 6.1152 25.6942 6.13205 25.6773 6.1531C25.6689 6.16292 25.6535 6.17555 25.6353 6.18818C25.6184 6.1994 25.5988 6.21062 25.5834 6.21904C25.5525 6.23447 25.5385 6.24008 25.5272 6.24569C25.4921 6.26253 25.422 6.28777 25.3575 6.30742C25.2915 6.32706 25.2312 6.34109 25.2312 6.34109L25.4669 6.57539H25.2312V6.57679Z" fill="black"/>
<path d="M29.5318 10.1827H20.9941V9.80803H28.8036L28.9734 9.89082L29.1389 9.97362L29.3634 10.0915L29.5318 10.1827Z" fill="#11171F"/>
<path d="M28.2619 9.67897H21.1694V6.8069H25.4754L28.2619 9.67897Z" fill="#11171F"/>
<path d="M25.4387 17.5544C26.1833 17.5544 26.787 16.9507 26.787 16.206C26.787 15.4614 26.1833 14.8577 25.4387 14.8577C24.694 14.8577 24.0903 15.4614 24.0903 16.206C24.0903 16.9507 24.694 17.5544 25.4387 17.5544Z" fill="white" stroke="white" stroke-width="1.26276" stroke-miterlimit="10"/>
<path fill-rule="evenodd" clip-rule="evenodd" d="M22.9565 16.2033C22.9565 17.5755 24.0692 18.6867 25.4358 18.6867C26.808 18.6867 27.9192 17.5222 27.9192 16.15C27.9192 14.7834 26.8066 13.724 25.4358 13.724C24.0692 13.724 22.9565 14.8367 22.9565 16.2033Z" fill="#E0AD25"/>
<path d="M25.4387 17.5544C26.1833 17.5544 26.787 16.9507 26.787 16.206C26.787 15.4614 26.1833 14.8577 25.4387 14.8577C24.694 14.8577 24.0903 15.4614 24.0903 16.206C24.0903 16.9507 24.694 17.5544 25.4387 17.5544Z" stroke="#11171F" stroke-width="0.42092" stroke-miterlimit="10"/>
<path d="M25.4389 16.5399C25.6233 16.5399 25.7728 16.3904 25.7728 16.206C25.7728 16.0216 25.6233 15.8721 25.4389 15.8721C25.2545 15.8721 25.105 16.0216 25.105 16.206C25.105 16.3904 25.2545 16.5399 25.4389 16.5399Z" fill="#11171F"/>
</svg>
