<svg width="18" height="19" viewBox="0 0 18 19" fill="none" xmlns="http://www.w3.org/2000/svg">
<path d="M2 18.9238C1.45 18.9238 0.979167 18.728 0.5875 18.3363C0.195833 17.9447 0 17.4738 0 16.9238V2.92383C0 2.37383 0.195833 1.90299 0.5875 1.51133C0.979167 1.11966 1.45 0.923828 2 0.923828H16C16.55 0.923828 17.0208 1.11966 17.4125 1.51133C17.8042 1.90299 18 2.37383 18 2.92383V16.9238C18 17.4738 17.8042 17.9447 17.4125 18.3363C17.0208 18.728 16.55 18.9238 16 18.9238H2ZM9 13.9238C9.63333 13.9238 10.2083 13.7405 10.725 13.3738C11.2417 13.0072 11.6 12.5238 11.8 11.9238H16V2.92383H2V11.9238H6.2C6.4 12.5238 6.75833 13.0072 7.275 13.3738C7.79167 13.7405 8.36667 13.9238 9 13.9238Z" fill="#E0AD25"/>
</svg>
