<svg width="36" height="27" viewBox="0 0 36 27" fill="none" xmlns="http://www.w3.org/2000/svg">
<path d="M31.8002 23.1376H35.4002V16.5375L30.0002 8.1375H23.4002V23.1376H25.8001M5.40013 23.1376H0.600098V3.93752H23.4002V23.1376H11.4001" fill="#E0AD25"/>
<g clip-path="url(#clip0_120_48306)">
<path d="M6.11552 18.6297C4.98029 16.9543 5.78146 15.6459 5.78146 15.6459C5.59531 15.5908 5 15.9809 5 15.9809C5.33483 14.7539 7.17648 13.7114 7.17648 13.7114C6.97204 13.6366 6.39528 13.7852 6.39528 13.7852C7.90197 12.3351 9.74384 12.8743 9.74384 12.8743C9.79941 12.5578 10.7114 12 10.7114 12C10.6181 12.0924 10.5805 12.5954 10.5805 12.5954C10.6735 12.4277 10.9717 12.2603 10.9717 12.2603C10.8044 12.6505 10.9717 13.4874 10.9717 13.4874C11.4553 13.9714 11.9946 15.6459 11.9946 15.6459L12.1998 15.9435C12.4603 16.3161 12.3645 16.9018 12.1065 17.0408C11.1395 17.5629 11.0459 16.6132 11.0459 16.6132C10.2459 16.5202 9.65055 15.6269 9.65055 15.6269C8.57193 16.1849 9.17268 17.7589 9.63841 18.3633C10.2368 19.1381 9.79864 20.3915 9.79864 20.3915C9.79864 20.3915 7.23646 20.2854 6.11552 18.6297Z" fill="black"/>
</g>
<path d="M14.6311 18.6844C13.4959 17.009 14.2971 15.7006 14.2971 15.7006C14.1109 15.6455 13.5156 16.0356 13.5156 16.0356C13.8505 14.8086 15.6921 13.7661 15.6921 13.7661C15.4877 13.6913 14.9109 13.8399 14.9109 13.8399C16.4176 12.3898 18.2595 12.929 18.2595 12.929C18.315 12.6125 19.227 12.0547 19.227 12.0547C19.1337 12.1471 19.0961 12.65 19.0961 12.65C19.1891 12.4824 19.4873 12.315 19.4873 12.315C19.32 12.7052 19.4873 13.5421 19.4873 13.5421C19.9709 14.0261 20.5102 15.7006 20.5102 15.7006L20.7154 15.9982C20.9759 16.3708 20.8802 16.9565 20.6221 17.0955C19.6551 17.6176 19.5615 16.6679 19.5615 16.6679C18.7615 16.5749 18.1662 15.6816 18.1662 15.6816C17.0876 16.2396 17.6883 17.8136 18.154 18.418C18.7524 19.1928 18.3143 20.4462 18.3143 20.4462C18.3143 20.4462 15.7521 20.3401 14.6311 18.6844Z" fill="black"/>
<path d="M0.600098 20.1376H4.2001V21.3376H0.600098V20.1376ZM12.6001 20.1376H23.4002V21.3376H12.6001V20.1376Z" fill="#E0AD25"/>
<path d="M33 20.1376H35.4V21.3376H33V20.1376Z" fill="#DBDBDB"/>
<path d="M2.3999 5.73753H23.4V6.93755H2.3999V5.73753Z" fill="#E0AD25"/>
<path d="M8.39993 26.1376C10.0568 26.1376 11.4 24.7944 11.4 23.1376C11.4 21.4807 10.0568 20.1376 8.39993 20.1376C6.74306 20.1376 5.3999 21.4807 5.3999 23.1376C5.3999 24.7944 6.74306 26.1376 8.39993 26.1376Z" fill="#E0AD25"/>
<path d="M28.7998 26.1376C30.4567 26.1376 31.7999 24.7944 31.7999 23.1376C31.7999 21.4807 30.4567 20.1376 28.7998 20.1376C27.143 20.1376 25.7998 21.4807 25.7998 23.1376C25.7998 24.7944 27.143 26.1376 28.7998 26.1376Z" fill="#E0AD25"/>
<path d="M7.79999 22.5375H9.00002V23.7376H7.79999V22.5375ZM28.2001 22.5375H29.4001V23.7376H28.2001V22.5375ZM2.39998 0.9375H10.8V2.13753H2.39998V0.9375ZM0 0.9375H1.20003V2.13753H0V0.9375Z" fill="#DBDBDB"/>
<path d="M31.5418 10.5376H25.7998V15.9376H35.0158L31.5418 10.5376Z" fill="#E0AD25"/>
<path d="M23.3999 8.1375H24.5999V23.1375H23.3999V8.1375Z" fill="#E0AD25"/>
<path d="M35.0158 15.9376L31.7578 10.8675C30.1566 12.7676 28.1096 14.2415 25.7998 15.1575V15.9375H35.0158V15.9376Z" fill="#E0AD25"/>
<path d="M30.5041 7.8135C30.4498 7.72907 30.3752 7.65958 30.2872 7.61137C30.1992 7.56317 30.1005 7.53778 30.0001 7.53752H24.0001V3.93752C24 3.77841 23.9368 3.62584 23.8243 3.51333C23.7118 3.40082 23.5592 3.3376 23.4001 3.33754H0.599978C0.440871 3.3376 0.288297 3.40082 0.175791 3.51333C0.0632856 3.62584 5.59087e-05 3.77841 0 3.93752L0 23.1376C5.59087e-05 23.2967 0.0632856 23.4493 0.175791 23.5618C0.288297 23.6743 0.440871 23.7375 0.599978 23.7376H4.85396C5.19716 25.696 7.06255 27.0052 9.02097 26.6626C10.5143 26.4009 11.6843 25.2316 11.946 23.7376H25.254C25.5972 25.696 27.4626 27.0052 29.421 26.6626C30.9144 26.4009 32.0844 25.2316 32.346 23.7376H35.4C35.5591 23.7375 35.7117 23.6743 35.8242 23.5618C35.9367 23.4493 35.9999 23.2967 36 23.1376V16.5375C35.9999 16.4226 35.9665 16.31 35.904 16.2135L30.5041 7.8135ZM31.2 11.1375L33.918 15.3375H26.4001V11.1375H31.2ZM8.40004 25.5376C7.07465 25.5376 6.00006 24.463 6.00006 23.1376C6.00006 21.8122 7.07465 20.7376 8.40004 20.7376C9.72543 20.7376 10.8 21.8122 10.8 23.1376C10.8 24.463 9.72543 25.5376 8.40004 25.5376ZM8.40004 19.5376C6.6444 19.5394 5.14682 20.8066 4.85403 22.5376H1.20003V21.3376H4.20006V20.1376H1.20003V4.53749H22.8001V5.73752H2.39998V6.93755H22.8V20.1376H12.6V21.3376H22.8001V22.5376H11.946C11.6532 20.8071 10.1556 19.5393 8.40004 19.5376ZM28.8001 25.5376C27.4747 25.5376 26.4001 24.463 26.4001 23.1376C26.4001 21.8122 27.4747 20.7376 28.8001 20.7376C30.1255 20.7376 31.2 21.8122 31.2 23.1376C31.2 24.463 30.1255 25.5376 28.8001 25.5376ZM32.3461 22.5375C32.0029 20.5791 30.1375 19.2699 28.1791 19.6125C26.6857 19.8742 25.5157 21.0435 25.2541 22.5375H24V8.73755H29.67L30.444 9.93758H25.8C25.6409 9.93763 25.4883 10.0009 25.3758 10.1134C25.2633 10.2259 25.2001 10.3784 25.2001 10.5376V15.9376C25.2001 16.0967 25.2633 16.2492 25.3758 16.3618C25.4883 16.4743 25.6409 16.5375 25.8 16.5375H34.6861L34.8 16.7116V20.1376H33V21.3376H34.8V22.5376H32.3461V22.5375Z" fill="black"/>
<path d="M8.29999 23.0375H8.50002V23.2376H8.29999V23.0375ZM28.7001 23.0375H28.9001V23.2376H28.7001V23.0375ZM2.89998 1.4375H10.3V1.63753H2.89998V1.4375ZM0.5 1.4375H0.700026V1.63753H0.5V1.4375Z" stroke="#E0AD25"/>
<defs>
<clipPath id="clip0_120_48306">
<rect width="8.39148" height="8.39148" fill="white" transform="translate(4 11)"/>
</clipPath>
</defs>
</svg>
