<svg width="24" height="22" viewBox="0 0 24 22" fill="none" xmlns="http://www.w3.org/2000/svg">
<g id="home">
<mask id="mask0_1978_3659" style="mask-type:alpha" maskUnits="userSpaceOnUse" x="0" y="0" width="24" height="22">
<rect id="Bounding box" width="23.2941" height="21.3116" fill="#FFFFFF"/>
</mask>
<g mask="url(#mask0_1978_3659)">
<g id="Vector">
<path d="M4.29289 3.92751C4.10536 4.09909 4 4.33179 4 4.57444V6.40423C4 6.64687 4.10536 6.87958 4.29289 7.05115C4.48043 7.22273 4.73478 7.31912 5 7.31912H19C19.2652 7.31912 19.5196 7.22273 19.7071 7.05115C19.8946 6.87958 20 6.64687 20 6.40423V4.57444C20 4.33179 19.8946 4.09909 19.7071 3.92751C19.5196 3.75594 19.2652 3.65955 19 3.65955H5C4.73478 3.65955 4.48043 3.75594 4.29289 3.92751Z" stroke="#E0AD25" stroke-width="2" stroke-linecap="round" stroke-linejoin="round"/>
<path d="M4.29289 11.2467C4.10536 11.4182 4 11.6509 4 11.8936V17.3829C4 17.6256 4.10536 17.8583 4.29289 18.0299C4.48043 18.2015 4.73478 18.2978 5 18.2978H11C11.2652 18.2978 11.5196 18.2015 11.7071 18.0299C11.8946 17.8583 12 17.6256 12 17.3829V11.8936C12 11.6509 11.8946 11.4182 11.7071 11.2467C11.5196 11.0751 11.2652 10.9787 11 10.9787H5C4.73478 10.9787 4.48043 11.0751 4.29289 11.2467Z" stroke="#E0AD25" stroke-width="2" stroke-linecap="round" stroke-linejoin="round"/>
<path d="M16.2929 11.2467C16.1054 11.4182 16 11.6509 16 11.8936V17.3829C16 17.6256 16.1054 17.8583 16.2929 18.0299C16.4804 18.2015 16.7348 18.2978 17 18.2978H19C19.2652 18.2978 19.5196 18.2015 19.7071 18.0299C19.8946 17.8583 20 17.6256 20 17.3829V11.8936C20 11.6509 19.8946 11.4182 19.7071 11.2467C19.5196 11.0751 19.2652 10.9787 19 10.9787H17C16.7348 10.9787 16.4804 11.0751 16.2929 11.2467Z" stroke="#E0AD25" stroke-width="2" stroke-linecap="round" stroke-linejoin="round"/>
</g>
</g>
</g>
</svg>
