<svg width="39" height="20" viewBox="0 0 39 20" fill="none" xmlns="http://www.w3.org/2000/svg">
<path d="M34.2986 0.150789L32.5054 0.00696774C32.4118 0.00406222 32.3182 0.00406381 32.2289 0.00406381H32.2188C31.7118 -0.0104638 31.2164 0.0142303 30.7368 0.0737934C30.6993 0.0781517 30.6734 0.0810582 30.6503 0.0839638C30.6302 0.0868693 30.6158 0.0883219 30.6086 0.0883219H30.6043C28.5029 0.375968 26.655 1.33624 25.0463 2.89505C24.3621 3.55606 23.763 4.30277 23.1005 4.98993C22.9075 5.19041 22.6641 5.41704 22.4063 5.47515C20.9473 5.80348 19.6957 6.5037 18.7004 7.6078C17.518 8.92109 16.0604 9.70123 14.3912 10.1777C13.8237 10.339 13.2605 10.5162 12.7003 10.6949L11.2615 11.1642C10.9187 11.276 10.5745 11.3879 10.2317 11.4968C10.1525 11.5215 10.0689 11.5593 9.9897 11.552C9.32141 11.4881 8.64881 11.462 8.04102 11.0944C7.75152 10.923 7.40874 10.7908 7.08036 10.7516C5.63721 10.5729 4.31936 11.4474 3.72021 12.9685C3.51857 13.4828 3.38751 14.0246 3.21324 14.5491C2.73939 15.9888 1.98181 17.2105 0.607793 17.9543C0.410477 18.0589 0.203078 18.1505 0 18.2493C1.15798 18.088 2.18489 17.6478 2.77107 16.5931C3.20316 15.8173 3.49265 14.9573 3.83544 14.1321C4.04715 13.6222 4.17822 13.0716 4.44755 12.5966C5.06254 11.4954 6.33142 10.9332 7.34681 11.2949C7.99205 11.5259 8.60849 11.8368 9.25517 12.1201C8.57824 12.6649 8.00069 13.3607 7.70688 14.2251C7.41594 15.0822 7.09188 16.8749 7.14085 16.8851C7.23014 16.5844 7.32376 16.2808 7.41018 15.9757C8.05254 13.7806 9.38767 12.277 11.453 11.5012C11.6287 11.4344 11.8088 11.3719 11.9931 11.3167C12.297 11.2252 12.6038 11.1395 12.9062 11.0566C13.2375 10.9666 13.5702 10.8823 13.9044 10.8039C15.8847 10.3186 17.6822 9.52544 19.0547 7.9245C19.3284 7.60344 19.6726 7.33032 20.0154 7.07899C20.7312 6.54729 21.509 6.11291 22.4077 6.02574C22.8887 5.97635 23.171 5.72503 23.4476 5.38217C24.4255 4.15895 25.4654 2.9982 26.7544 2.08586C28.1889 1.06893 29.73 0.36144 31.4756 0.219069C31.4871 0.219069 31.5001 0.216165 31.5102 0.216165C31.6413 0.204543 31.7766 0.19873 31.9135 0.195825H31.938C32.1655 0.188561 32.3931 0.185659 32.612 0.185659H32.7128C32.7128 0.185659 32.7157 0.182753 32.7171 0.185659C32.9548 0.185659 33.1795 0.195826 33.3955 0.205995C33.7541 0.226334 34.084 0.25539 34.3763 0.288803C34.6557 0.320764 34.902 0.355632 35.1065 0.390498C35.5041 0.457325 35.759 0.519792 35.8252 0.53432C35.3413 0.352725 34.8185 0.229241 34.2971 0.14934L34.2986 0.150789Z" fill="#E0AD25"/>
<path d="M6.91324 13.0639C6.84699 13.1366 6.77786 13.2034 6.71304 13.2746C6.65111 13.3487 6.58486 13.4184 6.52725 13.4925C6.41059 13.6436 6.29825 13.7947 6.20175 13.9574C6.00299 14.2784 5.846 14.6184 5.69909 14.9714C5.55075 15.323 5.40672 15.6876 5.21949 16.0435C5.12875 16.2222 5.02073 16.3966 4.90263 16.5651C4.84069 16.6479 4.78164 16.7321 4.71251 16.8091L4.61169 16.9268L4.50223 17.0372C4.35532 17.184 4.19257 17.3132 4.0255 17.4324C3.94197 17.4919 3.85123 17.5413 3.76481 17.5965C3.67696 17.6488 3.58478 17.6924 3.49404 17.7389C3.12677 17.9132 2.74367 18.0338 2.35767 18.1195C1.58425 18.2837 0.800743 18.3258 0.0258789 18.2692C0.786341 18.1137 1.53816 17.9597 2.25253 17.7302C2.60828 17.6111 2.95539 17.4774 3.27657 17.3045C3.59775 17.1331 3.893 16.9239 4.14505 16.6711C4.39997 16.4213 4.61313 16.1278 4.79893 15.8053C4.9876 15.4857 5.15323 15.1385 5.34047 14.7942C5.52626 14.4499 5.73798 14.107 6.00155 13.8048C6.26368 13.5041 6.5719 13.2455 6.91324 13.0596V13.0639Z" fill="#E0AD25"/>
<path d="M4.40488 14.8848C4.33575 15.3802 4.17876 15.8697 3.92527 16.3157C3.67179 16.7617 3.3074 17.1453 2.88684 17.4402C2.46628 17.7351 1.99099 17.9385 1.50706 18.075C1.02025 18.2058 0.521917 18.2668 0.0250244 18.2741C0.503194 18.1346 0.977043 18.0096 1.43073 17.8353C1.88297 17.661 2.31649 17.4503 2.70537 17.1772C3.09424 16.9055 3.44134 16.5743 3.71643 16.1806C3.99585 15.7884 4.20901 15.3467 4.40632 14.8862L4.40488 14.8848Z" fill="#E0AD25"/>
<path d="M6.6273 12.3935C6.4199 12.5025 6.22979 12.607 6.0584 12.732C5.88556 12.8555 5.73145 12.9964 5.58743 13.1518C5.4434 13.3073 5.30801 13.4758 5.16975 13.6487C5.03148 13.8216 4.89322 14.0002 4.73047 14.1688C4.778 13.9378 4.85721 13.7213 4.95947 13.5136C5.06317 13.3058 5.19279 13.1083 5.35554 12.9339C5.5183 12.7596 5.71561 12.6114 5.93597 12.5155C6.15633 12.4196 6.39398 12.3732 6.6273 12.3949V12.3935Z" fill="#E0AD25"/>
<path d="M39 7.896C38.928 7.28003 38.8214 6.66116 38.6486 6.06989C38.313 4.92947 37.9227 3.80358 37.5597 2.67188C37.5396 2.61232 37.5252 2.55421 37.5165 2.50046C37.4849 2.29998 37.5338 2.12419 37.734 1.93969C37.7686 1.90773 37.8003 1.87432 37.8334 1.84236C38.1963 1.48498 38.5075 1.06949 38.8459 0.681606C38.8214 0.642381 38.7984 0.600248 38.7739 0.55957C38.2756 0.671433 37.747 0.704849 37.2818 0.884991C37.2371 0.902424 37.1925 0.919858 37.1478 0.940197C36.8583 1.0724 36.5775 1.13922 36.2981 1.15811C35.8948 1.19007 35.4958 1.13051 35.0739 1.04915C34.9774 1.03172 34.8794 1.01283 34.78 0.996852C34.5237 0.951817 34.2644 0.912591 34.008 0.882083C33.6595 0.839953 33.311 0.815256 32.961 0.805087C32.1501 0.78039 31.3392 0.844312 30.5284 1.03753C30.4866 1.0477 30.4448 1.05787 30.4031 1.06804C28.3478 1.59248 26.8197 2.90578 25.4543 4.45151C25.0395 4.92075 24.6449 5.41324 24.1941 5.94786C26.6411 5.61227 28.7597 6.40112 29.3502 7.03597C28.306 6.7091 27.2575 6.54494 26.2003 6.51152C25.9123 6.50135 25.6228 6.50281 25.3333 6.51152C24.2862 6.54348 23.242 6.65535 22.2742 7.10716C22.002 7.23355 21.7557 7.41369 21.4979 7.56477C21.5036 7.56913 21.5094 7.57349 21.5152 7.5764C21.6592 7.67954 21.7629 7.69116 21.8623 7.71005C23.0937 7.94975 24.1609 8.49309 24.9545 9.48532C25.0438 9.59718 25.1245 9.71195 25.195 9.82963C25.2109 9.85433 25.2238 9.87902 25.2383 9.90517C25.594 10.5357 25.702 11.2475 25.5263 11.9913C25.4442 12.3414 25.1821 12.5492 25.1763 12.5579C25.1734 12.5536 25.172 12.5477 25.1677 12.5434C25.064 12.3603 24.9344 12.1845 24.8652 11.987C24.7889 11.7676 24.7903 11.5221 24.7241 11.2984C24.5023 10.5633 24.1364 10.4311 23.5488 10.9236C23.0102 11.3768 22.5118 11.8751 22.0149 12.3778C21.361 13.0402 20.6755 13.6635 19.8992 14.1516C19.5607 14.3651 19.2035 14.5525 18.8247 14.7065C18.348 14.8998 17.8295 15.0421 17.3182 15.0915C16.6038 15.1612 16.251 14.6978 16.3792 13.9874C16.4108 13.8131 16.4541 13.6388 16.5045 13.3845C16.4641 13.4049 16.4252 13.4267 16.3878 13.4484C15.7959 13.784 15.3681 14.23 14.9994 14.7138C14.9202 14.8126 14.8482 14.9128 14.7761 15.0145C14.684 15.1467 14.5903 15.2789 14.4996 15.4111C14.3513 15.6232 14.2058 15.8368 14.0589 16.0489C13.5173 16.8319 12.9859 17.6208 12.4357 18.3951C12.1477 18.8004 11.7933 19.1563 11.4722 19.5341C12.2182 18.982 12.924 18.3806 13.5793 17.7326C13.8875 17.4261 14.1871 17.1079 14.4809 16.7883C14.7718 16.4716 15.0584 16.1491 15.3494 15.8339C15.3854 15.7932 15.4228 15.7525 15.4603 15.7118C15.4776 15.7249 15.4948 15.7409 15.5078 15.7467V15.7511L15.4516 15.8716C15.3551 16.075 15.2572 16.2813 15.1593 16.4891C15.1549 16.4978 15.1521 16.5051 15.1477 16.5138C15.0267 16.7709 14.9029 17.0339 14.7733 17.3055L16.382 17.1268C17.4882 16.9525 18.5741 16.784 19.663 16.6387C22.8661 16.2189 25.7351 15.0087 28.2916 13.0271C28.3579 12.9748 28.4083 12.9022 28.5134 12.786C27.8955 12.8034 27.5081 12.5681 27.3569 12.0247C27.1668 11.3463 26.9767 10.6679 26.6396 10.0563C26.6252 10.0287 26.6094 10.0011 26.5935 9.9749C26.451 9.72939 26.2839 9.49404 26.0794 9.27612C26.4481 9.43447 26.7145 9.69452 26.9277 10.0054C26.9464 10.033 26.9637 10.0592 26.9824 10.0868C27.0256 10.1536 27.066 10.2219 27.1048 10.2916C27.3497 10.726 27.5614 11.1792 27.8135 11.6093C28.1534 12.2005 28.633 12.4243 29.2753 12.2252C29.8111 12.0596 30.3325 11.8257 30.8279 11.5642C31.0296 11.4582 31.2298 11.3492 31.43 11.2388L34.1146 10.3657L33.2375 12.0683C33.1929 12.4867 32.9667 12.3603 32.9667 12.3603C32.5505 11.9332 31.9197 12.2543 31.9197 12.2543L31.3882 13.9787L32.2264 13.7477C32.5519 13.6576 32.8458 13.4775 33.0632 13.2189C33.3801 12.8412 33.7531 12.8252 33.7531 12.8252C34.8477 13.0068 34.7656 12.5434 34.829 12.0785C34.8924 11.6136 35.5261 10.0577 35.5261 10.0577C35.5261 10.0577 35.8703 9.72067 35.2006 9.1294C34.5424 8.54684 32.1659 9.18605 32.1083 9.20784C31.9874 9.22963 31.8664 9.24852 31.744 9.26596C31.3724 9.3168 30.995 9.34586 30.6133 9.35603C30.5068 9.35893 30.3987 9.35748 30.2922 9.35893C29.7621 9.36184 29.2278 9.3967 28.885 9.97635C28.9916 9.35603 29.2652 9.02915 29.7722 8.9231C29.8673 8.90277 29.9724 8.89115 30.0862 8.88533C30.4405 8.87371 30.7977 8.88533 31.175 8.88533H31.2154C31.2154 8.36815 31.1333 7.89455 31.0008 7.43548C30.9216 7.16236 30.8251 6.89505 30.7156 6.62775C30.5356 6.18175 30.3671 5.72268 30.2662 5.25344C30.2029 4.94545 30.2662 4.60696 30.2734 4.28445C30.321 4.28445 30.3627 4.28154 30.4088 4.28009C30.38 5.39145 30.8366 6.30088 31.4977 7.15364C31.5783 6.90958 31.623 6.70619 31.7094 6.52024C31.9888 5.93623 32.3762 5.47716 32.9264 5.2331C33.0992 5.1561 33.2865 5.09799 33.4924 5.06603C33.6177 5.04569 33.8727 5.14448 33.8842 5.22002C34.0153 5.98272 34.5553 6.24422 35.2107 6.39821C35.6039 6.49264 36.3024 7.22047 36.5256 7.74782C36.5717 7.85823 36.5976 7.95847 36.5962 8.04273C36.5861 8.42045 36.7906 8.54248 37.0398 8.70374C37.1507 8.77638 37.2587 8.83013 37.3682 8.87081C37.4532 8.90131 37.5338 8.9202 37.6145 8.93037C38.012 8.98557 38.3793 8.8156 38.7192 8.49599C38.7912 8.42335 38.8661 8.32457 38.9165 8.21997C38.9439 8.16767 38.964 8.11537 38.9784 8.06307C38.9928 8.00351 39 7.9483 38.9928 7.89891L39 7.896Z" fill="#E0AD25"/>
</svg>
