<svg width="24" height="24" viewBox="0 0 24 24" fill="none" xmlns="http://www.w3.org/2000/svg">
<mask id="mask0_434_6983" style="mask-type:alpha" maskUnits="userSpaceOnUse" x="0" y="0" width="24" height="24">
<rect width="23.2941" height="23.2941" fill="#FFFFFF"/>
</mask>
<g mask="url(#mask0_434_6983)">
<mask id="mask1_434_6983" style="mask-type:alpha" maskUnits="userSpaceOnUse" x="1" y="1" width="22" height="22">
<rect x="1.72559" y="1.72549" width="20.7059" height="20.7059" fill="#FFFFFF"/>
</mask>
<g mask="url(#mask1_434_6983)">
<path d="M7.89007 12.5036H7.87668V12.517V20.4816H4.26447V12.274L6.88534 7.50197L11.9999 4.06176L17.1144 7.50233L19.7354 12.274V20.4813H16.1228V12.517V12.5036H16.1094H12.1236H12.1102V12.517V20.4813H11.8893V12.517V12.5036H11.8759H7.89007ZM13.6601 9.75731H13.6735L13.6735 9.74392L13.6736 6.42076V6.40737H13.6602H10.3397H10.3263V6.42076V9.74392V9.75731H10.3397H13.6601ZM17.8736 7.08302L17.8736 7.08305L20.9818 12.7433L20.4625 13.0278L20.008 12.2019L20.008 12.2019L19.2126 10.7521L19.2009 10.7585L19.2126 10.7521L17.3243 7.31509L17.3258 7.31429L17.3201 7.31043L12.0075 3.73467L12 3.72963L11.9925 3.73467L6.67991 7.31043L6.67898 7.30904L6.67565 7.31509L4.03639 12.1202L4.03636 12.1202L3.99203 12.2019L3.992 12.202L3.53754 13.0278L3.01819 12.7435L6.12662 7.08305L6.12663 7.08302L6.22661 6.89997L6.3999 6.78517L6.39998 6.78512L12.0001 3.01617L17.6002 6.78512L17.6003 6.78517L17.7736 6.89997L17.8736 7.08302ZM12.989 17.0101L15.2445 17.0102L14.1167 18.1381L12.989 17.0101ZM15.2445 16.0017H12.989L14.1167 14.874L15.2445 16.0017ZM14.4807 18.5019L15.6085 17.3741V19.6268L14.4807 18.5019ZM14.4807 14.5131L15.6085 13.3853V15.6378L14.4807 14.5131ZM15.2445 19.9903H12.989L14.1167 18.8629L15.2445 19.9903ZM12.9339 9.32148H11.0658L11.9999 8.38741L12.9339 9.32148ZM12.3062 8.08385L13.2406 7.14954V9.01522L12.3062 8.08385ZM11.6933 8.08098L10.7592 9.01529V7.14948L11.6933 8.08098ZM11.0658 6.84321H12.9339L11.9999 7.77714L11.0658 6.84321ZM15.2445 13.0212L14.1167 14.1486L12.989 13.0212H15.2445ZM12.625 13.3848L13.7527 14.5098L12.625 15.6374V13.3848ZM10.2473 14.5128L11.3747 13.385V15.6375L10.2473 14.5128ZM11.3747 17.3738V19.6265L10.2473 18.5016L11.3747 17.3738ZM8.39127 13.3848L9.51909 14.5098L8.39127 15.6374V13.3848ZM8.39127 17.3739L9.51909 18.499L8.39127 19.6264V17.3739ZM11.0106 13.0213L9.88319 14.1488L8.75537 13.0213H11.0106ZM8.75522 17.0102H11.0106L9.88319 18.138L8.75522 17.0102ZM12.625 17.3741L13.7527 18.4992L12.625 19.6266V17.3741ZM11.0108 16.0016H8.75537L9.88319 14.8739L11.0108 16.0016ZM11.0108 19.9902H8.75537L9.88333 18.8627L11.0108 19.9902Z" fill="#E0AD25" stroke="black" stroke-width="0.0267861"/>
</g>
</g>
</svg>
