<svg width="39" height="39" viewBox="0 0 39 39" fill="none" xmlns="http://www.w3.org/2000/svg">
<circle cx="19.5" cy="19.5" r="19.5" fill="#303030"/>
<path d="M28.5509 16.4423L22.8489 6.70707L11.3967 6.70235L11.0152 6H9V6.65218L9.37294 6.86892L9 7.05918V16.4413H10.2958C10.2987 16.217 10.3469 16.0182 10.4009 15.8072C10.6517 14.837 11.6513 14.5322 12.1416 14.5322C12.7265 14.5322 13.3399 14.6675 13.8028 15.3566C13.9968 15.6453 14.1094 16.1044 14.1189 16.4413H24.2602C24.2895 16.0466 24.4059 15.6141 24.6454 15.2989C25.1225 14.6722 25.6431 14.4659 26.3946 14.5293C26.6729 14.553 27.1897 14.641 27.6441 15.1029C28.1675 15.6358 28.194 16.3827 28.177 16.4413H28.5509V16.4423Z" fill="#D0D3D6"/>
<path d="M10.4771 13.2645H9.00049V13.0165H22.9081V13.2645H14.1194" fill="#11171F"/>
<path d="M28.5506 16.4424C29.1403 16.4424 30.1322 16.4424 30.1322 16.4424C30.4048 15.7249 30.3376 14.2114 30.3376 14.2114C30.314 14.0827 30.1938 13.9151 30.1938 13.9151L30.1398 13.8801L30.1124 13.8621C30.243 13.1172 29.7479 12.9203 29.5889 12.7698C29.5804 12.7613 29.5681 12.7585 29.5586 12.7518C29.4091 12.6477 29.4687 12.6894 29.4659 12.6875C29.1431 12.4584 28.5932 12.1707 28.2846 12.0353C28.136 11.97 28.029 11.8763 27.9239 11.7523L27.3778 11.1796C26.8155 10.5492 26.0195 9.76359 26.0195 9.76359C26.3981 9.66704 26.33 9.58944 26.33 9.58944C26.029 8.02764 25.7961 7.97936 25.7961 7.97936C25.0976 7.3395 24.0791 6.90313 24.0791 6.90313C23.9191 6.83971 23.1846 6.74316 22.9328 6.71287C22.8779 6.70625 22.8467 6.70813 22.8467 6.70813" fill="#D0D3D6"/>
<path d="M12.2197 17.3539C12.7221 17.3539 13.1293 16.9466 13.1293 16.4442C13.1293 15.9419 12.7221 15.5346 12.2197 15.5346C11.7173 15.5346 11.3101 15.9419 11.3101 16.4442C11.3101 16.9466 11.7173 17.3539 12.2197 17.3539Z" fill="white" stroke="white" stroke-width="0.85189" stroke-miterlimit="10"/>
<path fill-rule="evenodd" clip-rule="evenodd" d="M10.5464 16.4424C10.5464 17.3682 11.297 18.1178 12.2189 18.1178C13.1446 18.1178 13.8943 17.3322 13.8943 16.4065C13.8943 15.4845 13.1437 14.7699 12.2189 14.7699C11.296 14.7699 10.5464 15.5205 10.5464 16.4424Z" fill="#D0D3D6"/>
<path d="M12.2197 17.3539C12.7221 17.3539 13.1293 16.9466 13.1293 16.4442C13.1293 15.9419 12.7221 15.5346 12.2197 15.5346C11.7173 15.5346 11.3101 15.9419 11.3101 16.4442C11.3101 16.9466 11.7173 17.3539 12.2197 17.3539Z" stroke="#11171F" stroke-width="0.283963" stroke-miterlimit="10"/>
<path d="M12.2199 16.6694C12.3443 16.6694 12.4452 16.5686 12.4452 16.4442C12.4452 16.3197 12.3443 16.2189 12.2199 16.2189C12.0955 16.2189 11.9946 16.3197 11.9946 16.4442C11.9946 16.5686 12.0955 16.6694 12.2199 16.6694Z" fill="#11171F"/>
<path d="M12.8985 8.28687H10.6211V11.3158H12.8985V8.28687Z" fill="#11171F"/>
<path d="M23.163 16.4423H22.9141V6.70703L23.0892 6.72975L23.163 6.74112V16.4423Z" fill="#11171F"/>
<path d="M29.6687 13.7747C29.5646 13.9546 29.1452 13.7814 28.742 13.5485C28.3388 13.3157 28.14 13.0942 28.1618 12.8755C28.1731 12.7629 28.3435 12.6559 28.5319 12.6853C28.689 12.7099 28.8972 12.8661 29.0799 12.9721C29.3317 13.1178 29.5996 13.2873 29.681 13.4491C29.7293 13.5466 29.7075 13.7066 29.6687 13.7747Z" fill="#11171F"/>
<path d="M26.0212 9.92252H22.9648V9.61302H26.0212L26.3317 9.58936C26.3317 9.58936 26.3355 9.59408 26.3364 9.6026C26.3374 9.61112 26.3336 9.62248 26.3222 9.63668C26.3166 9.64331 26.3061 9.65183 26.2938 9.66035C26.2825 9.66792 26.2692 9.67549 26.2588 9.68117C26.238 9.69158 26.2285 9.69536 26.221 9.69915C26.1973 9.7105 26.15 9.72754 26.1064 9.74079C26.0619 9.75404 26.0212 9.76351 26.0212 9.76351L26.1803 9.92157H26.0212V9.92252Z" fill="black"/>
<path d="M28.9228 12.3547H23.1631V12.102H28.4316L28.5461 12.1578L28.6578 12.2137L28.8092 12.2932L28.9228 12.3547Z" fill="#11171F"/>
<path d="M28.0665 12.0153H23.2817V10.0778H26.1867L28.0665 12.0153Z" fill="#11171F"/>
<path d="M26.1616 17.3286C26.664 17.3286 27.0712 16.9214 27.0712 16.419C27.0712 15.9166 26.664 15.5093 26.1616 15.5093C25.6592 15.5093 25.252 15.9166 25.252 16.419C25.252 16.9214 25.6592 17.3286 26.1616 17.3286Z" fill="white" stroke="white" stroke-width="0.85189" stroke-miterlimit="10"/>
<path fill-rule="evenodd" clip-rule="evenodd" d="M24.4868 16.4166C24.4868 17.3423 25.2374 18.092 26.1594 18.092C27.0851 18.092 27.8348 17.3064 27.8348 16.3807C27.8348 15.4587 27.0841 14.7441 26.1594 14.7441C25.2374 14.7441 24.4868 15.4947 24.4868 16.4166Z" fill="#D0D3D6"/>
<path d="M26.1616 17.3286C26.664 17.3286 27.0712 16.9214 27.0712 16.419C27.0712 15.9166 26.664 15.5093 26.1616 15.5093C25.6592 15.5093 25.252 15.9166 25.252 16.419C25.252 16.9214 25.6592 17.3286 26.1616 17.3286Z" stroke="#11171F" stroke-width="0.283963" stroke-miterlimit="10"/>
<path d="M26.1613 16.6436C26.2857 16.6436 26.3866 16.5428 26.3866 16.4183C26.3866 16.2939 26.2857 16.1931 26.1613 16.1931C26.0369 16.1931 25.936 16.2939 25.936 16.4183C25.936 16.5428 26.0369 16.6436 26.1613 16.6436Z" fill="#11171F"/>
<rect x="13.4849" y="22.4266" width="0.970588" height="0.970588" fill="#D0D3D6"/>
<rect x="15.4263" y="22.4266" width="0.970588" height="0.970588" fill="#D0D3D6"/>
<mask id="mask0_737_6355" style="mask-type:alpha" maskUnits="userSpaceOnUse" x="13" y="20" width="13" height="6">
<rect x="13" y="20" width="12.6176" height="5.82353" fill="#D0D3D6"/>
</mask>
<g mask="url(#mask0_737_6355)">
<path d="M22.2206 25.8235L21.5412 25.1199L23.264 23.3971H17.3677V22.4265H23.264L21.5412 20.7037L22.2206 20L25.1324 22.9118L22.2206 25.8235Z" fill="#D0D3D6"/>
</g>
<rect width="0.970588" height="0.970588" transform="matrix(-1 0 0 1 25.5151 28.7354)" fill="#D0D3D6"/>
<rect width="0.970588" height="0.970588" transform="matrix(-1 0 0 1 23.5737 28.7354)" fill="#D0D3D6"/>
<mask id="mask1_737_6355" style="mask-type:alpha" maskUnits="userSpaceOnUse" x="13" y="26" width="13" height="7">
<rect width="12.6176" height="5.82353" transform="matrix(-1 0 0 1 26 26.3088)" fill="#D0D3D6"/>
</mask>
<g mask="url(#mask1_737_6355)">
<path d="M16.7794 32.1324L17.4588 31.4287L15.736 29.7059H21.6323V28.7353H15.736L17.4588 27.0125L16.7794 26.3088L13.8676 29.2206L16.7794 32.1324Z" fill="#D0D3D6"/>
</g>
</svg>
