<svg width="23" height="20" viewBox="0 0 23 20" fill="none" xmlns="http://www.w3.org/2000/svg">
<path d="M8.53337 19.2523H7.32641C7.20513 19.2523 7.0858 19.2218 6.97933 19.1638C6.87286 19.1057 6.78264 19.0219 6.71693 18.9199C6.65121 18.818 6.6121 18.7012 6.60317 18.5803C6.59424 18.4593 6.61577 18.3381 6.6658 18.2276L9.58844 11.7779L5.19994 11.6805L3.59942 13.6197C3.29428 14.0032 3.0508 14.1742 2.42964 14.1742H1.61714C1.4885 14.1783 1.36075 14.1514 1.24473 14.0957C1.12871 14.0399 1.02782 13.9571 0.950636 13.8541C0.842726 13.7085 0.736629 13.4619 0.840006 13.11L1.73865 9.89087C1.74545 9.86683 1.75362 9.8428 1.76268 9.81923C1.76314 9.81698 1.76314 9.81467 1.76268 9.81243C1.75332 9.78887 1.7453 9.7648 1.73865 9.74034L0.839099 6.50076C0.741617 6.15572 0.848167 5.91451 0.95517 5.77259C1.02702 5.67725 1.12025 5.6001 1.22734 5.54734C1.33444 5.49458 1.45242 5.46768 1.5718 5.46881H2.42964C2.89347 5.46881 3.3437 5.67693 3.60849 6.0129L5.17591 7.91946L9.58844 7.85417L6.6667 1.41583C6.61661 1.30541 6.59499 1.18418 6.60383 1.06325C6.61267 0.942314 6.65168 0.825524 6.7173 0.723555C6.78292 0.621586 6.87305 0.537693 6.97946 0.479543C7.08586 0.421394 7.20515 0.390844 7.32641 0.390686H8.54652C8.71674 0.394107 8.884 0.435828 9.03588 0.512752C9.18777 0.589675 9.32037 0.699825 9.42385 0.835022L15.0937 7.72677L17.713 7.65785C17.9048 7.64742 18.4362 7.64379 18.559 7.64379C21.0646 7.64515 22.5608 8.45856 22.5608 9.8215C22.5608 10.2504 22.3894 11.0457 21.2427 11.5517C20.5658 11.8509 19.6626 12.0024 18.5581 12.0024C18.4366 12.0024 17.9066 11.9987 17.7121 11.9883L15.0932 11.9185L9.40935 18.8102C9.30578 18.9448 9.17329 19.0544 9.02167 19.131C8.87005 19.2075 8.70317 19.2489 8.53337 19.2523Z" fill="#E0AD25"/>
</svg>
