<svg width="25" height="22" viewBox="0 0 25 22" fill="none" xmlns="http://www.w3.org/2000/svg">
<path d="M9.04329 21.6273H7.69041C7.55447 21.6273 7.42072 21.5932 7.30137 21.5281C7.18203 21.463 7.0809 21.369 7.00725 21.2548C6.93359 21.1405 6.88975 21.0096 6.87974 20.8741C6.86973 20.7385 6.89386 20.6026 6.94993 20.4787L10.2259 13.2493L5.30686 13.14L3.51284 15.3137C3.17081 15.7437 2.89789 15.9353 2.20163 15.9353H1.2909C1.1467 15.9399 1.00351 15.9097 0.873462 15.8472C0.743412 15.7848 0.630335 15.6919 0.543815 15.5765C0.422858 15.4133 0.303935 15.1368 0.419809 14.7425L1.4271 11.1341C1.43473 11.1072 1.44387 11.0802 1.45404 11.0538C1.45454 11.0513 1.45454 11.0487 1.45404 11.0462C1.44354 11.0198 1.43455 10.9928 1.4271 10.9654L0.418793 7.33413C0.309525 6.94738 0.428957 6.677 0.548897 6.51793C0.629438 6.41106 0.73393 6.32458 0.853974 6.26544C0.974017 6.2063 1.10626 6.17615 1.24008 6.17742H2.20163C2.72154 6.17742 3.2262 6.41069 3.523 6.78729L5.27992 8.92435L10.2259 8.85117L6.95095 1.63444C6.8948 1.51066 6.87057 1.37478 6.88048 1.23923C6.89039 1.10367 6.93411 0.972761 7.00767 0.858464C7.08122 0.744167 7.18225 0.650131 7.30152 0.584951C7.42079 0.519772 7.55449 0.485528 7.69041 0.485352L9.05803 0.485352C9.24883 0.489186 9.43631 0.535951 9.60656 0.622175C9.77681 0.708398 9.92545 0.831865 10.0414 0.983408L16.3967 8.70836L19.3327 8.63111C19.5477 8.61942 20.1433 8.61536 20.2811 8.61536C23.0895 8.61688 24.7666 9.52863 24.7666 11.0563C24.7666 11.5371 24.5745 12.4285 23.2892 12.9957C22.5304 13.3311 21.5181 13.5009 20.28 13.5009C20.1438 13.5009 19.5497 13.4968 19.3317 13.4851L16.3962 13.4069L10.0252 21.1318C9.90909 21.2827 9.76058 21.4055 9.59063 21.4913C9.42068 21.5771 9.23362 21.6236 9.04329 21.6273Z" fill="#8B9299"/>
</svg>
