<svg width="42" height="42" viewBox="0 0 42 42" fill="none" xmlns="http://www.w3.org/2000/svg">
<path fill-rule="evenodd" clip-rule="evenodd" d="M41.9273 20.9636C41.9273 32.5415 32.5415 41.9273 20.9636 41.9273C9.38574 41.9273 0 32.5415 0 20.9636C0 9.38574 9.38574 0 20.9636 0C32.5415 0 41.9273 9.38574 41.9273 20.9636ZM27.5154 14.4126C27.5154 18.0307 24.5824 20.9637 20.9643 20.9637C17.3462 20.9637 14.4131 18.0307 14.4131 14.4126C14.4131 10.7945 17.3462 7.86142 20.9643 7.86142C24.5824 7.86142 27.5154 10.7945 27.5154 14.4126ZM20.9634 26.2045C15.8309 26.2045 11.2728 28.6637 8.40321 32.4682C11.5171 35.8661 15.9917 37.9966 20.9639 37.9966C25.9358 37.9966 30.4102 35.8664 33.5241 32.4688C30.6545 28.664 26.0962 26.2045 20.9634 26.2045Z" fill="white"/>
</svg>
