<svg width="20" height="20" viewBox="0 0 20 20" fill="none" xmlns="http://www.w3.org/2000/svg">
<circle cx="10" cy="10" r="10" fill="#E0AD25"/>
<path fill-rule="evenodd" clip-rule="evenodd" d="M5.7147 6.42857C5.33582 6.42857 4.97246 6.57908 4.70455 6.84699C4.43664 7.1149 4.28613 7.47826 4.28613 7.85714V13.5714C4.28613 13.9503 4.43664 14.3137 4.70455 14.5816C4.97246 14.8495 5.33582 15 5.7147 15H14.2861C14.665 15 15.0284 14.8495 15.2963 14.5816C15.5642 14.3137 15.7147 13.9503 15.7147 13.5714V7.85714C15.7147 7.47826 15.5642 7.1149 15.2963 6.84699C15.0284 6.57908 14.665 6.42857 14.2861 6.42857H13.1533C12.9639 6.42853 12.7822 6.35325 12.6483 6.21929L11.8476 5.41857C11.5797 5.15064 11.2164 5.00008 10.8376 5H9.16328C8.78443 5.00008 8.42112 5.15064 8.15328 5.41857L7.35256 6.21929C7.21864 6.35325 7.03699 6.42853 6.84756 6.42857H5.7147ZM10.0004 12.8571C10.2818 12.8571 10.5605 12.8017 10.8205 12.694C11.0804 12.5863 11.3167 12.4285 11.5156 12.2295C11.7146 12.0305 11.8725 11.7943 11.9802 11.5343C12.0878 11.2743 12.1433 10.9957 12.1433 10.7143C12.1433 10.4329 12.0878 10.1542 11.9802 9.89425C11.8725 9.63427 11.7146 9.39804 11.5156 9.19906C11.3167 9.00007 11.0804 8.84223 10.8205 8.73454C10.5605 8.62686 10.2818 8.57143 10.0004 8.57143C9.4321 8.57143 8.88705 8.79719 8.48519 9.19906C8.08333 9.60092 7.85756 10.146 7.85756 10.7143C7.85756 11.2826 8.08333 11.8277 8.48519 12.2295C8.88705 12.6314 9.4321 12.8571 10.0004 12.8571Z" fill="white"/>
</svg>
