<svg width="22" height="12" viewBox="0 0 22 12" fill="none" xmlns="http://www.w3.org/2000/svg">
<g id="Group 564">
<path id="Vector" d="M19.361 10.3409L13.7144 0.7002L2.37338 0.695532L1.99563 0H0V0.645849L0.369323 0.860484L0 1.04889V10.34H1.28324C1.28605 10.1178 1.33386 9.92096 1.38729 9.71193C1.63568 8.75114 2.62553 8.44932 3.11108 8.44932C3.69036 8.44932 4.29777 8.58335 4.75613 9.26575C4.94829 9.55164 5.05983 10.0063 5.06921 10.34H15.112C15.1411 9.94907 15.2563 9.5207 15.4935 9.20856C15.9659 8.58803 16.4815 8.3837 17.2257 8.4465C17.5013 8.46994 18.0131 8.55711 18.463 9.01454C18.9814 9.54227 19.0076 10.2818 18.9908 10.34H19.361V10.3409Z" fill="white"/>
<path id="Vector_2" d="M1.46325 7.19406H0.000976562V6.94849H13.7735V7.19406H5.07018" fill="#8E8E93"/>
<path id="Vector_3" d="M19.3614 10.3409C19.9453 10.3409 20.9277 10.3409 20.9277 10.3409C21.1976 9.63041 21.1311 8.13158 21.1311 8.13158C21.1077 8.0041 20.9886 7.8382 20.9886 7.8382L20.9352 7.8035L20.908 7.7857C21.0374 7.048 20.5471 6.85303 20.3896 6.70399C20.3812 6.69555 20.369 6.69275 20.3597 6.68618C20.2116 6.58308 20.2706 6.62433 20.2678 6.62245C19.9482 6.39561 19.4036 6.11064 19.098 5.9766C18.9508 5.91192 18.8449 5.81913 18.7408 5.69633L18.2 5.12923C17.6432 4.50495 16.8549 3.72695 16.8549 3.72695C17.2298 3.63134 17.1623 3.5545 17.1623 3.5545C16.8643 2.00786 16.6337 1.96006 16.6337 1.96006C15.9419 1.32641 14.9333 0.894275 14.9333 0.894275C14.7749 0.831472 14.0475 0.735861 13.7982 0.705866C13.7438 0.699304 13.7129 0.701174 13.7129 0.701174" fill="white"/>
<path id="Vector_4" d="M3.18888 11.2435C3.68637 11.2435 4.08967 10.8402 4.08967 10.3427C4.08967 9.84521 3.68637 9.44189 3.18888 9.44189C2.69138 9.44189 2.28809 9.84521 2.28809 10.3427C2.28809 10.8402 2.69138 11.2435 3.18888 11.2435Z" fill="white" stroke="white" stroke-width="0.843617" stroke-miterlimit="10"/>
<path id="Vector_5" fill-rule="evenodd" clip-rule="evenodd" d="M1.53125 10.3409C1.53125 11.2576 2.27456 12 3.18754 12C4.10427 12 4.84666 11.222 4.84666 10.3052C4.84666 9.39225 4.10334 8.68457 3.18754 8.68457C2.27363 8.68457 1.53125 9.42788 1.53125 10.3409Z" fill="white"/>
<path id="Vector_6" d="M3.18888 11.2435C3.68637 11.2435 4.08967 10.8402 4.08967 10.3427C4.08967 9.84521 3.68637 9.44189 3.18888 9.44189C2.69138 9.44189 2.28809 9.84521 2.28809 10.3427C2.28809 10.8402 2.69138 11.2435 3.18888 11.2435Z" stroke="#8E8E93" stroke-width="0.281206" stroke-miterlimit="10"/>
<path id="Vector_7" d="M3.18891 10.5658C3.31212 10.5658 3.412 10.4659 3.412 10.3427C3.412 10.2195 3.31212 10.1196 3.18891 10.1196C3.0657 10.1196 2.96582 10.2195 2.96582 10.3427C2.96582 10.4659 3.0657 10.5658 3.18891 10.5658Z" fill="#8E8E93"/>
<path id="Vector_8" d="M3.86074 2.26465H1.60547V5.26418H3.86074V2.26465Z" fill="#8E8E93"/>
<path id="Vector_9" d="M14.0258 10.3409H13.7793V0.700195L13.9527 0.722691L14.0258 0.73395V10.3409Z" fill="#8E8E93"/>
<path id="Vector_10" d="M20.4675 7.69948C20.3644 7.87758 19.9491 7.70603 19.5498 7.47544C19.1505 7.24486 18.9537 7.02553 18.9752 6.809C18.9865 6.69745 19.1552 6.59153 19.3417 6.62059C19.4973 6.64496 19.7035 6.79963 19.8845 6.90461C20.1338 7.04896 20.3991 7.21673 20.4797 7.37702C20.5275 7.47356 20.5059 7.63199 20.4675 7.69948Z" fill="#8E8E93"/>
<path id="Vector_11" d="M16.8568 3.88437H13.8301V3.57788H16.8568L17.1642 3.55444C17.1642 3.55444 17.168 3.55912 17.1689 3.56756C17.1699 3.57599 17.1661 3.58725 17.1549 3.60131C17.1492 3.60787 17.1389 3.61631 17.1267 3.62474C17.1155 3.63224 17.1024 3.63974 17.0921 3.64536C17.0714 3.65567 17.0621 3.65942 17.0546 3.66317C17.0311 3.67442 16.9843 3.69128 16.9412 3.70441C16.8971 3.71753 16.8568 3.7269 16.8568 3.7269L17.0143 3.88343H16.8568V3.88437Z" fill="#8E8E93"/>
<path id="Vector_12" d="M19.7292 6.2935H14.0254V6.04321H19.2427L19.3561 6.09852L19.4667 6.15384L19.6167 6.23256L19.7292 6.2935Z" fill="#8E8E93"/>
<path id="Vector_13" d="M18.8809 5.95685H14.1426V4.03809H17.0193L18.8809 5.95685Z" fill="#8E8E93"/>
<path id="Vector_14" d="M16.9955 11.2181C17.493 11.2181 17.8963 10.8148 17.8963 10.3173C17.8963 9.81981 17.493 9.4165 16.9955 9.4165C16.498 9.4165 16.0947 9.81981 16.0947 10.3173C16.0947 10.8148 16.498 11.2181 16.9955 11.2181Z" fill="white" stroke="white" stroke-width="0.843617" stroke-miterlimit="10"/>
<path id="Vector_15" fill-rule="evenodd" clip-rule="evenodd" d="M15.3369 10.3155C15.3369 11.2322 16.0802 11.9746 16.9932 11.9746C17.9099 11.9746 18.6523 11.1966 18.6523 10.2799C18.6523 9.36689 17.909 8.65918 16.9932 8.65918C16.0802 8.65918 15.3369 9.40249 15.3369 10.3155Z" fill="white"/>
<path id="Vector_16" d="M16.9955 11.2181C17.493 11.2181 17.8963 10.8148 17.8963 10.3173C17.8963 9.81981 17.493 9.4165 16.9955 9.4165C16.498 9.4165 16.0947 9.81981 16.0947 10.3173C16.0947 10.8148 16.498 11.2181 16.9955 11.2181Z" stroke="#8E8E93" stroke-width="0.281206" stroke-miterlimit="10"/>
<path id="Vector_17" d="M16.9956 10.5404C17.1188 10.5404 17.2186 10.4405 17.2186 10.3173C17.2186 10.1941 17.1188 10.0942 16.9956 10.0942C16.8723 10.0942 16.7725 10.1941 16.7725 10.3173C16.7725 10.4405 16.8723 10.5404 16.9956 10.5404Z" fill="#8E8E93"/>
</g>
</svg>
