<svg width="23" height="14" viewBox="0 0 23 14" fill="none" xmlns="http://www.w3.org/2000/svg">
<g clip-path="url(#clip0_2325_1541)">
<path d="M21.1953 9.8501L21.1953 11.2555L5.69078 11.2555L5.69078 9.8501L21.1953 9.8501Z" fill="#8C8C8C"/>
<path d="M18.3941 7.73567C18.6684 7.45942 19.1145 7.4574 19.3913 7.73071L22.2153 10.5183L19.3913 13.3053C19.1145 13.5786 18.6684 13.5758 18.3941 13.3003C18.12 13.0243 18.1228 12.5794 18.3991 12.3068L20.211 10.519L18.3991 8.7307C18.122 8.45586 18.12 8.01118 18.3941 7.73567ZM4.28152 9.85015L4.28152 11.2556L2.87202 11.2556L2.87202 9.85015L4.28152 9.85015ZM1.46251 9.85015L1.46251 11.2556L0.0530114 11.2556L0.0530114 9.85015L1.46251 9.85015Z" fill="#8C8C8C"/>
<path d="M16.9668 2.823L16.9668 4.2284L1.46227 4.2284L1.46227 2.823L16.9668 2.823Z" fill="#8C8C8C"/>
<path d="M0.460585 3.4902L3.28439 0.702492C3.5607 0.429888 4.00685 0.431952 4.28095 0.708158C4.55506 0.984364 4.55228 1.42922 4.27598 1.70182L2.46419 3.49016L4.27598 5.27779C4.55228 5.55193 4.55506 5.99679 4.28095 6.27212C4.00685 6.54837 3.5607 6.55039 3.28373 6.27712L0.460585 3.4902ZM19.7855 2.82268L19.7855 4.22808L18.376 4.22808L18.376 2.82268L19.7855 2.82268ZM22.6045 2.82268L22.6045 4.22808L21.195 4.22808L21.195 2.82268L22.6045 2.82268Z" fill="#8C8C8C"/>
</g>
<defs>
<clipPath id="clip0_2325_1541">
<rect width="13" height="22.552" fill="white" transform="translate(22.6045 0.5) rotate(90)"/>
</clipPath>
</defs>
</svg>
