<svg width="24" height="24" viewBox="0 0 24 24" fill="none" xmlns="http://www.w3.org/2000/svg">
<g id="heroicons-mini/user-circle">
<path id="Subtract" fill-rule="evenodd" clip-rule="evenodd" d="M21.2316 11.7955C21.2316 17.0071 17.0068 21.2319 11.7952 21.2319C6.58369 21.2319 2.35889 17.0071 2.35889 11.7955C2.35889 6.58393 6.58369 2.35913 11.7952 2.35913C17.0068 2.35913 21.2316 6.58393 21.2316 11.7955ZM14.7443 8.84659C14.7443 10.4752 13.4241 11.7955 11.7955 11.7955C10.1668 11.7955 8.84659 10.4752 8.84659 8.84659C8.84659 7.21798 10.1668 5.89773 11.7955 5.89773C13.4241 5.89773 14.7443 7.21798 14.7443 8.84659ZM11.7953 14.1545C9.48495 14.1545 7.43318 15.2616 6.14148 16.9741C7.54313 18.5036 9.55723 19.4625 11.7953 19.4625C14.0334 19.4625 16.0474 18.5036 17.4491 16.9741C16.1574 15.2616 14.1056 14.1545 11.7953 14.1545Z" fill="#8B9299"/>
</g>
</svg>
