<svg width="34" height="19" viewBox="0 0 34 19" fill="none" xmlns="http://www.w3.org/2000/svg">
<path d="M3.33652 16.3686H1.06982V2.49102L1.62181 2.20885L1.06982 1.88783V0.923409H2.99695H4.05039L4.6144 1.96172L21.5691 1.96894" stroke="white" stroke-width="0.8" stroke-miterlimit="10"/>
<path d="M24.1726 16.3686H8.34863" stroke="white" stroke-width="0.8" stroke-miterlimit="10"/>
<path d="M29.9874 16.3686H28.9512" stroke="white" stroke-width="0.8" stroke-miterlimit="10"/>
<path d="M22.017 2.19889H21.6499V16.3686H22.017V2.19889Z" fill="white" stroke="white" stroke-width="0.13748" stroke-miterlimit="10"/>
<path d="M21.6416 11.6688V11.3017L1.00003 11.3017V11.6688L21.6416 11.6688Z" fill="white" stroke="white" stroke-width="0.13748" stroke-miterlimit="10"/>
<path d="M26.4826 6.26662H21.7251V6.72443H26.4826V6.26662Z" fill="white" stroke="white" stroke-width="0.13748" stroke-miterlimit="10"/>
<path d="M29.9872 16.3686C30.8599 16.3686 32.3275 16.3686 32.3275 16.3686C32.7306 15.3073 32.6316 13.0684 32.6316 13.0684C32.5962 12.8777 32.4192 12.6299 32.4192 12.6299L32.3398 12.5787L32.2989 12.5522C32.4921 11.4503 31.7604 11.1595 31.5242 10.9358C31.5115 10.9238 31.4933 10.9196 31.4789 10.9097C31.2572 10.7553 31.3462 10.8179 31.3424 10.8151C30.865 10.4769 30.0522 10.0501 29.5957 9.85072C29.3754 9.75449 29.218 9.61529 29.062 9.43278L28.255 8.58522C27.4229 7.65276 26.2464 6.49072 26.2464 6.49072C26.8059 6.34705 26.7056 6.2326 26.7056 6.2326C26.2608 3.92259 25.9164 3.85076 25.9164 3.85076C24.8836 2.90386 23.3772 2.2584 23.3772 2.2584C23.1411 2.16388 22.0543 2.02159 21.6814 1.97691C21.6009 1.96728 21.5542 1.96969 21.5542 1.96969" stroke="white" stroke-width="0.8" stroke-miterlimit="10"/>
<path d="M5.87229 17.5544C6.52717 17.5544 7.05805 17.0235 7.05805 16.3686C7.05805 15.7138 6.52717 15.1829 5.87229 15.1829C5.21741 15.1829 4.68652 15.7138 4.68652 16.3686C4.68652 17.0235 5.21741 17.5544 5.87229 17.5544Z" stroke="white" stroke-width="0.30933" stroke-miterlimit="10"/>
<path fill-rule="evenodd" clip-rule="evenodd" d="M3.68896 16.3666C3.68896 17.5736 4.66748 18.5522 5.87008 18.5522C7.07716 18.5522 8.05567 17.5269 8.05567 16.3198C8.05567 15.1172 7.07716 14.1851 5.87008 14.1851C4.66748 14.1851 3.68896 15.164 3.68896 16.3666Z" stroke="white" stroke-width="0.859249" stroke-miterlimit="10"/>
<path d="M5.87229 17.5544C6.52717 17.5544 7.05805 17.0235 7.05805 16.3686C7.05805 15.7138 6.52717 15.1829 5.87229 15.1829C5.21741 15.1829 4.68652 15.7138 4.68652 16.3686C4.68652 17.0235 5.21741 17.5544 5.87229 17.5544Z" stroke="white" stroke-width="0.30933" stroke-miterlimit="10"/>
<path d="M5.87233 16.6628C6.03482 16.6628 6.16654 16.5311 6.16654 16.3686C6.16654 16.2062 6.03482 16.0744 5.87233 16.0744C5.70985 16.0744 5.57812 16.2062 5.57812 16.3686C5.57812 16.5311 5.70985 16.6628 5.87233 16.6628Z" stroke="white" stroke-width="0.30933" stroke-miterlimit="10"/>
<path d="M26.4973 17.5544C27.1522 17.5544 27.6831 17.0235 27.6831 16.3686C27.6831 15.7138 27.1522 15.1829 26.4973 15.1829C25.8424 15.1829 25.3115 15.7138 25.3115 16.3686C25.3115 17.0235 25.8424 17.5544 26.4973 17.5544Z" stroke="white" stroke-width="0.30933" stroke-miterlimit="10"/>
<path fill-rule="evenodd" clip-rule="evenodd" d="M24.3145 16.3666C24.3145 17.5736 25.293 18.5522 26.4956 18.5522C27.7026 18.5522 28.6812 17.5269 28.6812 16.3198C28.6812 15.1172 27.7026 14.1851 26.4956 14.1851C25.293 14.1851 24.3145 15.164 24.3145 16.3666Z" stroke="white" stroke-width="0.859249" stroke-miterlimit="10"/>
<path d="M26.4973 17.5544C27.1522 17.5544 27.6831 17.0235 27.6831 16.3686C27.6831 15.7138 27.1522 15.1829 26.4973 15.1829C25.8424 15.1829 25.3115 15.7138 25.3115 16.3686C25.3115 17.0235 25.8424 17.5544 26.4973 17.5544Z" stroke="white" stroke-width="0.30933" stroke-miterlimit="10"/>
<path d="M26.4973 16.6628C26.6598 16.6628 26.7915 16.5311 26.7915 16.3686C26.7915 16.2062 26.6598 16.0744 26.4973 16.0744C26.3348 16.0744 26.2031 16.2062 26.2031 16.3686C26.2031 16.5311 26.3348 16.6628 26.4973 16.6628Z" stroke="white" stroke-width="0.30933" stroke-miterlimit="10"/>
<path d="M6.83609 4.30512H3.4668V8.7849H6.83609V4.30512Z" stroke="white" stroke-width="0.3437" stroke-miterlimit="10"/>
<path d="M31.232 12.6181C31.0783 12.8845 30.4573 12.6284 29.8606 12.2841C29.264 11.9397 28.9701 11.6125 29.0024 11.289C29.0189 11.122 29.2712 10.9639 29.5503 11.0072C29.7823 11.0433 30.0902 11.2746 30.361 11.431C30.734 11.6462 31.1296 11.8967 31.2499 12.1373C31.322 12.281 31.2894 12.5181 31.232 12.6181Z" fill="white"/>
<path d="M30.1282 9.93697H21.7251V10.3346H30.1282V9.93697Z" fill="white"/>
</svg>
