<svg width="32" height="24" viewBox="0 0 32 24" fill="none" xmlns="http://www.w3.org/2000/svg">
<g clip-path="url(#clip0_120_48489)">
<path d="M3.63505 16.3732C2.49982 14.6979 3.30099 13.3894 3.30099 13.3894C3.11485 13.3343 2.51953 13.7245 2.51953 13.7245C2.85436 12.4974 4.69601 11.4549 4.69601 11.4549C4.49157 11.3801 3.91481 11.5287 3.91481 11.5287C5.4215 10.0786 7.26337 10.6178 7.26337 10.6178C7.31894 10.3013 8.23092 9.74352 8.23092 9.74352C8.13764 9.83591 8.10002 10.3389 8.10002 10.3389C8.19304 10.1712 8.49119 10.0038 8.49119 10.0038C8.3239 10.394 8.49119 11.2309 8.49119 11.2309C8.9748 11.715 9.51411 13.3895 9.51411 13.3895L9.71932 13.687C9.97984 14.0596 9.88408 14.6454 9.62603 14.7843C8.65899 15.3064 8.56545 14.3568 8.56545 14.3568C7.76544 14.2637 7.17008 13.3705 7.17008 13.3705C6.09146 13.9284 6.69221 15.5025 7.15794 16.1069C7.75634 16.8817 7.31818 18.135 7.31818 18.135C7.31818 18.135 4.75599 18.0289 3.63505 16.3732Z" fill="white"/>
</g>
<g clip-path="url(#clip1_120_48489)">
<path d="M12.1507 16.4279C11.0154 14.7526 11.8166 13.4441 11.8166 13.4441C11.6305 13.389 11.0352 13.7791 11.0352 13.7791C11.37 12.5521 13.2116 11.5096 13.2116 11.5096C13.0072 11.4348 12.4304 11.5834 12.4304 11.5834C13.9371 10.1333 15.779 10.6725 15.779 10.6725C15.8346 10.356 16.7465 9.79821 16.7465 9.79821C16.6533 9.8906 16.6156 10.3936 16.6156 10.3936C16.7087 10.2259 17.0068 10.0585 17.0068 10.0585C16.8395 10.4487 17.0068 11.2856 17.0068 11.2856C17.4904 11.7697 18.0297 13.4441 18.0297 13.4441L18.2349 13.7417C18.4955 14.1143 18.3997 14.7001 18.1417 14.839C17.1746 15.3611 17.0811 14.4114 17.0811 14.4114C16.2811 14.3184 15.6857 13.4252 15.6857 13.4252C14.6071 13.9831 15.2078 15.5571 15.6736 16.1616C16.272 16.9363 15.8338 18.1897 15.8338 18.1897C15.8338 18.1897 13.2716 18.0836 12.1507 16.4279Z" fill="white"/>
</g>
<path d="M7.4161 17.2764C5.66325 17.2764 4.23779 18.7001 4.23779 20.4508C4.23779 22.2015 5.66325 23.6252 7.4161 23.6252C9.16895 23.6252 10.5944 22.2015 10.5944 20.4508C10.5944 18.7001 9.16889 17.2764 7.4161 17.2764ZM7.4161 22.567C6.24751 22.567 5.29725 21.6179 5.29725 20.4508C5.29725 19.2837 6.24758 18.3346 7.4161 18.3346C8.58463 18.3346 9.53495 19.2837 9.53495 20.4508C9.53495 21.6179 8.58463 22.567 7.4161 22.567Z" fill="white"/>
<path d="M25.4273 17.2764C23.6745 17.2764 22.249 18.7001 22.249 20.4508C22.249 22.2015 23.6745 23.6252 25.4273 23.6252C27.1802 23.6252 28.6056 22.2015 28.6056 20.4508C28.6056 18.7001 27.1802 17.2764 25.4273 17.2764ZM25.4273 22.567C24.2587 22.567 23.3085 21.6179 23.3085 20.4508C23.3085 19.2837 24.2588 18.3346 25.4273 18.3346C26.5959 18.3346 27.5462 19.2837 27.5462 20.4508C27.5462 21.6179 26.5959 22.567 25.4273 22.567Z" fill="white"/>
<path d="M31.6975 14.3443L26.93 6.93737C26.8325 6.78603 26.6646 6.69452 26.4845 6.69452H20.6576C20.3647 6.69452 20.1279 6.93155 20.1279 7.22356V20.4502C20.1279 20.7428 20.3647 20.9792 20.6576 20.9792H22.7765V19.9211H21.1873V7.75267H26.1953L30.7222 14.7861V19.9212H28.0736V20.9793H31.2519C31.5449 20.9793 31.7816 20.7428 31.7816 20.4503V14.6305C31.7817 14.5295 31.7526 14.4294 31.6975 14.3443Z" fill="white"/>
<path d="M23.3084 13.5727V9.86925H27.5462V8.8111H22.7787C22.4858 8.8111 22.249 9.04812 22.249 9.34014V14.1017C22.249 14.3943 22.4858 14.6308 22.7787 14.6308H30.7245V13.5726H23.3084V13.5727Z" fill="white"/>
<path d="M20.659 2.99115H0.529697C0.237318 2.99115 0 3.22818 0 3.5202V20.4503C0 20.7429 0.237318 20.9794 0.529697 20.9794H4.76746V19.9212H1.05946V4.04924H20.1293V19.9212H10.0646V20.9794H20.659C20.9519 20.9794 21.1887 20.7429 21.1887 20.4503V3.5202C21.1887 3.22818 20.9519 2.99115 20.659 2.99115Z" fill="white"/>
<path d="M5.5 17.9999H1V18.9999H5.5V17.9999Z" fill="white"/>
<path d="M20.9995 18H8.99951V19H20.9995V18Z" fill="white"/>
<path d="M31.2536 17.8052H29.1348V18.8647H31.2536V17.8052Z" fill="white"/>
<path d="M20.6573 5.10768H2.11719V6.16714H20.6573V5.10768Z" fill="white"/>
<path d="M7.9452 19.9217H6.88574V20.9812H7.9452V19.9217Z" fill="white"/>
<path d="M25.954 19.9218H24.8945V20.9812H25.954V19.9218Z" fill="white"/>
<path d="M9.53326 0.875H2.11719V1.93446H9.53326V0.875Z" fill="white"/>
<path d="M1.05946 0.875H0V1.93446H1.05946V0.875Z" fill="white"/>
<defs>
<clipPath id="clip0_120_48489">
<rect width="8.39148" height="8.39148" fill="white" transform="translate(2 9.74341)"/>
</clipPath>
<clipPath id="clip1_120_48489">
<rect width="9.1798" height="9.1798" fill="white" transform="translate(9.77637 9)"/>
</clipPath>
</defs>
</svg>
