<svg width="39" height="20" viewBox="0 0 39 20" fill="none" xmlns="http://www.w3.org/2000/svg">
<g id="Group 664">
<path id="Vector" d="M34.2986 0.150789L32.5054 0.00696774C32.4118 0.00406222 32.3182 0.00406381 32.2289 0.00406381H32.2188C31.7118 -0.0104638 31.2164 0.0142303 30.7368 0.0737934C30.6993 0.0781517 30.6734 0.0810582 30.6503 0.0839638C30.6302 0.0868693 30.6158 0.0883219 30.6086 0.0883219H30.6043C28.5029 0.375968 26.655 1.33624 25.0463 2.89505C24.3621 3.55606 23.763 4.30277 23.1005 4.98993C22.9075 5.19041 22.6641 5.41704 22.4063 5.47515C20.9473 5.80348 19.6957 6.5037 18.7004 7.6078C17.518 8.92109 16.0604 9.70123 14.3912 10.1777C13.8237 10.339 13.2605 10.5162 12.7003 10.6949L11.2615 11.1642C10.9187 11.276 10.5745 11.3879 10.2317 11.4968C10.1525 11.5215 10.0689 11.5593 9.9897 11.552C9.32141 11.4881 8.64881 11.462 8.04102 11.0944C7.75152 10.923 7.40874 10.7908 7.08036 10.7516C5.63721 10.5729 4.31936 11.4474 3.72021 12.9685C3.51857 13.4828 3.38751 14.0246 3.21324 14.5491C2.73939 15.9888 1.98181 17.2105 0.607793 17.9543C0.410477 18.0589 0.203078 18.1505 0 18.2493C1.15798 18.088 2.18489 17.6478 2.77107 16.5931C3.20316 15.8173 3.49265 14.9573 3.83544 14.1321C4.04715 13.6222 4.17822 13.0716 4.44755 12.5966C5.06254 11.4954 6.33142 10.9332 7.34681 11.2949C7.99205 11.5259 8.60849 11.8368 9.25517 12.1201C8.57824 12.6649 8.00069 13.3607 7.70688 14.2251C7.41594 15.0822 7.09188 16.8749 7.14085 16.8851C7.23014 16.5844 7.32376 16.2808 7.41018 15.9757C8.05254 13.7806 9.38767 12.277 11.453 11.5012C11.6287 11.4344 11.8088 11.3719 11.9931 11.3167C12.297 11.2252 12.6038 11.1395 12.9062 11.0566C13.2375 10.9666 13.5702 10.8823 13.9044 10.8039C15.8847 10.3186 17.6822 9.52544 19.0547 7.9245C19.3284 7.60344 19.6726 7.33032 20.0154 7.07899C20.7312 6.54729 21.509 6.11291 22.4077 6.02574C22.8887 5.97635 23.171 5.72503 23.4476 5.38217C24.4255 4.15895 25.4654 2.9982 26.7544 2.08586C28.1889 1.06893 29.73 0.36144 31.4756 0.219069C31.4871 0.219069 31.5001 0.216165 31.5102 0.216165C31.6413 0.204543 31.7766 0.19873 31.9135 0.195825H31.938C32.1655 0.188561 32.3931 0.185659 32.612 0.185659H32.7128C32.7128 0.185659 32.7157 0.182753 32.7171 0.185659C32.9548 0.185659 33.1795 0.195826 33.3955 0.205995C33.7541 0.226334 34.084 0.25539 34.3763 0.288803C34.6557 0.320764 34.902 0.355632 35.1065 0.390498C35.5041 0.457325 35.759 0.519792 35.8252 0.53432C35.3413 0.352725 34.8185 0.229241 34.2971 0.14934L34.2986 0.150789Z" fill="#8B9299"/>
<path id="Vector_2" d="M6.91324 13.0642C6.84699 13.1368 6.77786 13.2036 6.71304 13.2748C6.65111 13.3489 6.58486 13.4186 6.52725 13.4927C6.41059 13.6438 6.29825 13.7949 6.20175 13.9576C6.00299 14.2787 5.846 14.6186 5.69909 14.9716C5.55075 15.3232 5.40672 15.6879 5.21949 16.0438C5.12875 16.2225 5.02073 16.3968 4.90263 16.5653C4.84069 16.6481 4.78164 16.7324 4.71251 16.8094L4.61169 16.9271L4.50223 17.0375C4.35532 17.1842 4.19257 17.3135 4.0255 17.4326C3.94197 17.4922 3.85123 17.5416 3.76481 17.5968C3.67696 17.6491 3.58478 17.6927 3.49404 17.7392C3.12677 17.9135 2.74367 18.0341 2.35767 18.1198C1.58425 18.2839 0.800743 18.3261 0.0258789 18.2694C0.786341 18.114 1.53816 17.96 2.25253 17.7304C2.60828 17.6113 2.95539 17.4776 3.27657 17.3048C3.59775 17.1333 3.893 16.9242 4.14505 16.6714C4.39997 16.4215 4.61313 16.128 4.79893 15.8055C4.9876 15.4859 5.15323 15.1387 5.34047 14.7944C5.52626 14.4501 5.73798 14.1073 6.00155 13.8051C6.26368 13.5044 6.5719 13.2458 6.91324 13.0598V13.0642Z" fill="#8B9299"/>
<path id="Vector_3" d="M4.40476 14.8851C4.33563 15.3805 4.17864 15.8701 3.92515 16.3161C3.67166 16.7621 3.30727 17.1456 2.88672 17.4405C2.46616 17.7354 1.99087 17.9388 1.50694 18.0754C1.02013 18.2061 0.521795 18.2672 0.0249023 18.2744C0.503072 18.135 0.976921 18.01 1.43061 17.8357C1.88285 17.6614 2.31637 17.4507 2.70524 17.1776C3.09412 16.9059 3.44122 16.5747 3.71631 16.181C3.99572 15.7887 4.20888 15.3471 4.4062 14.8866L4.40476 14.8851Z" fill="#8B9299"/>
<path id="Vector_4" d="M6.6273 12.3935C6.4199 12.5025 6.22979 12.607 6.0584 12.732C5.88556 12.8555 5.73145 12.9964 5.58743 13.1518C5.4434 13.3073 5.30801 13.4758 5.16975 13.6487C5.03148 13.8216 4.89322 14.0002 4.73047 14.1688C4.778 13.9378 4.85721 13.7213 4.95947 13.5136C5.06317 13.3058 5.19279 13.1083 5.35554 12.9339C5.5183 12.7596 5.71561 12.6114 5.93597 12.5155C6.15633 12.4196 6.39398 12.3732 6.6273 12.3949V12.3935Z" fill="#8B9299"/>
<path id="Vector_5" d="M39 7.89625C38.928 7.28028 38.8214 6.6614 38.6486 6.07013C38.313 4.92972 37.9227 3.80383 37.5597 2.67213C37.5396 2.61256 37.5252 2.55445 37.5165 2.5007C37.4849 2.30022 37.5338 2.12444 37.734 1.93994C37.7686 1.90797 37.8003 1.87456 37.8334 1.8426C38.1963 1.48522 38.5075 1.06974 38.8459 0.68185C38.8214 0.642626 38.7984 0.600492 38.7739 0.559814C38.2756 0.671677 37.747 0.705093 37.2818 0.885235C37.2371 0.902669 37.1925 0.920102 37.1478 0.940441C36.8583 1.07264 36.5775 1.13947 36.2981 1.15835C35.8948 1.19032 35.4958 1.13075 35.0739 1.0494C34.9774 1.03196 34.8794 1.01308 34.78 0.997096C34.5237 0.952061 34.2644 0.912835 34.008 0.882327C33.6595 0.840197 33.311 0.8155 32.961 0.805331C32.1501 0.780634 31.3392 0.844556 30.5284 1.03777C30.4866 1.04794 30.4448 1.05811 30.4031 1.06828C28.3478 1.59273 26.8197 2.90602 25.4543 4.45176C25.0395 4.921 24.6449 5.41349 24.1941 5.9481C26.6411 5.61251 28.7597 6.40136 29.3502 7.03622C28.306 6.70934 27.2575 6.54518 26.2003 6.51177C25.9123 6.5016 25.6228 6.50305 25.3333 6.51177C24.2862 6.54373 23.242 6.65559 22.2742 7.1074C22.002 7.23379 21.7557 7.41393 21.4979 7.56502C21.5036 7.56938 21.5094 7.57374 21.5152 7.57664C21.6592 7.67979 21.7629 7.69141 21.8623 7.71029C23.0937 7.95 24.1609 8.49333 24.9545 9.48556C25.0438 9.59743 25.1245 9.7122 25.195 9.82987C25.2109 9.85457 25.2238 9.87926 25.2383 9.90541C25.594 10.5359 25.702 11.2478 25.5263 11.9916C25.4442 12.3417 25.1821 12.5494 25.1763 12.5582C25.1734 12.5538 25.172 12.548 25.1677 12.5436C25.064 12.3606 24.9344 12.1848 24.8652 11.9872C24.7889 11.7678 24.7903 11.5223 24.7241 11.2986C24.5023 10.5635 24.1364 10.4313 23.5488 10.9238C23.0102 11.3771 22.5118 11.8754 22.0149 12.378C21.361 13.0405 20.6755 13.6637 19.8992 14.1518C19.5607 14.3654 19.2035 14.5528 18.8247 14.7068C18.348 14.9 17.8295 15.0424 17.3182 15.0918C16.6038 15.1615 16.251 14.6981 16.3792 13.9877C16.4108 13.8133 16.4541 13.639 16.5045 13.3848C16.4641 13.4051 16.4252 13.4269 16.3878 13.4487C15.7959 13.7843 15.3681 14.2303 14.9994 14.714C14.9202 14.8128 14.8482 14.9131 14.7761 15.0148C14.684 15.147 14.5903 15.2792 14.4996 15.4114C14.3513 15.6235 14.2058 15.837 14.0589 16.0491C13.5173 16.8322 12.9859 17.621 12.4357 18.3953C12.1477 18.8007 11.7933 19.1566 11.4722 19.5343C12.2182 18.9823 12.924 18.3808 13.5793 17.7329C13.8875 17.4263 14.1871 17.1082 14.4809 16.7886C14.7718 16.4719 15.0584 16.1494 15.3494 15.8341C15.3854 15.7934 15.4228 15.7528 15.4603 15.7121C15.4776 15.7252 15.4948 15.7411 15.5078 15.747V15.7513L15.4516 15.8719C15.3551 16.0753 15.2572 16.2816 15.1593 16.4893C15.1549 16.498 15.1521 16.5053 15.1477 16.514C15.0267 16.7712 14.9029 17.0341 14.7733 17.3058L16.382 17.1271C17.4882 16.9527 18.5741 16.7842 19.663 16.639C22.8661 16.2191 25.7351 15.009 28.2916 13.0274C28.3579 12.9751 28.4083 12.9025 28.5134 12.7862C27.8955 12.8037 27.5081 12.5683 27.3569 12.025C27.1668 11.3465 26.9767 10.6681 26.6396 10.0565C26.6252 10.0289 26.6094 10.0013 26.5935 9.97515C26.451 9.72963 26.2839 9.49428 26.0794 9.27637C26.4481 9.43472 26.7145 9.69476 26.9277 10.0057C26.9464 10.0333 26.9637 10.0594 26.9824 10.087C27.0256 10.1538 27.066 10.2221 27.1048 10.2918C27.3497 10.7262 27.5614 11.1795 27.8135 11.6095C28.1534 12.2008 28.633 12.4245 29.2753 12.2255C29.8111 12.0599 30.3325 11.826 30.8279 11.5645C31.0296 11.4584 31.2298 11.3495 31.43 11.239L34.1146 10.3659L33.2375 12.0686C33.1929 12.487 32.9667 12.3606 32.9667 12.3606C32.5505 11.9335 31.9197 12.2545 31.9197 12.2545L31.3882 13.979L32.2264 13.748C32.5519 13.6579 32.8458 13.4777 33.0632 13.2192C33.3801 12.8414 33.7531 12.8255 33.7531 12.8255C34.8477 13.0071 34.7656 12.5436 34.829 12.0787C34.8924 11.6139 35.5261 10.058 35.5261 10.058C35.5261 10.058 35.8703 9.72091 35.2006 9.12964C34.5424 8.54709 32.1659 9.1863 32.1083 9.20809C31.9874 9.22988 31.8664 9.24877 31.744 9.2662C31.3724 9.31705 30.995 9.3461 30.6133 9.35627C30.5068 9.35918 30.3987 9.35772 30.2922 9.35918C29.7621 9.36208 29.2278 9.39695 28.885 9.9766C28.9916 9.35627 29.2652 9.0294 29.7722 8.92335C29.8673 8.90301 29.9724 8.89139 30.0862 8.88558C30.4405 8.87396 30.7977 8.88558 31.175 8.88558H31.2154C31.2154 8.3684 31.1333 7.8948 31.0008 7.43572C30.9216 7.16261 30.8251 6.8953 30.7156 6.62799C30.5356 6.18199 30.3671 5.72292 30.2662 5.25368C30.2029 4.9457 30.2662 4.6072 30.2734 4.28469C30.321 4.28469 30.3627 4.28178 30.4088 4.28033C30.38 5.39169 30.8366 6.30112 31.4977 7.15389C31.5783 6.90983 31.623 6.70644 31.7094 6.52048C31.9888 5.93647 32.3762 5.4774 32.9264 5.23334C33.0992 5.15634 33.2865 5.09824 33.4924 5.06628C33.6177 5.04594 33.8727 5.14472 33.8842 5.22027C34.0153 5.98297 34.5553 6.24446 35.2107 6.39845C35.6039 6.49288 36.3024 7.22072 36.5256 7.74807C36.5717 7.85848 36.5976 7.95872 36.5962 8.04298C36.5861 8.42069 36.7906 8.54273 37.0398 8.70398C37.1507 8.77662 37.2587 8.83037 37.3682 8.87105C37.4532 8.90156 37.5338 8.92044 37.6145 8.93061C38.012 8.98582 38.3793 8.81584 38.7192 8.49624C38.7912 8.4236 38.8661 8.32481 38.9165 8.22021C38.9439 8.16791 38.964 8.11562 38.9784 8.06332C38.9928 8.00375 39 7.94855 38.9928 7.89915L39 7.89625Z" fill="#8B9299"/>
</g>
</svg>
