<svg width="24" height="24" viewBox="0 0 24 24" fill="none" xmlns="http://www.w3.org/2000/svg">
<mask id="mask0_434_7060" style="mask-type:alpha" maskUnits="userSpaceOnUse" x="0" y="0" width="24" height="24">
<rect width="23.2941" height="23.2941" fill="#FFFFFF"/>
</mask>
<g mask="url(#mask0_434_7060)">
<mask id="mask1_434_7060" style="mask-type:alpha" maskUnits="userSpaceOnUse" x="1" y="1" width="22" height="22">
<rect x="1.72559" y="1.72549" width="20.7059" height="20.7059" fill="#FFFFFF"/>
</mask>
<g mask="url(#mask1_434_7060)">
<path d="M20.6604 12.6496L20.5559 12.7068L20.2154 12.0881L20.2153 12.0878L19.42 10.6383L19.42 10.6381L17.5317 7.20116L17.5025 7.14801L17.4522 7.11414L12.1396 3.53838L12 3.44442L11.8604 3.53838L6.5478 7.11414L6.49748 7.14802L6.46827 7.20119L3.82901 12.0063L3.8284 12.0074L3.78474 12.0878L3.78404 12.0891L3.44407 12.7069L3.33963 12.6497L6.33401 7.19694L6.33429 7.19643L6.40616 7.06484L6.53057 6.98242L6.53057 6.98243L6.53209 6.98141L12.0001 3.30137L17.4681 6.98141L17.4696 6.98242L17.5941 7.06484L17.6659 7.19643L17.6662 7.19693L20.6604 12.6496ZM11.8736 12.267H7.89007H7.64007V12.517V20.245H4.50108V12.3347L7.06507 7.66623L11.9999 4.34692L16.9346 7.66659L19.4988 12.3347V20.2446H16.3594V12.517V12.267H16.1094H12.1259H12.1236H11.8759H11.8736ZM13.6601 9.99392H13.9101L13.9101 9.74393L13.9102 6.42078L13.9102 6.17076H13.6602H10.3397H10.0897V6.42076V9.74392V9.99392H10.3397H13.6601ZM10.9958 8.44396V7.71959L11.3584 8.08123L10.9958 8.44396ZM12.3627 9.08488H11.637L11.9999 8.72203L12.3627 9.08488ZM11.6371 7.07981H12.3627L11.9999 7.44255L11.6371 7.07981ZM13.004 8.44527L12.6411 8.08358L13.004 7.72076V8.44527ZM13.5601 17.2467L14.6733 17.2468L14.1167 17.8034L13.5601 17.2467ZM14.6733 15.7651H13.5602L14.1167 15.2086L14.6733 15.7651ZM14.8155 18.5017L15.3719 17.9453V19.0566L14.8155 18.5017ZM15.3719 15.0677L14.8155 14.5129L15.3719 13.9565V15.0677ZM14.6732 19.7537H13.5603L14.1167 19.1974L14.6732 19.7537ZM14.6731 13.2578L14.1167 13.814L13.5603 13.2578H14.6731ZM12.8616 13.955L13.4179 14.51L12.8616 15.0662V13.955ZM10.5821 14.5125L11.1381 13.9563V15.0672L10.5821 14.5125ZM10.5821 18.5014L11.1381 17.9452V19.0562L10.5821 18.5014ZM8.62788 13.955L9.18425 14.51L8.62788 15.0663V13.955ZM8.62788 17.9441L9.18424 18.4992L8.62788 19.0553V17.9441ZM9.32673 13.2579H10.4394L9.88316 13.8142L9.32673 13.2579ZM9.32649 17.2468H10.4396L9.88315 17.8034L9.32649 17.2468ZM12.8616 17.9444L13.4179 18.4993L12.8616 19.0555V17.9444ZM10.4396 15.7649H9.32664L9.88317 15.2085L10.4396 15.7649ZM10.4396 19.7536H9.32678L9.88329 19.1973L10.4396 19.7536Z" stroke="white" stroke-width="0.5"/>
</g>
</g>
</svg>
