<svg width="18" height="19" viewBox="0 0 18 19" fill="none" xmlns="http://www.w3.org/2000/svg">
<path d="M2 18.8145C1.45 18.8145 0.979167 18.6186 0.5875 18.227C0.195833 17.8353 0 17.3645 0 16.8145V2.81445C0 2.26445 0.195833 1.79362 0.5875 1.40195C0.979167 1.01029 1.45 0.814453 2 0.814453H16C16.55 0.814453 17.0208 1.01029 17.4125 1.40195C17.8042 1.79362 18 2.26445 18 2.81445V16.8145C18 17.3645 17.8042 17.8353 17.4125 18.227C17.0208 18.6186 16.55 18.8145 16 18.8145H2ZM2 16.8145H16V13.8145H13C12.5 14.4478 11.9042 14.9395 11.2125 15.2895C10.5208 15.6395 9.78333 15.8145 9 15.8145C8.21667 15.8145 7.47917 15.6395 6.7875 15.2895C6.09583 14.9395 5.5 14.4478 5 13.8145H2V16.8145ZM9 13.8145C9.63333 13.8145 10.2083 13.6311 10.725 13.2645C11.2417 12.8978 11.6 12.4145 11.8 11.8145H16V2.81445H2V11.8145H6.2C6.4 12.4145 6.75833 12.8978 7.275 13.2645C7.79167 13.6311 8.36667 13.8145 9 13.8145Z" fill="white"/>
</svg>
