<svg width="29" height="29" viewBox="0 0 29 29" fill="none" xmlns="http://www.w3.org/2000/svg">
<path d="M14.354 1.20825C7.09205 1.20825 1.20825 7.09205 1.20825 14.354C1.20825 21.616 7.09205 27.4998 14.354 27.4998C21.616 27.4998 27.4998 21.616 27.4998 14.354C27.4998 7.09205 21.616 1.20825 14.354 1.20825ZM14.354 6.29694C16.9302 6.29694 19.0187 8.38542 19.0187 10.9616C19.0187 13.5377 16.9302 15.6262 14.354 15.6262C11.7779 15.6262 9.6894 13.5377 9.6894 10.9616C9.6894 8.38542 11.7779 6.29694 14.354 6.29694ZM14.354 24.5314C11.2425 24.5314 8.45433 23.1214 6.58848 20.9163C7.58501 19.0399 9.53568 17.7465 11.8097 17.7465C11.9369 17.7465 12.0641 17.7677 12.186 17.8048C12.8751 18.0274 13.596 18.1705 14.354 18.1705C15.112 18.1705 15.8382 18.0274 16.522 17.8048C16.6439 17.7677 16.7712 17.7465 16.8984 17.7465C19.1724 17.7465 21.123 19.0399 22.1196 20.9163C20.2537 23.1214 17.4656 24.5314 14.354 24.5314Z" fill="#D0D3D6"/>
</svg>
